<svg width="40" height="40" viewBox="0 0 40 40" fill="none" xmlns="http://www.w3.org/2000/svg">
<path d="M32.8953 38.6188H7.10473C5.86255 38.6188 4.75753 37.9723 4.14865 36.8896C3.53978 35.8069 3.56175 34.5269 4.20713 33.4656C4.2137 33.4548 4.22059 33.4442 4.22778 33.4339L16.2182 16.3261V8.94608C16.2182 8.79177 16.2795 8.64378 16.3886 8.53467C16.4977 8.42556 16.6457 8.36426 16.8 8.36426H23.2C23.3543 8.36426 23.5023 8.42556 23.6114 8.53467C23.7205 8.64378 23.7818 8.79177 23.7818 8.94608V16.3261L35.7721 33.4339C35.7794 33.4443 35.7863 33.4547 35.7928 33.4656C36.4383 34.5269 36.4601 35.8069 35.8513 36.8896C35.2425 37.9724 34.1375 38.6188 32.8953 38.6188ZM5.19222 34.0853C4.77724 34.7795 4.76604 35.6133 5.16298 36.3193C5.56291 37.0305 6.2888 37.4552 7.10473 37.4552H32.8953C33.7113 37.4552 34.4371 37.0305 34.837 36.3193C35.234 35.6133 35.2228 34.7796 34.8079 34.0854L22.7236 16.8436C22.655 16.7458 22.6182 16.6292 22.6182 16.5097V9.52789H17.3818V16.5097C17.3818 16.6292 17.345 16.7458 17.2764 16.8436L5.19222 34.0853Z" fill="white"/>
<path d="M25.2364 9.52808H14.7637C14.6094 9.52808 14.4614 9.46678 14.3523 9.35767C14.2431 9.24856 14.1818 9.10057 14.1818 8.94626V5.45535C14.1818 5.30105 14.2431 5.15306 14.3523 5.04395C14.4614 4.93483 14.6094 4.87354 14.7637 4.87354H25.2364C25.3907 4.87354 25.5387 4.93483 25.6478 5.04395C25.7569 5.15306 25.8182 5.30105 25.8182 5.45535V8.94626C25.8182 9.10057 25.7569 9.24856 25.6478 9.35767C25.5387 9.46678 25.3907 9.52808 25.2364 9.52808ZM15.3455 8.36444H24.6546V6.03717H15.3455V8.36444ZM13.7644 26.9826H9.89093C9.73662 26.9826 9.58863 26.9213 9.47952 26.8122C9.37041 26.7031 9.30911 26.5551 9.30911 26.4008C9.30911 26.2465 9.37041 26.0985 9.47952 25.9894C9.58863 25.8803 9.73662 25.819 9.89093 25.819H13.7644C15.451 25.819 17.0983 25.3466 18.528 24.4529C19.3306 23.9508 20.1997 23.5639 21.1098 23.3032C22.0197 23.0422 22.9617 22.9098 23.9084 22.9099H28.0728C28.2271 22.9099 28.375 22.9712 28.4842 23.0803C28.5933 23.1894 28.6546 23.3374 28.6546 23.4917C28.6546 23.646 28.5933 23.794 28.4842 23.9031C28.375 24.0122 28.2271 24.0735 28.0728 24.0735H23.9084C23.0694 24.0735 22.2357 24.1907 21.4303 24.4218C20.6247 24.6526 19.8553 24.9951 19.1448 25.4396C17.5316 26.4485 15.6671 26.9832 13.7644 26.9826Z" fill="white"/>
<path d="M17.6727 6.03687C17.5184 6.03687 17.3704 5.97557 17.2613 5.86646C17.1522 5.75735 17.0909 5.60936 17.0909 5.45505V3.12778C17.0909 2.97347 17.1522 2.82548 17.2613 2.71637C17.3704 2.60726 17.5184 2.54596 17.6727 2.54596C17.827 2.54596 17.975 2.60726 18.0841 2.71637C18.1932 2.82548 18.2545 2.97347 18.2545 3.12778V5.45505C18.2545 5.60936 18.1932 5.75735 18.0841 5.86646C17.975 5.97557 17.827 6.03687 17.6727 6.03687ZM22.3273 6.03687C22.173 6.03687 22.025 5.97557 21.9159 5.86646C21.8067 5.75735 21.7454 5.60936 21.7454 5.45505V3.12778C21.7454 2.97347 21.8067 2.82548 21.9159 2.71637C22.025 2.60726 22.173 2.54596 22.3273 2.54596C22.4816 2.54596 22.6296 2.60726 22.7387 2.71637C22.8478 2.82548 22.9091 2.97347 22.9091 3.12778V5.45505C22.9091 5.60936 22.8478 5.75735 22.7387 5.86646C22.6296 5.97557 22.4816 6.03687 22.3273 6.03687ZM20 3.7096C19.8457 3.7096 19.6977 3.6483 19.5886 3.53919C19.4795 3.43007 19.4182 3.28209 19.4182 3.12778V1.96414C19.4182 1.80983 19.4795 1.66185 19.5886 1.55273C19.6977 1.44362 19.8457 1.38232 20 1.38232C20.1543 1.38232 20.3023 1.44362 20.4114 1.55273C20.5205 1.66185 20.5818 1.80983 20.5818 1.96414V3.12778C20.5818 3.28209 20.5205 3.43007 20.4114 3.53919C20.3023 3.6483 20.1543 3.7096 20 3.7096ZM15.3454 3.7096C15.1911 3.7096 15.0432 3.6483 14.934 3.53919C14.8249 3.43007 14.7636 3.28209 14.7636 3.12778V1.96414C14.7636 1.80983 14.8249 1.66185 14.934 1.55273C15.0432 1.44362 15.1911 1.38232 15.3454 1.38232C15.4998 1.38232 15.6477 1.44362 15.7569 1.55273C15.866 1.66185 15.9273 1.80983 15.9273 1.96414V3.12778C15.9273 3.28209 15.866 3.43007 15.7569 3.53919C15.6477 3.6483 15.4998 3.7096 15.3454 3.7096ZM24.6545 3.7096C24.5002 3.7096 24.3522 3.6483 24.2431 3.53919C24.134 3.43007 24.0727 3.28209 24.0727 3.12778V1.96414C24.0727 1.80983 24.134 1.66185 24.2431 1.55273C24.3522 1.44362 24.5002 1.38232 24.6545 1.38232C24.8088 1.38232 24.9568 1.44362 25.0659 1.55273C25.1751 1.66185 25.2364 1.80983 25.2364 1.96414V3.12778C25.2364 3.28209 25.1751 3.43007 25.0659 3.53919C24.9568 3.6483 24.8088 3.7096 24.6545 3.7096ZM14.1818 35.1278C13.2193 35.1278 12.4364 34.3447 12.4364 33.3823C12.4364 32.4199 13.2193 31.6369 14.1818 31.6369C15.1443 31.6369 15.9273 32.4199 15.9273 33.3823C15.9273 34.3447 15.1443 35.1278 14.1818 35.1278ZM14.1818 32.8005C13.861 32.8005 13.6 33.0615 13.6 33.3823C13.6 33.7031 13.861 33.9641 14.1818 33.9641C14.5026 33.9641 14.7636 33.7031 14.7636 33.3823C14.7636 33.0615 14.5026 32.8005 14.1818 32.8005ZM27.5636 36.0005C26.6012 36.0005 25.8182 35.2175 25.8182 34.2551C25.8182 33.2927 26.6012 32.5096 27.5636 32.5096C28.526 32.5096 29.3091 33.2927 29.3091 34.2551C29.3091 35.2175 28.526 36.0005 27.5636 36.0005ZM27.5636 33.6732C27.2428 33.6732 26.9818 33.9343 26.9818 34.2551C26.9818 34.5759 27.2428 34.8369 27.5636 34.8369C27.8844 34.8369 28.1454 34.5759 28.1454 34.2551C28.1454 33.9343 27.8844 33.6732 27.5636 33.6732ZM19.6364 21.6005C18.6739 21.6005 17.8909 20.8175 17.8909 19.8551C17.8909 18.8926 18.6739 18.1096 19.6364 18.1096C20.5988 18.1096 21.3818 18.8926 21.3818 19.8551C21.3818 20.8175 20.5988 21.6005 19.6364 21.6005ZM19.6364 19.2732C19.3156 19.2732 19.0545 19.5343 19.0545 19.8551C19.0545 20.1759 19.3156 20.4369 19.6364 20.4369C19.9572 20.4369 20.2182 20.1759 20.2182 19.8551C20.2182 19.5343 19.9572 19.2732 19.6364 19.2732ZM21.7454 31.0551C20.4622 31.0551 19.4182 30.0111 19.4182 28.7278C19.4182 27.4445 20.4622 26.4005 21.7454 26.4005C23.0287 26.4005 24.0727 27.4445 24.0727 28.7278C24.0727 30.0111 23.0287 31.0551 21.7454 31.0551ZM21.7454 27.5641C21.1038 27.5641 20.5818 28.0862 20.5818 28.7278C20.5818 29.3694 21.1038 29.8914 21.7454 29.8914C22.387 29.8914 22.9091 29.3694 22.9091 28.7278C22.9091 28.0862 22.387 27.5641 21.7454 27.5641Z" fill="white"/>
</svg>
