<svg width="10" height="9" viewBox="0 0 10 9" fill="none" xmlns="http://www.w3.org/2000/svg">
<path d="M4.77043 5.36148C3.81633 5.36148 2.92631 4.85595 2.44926 4.04425C2.20717 3.63128 2.07901 3.16135 2.07901 2.6843C2.07901 1.20331 3.28232 0 4.76331 0C6.24431 0 7.44762 1.20331 7.44762 2.6843C7.44762 3.16135 7.31945 3.63128 7.07736 4.04425C6.99904 4.17241 6.83528 4.21514 6.71424 4.13682C6.58608 4.05849 6.54335 3.89473 6.62167 3.77369C6.81392 3.44616 6.92072 3.06879 6.92072 2.6843C6.92072 1.50235 5.95949 0.534012 4.77043 0.534012C3.58136 0.534012 2.62015 1.49523 2.62015 2.6843C2.62015 3.06879 2.71983 3.44616 2.91919 3.77369C3.30368 4.42874 4.01569 4.83459 4.77043 4.83459C4.91995 4.83459 5.041 4.95563 5.041 5.10516C5.03388 5.24044 4.91995 5.36148 4.77043 5.36148Z" fill="#636363"/>
<path d="M2.6843 9.0001C1.20331 9.0001 0 7.79679 0 6.31579C0 4.84192 1.20331 3.63861 2.67719 3.63149C2.82671 3.63149 2.94775 3.75253 2.94775 3.89494C2.94775 4.04446 2.82671 4.1655 2.6843 4.1655C1.50236 4.1655 0.541139 5.13385 0.541139 6.31579C0.541139 7.49774 1.50235 8.46608 2.69142 8.46608C3.45328 8.46608 4.1653 8.06023 4.54267 7.39806C4.73491 7.07053 4.8346 6.69316 4.8346 6.31579C4.8346 5.93842 4.73491 5.56106 4.54267 5.23353L4.50707 5.16945V5.09825L4.77051 5.09113L4.96988 4.91312C4.98412 4.92736 4.99835 4.94872 5.00547 4.96296C5.24756 5.37593 5.36861 5.83874 5.36861 6.31579C5.36861 6.78572 5.24044 7.25565 5.00547 7.66862C4.5213 8.48744 3.63129 9.0001 2.6843 9.0001Z" fill="#636363"/>
<path d="M6.85675 9.0001C5.90977 9.0001 5.01975 8.48744 4.5427 7.66862C4.4715 7.54046 4.51422 7.3767 4.63527 7.3055C4.76343 7.22717 4.92719 7.27702 4.99839 7.39806C5.38288 8.05311 6.0949 8.46608 6.84964 8.46608C8.03158 8.46608 8.99992 7.50486 8.99992 6.31579C8.99992 5.13385 8.03871 4.1655 6.84964 4.1655C6.08778 4.17262 5.38288 4.57135 4.99839 5.22641C4.95567 5.31185 4.86311 5.36169 4.76342 5.36169C4.6139 5.36169 4.49285 5.24065 4.49285 5.09113C4.49285 5.02704 4.52134 4.95584 4.56406 4.91312C5.01263 4.14414 5.89553 3.63861 6.83539 3.63149C8.32351 3.63149 9.52682 4.8348 9.52682 6.31579C9.53394 7.79679 8.33063 9.0001 6.85675 9.0001Z" fill="#636363"/>
</svg>
