<svg width="142" height="85" viewBox="0 0 142 85" fill="none" xmlns="http://www.w3.org/2000/svg">
<path d="M140.88 83.4181H1.11966V1.11972H140.88V83.4181ZM1.46741 83.0704H140.532V1.46747H1.46741V83.0704Z" fill="#0C0C0C"/>
<path d="M124.606 0C124.251 0 123.959 0.285155 123.959 0.646814C123.959 1.00152 124.244 1.29363 124.606 1.29363H140.706V16.3651C140.706 16.7198 140.992 17.0119 141.353 17.0119C141.708 17.0119 142 16.7267 142 16.3651V0H124.606Z" fill="#0C0C0C"/>
<path d="M9.85522 83.2444H1.29363V75.7052C1.29363 75.3505 1.00847 75.0584 0.646814 75.0584C0.29211 75.0584 0 75.3436 0 75.7052V83.2444V84.5311H1.28667H9.84826C10.203 84.5311 10.4951 84.246 10.4951 83.8843C10.502 83.5365 10.2099 83.2444 9.85522 83.2444Z" fill="#0C0C0C"/>
<path d="M0.000214294 0H17.3877C17.7424 0 18.0345 0.285155 18.0345 0.646814C18.0345 1.00152 17.7493 1.29363 17.3877 1.29363H1.29384V16.3651C1.29384 16.7198 1.00869 17.0119 0.647029 17.0119C0.292324 17.0119 0.000214294 16.7267 0.000214294 16.3651V0Z" fill="#0C0C0C"/>
<path d="M132.145 83.2444H140.706V75.7052C140.706 75.3505 140.991 75.0584 141.353 75.0584C141.708 75.0584 142 75.3436 142 75.7052V83.2444V84.5311H140.713H132.152C131.797 84.5311 131.505 84.246 131.505 83.8843C131.498 83.5365 131.79 83.2444 132.145 83.2444Z" fill="#0C0C0C"/>
</svg>
