<svg width="27" height="27" viewBox="0 0 27 27" fill="none" xmlns="http://www.w3.org/2000/svg">
<mask id="mask0_0_4088" style="mask-type:alpha" maskUnits="userSpaceOnUse" x="-8" y="-6" width="41" height="41">
<rect x="-7.83044" y="-5.94925" width="40.7153" height="40.7153" fill="#FF6B59"/>
</mask>
<g mask="url(#mask0_0_4088)">
<path d="M19.8292 14.3418L12.6583 7.1709L19.8292 0L27 7.1709L19.8292 14.3418ZM0 12.058V1.87918H10.1788V12.058H0ZM14.8768 26.9348V16.756H25.0556V26.9348H14.8768ZM0 26.9348V16.756H10.1788V26.9348H0ZM1.69647 10.3615H8.48236V3.57565H1.69647V10.3615ZM19.8716 12.0058L24.6641 7.21332L19.8716 2.42078L15.079 7.21332L19.8716 12.0058ZM16.5733 25.2383H23.3591V18.4524H16.5733V25.2383ZM1.69647 25.2383H8.48236V18.4524H1.69647V25.2383Z" fill="#0C0C0C"/>
</g>
</svg>
