<svg width="24" height="101" viewBox="0 0 24 101" fill="none" xmlns="http://www.w3.org/2000/svg">
<path d="M23.653 0.693928H15.201C15.0067 0.693928 14.854 0.541264 14.854 0.346964C14.854 0.152664 15.0067 0 15.201 0H23.653C23.8473 0 24 0.152664 24 0.346964C24 0.541264 23.8473 0.693928 23.653 0.693928Z" fill="#636363"/>
<path d="M23.653 3.39356H15.201C15.0067 3.39356 14.854 3.24089 14.854 3.04659C14.854 2.85229 15.0067 2.69963 15.201 2.69963H23.653C23.8473 2.69963 24 2.85229 24 3.04659C24 3.24089 23.8473 3.39356 23.653 3.39356Z" fill="#636363"/>
<path d="M23.653 6.09954H15.201C15.0067 6.09954 14.854 5.94688 14.854 5.75258C14.854 5.55828 15.0067 5.40561 15.201 5.40561H23.653C23.8473 5.40561 24 5.55828 24 5.75258C24 5.93994 23.8473 6.09954 23.653 6.09954Z" fill="#636363"/>
<path d="M23.653 8.79917H15.201C15.0067 8.79917 14.854 8.64651 14.854 8.45221C14.854 8.25791 15.0067 8.10525 15.201 8.10525H23.653C23.8473 8.10525 24 8.25791 24 8.45221C24 8.64651 23.8473 8.79917 23.653 8.79917Z" fill="#636363"/>
<path d="M23.653 11.5052H15.201C15.0067 11.5052 14.854 11.3525 14.854 11.1582C14.854 10.9639 15.0067 10.8112 15.201 10.8112H23.653C23.8473 10.8112 24 10.9639 24 11.1582C24 11.3456 23.8473 11.5052 23.653 11.5052Z" fill="#636363"/>
<path d="M23.653 14.2048H15.201C15.0067 14.2048 14.854 14.0521 14.854 13.8578C14.854 13.6635 15.0067 13.5109 15.201 13.5109H23.653C23.8473 13.5109 24 13.6635 24 13.8578C24 14.0521 23.8473 14.2048 23.653 14.2048Z" fill="#636363"/>
<path d="M23.653 16.9113H15.201C15.0067 16.9113 14.854 16.7586 14.854 16.5643C14.854 16.37 15.0067 16.2173 15.201 16.2173H23.653C23.8473 16.2173 24 16.37 24 16.5643C24 16.7586 23.8473 16.9113 23.653 16.9113Z" fill="#636363"/>
<path d="M23.653 19.6104H15.201C15.0067 19.6104 14.854 19.4577 14.854 19.2634C14.854 19.0691 15.0067 18.9165 15.201 18.9165H23.653C23.8473 18.9165 24 19.0691 24 19.2634C24 19.4577 23.8473 19.6104 23.653 19.6104Z" fill="#636363"/>
<path d="M23.653 22.3169H15.201C15.0067 22.3169 14.854 22.1642 14.854 21.9699C14.854 21.7756 15.0067 21.6229 15.201 21.6229H23.653C23.8473 21.6229 24 21.7756 24 21.9699C24 22.1642 23.8473 22.3169 23.653 22.3169Z" fill="#636363"/>
<path d="M23.653 25.0233H15.201C15.0067 25.0233 14.854 24.8707 14.854 24.6764C14.854 24.4821 15.0067 24.3294 15.201 24.3294H23.653C23.8473 24.3294 24 24.4821 24 24.6764C24 24.8637 23.8473 25.0233 23.653 25.0233Z" fill="#636363"/>
<path d="M23.653 27.7225H15.201C15.0067 27.7225 14.854 27.5698 14.854 27.3755C14.854 27.1812 15.0067 27.0286 15.201 27.0286H23.653C23.8473 27.0286 24 27.1812 24 27.3755C24 27.5698 23.8473 27.7225 23.653 27.7225Z" fill="#636363"/>
<path d="M23.653 30.429H15.201C15.0067 30.429 14.854 30.2763 14.854 30.082C14.854 29.8877 15.0067 29.735 15.201 29.735H23.653C23.8473 29.735 24 29.8877 24 30.082C24 30.2694 23.8473 30.429 23.653 30.429Z" fill="#636363"/>
<path d="M23.653 33.1281H15.201C15.0067 33.1281 14.854 32.9754 14.854 32.7811C14.854 32.5868 15.0067 32.4342 15.201 32.4342H23.653C23.8473 32.4342 24 32.5868 24 32.7811C24 32.9754 23.8473 33.1281 23.653 33.1281Z" fill="#636363"/>
<path d="M23.653 35.8346H15.201C15.0067 35.8346 14.854 35.6819 14.854 35.4876C14.854 35.2933 15.0067 35.1407 15.201 35.1407H23.653C23.8473 35.1407 24 35.2933 24 35.4876C24 35.675 23.8473 35.8346 23.653 35.8346Z" fill="#636363"/>
<path d="M23.653 38.5337H15.201C15.0067 38.5337 14.854 38.3811 14.854 38.1868C14.854 37.9925 15.0067 37.8398 15.201 37.8398H23.653C23.8473 37.8398 24 37.9925 24 38.1868C24 38.3811 23.8473 38.5337 23.653 38.5337Z" fill="#636363"/>
<path d="M23.653 41.2402H15.201C15.0067 41.2402 14.854 41.0875 14.854 40.8932C14.854 40.6989 15.0067 40.5463 15.201 40.5463H23.653C23.8473 40.5463 24 40.6989 24 40.8932C24 41.0806 23.8473 41.2402 23.653 41.2402Z" fill="#636363"/>
<path d="M23.653 43.9393H15.201C15.0067 43.9393 14.854 43.7867 14.854 43.5924C14.854 43.3981 15.0067 43.2454 15.201 43.2454H23.653C23.8473 43.2454 24 43.3981 24 43.5924C24 43.7867 23.8473 43.9393 23.653 43.9393Z" fill="#636363"/>
<path d="M23.653 46.6458H9.23317C9.03887 46.6458 8.8862 46.4931 8.8862 46.2988C8.8862 46.1045 9.03887 45.9519 9.23317 45.9519H23.653C23.8473 45.9519 23.9999 46.1045 23.9999 46.2988C23.9999 46.4931 23.8473 46.6458 23.653 46.6458Z" fill="#636363"/>
<path d="M23.653 49.3523H15.201C15.0067 49.3523 14.854 49.1996 14.854 49.0053C14.854 48.811 15.0067 48.6584 15.201 48.6584H23.653C23.8473 48.6584 24 48.811 24 49.0053C24 49.1927 23.8473 49.3523 23.653 49.3523Z" fill="#636363"/>
<path d="M23.653 52.0514H15.201C15.0067 52.0514 14.854 51.8988 14.854 51.7045C14.854 51.5102 15.0067 51.3575 15.201 51.3575H23.653C23.8473 51.3575 24 51.5102 24 51.7045C24 51.8988 23.8473 52.0514 23.653 52.0514Z" fill="#636363"/>
<path d="M23.653 54.7579H15.201C15.0067 54.7579 14.854 54.6052 14.854 54.4109C14.854 54.2166 15.0067 54.064 15.201 54.064H23.653C23.8473 54.064 24 54.2166 24 54.4109C24 54.5983 23.8473 54.7579 23.653 54.7579Z" fill="#636363"/>
<path d="M23.653 57.4575H15.201C15.0067 57.4575 14.854 57.3049 14.854 57.1106C14.854 56.9163 15.0067 56.7636 15.201 56.7636H23.653C23.8473 56.7636 24 56.9163 24 57.1106C24 57.3049 23.8473 57.4575 23.653 57.4575Z" fill="#636363"/>
<path d="M23.653 60.1635H15.201C15.0067 60.1635 14.854 60.0108 14.854 59.8165C14.854 59.6222 15.0067 59.4696 15.201 59.4696H23.653C23.8473 59.4696 24 59.6222 24 59.8165C24 60.0039 23.8473 60.1635 23.653 60.1635Z" fill="#636363"/>
<path d="M23.653 62.8631H15.201C15.0067 62.8631 14.854 62.7105 14.854 62.5162C14.854 62.3219 15.0067 62.1692 15.201 62.1692H23.653C23.8473 62.1692 24 62.3219 24 62.5162C24 62.7105 23.8473 62.8631 23.653 62.8631Z" fill="#636363"/>
<path d="M23.653 65.5691H15.201C15.0067 65.5691 14.854 65.4165 14.854 65.2222C14.854 65.0279 15.0067 64.8752 15.201 64.8752H23.653C23.8473 64.8752 24 65.0279 24 65.2222C24 65.4095 23.8473 65.5691 23.653 65.5691Z" fill="#636363"/>
<path d="M23.653 68.2688H15.201C15.0067 68.2688 14.854 68.1161 14.854 67.9218C14.854 67.7275 15.0067 67.5748 15.201 67.5748H23.653C23.8473 67.5748 24 67.7275 24 67.9218C24 68.1161 23.8473 68.2688 23.653 68.2688Z" fill="#636363"/>
<path d="M23.653 70.9752H15.201C15.0067 70.9752 14.854 70.8226 14.854 70.6283C14.854 70.434 15.0067 70.2813 15.201 70.2813H23.653C23.8473 70.2813 24 70.434 24 70.6283C24 70.8156 23.8473 70.9752 23.653 70.9752Z" fill="#636363"/>
<path d="M23.653 73.6744H15.201C15.0067 73.6744 14.854 73.5217 14.854 73.3274C14.854 73.1331 15.0067 72.9804 15.201 72.9804H23.653C23.8473 72.9804 24 73.1331 24 73.3274C24 73.5217 23.8473 73.6744 23.653 73.6744Z" fill="#636363"/>
<path d="M23.653 76.3808H15.201C15.0067 76.3808 14.854 76.2282 14.854 76.0339C14.854 75.8396 15.0067 75.6869 15.201 75.6869H23.653C23.8473 75.6869 24 75.8396 24 76.0339C24 76.2282 23.8473 76.3808 23.653 76.3808Z" fill="#636363"/>
<path d="M23.653 79.08H15.201C15.0067 79.08 14.854 78.9273 14.854 78.733C14.854 78.5387 15.0067 78.3861 15.201 78.3861H23.653C23.8473 78.3861 24 78.5387 24 78.733C24 78.9273 23.8473 79.08 23.653 79.08Z" fill="#636363"/>
<path d="M23.653 81.7865H15.201C15.0067 81.7865 14.854 81.6338 14.854 81.4395C14.854 81.2452 15.0067 81.0925 15.201 81.0925H23.653C23.8473 81.0925 24 81.2452 24 81.4395C24 81.6338 23.8473 81.7865 23.653 81.7865Z" fill="#636363"/>
<path d="M23.653 84.4929H15.201C15.0067 84.4929 14.854 84.3403 14.854 84.146C14.854 83.9517 15.0067 83.799 15.201 83.799H23.653C23.8473 83.799 24 83.9517 24 84.146C24 84.3333 23.8473 84.4929 23.653 84.4929Z" fill="#636363"/>
<path d="M23.653 87.1921H15.201C15.0067 87.1921 14.854 87.0394 14.854 86.8451C14.854 86.6508 15.0067 86.4981 15.201 86.4981H23.653C23.8473 86.4981 24 86.6508 24 86.8451C24 87.0394 23.8473 87.1921 23.653 87.1921Z" fill="#636363"/>
<path d="M23.653 89.8985H15.201C15.0067 89.8985 14.854 89.7459 14.854 89.5516C14.854 89.3573 15.0067 89.2046 15.201 89.2046H23.653C23.8473 89.2046 24 89.3573 24 89.5516C24 89.7459 23.8473 89.8985 23.653 89.8985Z" fill="#636363"/>
<path d="M23.653 92.5977H15.201C15.0067 92.5977 14.854 92.445 14.854 92.2507C14.854 92.0564 15.0067 91.9038 15.201 91.9038H23.653C23.8473 91.9038 24 92.0564 24 92.2507C24 92.445 23.8473 92.5977 23.653 92.5977Z" fill="#636363"/>
<path d="M23.653 95.3042H15.201C15.0067 95.3042 14.854 95.1515 14.854 94.9572C14.854 94.7629 15.0067 94.6102 15.201 94.6102H23.653C23.8473 94.6102 24 94.7629 24 94.9572C24 95.1515 23.8473 95.3042 23.653 95.3042Z" fill="#636363"/>
<path d="M23.653 98.0033H15.201C15.0067 98.0033 14.854 97.8506 14.854 97.6563C14.854 97.462 15.0067 97.3094 15.201 97.3094H23.653C23.8473 97.3094 24 97.462 24 97.6563C24 97.8506 23.8473 98.0033 23.653 98.0033Z" fill="#636363"/>
<path d="M23.653 100.71H15.201C15.0067 100.71 14.854 100.557 14.854 100.363C14.854 100.169 15.0067 100.016 15.201 100.016H23.653C23.8473 100.016 24 100.169 24 100.363C24 100.55 23.8473 100.71 23.653 100.71Z" fill="#636363"/>
<path d="M4.76436 46.2987C4.76436 47.0204 4.17453 47.6102 3.45284 47.6102C2.73116 47.6102 2.14131 47.0204 2.14131 46.2987C2.14131 45.577 2.73116 44.9872 3.45284 44.9872C4.17453 44.9872 4.76436 45.577 4.76436 46.2987Z" fill="#636363"/>
<path d="M5.24312 49.2548C5.1876 49.2548 5.1321 49.227 5.0974 49.1785L4.27857 47.9641C4.22305 47.8877 4.24388 47.7767 4.32715 47.7212C4.40348 47.6657 4.51449 47.6865 4.57001 47.7698L5.38886 48.9842C5.44437 49.0605 5.42355 49.1715 5.34028 49.227C5.31252 49.2478 5.27781 49.2548 5.24312 49.2548Z" fill="#636363"/>
<path d="M6.33272 48.075C6.30497 48.075 6.27721 48.068 6.24945 48.0542L4.95181 47.3741C4.86854 47.3325 4.83384 47.2284 4.88242 47.1382C4.92405 47.0549 5.03508 47.0202 5.11835 47.0688L6.41599 47.7488C6.49926 47.7905 6.53396 47.8946 6.48539 47.9848C6.45763 48.0403 6.39518 48.075 6.33272 48.075Z" fill="#636363"/>
<path d="M5.27087 46.5208C5.17372 46.5208 5.09739 46.4445 5.09739 46.3473C5.09739 46.2502 5.17372 46.1738 5.27087 46.1738L6.73505 46.1669C6.8322 46.1669 6.90853 46.2432 6.90853 46.3404C6.90853 46.4375 6.8322 46.5139 6.73505 46.5139L5.27087 46.5208Z" fill="#636363"/>
<path d="M5.06961 45.6393C5.00715 45.6393 4.9447 45.6046 4.91694 45.5491C4.87531 45.4658 4.90307 45.3617 4.98634 45.3132L6.27706 44.6192C6.36033 44.5776 6.46441 44.6054 6.51299 44.6886C6.55463 44.7719 6.52686 44.876 6.44359 44.9246L5.15288 45.6185C5.12512 45.6324 5.09737 45.6393 5.06961 45.6393Z" fill="#636363"/>
<path d="M4.47976 44.9595C4.44506 44.9595 4.41038 44.9526 4.38262 44.9318C4.30629 44.8763 4.28547 44.7722 4.33404 44.6889L5.14595 43.4745C5.20146 43.3982 5.30555 43.3774 5.38883 43.426C5.46516 43.4815 5.48596 43.5856 5.43738 43.6688L4.6255 44.8832C4.5908 44.9318 4.53527 44.9595 4.47976 44.9595Z" fill="#636363"/>
<path d="M3.64022 44.6333C3.52919 44.6194 3.4598 44.5361 3.46674 44.439L3.61246 42.9817C3.6194 42.8846 3.70268 42.8082 3.79983 42.8291C3.89698 42.836 3.96638 42.9262 3.9525 43.0164L3.80678 44.4737C3.80678 44.5708 3.73043 44.6333 3.64022 44.6333Z" fill="#636363"/>
<path d="M2.74501 44.744C2.67562 44.744 2.61318 44.7024 2.58542 44.633L2.03027 43.2799C1.99557 43.1896 2.03722 43.0925 2.12743 43.0509C2.21764 43.0162 2.31478 43.0578 2.35642 43.148L2.91157 44.5012C2.94627 44.5914 2.90462 44.6885 2.81441 44.7302C2.79359 44.7371 2.77277 44.744 2.74501 44.744Z" fill="#636363"/>
<path d="M2.00939 45.2579C1.96775 45.2579 1.93308 45.244 1.89838 45.2162L0.774198 44.2794C0.697866 44.217 0.690928 44.106 0.753381 44.0366C0.815835 43.9602 0.926868 43.9533 0.99626 44.0157L2.12042 44.9525C2.19675 45.015 2.20369 45.126 2.14124 45.1954C2.10654 45.2371 2.05796 45.2579 2.00939 45.2579Z" fill="#636363"/>
<path d="M1.60004 46.0626C1.58617 46.0626 1.57924 46.0626 1.56536 46.0626L0.135867 45.7643C0.0456565 45.7434 -0.0167987 45.6532 0.00401909 45.5561C0.0248369 45.4659 0.115039 45.4104 0.212189 45.4242L1.64168 45.7226C1.73189 45.7434 1.79434 45.8337 1.77353 45.9308C1.75271 46.0071 1.67638 46.0626 1.60004 46.0626Z" fill="#636363"/>
<path d="M0.20526 47.3673C0.128928 47.3673 0.0595212 47.3187 0.0387034 47.2424C0.0109462 47.1522 0.0664698 47.055 0.15668 47.0273L1.56535 46.6178C1.65556 46.5901 1.75271 46.6456 1.78047 46.7358C1.80823 46.826 1.7527 46.9232 1.66249 46.9509L0.253819 47.3603C0.239941 47.3673 0.219139 47.3673 0.20526 47.3673Z" fill="#636363"/>
<path d="M0.996285 48.769C0.94771 48.769 0.906079 48.7482 0.871383 48.7135C0.80199 48.6441 0.808936 48.5331 0.878329 48.4707L1.92615 47.4506C1.99554 47.3812 2.10657 47.3881 2.16902 47.4575C2.23842 47.5269 2.23147 47.6379 2.16208 47.7004L1.11426 48.7205C1.0865 48.7552 1.03792 48.769 0.996285 48.769Z" fill="#636363"/>
<path d="M2.35642 49.6365C2.3356 49.6365 2.32173 49.6365 2.30091 49.6296C2.2107 49.6018 2.16212 49.5047 2.18988 49.4145L2.64093 48.0197C2.66869 47.9295 2.76583 47.8809 2.85604 47.9086C2.94626 47.9364 2.99483 48.0336 2.96708 48.1238L2.51603 49.5186C2.49521 49.588 2.42581 49.6365 2.35642 49.6365Z" fill="#636363"/>
<path d="M3.95939 49.7614C3.87612 49.7614 3.80673 49.7059 3.78591 49.6156L3.52916 48.1723C3.51528 48.0751 3.57774 47.9849 3.66795 47.971C3.75816 47.9502 3.85532 48.0196 3.8692 48.1098L4.12595 49.5532C4.13983 49.6503 4.07737 49.7406 3.98716 49.7544C3.98022 49.7614 3.96633 49.7614 3.95939 49.7614Z" fill="#636363"/>
</svg>
