<svg width="26" height="78" viewBox="0 0 26 78" fill="none" xmlns="http://www.w3.org/2000/svg">
<path d="M20.9895 47.2541C25.5122 42.7315 25.5122 35.3988 20.9896 30.8762C16.4669 26.3536 9.13428 26.3536 4.61164 30.8762C0.0890092 35.3988 0.0890133 42.7315 4.61165 47.2541C9.13428 51.7767 16.4669 51.7767 20.9895 47.2541Z" fill="white"/>
<path d="M12.8052 51.8746C5.74529 51.8746 0 46.1293 0 39.0694C0 32.0095 5.74529 26.2642 12.8052 26.2642C19.8651 26.2642 25.6104 32.0095 25.6104 39.0694C25.6104 46.1293 19.8651 51.8746 12.8052 51.8746ZM12.8052 26.605C5.93309 26.605 0.347779 32.1973 0.347779 39.0625C0.347779 45.9276 5.94005 51.5199 12.8052 51.5199C19.6704 51.5199 25.2626 45.9276 25.2626 39.0625C25.2626 32.1973 19.6773 26.605 12.8052 26.605Z" fill="white"/>
<path d="M18.639 14.2641C21.8633 11.0398 21.8633 5.81226 18.6391 2.58802C15.4148 -0.636227 10.1873 -0.636213 6.96303 2.58803C3.73878 5.81227 3.73878 11.0398 6.96303 14.264C10.1873 17.4883 15.4148 17.4883 18.639 14.2641Z" fill="#3A3A3A"/>
<path d="M12.8047 16.8603C8.15841 16.8603 4.37458 13.0765 4.37458 8.43016C4.37458 3.78384 8.15841 0 12.8047 0C17.4511 0 21.2349 3.78384 21.2349 8.43016C21.2349 13.0765 17.458 16.8603 12.8047 16.8603ZM12.8047 0.340825C8.34621 0.340825 4.72236 3.96468 4.72236 8.42321C4.72236 12.8817 8.34621 16.5056 12.8047 16.5056C17.2633 16.5056 20.8871 12.8817 20.8871 8.42321C20.8871 3.97164 17.2633 0.340825 12.8047 0.340825Z" fill="white"/>
<path d="M12.8049 77.9999C8.1586 77.9999 4.37476 74.2161 4.37476 69.5698C4.37476 64.9234 8.1586 61.1396 12.8049 61.1396C17.4512 61.1396 21.2351 64.9234 21.2351 69.5698C21.2351 74.2161 17.4582 77.9999 12.8049 77.9999ZM12.8049 61.4874C8.3464 61.4874 4.72254 65.1112 4.72254 69.5698C4.72254 74.0283 8.3464 77.6521 12.8049 77.6521C17.2634 77.6521 20.8873 74.0283 20.8873 69.5698C20.8873 65.1112 17.2634 61.4874 12.8049 61.4874Z" fill="white"/>
<path d="M17.2984 67.0031L17.1871 66.8014L17.1106 67.3787C17.9314 68.9924 17.7783 70.9469 16.7002 72.4215C15.4552 74.1117 13.1251 74.7377 11.1914 74.1117C11.094 74.2091 11.0593 74.2717 11.0175 74.4108C11.5948 74.6264 12.2 74.7307 12.8051 74.7307C14.4118 74.7307 15.9838 73.9865 16.9854 72.6232C18.1818 70.9886 18.307 68.7767 17.2984 67.0031Z" fill="white"/>
<path d="M16.7001 68.7211L17.3539 67.483L18.6964 67.0866L15.7611 65.5424L16.7001 68.7211Z" fill="white"/>
<path d="M8.50627 71.7538C7.68551 70.1401 7.83854 68.1856 8.92361 66.711C9.86261 65.4311 11.3163 64.7356 12.8048 64.7356C13.3752 64.7356 13.9525 64.8469 14.5159 65.0555C14.5437 64.9373 14.5855 64.826 14.662 64.7356C12.5057 63.9009 10.0504 64.5965 8.65235 66.5023C7.44208 68.1438 7.31688 70.3557 8.32544 72.1294L8.43671 72.3311L8.50627 71.7538Z" fill="white"/>
<path d="M8.90982 70.4185L8.26294 71.6566L6.91357 72.0461L9.84881 73.5972L8.90982 70.4185Z" fill="white"/>
</svg>
