<svg width="40" height="40" viewBox="0 0 40 40" fill="none" xmlns="http://www.w3.org/2000/svg">
<g clip-path="url(#clip0_0_4162)">
<path d="M37.8906 6.46037H37.1678V4.84912C37.1672 4.28986 36.9448 3.75367 36.5494 3.35821C36.1539 2.96275 35.6177 2.74033 35.0584 2.73975H32.7928C32.2336 2.74041 31.6975 2.96287 31.3021 3.35832C30.9067 3.75377 30.6843 4.28991 30.6838 4.84912V10.3179H24.8534V10.1441C24.8578 9.64421 24.6777 9.16023 24.3476 8.78483C24.0174 8.40942 23.5604 8.16894 23.0641 8.10943C22.7885 8.08336 22.5105 8.11487 22.2478 8.20197C21.985 8.28906 21.7432 8.42985 21.5378 8.61537C21.5026 8.64766 21.4685 8.681 21.4356 8.71537C21.4029 8.681 21.3689 8.64766 21.3334 8.61537C21.1282 8.42938 20.8865 8.28831 20.6236 8.20118C20.3607 8.11406 20.0825 8.08281 19.8069 8.10943C19.3338 8.15796 18.8952 8.37901 18.5747 8.73037C18.3909 8.53245 18.1684 8.37439 17.921 8.26596C17.6736 8.15754 17.4065 8.10106 17.1364 8.10004C16.8663 8.09901 16.5989 8.15346 16.3507 8.26C16.1025 8.36654 15.8788 8.52292 15.6934 8.71943C15.421 8.43133 15.0683 8.23167 14.6811 8.14632C14.2939 8.06097 13.89 8.09386 13.5217 8.24074C13.1534 8.38762 12.8377 8.64171 12.6154 8.9701C12.3932 9.29849 12.2747 9.68605 12.2753 10.0826V10.3179H9.31656V4.84912C9.3159 4.28988 9.09345 3.75374 8.69801 3.3583C8.30257 2.96286 7.76643 2.74041 7.20719 2.73975H4.94156C4.3823 2.74033 3.84611 2.96275 3.45065 3.35821C3.05519 3.75367 2.83277 4.28986 2.83219 4.84912V6.46037H2.10938C1.55014 6.46103 1.01399 6.68348 0.618552 7.07892C0.223111 7.47436 0.000661625 8.01051 0 8.56975L0 17.8082C0.000661625 18.3674 0.223111 18.9036 0.618552 19.299C1.01399 19.6944 1.55014 19.9169 2.10938 19.9176H2.83219V21.5288C2.83277 22.0881 3.05519 22.6243 3.45065 23.0197C3.84611 23.4152 4.3823 23.6376 4.94156 23.6382H7.20719C7.76643 23.6375 8.30257 23.4151 8.69801 23.0196C9.09345 22.6242 9.3159 22.088 9.31656 21.5288V16.0601H12.2812C12.2812 16.0719 12.2812 16.0841 12.2831 16.096C12.2791 16.1196 12.2767 16.1434 12.2759 16.1672V18.4172C12.2766 19.413 12.529 20.3924 13.0097 21.2644L15.1472 25.1363V36.7135C15.1472 36.8585 15.2048 36.9976 15.3074 37.1002C15.4099 37.2028 15.549 37.2604 15.6941 37.2604H24.3066C24.4516 37.2604 24.5907 37.2028 24.6933 37.1002C24.7958 36.9976 24.8534 36.8585 24.8534 36.7135V25.1669L27.0938 21.9376C27.5056 21.3456 27.7259 20.6415 27.725 19.9204V16.0591H30.6841V21.5279C30.6846 22.0871 30.907 22.6232 31.3024 23.0187C31.6978 23.4141 32.2339 23.6366 32.7931 23.6372H35.0588C35.618 23.6367 36.1542 23.4142 36.5497 23.0188C36.9451 22.6233 37.1675 22.0871 37.1681 21.5279V19.9176H37.8909C38.4502 19.9169 38.9863 19.6944 39.3818 19.299C39.7772 18.9036 39.9997 18.3674 40.0003 17.8082V8.56975C39.9997 8.01045 39.7772 7.47426 39.3816 7.07881C38.9861 6.68336 38.4499 6.46095 37.8906 6.46037ZM21.9825 10.0835C21.9825 9.95929 22.0085 9.83647 22.0589 9.72294C22.1093 9.60941 22.1829 9.50771 22.275 9.42438C22.3671 9.34105 22.4756 9.27795 22.5936 9.23915C22.7116 9.20036 22.8364 9.18672 22.96 9.19912C23.1862 9.23105 23.3928 9.34512 23.5402 9.51958C23.6877 9.69405 23.7658 9.91669 23.7597 10.1451V10.3188H21.9294C21.9645 10.2453 21.9826 10.1649 21.9825 10.0835ZM19.9109 9.19912C19.9406 9.19631 19.9706 9.19475 20 9.19475C20.2357 9.19483 20.4617 9.28849 20.6283 9.45515C20.795 9.6218 20.8887 9.84781 20.8888 10.0835C20.8886 10.1649 20.9068 10.2453 20.9419 10.3188H20C19.6914 10.3191 19.3871 10.3914 19.1112 10.5297V10.1451C19.1051 9.91669 19.1832 9.69405 19.3307 9.51958C19.4782 9.34512 19.6847 9.23105 19.9109 9.19912ZM20.8888 15.9532C20.8888 16.1889 20.7951 16.415 20.6284 16.5816C20.4618 16.7483 20.2357 16.8419 20 16.8419C19.7643 16.8419 19.5382 16.7483 19.3716 16.5816C19.2049 16.415 19.1112 16.1889 19.1112 15.9532V14.0535C19.4052 14.2048 19.731 14.2837 20.0616 14.2838H20.8888V15.9532ZM17.1291 9.19475C17.3646 9.19508 17.5905 9.28883 17.757 9.45544C17.9236 9.62205 18.0173 9.84791 18.0175 10.0835V15.9532C18.0197 16.0713 17.9984 16.1886 17.9547 16.2984C17.911 16.4081 17.8459 16.5081 17.7632 16.5924C17.6805 16.6767 17.5818 16.7436 17.4729 16.7893C17.364 16.8351 17.247 16.8586 17.1289 16.8586C17.0108 16.8586 16.8939 16.8351 16.785 16.7893C16.676 16.7436 16.5773 16.6767 16.4946 16.5924C16.4119 16.5081 16.3468 16.4081 16.3031 16.2984C16.2594 16.1886 16.2381 16.0713 16.2403 15.9532V10.0835C16.2406 9.84786 16.3343 9.62195 16.5009 9.45533C16.6675 9.28871 16.8934 9.19499 17.1291 9.19475ZM13.3691 10.0835C13.3691 9.84778 13.4627 9.62173 13.6294 9.45506C13.796 9.28838 14.0221 9.19475 14.2578 9.19475C14.4935 9.19475 14.7196 9.28838 14.8863 9.45506C15.0529 9.62173 15.1466 9.84778 15.1466 10.0835V15.9532C15.1466 16.1889 15.0529 16.415 14.8863 16.5816C14.7196 16.7483 14.4935 16.8419 14.2578 16.8419C14.0221 16.8419 13.796 16.7483 13.6294 16.5816C13.4627 16.415 13.3691 16.1889 13.3691 15.9532V10.0835ZM2.10938 18.8238C1.84012 18.8235 1.58198 18.7164 1.39158 18.526C1.20119 18.3356 1.09408 18.0774 1.09375 17.8082V8.56975C1.09408 8.30049 1.20119 8.04235 1.39158 7.85196C1.58198 7.66156 1.84012 7.55445 2.10938 7.55412H2.83219V18.8238H2.10938ZM8.22281 21.5288C8.22248 21.7981 8.11537 22.0562 7.92498 22.2466C7.73458 22.437 7.47645 22.5441 7.20719 22.5444H4.94156C4.67228 22.5442 4.41409 22.4371 4.22368 22.2467C4.03327 22.0563 3.92619 21.7981 3.92594 21.5288V4.84912C3.92619 4.57984 4.03327 4.32165 4.22368 4.13124C4.41409 3.94083 4.67228 3.83374 4.94156 3.8335H7.20719C7.47645 3.83383 7.73458 3.94094 7.92498 4.13133C8.11537 4.32173 8.22248 4.57986 8.22281 4.84912V21.5288ZM9.31656 11.4126H12.2753V14.9654H9.31656V11.4126ZM26.6309 19.9213C26.6312 20.4197 26.4785 20.9062 26.1934 21.3151L23.8559 24.6838C23.7923 24.7756 23.7583 24.8846 23.7584 24.9963V36.1672H16.2403V24.9957C16.2403 24.9032 16.2169 24.8123 16.1722 24.7313L13.9666 20.736C13.5751 20.0258 13.3696 19.2282 13.3691 18.4172V17.7226C13.7484 17.915 14.1798 17.9795 14.5989 17.9062C15.0179 17.833 15.4019 17.626 15.6934 17.3163C15.8779 17.5119 16.1004 17.6677 16.3472 17.7742C16.5941 17.8807 16.8601 17.9357 17.1289 17.9357C17.3977 17.9357 17.6638 17.8807 17.9106 17.7742C18.1574 17.6677 18.3799 17.5119 18.5644 17.3163C18.7489 17.5119 18.9714 17.6677 19.2182 17.7743C19.4651 17.8808 19.7311 17.9357 20 17.9357C20.2689 17.9357 20.5349 17.8808 20.7818 17.7743C21.0286 17.6677 21.2511 17.5119 21.4356 17.3163C21.7081 17.6043 22.0607 17.8039 22.4479 17.8891C22.835 17.9744 23.2389 17.9415 23.6071 17.7946C23.9754 17.6478 24.291 17.3937 24.5132 17.0654C24.7354 16.7371 24.854 16.3496 24.8534 15.9532V13.7369C24.8534 13.5919 24.7958 13.4528 24.6933 13.3502C24.5907 13.2477 24.4516 13.1901 24.3066 13.1901H20.0625C19.8341 13.1962 19.6115 13.1181 19.437 12.9706C19.2626 12.8231 19.1485 12.6166 19.1166 12.3904C19.1139 12.3627 19.1124 12.335 19.1122 12.3072V12.2954C19.1138 12.0609 19.2081 11.8365 19.3743 11.6712C19.5406 11.5058 19.7655 11.4129 20 11.4126H24.1856L24.2838 11.4185H24.29C24.9193 11.4456 25.5139 11.7144 25.9499 12.1689C26.386 12.6234 26.6299 13.2286 26.6309 13.8585V19.9213ZM21.9825 14.2838H23.7597V15.9532C23.7619 16.0713 23.7406 16.1886 23.6969 16.2984C23.6532 16.4081 23.5881 16.5081 23.5054 16.5924C23.4227 16.6767 23.324 16.7436 23.215 16.7893C23.1061 16.8351 22.9892 16.8586 22.8711 16.8586C22.753 16.8586 22.636 16.8351 22.5271 16.7893C22.4182 16.7436 22.3195 16.6767 22.2368 16.5924C22.1541 16.5081 22.089 16.4081 22.0453 16.2984C22.0016 16.1886 21.9803 16.0713 21.9825 15.9532V14.2838ZM27.7247 14.9654V13.8579C27.7253 12.9464 27.3731 12.0701 26.7419 11.4126H30.6838V14.9654H27.7247ZM36.0741 21.5279C36.0737 21.7971 35.9666 22.0553 35.7762 22.2457C35.5858 22.4361 35.3277 22.5432 35.0584 22.5435H32.7928C32.5236 22.5432 32.2654 22.4361 32.075 22.2457C31.8846 22.0553 31.7775 21.7971 31.7772 21.5279V4.84912C31.7775 4.57986 31.8846 4.32173 32.075 4.13133C32.2654 3.94094 32.5236 3.83383 32.7928 3.8335H35.0584C35.3277 3.83383 35.5858 3.94094 35.7762 4.13133C35.9666 4.32173 36.0737 4.57986 36.0741 4.84912V21.5288V21.5279ZM38.9062 17.8082C38.9059 18.0774 38.7988 18.3356 38.6084 18.526C38.418 18.7164 38.1599 18.8235 37.8906 18.8238H37.1678V7.55412H37.8906C38.1599 7.55445 38.418 7.66156 38.6084 7.85196C38.7988 8.04235 38.9059 8.30049 38.9062 8.56975V17.8082Z" fill="white"/>
</g>
<defs>
<clipPath id="clip0_0_4162">
<rect width="40" height="40" fill="white"/>
</clipPath>
</defs>
</svg>
