<svg width="266" height="38" viewBox="0 0 266 38" fill="none" xmlns="http://www.w3.org/2000/svg">
<path d="M256.908 30.0278C256.077 30.0278 255.297 29.6128 254.831 28.9931L254.622 28.6823C254.051 27.9566 253.22 27.5434 252.284 27.6458C251.349 27.75 250.571 28.2674 250.155 29.0955L248.336 32.6684C248.233 32.875 248.024 32.875 247.921 32.875C247.869 32.875 247.66 32.8229 247.608 32.5642L246.309 23.2969C246.259 22.9358 245.998 22.6753 245.634 22.625C245.27 22.5729 244.958 22.8316 244.856 23.1424L243.141 28.526C242.829 29.4062 241.997 30.0278 241.062 30.0278C240.18 30.0278 239.348 29.5104 239.036 28.6823C238.881 28.2674 238.465 28.0608 238.049 28.1128C237.635 28.1632 237.271 28.474 237.219 28.8889L236.127 34.842L233.737 0.517361C233.737 0.208333 233.477 0 233.166 0C232.854 0 232.595 0.208333 232.595 0.517361L229.477 31.6319L229.425 31.4253C229.218 30.5972 228.49 30.0278 227.607 30.0278C227.243 30.0278 226.932 29.8212 226.723 29.5625L226.204 28.7326C226.048 28.474 225.736 28.2674 225.372 28.3194C225.06 28.3194 224.749 28.526 224.646 28.8368L223.45 31.684C223.45 31.684 223.45 31.7361 223.398 31.7361C223.347 31.7361 223.347 31.684 223.347 31.684L222.775 27.8021C222.672 27.1806 222.204 26.7656 221.58 26.6632C220.957 26.6111 220.385 26.9219 220.177 27.4913L219.866 28.3715C219.502 29.3542 218.567 29.9757 217.528 29.9757H204.539C203.709 29.9757 202.929 29.5625 202.461 28.941L202.254 28.6302C201.683 27.9045 200.85 27.4913 199.916 27.5938C198.981 27.6979 198.201 28.2153 197.785 29.0434L195.967 32.6163C195.863 32.8229 195.656 32.8229 195.551 32.8229C195.499 32.8229 195.292 32.7708 195.24 32.5122L193.941 23.2969C193.889 22.9358 193.629 22.6753 193.266 22.625C192.902 22.5729 192.59 22.8316 192.486 23.1424L190.668 28.526C190.357 29.4062 189.525 30.0278 188.59 30.0278C187.707 30.0278 186.875 29.5104 186.563 28.6823C186.408 28.2674 185.992 28.0608 185.576 28.1128C185.162 28.1632 184.798 28.474 184.746 28.8889L183.654 34.842L181.369 0.517361C181.369 0.208333 181.109 0 180.798 0C180.486 0 180.225 0.208333 180.225 0.517361L177.109 31.6319L177.057 31.4253C176.849 30.5972 176.122 30.0278 175.237 30.0278C174.874 30.0278 174.562 29.8212 174.355 29.5625L173.836 28.7326C173.679 28.474 173.368 28.2674 173.004 28.3194C172.692 28.3194 172.381 28.526 172.276 28.8368L171.082 31.684C171.082 31.684 171.082 31.7361 171.03 31.7361C170.977 31.7361 170.977 31.684 170.977 31.684L170.406 27.8021C170.302 27.1806 169.835 26.7656 169.212 26.6632C168.587 26.6111 168.016 26.9219 167.809 27.4913L167.498 28.3715C167.134 29.3542 166.199 29.9757 165.16 29.9757H152.171C151.339 29.9757 150.561 29.5625 150.093 28.941L149.885 28.6302C149.313 27.9045 148.482 27.4913 147.547 27.5938C146.613 27.6979 145.833 28.2153 145.417 29.0434L143.599 32.6163C143.495 32.8229 143.288 32.8229 143.183 32.8229C143.131 32.8229 142.924 32.7708 142.871 32.5122L141.521 23.2969C141.468 22.9358 141.209 22.6753 140.845 22.625C140.481 22.5729 140.17 22.8316 140.065 23.1424L138.35 28.526C138.039 29.4062 137.209 30.0278 136.274 30.0278C135.389 30.0278 134.559 29.5104 134.247 28.6823C134.091 28.2674 133.676 28.0608 133.26 28.1128C132.844 28.1632 132.48 28.474 132.428 28.8889L131.338 34.842L128.948 0.517361C128.948 0.208333 128.689 0 128.377 0C128.064 0 127.804 0.208333 127.804 0.517361L124.688 31.6319L124.636 31.4253C124.427 30.5972 123.701 30.0278 122.817 30.0278C122.453 30.0278 122.141 29.8212 121.934 29.5625L121.414 28.7326C121.259 28.474 120.947 28.2674 120.583 28.3194C120.272 28.3194 119.96 28.526 119.856 28.8368L118.661 31.684C118.661 31.684 118.661 31.7361 118.609 31.7361C118.557 31.7361 118.557 31.684 118.557 31.684L117.986 27.8021C117.882 27.1806 117.415 26.7656 116.79 26.6632C116.167 26.6111 115.596 26.9219 115.389 27.4913L115.077 28.3715C114.713 29.3542 113.777 29.9757 112.739 29.9757H99.7507C98.9185 29.9757 98.1404 29.5625 97.6721 28.941L97.4649 28.6302C96.8922 27.9045 96.0618 27.4913 95.127 27.5938C94.1904 27.6979 93.4122 28.2153 92.9962 29.0434L91.1787 32.6163C91.0743 32.8229 90.8654 32.8229 90.7626 32.8229C90.7104 32.8229 90.5033 32.7708 90.451 32.5122L89.1524 23.2969C89.1001 22.9358 88.8408 22.6753 88.4769 22.625C88.1131 22.5729 87.8015 22.8316 87.697 23.1424L85.9823 28.526C85.6707 29.4062 84.8403 30.0278 83.9037 30.0278C83.0211 30.0278 82.1907 29.5104 81.8791 28.6823C81.7224 28.2674 81.3064 28.0608 80.892 28.1128C80.476 28.1632 80.1121 28.474 80.0599 28.8889L78.9684 34.842L76.58 0.517361C76.58 0.208333 76.3188 0 76.0072 0C75.6956 0 75.4362 0.208333 75.4362 0.517361L72.3184 31.6319L72.2661 31.4253C72.059 30.5972 71.3313 30.0278 70.4487 30.0278C70.0848 30.0278 69.7732 29.8212 69.5661 29.5625L69.0456 28.7326C68.8906 28.474 68.579 28.2674 68.2152 28.3194C67.9036 28.3194 67.5919 28.526 67.4875 28.8368L66.2915 31.684C66.2915 31.684 66.2915 31.7361 66.2411 31.7361C66.1888 31.7361 66.1888 31.684 66.1888 31.684L65.6178 27.8021C65.5134 27.1806 65.0451 26.7656 64.4219 26.6632C63.7986 26.6111 63.2276 26.9219 63.0187 27.4913L62.7071 28.3715C62.3433 29.3542 61.4085 29.9757 60.3692 29.9757H47.3807C46.5503 29.9757 45.7704 29.5625 45.3039 28.941L45.095 28.6302C44.524 27.9045 43.6936 27.4913 42.757 27.5938C41.8222 27.6979 41.044 28.2153 40.6279 29.0434L38.8088 32.6163C38.706 32.8229 38.4971 32.8229 38.3927 32.8229C38.3422 32.8229 38.1333 32.7708 38.0811 32.5122L36.7319 23.2969C36.6797 22.9358 36.4186 22.6753 36.0565 22.625C35.6926 22.5729 35.381 22.8316 35.2766 23.1424L33.5618 28.526C33.2502 29.4062 32.4181 30.0278 31.4833 30.0278C30.6006 30.0278 29.7685 29.5104 29.4569 28.6823C29.302 28.2674 28.8859 28.0608 28.4698 28.1128C28.0555 28.1632 27.6917 28.474 27.6395 28.8889L26.4957 34.842L24.1578 0.517361C24.1578 0.208333 23.8984 0 23.5868 0C23.2752 0 23.0158 0.208333 23.0158 0.517361L19.8979 31.6319L19.8457 31.4253C19.6385 30.5972 18.9108 30.0278 18.0282 30.0278C17.6644 30.0278 17.3528 29.8212 17.1439 29.5625L16.6251 28.7326C16.4702 28.474 16.1568 28.2674 15.7947 28.3194C15.4814 28.3194 15.1698 28.526 15.067 28.8368L13.8711 31.684C13.8711 31.684 13.8711 31.7361 13.8206 31.7361C13.7684 31.7361 13.7684 31.684 13.7684 31.684L13.1956 27.8021C13.0929 27.1806 12.6246 26.7656 12.0014 26.6632C11.3782 26.6111 10.8072 26.9219 10.5983 27.4913L10.2867 28.3715C9.92284 29.3542 8.988 29.9757 7.94872 29.9757H0V30.908H7.94872C8.67639 30.908 9.35184 30.7014 9.92284 30.2865C10.4956 29.8715 10.9621 29.3021 11.2215 28.6823L11.5331 27.8021C11.6376 27.5434 11.8447 27.5434 11.9492 27.5434C12.0014 27.5434 12.2608 27.5938 12.313 27.8542L12.884 31.7361C12.9362 32.2014 13.3001 32.5122 13.7684 32.6163C14.2349 32.6684 14.651 32.4097 14.8077 31.9948L15.9497 29.2517L16.3657 29.9236C16.7296 30.4931 17.3528 30.8559 18.0282 30.8559C18.4443 30.8559 18.8064 31.1146 18.9108 31.5295L19.5341 34.066C19.5863 34.3247 19.8457 34.4792 20.1068 34.4792C20.3662 34.4792 20.5734 34.2205 20.5734 33.9618L23.4823 4.81597L25.6653 37.276C25.6653 37.5868 25.9247 37.8455 26.2363 37.8455C26.2363 37.8455 26.2363 37.8455 26.2886 37.8455C26.6002 37.8455 26.8596 37.6389 26.9118 37.3281L28.4194 28.8368C28.6787 29.4062 29.0426 29.9236 29.5614 30.2344C30.0819 30.5972 30.7051 30.7517 31.3283 30.7517C32.6792 30.7517 33.8734 29.8715 34.3417 28.5781L35.8476 23.9184L37.0435 32.4097C37.1462 32.9792 37.5623 33.4444 38.1333 33.5486C38.706 33.651 39.277 33.3924 39.5364 32.8229L41.3556 29.2517C41.615 28.7326 42.1338 28.3715 42.7065 28.3194C43.2775 28.2674 43.8485 28.526 44.2123 28.9931L44.4195 29.3021C45.095 30.1823 46.1342 30.7517 47.278 30.7517H60.2665C60.9924 30.7517 61.6678 30.5451 62.2406 30.1319C62.8116 29.717 63.2799 29.1476 63.5393 28.526L63.8509 27.6458C63.9553 27.3872 64.1625 27.3872 64.2669 27.3872C64.3174 27.3872 64.5785 27.4392 64.629 27.6979L65.2018 31.5816C65.254 32.0469 65.6178 32.3576 66.0844 32.4618C66.1366 32.4618 66.1888 32.4618 66.2411 32.4618C66.6554 32.4618 67.0192 32.2014 67.1759 31.8403L68.3179 29.0955L68.7339 29.7691C69.0978 30.3385 69.721 30.7014 70.3965 30.7014C70.8125 30.7014 71.1764 30.9601 71.2791 31.3733L71.904 33.9097C71.9545 34.1701 72.2156 34.3247 72.475 34.3247C72.7344 34.3247 72.9416 34.066 72.9416 33.8073L75.8523 4.65972L78.0336 37.1198C78.0336 37.4306 78.2929 37.6892 78.6046 37.6892C78.6046 37.6892 78.6046 37.6892 78.6568 37.6892C78.9684 37.6892 79.2295 37.4826 79.28 37.1719L80.7876 28.6823C81.047 29.2517 81.4108 29.7691 81.9296 30.0799C82.4501 30.4427 83.0733 30.5972 83.6965 30.5972C85.0474 30.5972 86.2417 29.717 86.71 28.4236L88.2158 23.7639L89.4118 32.2535C89.5162 32.8229 89.9305 33.2899 90.5033 33.3924C91.0743 33.4965 91.6453 33.2378 91.9046 32.6684L93.7238 29.0955C93.9832 28.5781 94.5037 28.2153 95.0747 28.1632C95.6457 28.1128 96.2167 28.3715 96.5806 28.8368L96.7895 29.1476C97.4649 30.0278 98.5025 30.5972 99.6462 30.5972H112.739C113.465 30.5972 114.141 30.3906 114.713 29.9757C115.284 29.5625 115.753 28.9931 116.012 28.3715L116.324 27.4913C116.428 27.2326 116.635 27.2326 116.74 27.2326C116.79 27.2326 117.051 27.283 117.102 27.5434L117.674 31.4253C117.727 31.8906 118.09 32.2014 118.557 32.3056C119.025 32.3576 119.44 32.099 119.596 31.684L120.74 28.941L121.154 29.6128C121.518 30.1823 122.141 30.5451 122.817 30.5451C123.233 30.5451 123.597 30.8038 123.701 31.2188L124.324 33.7552C124.377 34.0139 124.636 34.1701 124.895 34.1701C125.155 34.1701 125.364 33.9097 125.364 33.651L128.325 4.97049L130.506 37.4306C130.506 37.7413 130.766 38 131.077 38C131.077 38 131.077 38 131.129 38C131.441 38 131.702 37.7934 131.753 37.4826L133.26 28.9931C133.52 29.5625 133.883 30.0799 134.402 30.3906C134.923 30.7517 135.546 30.908 136.169 30.908C137.52 30.908 138.714 30.0278 139.183 28.7326L140.688 24.0747L141.884 32.5642C141.989 33.1337 142.403 33.6007 142.976 33.7031C143.547 33.8073 144.118 33.5486 144.377 32.9792L146.197 29.4062C146.456 28.8889 146.976 28.526 147.547 28.474C148.118 28.4236 148.689 28.6823 149.053 29.1476L149.262 29.4583C149.938 30.3385 150.975 30.908 152.119 30.908H165.107C165.835 30.908 166.51 30.7014 167.081 30.2865C167.652 29.8715 168.121 29.3021 168.38 28.6823L168.692 27.8021C168.796 27.5434 169.003 27.5434 169.108 27.5434C169.16 27.5434 169.419 27.5938 169.472 27.8542L170.043 31.7361C170.095 32.2014 170.459 32.5122 170.925 32.6163C171.394 32.6684 171.81 32.4097 171.965 31.9948L173.108 29.2517L173.524 29.9236C173.886 30.4931 174.511 30.8559 175.187 30.8559C175.601 30.8559 175.965 31.1146 176.069 31.5295L176.693 34.066C176.745 34.3247 177.004 34.4792 177.264 34.4792C177.525 34.4792 177.732 34.2205 177.732 33.9618L180.641 4.81597L182.824 37.276C182.824 37.5868 183.083 37.8455 183.395 37.8455C183.395 37.8455 183.395 37.8455 183.447 37.8455C183.759 37.8455 184.018 37.6389 184.07 37.3281L185.576 28.8368C185.837 29.4062 186.199 29.9236 186.72 30.2344C187.239 30.5972 187.862 30.7517 188.487 30.7517C189.836 30.7517 191.032 29.8715 191.499 28.5781L193.006 23.9184L194.2 32.4097C194.305 32.9792 194.721 33.4444 195.292 33.5486C195.863 33.651 196.436 33.3924 196.695 32.8229L198.513 29.2517C198.774 28.7326 199.292 28.3715 199.863 28.3194C200.436 28.2674 201.007 28.526 201.371 28.9931L201.578 29.3021C202.254 30.1823 203.293 30.7517 204.435 30.7517H217.423C218.151 30.7517 218.826 30.5451 219.397 30.1319C219.97 29.717 220.437 29.1476 220.698 28.526L221.01 27.6458C221.112 27.3872 221.321 27.3872 221.424 27.3872C221.476 27.3872 221.735 27.4392 221.788 27.6979L222.36 31.5816C222.411 32.0469 222.775 32.3576 223.243 32.4618C223.71 32.5122 224.126 32.2535 224.282 31.8403L225.424 29.0955L225.84 29.7691C226.204 30.3385 226.827 30.7014 227.503 30.7014C227.919 30.7014 228.283 30.9601 228.385 31.3733L229.009 33.9097C229.061 34.1701 229.322 34.3247 229.581 34.3247C229.841 34.3247 230.048 34.066 230.048 33.8073L232.959 4.65972L235.14 37.1198C235.14 37.4306 235.399 37.6892 235.711 37.6892C235.711 37.6892 235.711 37.6892 235.763 37.6892C236.075 37.6892 236.334 37.4826 236.386 37.1719L237.894 28.6823C238.153 29.2517 238.517 29.7691 239.036 30.0799C239.557 30.4427 240.18 30.5972 240.803 30.5972C242.154 30.5972 243.348 29.717 243.816 28.4236L245.322 23.7639L246.518 32.2535C246.621 32.8229 247.037 33.2899 247.608 33.3924C248.181 33.4965 248.752 33.2378 249.011 32.6684L250.83 29.0955C251.09 28.5781 251.608 28.2153 252.181 28.1632C252.752 28.1128 253.323 28.3715 253.687 28.8368L253.896 29.1476C254.571 30.0278 255.609 30.5972 256.753 30.5972H266V30.0278H256.908Z" fill="#FA5946"/>
</svg>
