<svg width="40" height="40" viewBox="0 0 40 40" fill="none" xmlns="http://www.w3.org/2000/svg">
<path d="M26.2311 4.6875V3.51562M28.5747 5.85938V4.6875M8.83724 15.2684C10.4183 23.4209 20.4103 26.9028 21.7392 21.597C22.5609 18.3166 19.1898 11.8391 15.5197 12.9005C13.3478 13.5286 12.1351 16.6639 14.6731 19.9999C16.6814 22.6396 20.6281 24.6914 23.4776 24.5573C29.8074 24.2593 32.0596 13.8618 20.1122 7.73C14.3354 4.76523 11.2719 8.21437 12.5426 12.1602C15.3518 20.8826 27.2891 22.5127 30.4065 18.4805C33.7434 14.1643 27.6589 6.43859 21.2185 5.73102C17.4338 5.31523 16.7439 10.0262 22.8021 13.4241C29.0914 16.9517 32.4663 14.5384 33.9248 13.3066" stroke="white" stroke-width="0.84375" stroke-miterlimit="22.9256"/>
<path d="M26.2772 39.4141H29.2069V36.7906C29.2069 34.5351 29.2019 31.6228 32.4023 28.573C35.5373 25.5856 37.5303 21.3959 37.5303 16.7234C37.5304 7.08688 29.6951 0.585938 20.3715 0.585938C16.1087 0.585938 12.4475 2.28656 9.77069 4.97906M8.95131 5.87031C6.46249 8.79555 5.0196 12.6561 5.0196 16.7234L2.54217 25.7649C2.23585 26.883 2.95178 27.5048 3.73553 27.5048H6.72905V34.1927H13.8067V39.4141H25.1054" stroke="white" stroke-width="0.84375" stroke-miterlimit="22.9256"/>
</svg>
