<svg width="40" height="41" viewBox="0 0 40 41" fill="none" xmlns="http://www.w3.org/2000/svg">
<path d="M34.1701 0.0150096C33.9838 -0.0100841 33.7943 0.00514405 33.6144 0.0596629C33.4345 0.114182 33.2684 0.206718 33.1274 0.331007C32.9829 0.456953 32.867 0.612364 32.7876 0.786799C32.7081 0.961233 32.6669 1.15065 32.6667 1.34233V18.0822C31.9845 17.3984 31.1697 16.8611 30.2725 16.5034C29.3752 16.1456 28.4144 15.9748 27.4488 16.0015C24.5875 16.0015 22.3155 17.9662 21.3335 18.9802C20.3515 17.9662 18.0795 16.0015 15.2182 16.0015C14.2526 15.9748 13.2918 16.1456 12.3945 16.5034C11.4973 16.8611 10.6825 17.3984 10.0003 18.0822V15.3349C11.2375 15.3335 12.4237 14.8413 13.2985 13.9665C14.1734 13.0916 14.6655 11.9055 14.6669 10.6682V2.00166C14.669 1.73999 14.6184 1.48057 14.5181 1.23889C14.4177 0.997211 14.2697 0.778225 14.0829 0.595004C13.84 0.346824 13.5361 0.1669 13.2016 0.073289C12.8672 -0.0203219 12.514 -0.0243269 12.1776 0.0616759C11.7373 0.180941 11.3495 0.443911 11.0758 0.808808C10.8021 1.17371 10.6582 1.6196 10.6669 2.07566V7.33494C10.6671 7.4238 10.6491 7.51175 10.6141 7.59339C10.579 7.67502 10.5275 7.74861 10.4629 7.80961C10.3942 7.87734 10.3116 7.92926 10.2207 7.96173C10.1299 7.99421 10.033 8.00645 9.93694 7.9976C9.76507 7.96879 9.6095 7.87856 9.49915 7.74368C9.38879 7.6088 9.33115 7.43845 9.33694 7.26428V2.00166C9.33907 1.73999 9.28846 1.48057 9.18812 1.23889C9.08778 0.997211 8.93978 0.778225 8.75295 0.595004C8.51003 0.346824 8.20611 0.1669 7.87168 0.073289C7.53726 -0.0203219 7.18409 -0.0243269 6.84763 0.0616759C6.40674 0.180314 6.0182 0.443016 5.74385 0.807972C5.4695 1.17293 5.32511 1.61916 5.33365 2.07566V7.33494C5.33386 7.4238 5.31586 7.51175 5.28078 7.59339C5.24569 7.67502 5.19426 7.74861 5.12965 7.80961C5.06095 7.87734 4.97828 7.92926 4.88743 7.96173C4.79658 7.99421 4.69973 8.00645 4.60365 7.9976C4.43082 7.96947 4.27418 7.87927 4.16311 7.74389C4.05203 7.60852 3.99416 7.43728 4.00033 7.26228V2.00166C4.00237 1.7401 3.95171 1.48081 3.85137 1.23925C3.75104 0.997691 3.60308 0.778814 3.41633 0.595671C3.17341 0.34749 2.86949 0.167567 2.53507 0.0739557C2.20064 -0.0196552 1.84748 -0.0236602 1.51102 0.0623425C1.07086 0.18158 0.683148 0.44445 0.409457 0.809211C0.135765 1.17397 -0.00822091 1.61971 0.000362698 2.07566V10.6682C0.00177426 11.9055 0.493888 13.0916 1.36874 13.9665C2.2436 14.8413 3.42975 15.3335 4.66699 15.3349V37.3347C4.66698 37.686 4.73642 38.0339 4.8713 38.3584C5.00619 38.6828 5.20387 38.9774 5.45297 39.2252C5.70208 39.473 5.9977 39.6692 6.32285 39.8024C6.648 39.9355 6.99626 40.0032 7.34763 40.0013C7.39096 40.0013 7.43429 40.0013 7.47763 39.998C8.17252 39.9453 8.82094 39.6289 9.28999 39.1135C9.75903 38.5981 10.0132 37.9228 10.0003 37.226V29.6787C13.1442 35.012 19.0435 38.8547 20.5622 39.7846C20.7944 39.9274 21.0616 40.003 21.3342 40.003C21.6067 40.003 21.874 39.9274 22.1062 39.7846C23.6241 38.8547 29.5228 35.012 32.6667 29.6787V37.3347C32.6667 37.686 32.7362 38.0339 32.871 38.3584C33.0059 38.6828 33.2036 38.9774 33.4527 39.2252C33.7018 39.473 33.9974 39.6692 34.3226 39.8024C34.6477 39.9355 34.996 40.0032 35.3474 40.0013C35.3907 40.0013 35.434 40.0013 35.4807 39.998C36.175 39.9445 36.8226 39.6277 37.2909 39.1124C37.7593 38.5971 38.013 37.9222 38 37.226V23.9155C38.5722 23.7677 39.0791 23.4341 39.4411 22.967C39.8031 22.4999 39.9997 21.9258 40 21.3348V6.62828C39.9973 5.00592 39.4041 3.44002 38.3313 2.22302C37.2584 1.00603 35.7793 0.221163 34.1701 0.0150096ZM8.66695 14.6682V20.0208C8.23214 20.9546 8.0047 21.9714 8.00029 23.0015C8.00855 24.3039 8.23386 25.5958 8.66695 26.8241V37.224C8.67666 37.5784 8.55287 37.9235 8.32012 38.191C8.08738 38.4584 7.76265 38.6287 7.41029 38.668C7.22722 38.6775 7.04413 38.6496 6.8722 38.586C6.70027 38.5223 6.54311 38.4244 6.4103 38.298C6.27997 38.1738 6.17638 38.0243 6.10588 37.8586C6.03538 37.693 5.99945 37.5147 6.00031 37.3347V14.6682C6.00031 14.4914 5.93007 14.3218 5.80505 14.1968C5.68002 14.0718 5.51046 14.0015 5.33365 14.0015H4.66699C3.78294 14.0015 2.9351 13.6504 2.30999 13.0252C1.68487 12.4001 1.33368 11.5523 1.33368 10.6682V2.07566C1.32723 1.91801 1.37236 1.76255 1.46222 1.63286C1.55209 1.50317 1.6818 1.40632 1.83168 1.357C1.9455 1.32542 2.06583 1.32582 2.17944 1.35817C2.29305 1.39051 2.39555 1.45354 2.47567 1.54033C2.53689 1.60045 2.58538 1.67228 2.61825 1.75154C2.65112 1.83079 2.6677 1.91586 2.667 2.00166V7.26161C2.65998 7.77155 2.84322 8.2658 3.18096 8.64792C3.51871 9.03004 3.98672 9.2726 4.49366 9.32826C4.76972 9.35127 5.04757 9.31687 5.30969 9.22722C5.57181 9.13757 5.81252 8.99463 6.01668 8.80738C6.22084 8.62013 6.38402 8.39263 6.49593 8.13922C6.60785 7.88581 6.66608 7.61197 6.66697 7.33494V2.07566C6.66051 1.91801 6.70564 1.76255 6.79551 1.63286C6.88538 1.50317 7.01509 1.40632 7.16496 1.357C7.26345 1.33258 7.36618 1.33073 7.46547 1.35159C7.56477 1.37246 7.65807 1.41549 7.7384 1.47749C7.81873 1.53948 7.884 1.61882 7.92935 1.70959C7.9747 1.80036 7.99895 1.9002 8.00029 2.00166V7.26161C7.99326 7.77155 8.1765 8.2658 8.51425 8.64792C8.85199 9.03004 9.32 9.2726 9.82694 9.32826C10.103 9.35127 10.3809 9.31687 10.643 9.22722C10.9051 9.13757 11.1458 8.99463 11.35 8.80738C11.5541 8.62013 11.7173 8.39263 11.8292 8.13922C11.9411 7.88581 11.9994 7.61197 12.0003 7.33494V2.07566C11.9938 1.91801 12.0389 1.76255 12.1288 1.63286C12.2187 1.50317 12.3484 1.40632 12.4982 1.357C12.6121 1.32542 12.7324 1.32582 12.846 1.35817C12.9596 1.39051 13.0621 1.45354 13.1422 1.54033C13.2035 1.60045 13.2519 1.67228 13.2848 1.75154C13.3177 1.83079 13.3343 1.91586 13.3336 2.00166V10.6682C13.3336 11.5523 12.9824 12.4001 12.3573 13.0252C11.7322 13.6504 10.8843 14.0015 10.0003 14.0015H9.33361C9.1568 14.0015 8.98723 14.0718 8.86221 14.1968C8.73719 14.3218 8.66695 14.4914 8.66695 14.6682ZM21.4108 38.6467C21.3876 38.6604 21.3611 38.6676 21.3342 38.6676C21.3072 38.6676 21.2807 38.6604 21.2575 38.6467C19.2669 37.4287 9.33361 30.9461 9.33361 23.0015C9.33117 22.2381 9.48337 21.4821 9.78103 20.7791C10.0787 20.0761 10.5156 19.4407 11.0655 18.9112C11.6154 18.3817 12.2669 17.969 12.9806 17.6981C13.6943 17.4272 14.4555 17.3036 15.2182 17.3349C18.3402 17.3349 20.7875 20.3628 20.8115 20.3935C20.8764 20.4682 20.9566 20.5282 21.0466 20.5692C21.1367 20.6103 21.2345 20.6315 21.3335 20.6315C21.4325 20.6315 21.5303 20.6103 21.6204 20.5692C21.7104 20.5282 21.7906 20.4682 21.8555 20.3935C21.8795 20.3628 24.3268 17.3349 27.4488 17.3349C28.2115 17.3036 28.9727 17.4272 29.6864 17.6981C30.4001 17.969 31.0516 18.3817 31.6015 18.9112C32.1514 19.4407 32.5883 20.0761 32.886 20.7791C33.1836 21.4821 33.3358 22.2381 33.3334 23.0015C33.3334 30.9461 23.4002 37.4287 21.4108 38.6467ZM38.6667 21.3348C38.6667 21.6884 38.5262 22.0276 38.2762 22.2776C38.0261 22.5277 37.687 22.6681 37.3334 22.6681C37.1565 22.6681 36.987 22.7384 36.862 22.8634C36.7369 22.9884 36.6667 23.158 36.6667 23.3348V37.226C36.6759 37.5801 36.5519 37.9247 36.3192 38.1917C36.0865 38.4587 35.762 38.6287 35.41 38.668C35.227 38.6775 35.0439 38.6496 34.8719 38.586C34.7 38.5224 34.5428 38.4244 34.4101 38.298C34.2797 38.1738 34.1761 38.0243 34.1056 37.8586C34.0351 37.693 33.9992 37.5147 34.0001 37.3347V26.8241C34.4331 25.5958 34.6585 24.3039 34.6667 23.0015C34.6624 21.9712 34.435 20.9541 34.0001 20.0202V1.335C35.2882 1.49987 36.4722 2.12803 37.331 3.10214C38.1898 4.07625 38.6646 5.32967 38.6667 6.62828V21.3348Z" fill="white"/>
<path d="M29.3339 27.335H26.6672C26.5575 27.335 26.4495 27.362 26.3527 27.4138C26.2559 27.4655 26.1735 27.5404 26.1126 27.6316L25.4619 28.6076L23.9466 25.0743C23.8958 24.9548 23.8112 24.8527 23.7032 24.7806C23.5952 24.7084 23.4685 24.6694 23.3386 24.6683H23.3339C23.2049 24.6683 23.0787 24.7057 22.9706 24.776C22.8624 24.8463 22.777 24.9464 22.7246 25.0643L20.7913 29.4203L19.308 24.477C19.2683 24.3441 19.1881 24.2269 19.0786 24.1417C18.9692 24.0565 18.8359 24.0075 18.6973 24.0017C18.5582 23.991 18.4194 24.0261 18.3021 24.1017C18.1849 24.1773 18.0956 24.2892 18.048 24.4203L16.8826 27.335H14.6673C14.4905 27.335 14.3209 27.4052 14.1959 27.5302C14.0709 27.6553 14.0007 27.8248 14.0007 28.0016C14.0007 28.1784 14.0709 28.348 14.1959 28.473C14.3209 28.5981 14.4905 28.6683 14.6673 28.6683H17.334C17.4673 28.6683 17.5976 28.6284 17.708 28.5537C17.8184 28.4789 17.9038 28.3728 17.9533 28.249L18.5773 26.6883L20.0286 31.5263C20.0677 31.6568 20.1459 31.7722 20.2525 31.8569C20.3592 31.9417 20.4893 31.9917 20.6253 32.0003L20.6673 32.0016C20.7963 32.0016 20.9225 31.9642 21.0306 31.8939C21.1388 31.8236 21.2242 31.7235 21.2766 31.6056L23.3226 27.0016L24.7226 30.2643C24.7699 30.3746 24.8461 30.4702 24.9432 30.5408C25.0403 30.6114 25.1547 30.6545 25.2743 30.6655C25.3938 30.6765 25.5142 30.655 25.6225 30.6033C25.7309 30.5515 25.8233 30.4715 25.8899 30.3716L27.0239 28.6683H29.3339C29.5107 28.6683 29.6802 28.5981 29.8053 28.473C29.9303 28.348 30.0005 28.1784 30.0005 28.0016C30.0005 27.8248 29.9303 27.6553 29.8053 27.5302C29.6802 27.4052 29.5107 27.335 29.3339 27.335Z" fill="white"/>
</svg>
