<svg width="9" height="9" viewBox="0 0 9 9" fill="none" xmlns="http://www.w3.org/2000/svg">
<path d="M4.4999 8.9998C6.98512 8.9998 8.99979 6.98513 8.99979 4.4999C8.99979 2.01467 6.98512 0 4.4999 0C2.01467 0 0 2.01467 0 4.4999C0 6.98513 2.01467 8.9998 4.4999 8.9998Z" fill="#969696"/>
<path d="M2.76319 6.70202C3.1223 6.70202 3.41343 6.41091 3.41343 6.05179C3.41343 5.69268 3.1223 5.40156 2.76319 5.40156C2.40408 5.40156 2.11298 5.69268 2.11298 6.05179C2.11298 6.41091 2.40408 6.70202 2.76319 6.70202Z" fill="#191919"/>
<path d="M4.49992 6.70202C4.85903 6.70202 5.15016 6.41091 5.15016 6.05179C5.15016 5.69268 4.85903 5.40156 4.49992 5.40156C4.14081 5.40156 3.84969 5.69268 3.84969 6.05179C3.84969 6.41091 4.14081 6.70202 4.49992 6.70202Z" fill="#191919"/>
<path d="M6.2364 6.70202C6.59551 6.70202 6.88664 6.41091 6.88664 6.05179C6.88664 5.69268 6.59551 5.40156 6.2364 5.40156C5.87729 5.40156 5.58617 5.69268 5.58617 6.05179C5.58617 6.41091 5.87729 6.70202 6.2364 6.70202Z" fill="#191919"/>
</svg>
