<svg width="184" height="74" viewBox="0 0 184 74" fill="none" xmlns="http://www.w3.org/2000/svg">
<g opacity="0.33">
<path d="M0.00184506 36.6751H4.16892V41.1421H0.00184506V36.6751Z" fill="#FF6B59"/>
<path d="M3.94607 39.6482C3.94607 39.6482 3.82685 39.7198 3.64803 39.8264C3.46462 39.9384 3.21976 40.0863 2.97491 40.235C2.48429 40.5363 1.95148 40.8779 1.82768 40.9615L0 38.1834C0.154982 38.0796 0.719885 37.7187 1.23343 37.4046C1.48746 37.2494 1.7424 37.0942 1.93406 36.9776C2.1193 36.8674 2.24311 36.7939 2.24311 36.7939L3.94607 39.6482Z" fill="#FF6B59"/>
<path d="M6.18182 43.3975C6.18182 43.3975 6.0681 43.4645 5.89845 43.5665C5.72513 43.6711 5.49403 43.8126 5.26293 43.9531C4.79891 44.2369 4.31012 44.55 4.22667 44.606L2.39898 41.8289C2.51362 41.7517 3.03542 41.4165 3.52054 41.1208C3.76172 40.973 4.00291 40.827 4.18356 40.7177C4.36056 40.6111 4.47886 40.5413 4.47886 40.5413L6.18182 43.3975Z" fill="#FF6B59"/>
<path d="M8.41858 47.1444C8.41858 47.1444 8.31037 47.2087 8.14805 47.3061C7.98573 47.4043 7.76839 47.5384 7.55013 47.6698C7.11545 47.9361 6.66885 48.2245 6.62575 48.252L4.79715 45.4739C4.87235 45.4262 5.35105 45.1167 5.80774 44.8384C6.03517 44.6988 6.26351 44.5611 6.43408 44.4582C6.60282 44.3554 6.7147 44.2901 6.7147 44.2901L8.41858 47.1444Z" fill="#FF6B59"/>
<path d="M10.6543 50.8934C10.6543 50.8934 10.2444 51.1368 9.83815 51.3875C9.63457 51.5143 9.43098 51.641 9.27875 51.7356C9.12561 51.8339 9.02381 51.9 9.02381 51.9L7.19613 49.1219C7.23098 49.098 7.66658 48.8179 8.09576 48.5544C8.52494 48.2917 8.95137 48.0373 8.95137 48.0373L10.6543 50.8934Z" fill="#FF6B59"/>
<path d="M10.8717 45.7314C10.8717 45.7314 10.4397 45.972 10.0087 46.219C9.57679 46.4679 9.14577 46.7168 9.14577 46.7168L7.46941 43.845C7.46941 43.845 7.91509 43.5888 8.36078 43.3317C8.80555 43.0745 9.2494 42.8284 9.2494 42.8284L10.8717 45.7314Z" fill="#FF6B59"/>
<path d="M13.001 49.5418C13.001 49.5418 12.5846 49.7723 12.172 50.0101C11.7584 50.2471 11.3466 50.4849 11.3466 50.4849L9.67025 47.615C9.67025 47.615 10.0967 47.368 10.524 47.1219C10.9505 46.8757 11.3787 46.6388 11.3787 46.6388L13.001 49.5418Z" fill="#FF6B59"/>
<path d="M13.8475 39.2135C13.8475 39.2135 13.3972 39.4421 12.947 39.6717C12.4967 39.905 12.0473 40.1383 12.0473 40.1383L10.5085 37.1894C10.5085 37.1894 10.9689 36.9515 11.4283 36.7137C11.8896 36.4795 12.349 36.2444 12.349 36.2444L13.8475 39.2135Z" fill="#FF6B59"/>
<path d="M15.8136 43.1101C15.8136 43.1101 15.3771 43.3333 14.9397 43.5555C14.5041 43.7814 14.0676 44.0064 14.0676 44.0064L12.5288 41.0594C12.5288 41.0594 12.9754 40.827 13.421 40.5956C13.8686 40.3688 14.3161 40.141 14.3161 40.141L15.8136 43.1101Z" fill="#FF6B59"/>
<path d="M17.7807 47.0067C17.7807 47.0067 17.3561 47.2225 16.9324 47.4374C16.5096 47.6569 16.0878 47.8764 16.0878 47.8764L14.549 44.9275C14.549 44.9275 14.9818 44.7034 15.4147 44.4803C15.8485 44.2589 16.2822 44.0376 16.2822 44.0376L17.7807 47.0067Z" fill="#FF6B59"/>
<path d="M15.378 48.2494C15.378 48.2494 14.958 48.4735 14.5389 48.6975C14.1208 48.9244 13.7026 49.1531 13.7026 49.1531L12.1014 46.2391C12.1014 46.2391 12.5297 46.004 12.9598 45.7707C13.3908 45.5402 13.8209 45.3097 13.8209 45.3097L15.378 48.2494Z" fill="#FF6B59"/>
<path d="M17.1754 32.7636L15.3074 33.6379L13.8805 30.6358L15.7852 29.7449L17.1754 32.7636Z" fill="#FF6B59"/>
<path d="M19.0004 36.7294L17.1809 37.5817L15.754 34.5777L17.6101 33.7089L19.0004 36.7294Z" fill="#FF6B59"/>
<path d="M20.8253 40.695L19.0545 41.5234L17.6276 38.5194L19.4351 37.6745L20.8253 40.695Z" fill="#FF6B59"/>
<path d="M22.6511 44.6577L20.9289 45.4649L19.501 42.4618L21.2608 41.6381L22.6511 44.6577Z" fill="#FF6B59"/>
<path d="M18.3493 41.8622C18.3493 41.8622 17.9091 42.0753 17.468 42.2883C17.0288 42.506 16.5904 42.7218 16.5904 42.7218L15.1094 39.7454C15.1094 39.7454 15.5578 39.5231 16.0072 39.3018C16.4565 39.0841 16.9068 38.8665 16.9068 38.8665L18.3493 41.8622Z" fill="#FF6B59"/>
<path d="M20.242 45.7936C20.242 45.7936 19.8138 46.0012 19.3864 46.2097C18.96 46.4191 18.5336 46.6303 18.5336 46.6303L17.0525 43.6529C17.0525 43.6529 17.489 43.438 17.9246 43.2213C18.3621 43.0101 18.7995 42.7988 18.7995 42.7988L20.242 45.7936Z" fill="#FF6B59"/>
<path d="M21.6011 35.5621C21.6011 35.5621 21.1417 35.7642 20.6841 35.9662C20.2274 36.1729 19.7707 36.3795 19.7707 36.3795L18.3951 33.3525C18.3951 33.3525 18.861 33.1413 19.3268 32.9301C19.7936 32.7244 20.2613 32.5177 20.2613 32.5177L21.6011 35.5621Z" fill="#FF6B59"/>
<path d="M23.3591 39.5569C23.3591 39.5569 22.9116 39.7525 22.465 39.9509C22.0202 40.152 21.5764 40.3522 21.5764 40.3522L20.1999 37.3262C20.1999 37.3262 20.6547 37.1205 21.1087 36.9138C21.5635 36.7136 22.0193 36.5125 22.0193 36.5125L23.3591 39.5569Z" fill="#FF6B59"/>
<path d="M25.1171 43.552C25.1171 43.552 24.6815 43.743 24.2469 43.9349C23.814 44.1305 23.3812 44.328 23.3812 44.328L22.0056 41.301C22.0056 41.301 22.4476 41.1008 22.8896 40.8997C23.3335 40.7041 23.7782 40.5085 23.7782 40.5085L25.1171 43.552Z" fill="#FF6B59"/>
<path d="M22.5227 30.412C22.5227 30.412 22.0504 30.6131 21.5781 30.8134C21.3425 30.9153 21.1068 31.0154 20.9298 31.0907C20.7528 31.1669 20.6354 31.2193 20.6354 31.2193L19.3112 28.1684C19.3112 28.1684 19.4313 28.117 19.6111 28.039C19.7908 27.9618 20.0311 27.858 20.2713 27.757C20.7528 27.5513 21.2333 27.3474 21.2333 27.3474L22.5227 30.412Z" fill="#FF6B59"/>
<path d="M24.2147 34.4351C24.2147 34.4351 23.7543 34.6307 23.294 34.8263C23.0638 34.9255 22.8336 35.0229 22.6603 35.0963C22.4888 35.1716 22.3742 35.2212 22.3742 35.2212L21.049 32.1713C21.049 32.1713 21.1664 32.1208 21.3416 32.0446C21.5176 31.9693 21.7524 31.8692 21.9872 31.77C22.4567 31.5698 22.9262 31.3705 22.9262 31.3705L24.2147 34.4351Z" fill="#FF6B59"/>
<path d="M25.9076 38.4586C25.9076 38.4586 25.4582 38.6496 25.0098 38.8407C24.7851 38.9362 24.5604 39.0317 24.3917 39.1042C24.2239 39.1768 24.112 39.2245 24.112 39.2245L22.7878 36.1765C22.7878 36.1765 22.9015 36.126 23.073 36.0506C23.2454 35.979 23.4737 35.8798 23.703 35.7825C24.1606 35.5887 24.6182 35.394 24.6182 35.394L25.9076 38.4586Z" fill="#FF6B59"/>
<path d="M27.5996 42.4821C27.5996 42.4821 27.1621 42.6685 26.7247 42.855C26.5055 42.9477 26.2873 43.0405 26.1231 43.1103C25.9599 43.181 25.8508 43.2297 25.8508 43.2297L24.5265 40.1788C24.5265 40.1788 24.6375 40.1302 24.8044 40.0585C24.9713 39.986 25.1951 39.8923 25.4179 39.7968C25.8645 39.6076 26.3102 39.4175 26.3102 39.4175L27.5996 42.4821Z" fill="#FF6B59"/>
<path d="M30.0995 41.4545C30.0995 41.4545 29.9894 41.4985 29.8234 41.5638C29.6584 41.6308 29.4383 41.7226 29.2191 41.8117C28.7789 41.9935 28.3396 42.1736 28.3396 42.1736L27.0649 39.1034C27.0649 39.1034 27.5134 38.9179 27.9618 38.7342C28.1856 38.6424 28.4102 38.5497 28.5781 38.4808C28.7468 38.4137 28.8596 38.3697 28.8596 38.3697L30.0995 41.4545Z" fill="#FF6B59"/>
<path d="M26.3652 24.1669C26.3652 24.1669 25.8764 24.3552 25.3867 24.5434C24.8989 24.7354 24.4119 24.9282 24.4119 24.9282L23.1867 21.837C23.1867 21.837 23.6828 21.6414 24.179 21.4439C24.6769 21.2529 25.1749 21.0619 25.1749 21.0619L26.3652 24.1669Z" fill="#FF6B59"/>
<path d="M27.9279 28.2427C27.9279 28.2427 27.4501 28.4254 26.9723 28.6091C26.4963 28.7964 26.0195 28.9865 26.0195 28.9865L24.7952 25.8953C24.7952 25.8953 25.2794 25.7024 25.7645 25.5114C26.2506 25.325 26.7366 25.1367 26.7366 25.1367L27.9279 28.2427Z" fill="#FF6B59"/>
<path d="M29.4905 32.3173C29.4905 32.3173 29.0237 32.4955 28.5578 32.6755C28.0929 32.8591 27.6279 33.0437 27.6279 33.0437L26.4028 29.9525C26.4028 29.9525 26.8769 29.7651 27.3501 29.5769C27.8251 29.395 28.3001 29.2132 28.3001 29.2132L29.4905 32.3173Z" fill="#FF6B59"/>
<path d="M31.0532 36.3921C31.0532 36.3921 30.5983 36.5675 30.1426 36.742C29.6895 36.922 29.2365 37.1011 29.2365 37.1011L28.0113 34.0089C28.0113 34.0089 28.4735 33.8271 28.9357 33.6444C29.3988 33.4653 29.8629 33.288 29.8629 33.288L31.0532 36.3921Z" fill="#FF6B59"/>
<path d="M32.6158 40.4687C32.6158 40.4687 32.172 40.6377 31.7281 40.8085C31.2861 40.9839 30.8441 41.1575 30.8441 41.1575L29.6189 38.0662C29.6189 38.0662 30.0701 37.8881 30.5204 37.7099C30.9725 37.5372 31.4255 37.3637 31.4255 37.3637L32.6158 40.4687Z" fill="#FF6B59"/>
<path d="M26.1561 14.9255C26.1561 14.9255 25.6426 15.1128 25.1281 15.3011C24.8713 15.3957 24.6146 15.4921 24.4229 15.5665C24.2312 15.6381 24.1028 15.6877 24.1028 15.6877L22.9263 12.5763C22.9263 12.5763 23.0574 12.5285 23.2527 12.4532C23.4471 12.3779 23.7076 12.2805 23.9699 12.185C24.4926 11.994 25.0153 11.8012 25.0153 11.8012L26.1561 14.9255Z" fill="#FF6B59"/>
<path d="M27.6555 19.0239C27.6555 19.0239 27.152 19.2085 26.6495 19.3931C26.3982 19.484 26.1469 19.5777 25.959 19.6502C25.771 19.7219 25.6462 19.7687 25.6462 19.7687L24.4706 16.6591C24.4706 16.6591 24.5971 16.6104 24.7888 16.5379C24.9795 16.4644 25.2345 16.368 25.4903 16.2752C26.0021 16.0888 26.5128 15.9014 26.5128 15.9014L27.6555 19.0239Z" fill="#FF6B59"/>
<path d="M29.153 23.1235C29.153 23.1235 28.6615 23.3035 28.17 23.4835C27.9242 23.5735 27.6793 23.6653 27.4959 23.736C27.3125 23.8049 27.1896 23.8526 27.1896 23.8526L26.014 20.7421C26.014 20.7421 26.1387 20.6953 26.3248 20.6227C26.5119 20.5511 26.7614 20.4565 27.0117 20.3665C27.5115 20.1828 28.0122 20.0001 28.0122 20.0001L29.153 23.1235Z" fill="#FF6B59"/>
<path d="M30.6524 27.2224C30.6524 27.2224 30.1719 27.3987 29.6913 27.5751C29.4511 27.6614 29.2117 27.7514 29.0329 27.8212C28.8532 27.8901 28.733 27.9351 28.733 27.9351L27.5574 24.8246C27.5574 24.8246 27.6793 24.7786 27.8618 24.7098C28.0443 24.639 28.2882 24.5463 28.5331 24.4581C29.0219 24.2781 29.5098 24.1 29.5098 24.1L30.6524 27.2224Z" fill="#FF6B59"/>
<path d="M32.1499 31.3227C32.1499 31.3227 31.6813 31.4944 31.2127 31.6653C30.978 31.7498 30.7441 31.8388 30.569 31.9068C30.3938 31.972 30.2773 32.0179 30.2773 32.0179L29.1017 28.9065C29.1017 28.9065 29.22 28.8624 29.3988 28.7935C29.5767 28.7246 29.8151 28.6346 30.0536 28.5492C30.5304 28.3738 31.0091 28.2002 31.0091 28.2002L32.1499 31.3227Z" fill="#FF6B59"/>
<path d="M33.6493 35.4213C33.6493 35.4213 33.1908 35.5885 32.7332 35.7556C32.5039 35.8392 32.2765 35.9255 32.1059 35.9907C31.9344 36.0569 31.8207 36.0991 31.8207 36.0991L30.6451 32.9886C30.6451 32.9886 30.7606 32.9454 30.9348 32.8793C31.1082 32.8123 31.3411 32.7241 31.574 32.6396C32.0408 32.4688 32.5067 32.2989 32.5067 32.2989L33.6493 35.4213Z" fill="#FF6B59"/>
<path d="M35.1469 39.5212C35.1469 39.5212 34.7012 39.6838 34.2546 39.8482C34.0308 39.929 33.8089 40.0135 33.642 40.0768C33.476 40.1393 33.3641 40.1815 33.3641 40.1815L32.1884 37.0719C32.1884 37.0719 32.3022 37.0297 32.4718 36.9645C32.6415 36.8983 32.868 36.8139 33.0954 36.7312C33.5503 36.5641 34.006 36.3988 34.006 36.3988L35.1469 39.5212Z" fill="#FF6B59"/>
<path d="M33.3898 26.246C33.3898 26.246 32.9074 26.415 32.425 26.584C32.1839 26.6684 31.9427 26.7539 31.762 26.8181C31.5814 26.8824 31.4612 26.9256 31.4612 26.9256L30.3342 23.7976C30.3342 23.7976 30.4571 23.7535 30.6405 23.6874C30.8239 23.6213 31.0696 23.535 31.3154 23.4495C31.806 23.2769 32.2967 23.1042 32.2967 23.1042L33.3898 26.246Z" fill="#FF6B59"/>
<path d="M34.8241 30.3689C34.8241 30.3689 34.3527 30.5323 33.8813 30.6995C33.6466 30.7821 33.4109 30.8648 33.2339 30.9263C33.0587 30.9906 32.9414 31.0328 32.9414 31.0328L31.8134 27.9039C31.8134 27.9039 31.9326 27.8617 32.1124 27.7956C32.2921 27.7331 32.5324 27.6486 32.7717 27.5642C33.2522 27.3961 33.7319 27.2271 33.7319 27.2271L34.8241 30.3689Z" fill="#FF6B59"/>
<path d="M36.2584 34.4905C36.2584 34.4905 35.798 34.6521 35.3386 34.8128C35.1084 34.8927 34.8791 34.9745 34.7067 35.036C34.5343 35.0966 34.4206 35.1389 34.4206 35.1389L33.2926 32.01C33.2926 32.01 33.41 31.9677 33.5852 31.9053C33.7603 31.8428 33.9951 31.7611 34.2289 31.6784C34.6975 31.5141 35.1652 31.3487 35.1652 31.3487L36.2584 34.4905Z" fill="#FF6B59"/>
<path d="M37.6927 38.6119C37.6927 38.6119 37.2442 38.7708 36.7958 38.9269C36.5711 39.0059 36.3473 39.0849 36.1795 39.1437C36.0117 39.2043 35.8998 39.2456 35.8998 39.2456L34.7728 36.1167C34.7728 36.1167 34.8865 36.0763 35.057 36.0129C35.2285 35.9533 35.4569 35.8734 35.6861 35.7916C36.1428 35.6318 36.6004 35.472 36.6004 35.472L37.6927 38.6119Z" fill="#FF6B59"/>
<path d="M32.0317 12.8783L29.9582 13.5744L28.8798 10.4299L30.989 9.72186L32.0317 12.8783Z" fill="#FF6B59"/>
<path d="M33.4018 17.023L31.3733 17.7045L30.2948 14.559L32.3582 13.8657L33.4018 17.023Z" fill="#FF6B59"/>
<path d="M34.7718 21.1664L32.7882 21.8322L31.7098 18.6868L33.7282 18.0091L34.7718 21.1664Z" fill="#FF6B59"/>
<path d="M36.1419 25.3111L34.2033 25.9603L33.1248 22.8158L35.0983 22.1537L36.1419 25.3111Z" fill="#FF6B59"/>
<path d="M37.5119 29.4548L35.6182 30.0903L34.5407 26.9449L36.4683 26.2983L37.5119 29.4548Z" fill="#FF6B59"/>
<path d="M38.8821 33.5986L37.0342 34.2194L35.9557 31.0731L37.8385 30.4421L38.8821 33.5986Z" fill="#FF6B59"/>
<path d="M40.2521 37.7442L38.4492 38.3476L37.3707 35.2031L39.2076 34.5859L40.2521 37.7442Z" fill="#FF6B59"/>
<path d="M36.2968 16.0906L34.2582 16.7408L33.2293 13.5788L35.3018 12.9176L36.2968 16.0906Z" fill="#FF6B59"/>
<path d="M37.6018 20.2548L35.6091 20.8912L34.5802 17.7293L36.6078 17.0827L37.6018 20.2548Z" fill="#FF6B59"/>
<path d="M38.9077 24.4192L36.9608 25.0428L35.9309 21.8799L37.9136 21.2463L38.9077 24.4192Z" fill="#FF6B59"/>
<path d="M40.2135 28.5852L38.3116 29.1932L37.2817 26.0303L39.2185 25.4122L40.2135 28.5852Z" fill="#FF6B59"/>
<path d="M41.5186 32.75L39.6625 33.3432L38.6326 30.1813L40.5245 29.577L41.5186 32.75Z" fill="#FF6B59"/>
<path d="M42.8244 36.9139L41.0123 37.4934L39.9843 34.3305L41.8294 33.7409L42.8244 36.9139Z" fill="#FF6B59"/>
<path d="M44.1679 31.9411L42.3036 32.5068L41.3232 29.3292L43.2234 28.7525L44.1679 31.9411Z" fill="#FF6B59"/>
<path d="M45.4096 36.126L43.5902 36.6779L42.6098 33.5003L44.4641 32.9374L45.4096 36.126Z" fill="#FF6B59"/>
<path d="M44.4788 22.7681L42.5136 23.3302L41.5837 20.1388L43.5838 19.5648L44.4788 22.7681Z" fill="#FF6B59"/>
<path d="M45.6545 26.9699L43.7351 27.5219L42.8043 24.3287L44.7594 23.7694L45.6545 26.9699Z" fill="#FF6B59"/>
<path d="M46.8302 31.1731L44.9575 31.7112L44.0258 28.5199L45.9351 27.9707L46.8302 31.1731Z" fill="#FF6B59"/>
<path d="M48.0057 35.3773L46.179 35.9017L45.2482 32.7086L47.1107 32.1741L48.0057 35.3773Z" fill="#FF6B59"/>
<path d="M47.2841 22.0071L45.3106 22.5388L44.4293 19.3346L46.4385 18.79L47.2841 22.0071Z" fill="#FF6B59"/>
<path d="M48.3946 26.2275L46.4661 26.7491L45.5857 23.5422L47.5491 23.0123L48.3946 26.2275Z" fill="#FF6B59"/>
<path d="M49.5042 30.4476L47.6224 30.9573L46.7421 27.7503L48.6587 27.2333L49.5042 30.4476Z" fill="#FF6B59"/>
<path d="M50.6148 34.6704L48.7789 35.1654L47.8976 31.9603L49.7684 31.4543L50.6148 34.6704Z" fill="#FF6B59"/>
<path d="M52.1893 29.7654L50.3002 30.2438L49.4684 27.025L51.3942 26.5373L52.1893 29.7654Z" fill="#FF6B59"/>
<path d="M53.2339 34.0028L51.3906 34.4703L50.5598 31.2504L52.4379 30.7747L53.2339 34.0028Z" fill="#FF6B59"/>
<path d="M56.681 24.2577L54.7286 24.6838L53.9987 21.4392L55.9868 21.0048L56.681 24.2577Z" fill="#FF6B59"/>
<path d="M57.5917 28.5253L55.6869 28.9423L54.957 25.6977L56.8974 25.2743L57.5917 28.5253Z" fill="#FF6B59"/>
<path d="M58.5024 32.795L56.6444 33.2009L55.9144 29.9563L57.8082 29.5421L58.5024 32.795Z" fill="#FF6B59"/>
<path d="M55.8631 33.3771L54.0125 33.8151L53.232 30.5825L55.1184 30.1371L55.8631 33.3771Z" fill="#FF6B59"/>
<path d="M61.4809 18.8668L59.4661 19.2369L58.8398 15.9712L60.8903 15.5955L61.4809 18.8668Z" fill="#FF6B59"/>
<path d="M62.2558 23.1631L60.2896 23.5231L59.6633 20.2565L61.6652 19.89L62.2558 23.1631Z" fill="#FF6B59"/>
<path d="M63.0316 27.4574L61.1131 27.8101L60.485 24.5434L62.441 24.1862L63.0316 27.4574Z" fill="#FF6B59"/>
<path d="M63.8066 31.7538L61.9358 32.0954L61.3086 28.8297L63.216 28.4807L63.8066 31.7538Z" fill="#FF6B59"/>
<path d="M60.3474 27.9618L58.4354 28.3457L57.7577 25.0901L59.7064 24.7007L60.3474 27.9618Z" fill="#FF6B59"/>
<path d="M61.1902 32.245L59.3249 32.6197L58.6472 29.3641L60.5482 28.982L61.1902 32.245Z" fill="#FF6B59"/>
<path d="M65.0574 22.6802C65.0574 22.6802 64.564 22.7619 64.0706 22.8418C63.8239 22.8841 63.5763 22.9217 63.392 22.9557C63.2077 22.9888 63.0848 23.0108 63.0848 23.0108L62.5098 19.7359C62.5098 19.7359 62.6354 19.7129 62.8225 19.6799C63.0105 19.6459 63.2627 19.6064 63.514 19.5642C64.0165 19.4806 64.5191 19.3998 64.5191 19.3998L65.0574 22.6802Z" fill="#FF6B59"/>
<path d="M65.7635 26.9871C65.7635 26.9871 65.2821 27.067 64.8006 27.1451C64.5603 27.1855 64.3201 27.2222 64.1394 27.2553C63.9597 27.2883 63.8395 27.3095 63.8395 27.3095L63.2645 24.0355C63.2645 24.0355 63.3865 24.0134 63.5699 23.9795C63.7533 23.9464 63.9991 23.9087 64.2439 23.8674C64.7346 23.7866 65.2252 23.7058 65.2252 23.7058L65.7635 26.9871Z" fill="#FF6B59"/>
<path d="M66.4696 31.2943C66.4696 31.2943 66.001 31.3724 65.5315 31.4496C65.2967 31.4881 65.062 31.5249 64.8859 31.5561C64.7116 31.5873 64.5943 31.6093 64.5943 31.6093L64.0193 28.3344C64.0193 28.3344 64.1385 28.3124 64.3173 28.2793C64.4961 28.2463 64.7355 28.2105 64.9748 28.17C65.4526 28.092 65.9313 28.013 65.9313 28.013L66.4696 31.2943Z" fill="#FF6B59"/>
<path d="M67.229 17.9257C67.229 17.9257 66.7219 17.9982 66.2147 18.0726C65.9607 18.1066 65.7085 18.1525 65.5187 18.1819C65.3298 18.2131 65.2032 18.2333 65.2032 18.2333L64.6805 14.9501C64.6805 14.9501 64.8089 14.929 65.0024 14.8987C65.1959 14.8675 65.4518 14.8216 65.7104 14.7857C66.2276 14.7104 66.7439 14.6351 66.7439 14.6351L67.229 17.9257Z" fill="#FF6B59"/>
<path d="M67.8663 22.2432C67.8663 22.2432 67.3711 22.3157 66.8759 22.3873C66.6283 22.4204 66.3826 22.4645 66.1973 22.4939C66.0121 22.5242 65.8892 22.5444 65.8892 22.5444L65.3665 19.2603C65.3665 19.2603 65.4921 19.2401 65.6801 19.2089C65.869 19.1786 66.1194 19.1345 66.3725 19.1005C66.8769 19.027 67.3812 18.9526 67.3812 18.9526L67.8663 22.2432Z" fill="#FF6B59"/>
<path d="M68.5037 26.561C68.5037 26.561 68.0204 26.6298 67.538 26.7006C67.2959 26.7327 67.0557 26.7768 66.875 26.8053C66.6953 26.8356 66.5751 26.8539 66.5751 26.8539L66.0524 23.5698C66.0524 23.5698 66.1744 23.5515 66.3587 23.5202C66.5421 23.4918 66.787 23.4477 67.0337 23.4137C67.5261 23.343 68.0177 23.2714 68.0177 23.2714L68.5037 26.561Z" fill="#FF6B59"/>
<path d="M69.1401 30.8794C69.1401 30.8794 68.6697 30.9464 68.1992 31.0153C67.9635 31.0465 67.7297 31.0888 67.5536 31.1172C67.3776 31.1448 67.2602 31.1659 67.2602 31.1659L66.7374 27.8818C66.7374 27.8818 66.8576 27.8616 67.0373 27.8322C67.2162 27.8038 67.4546 27.7615 67.6958 27.7284C68.1754 27.6596 68.655 27.5889 68.655 27.5889L69.1401 30.8794Z" fill="#FF6B59"/>
<path d="M71.817 30.5045C71.817 30.5045 71.6996 30.5182 71.5226 30.5421C71.3456 30.5641 71.109 30.5908 70.8743 30.6266C70.4038 30.6955 69.9334 30.7634 69.9334 30.7634L69.4638 27.4711C69.4638 27.4711 69.9434 27.4022 70.4231 27.3315C70.6633 27.2957 70.9036 27.269 71.0843 27.2461C71.2649 27.2222 71.385 27.2066 71.385 27.2066L71.817 30.5045Z" fill="#FF6B59"/>
<path d="M72.5112 12.8269C72.5112 12.8269 72.38 12.8416 72.1847 12.8618C71.9894 12.8866 71.7289 12.9197 71.4676 12.9527C70.9467 13.0179 70.4258 13.0822 70.4258 13.0822L70.0095 9.78435C70.0095 9.78435 70.5404 9.71731 71.0705 9.64935C71.3355 9.61629 71.6015 9.58415 71.8005 9.55935C71.9995 9.53731 72.1324 9.52353 72.1324 9.52353L72.5112 12.8269Z" fill="#FF6B59"/>
<path d="M73.0082 17.1624C73.0082 17.1624 72.8807 17.1762 72.6891 17.1964C72.4983 17.2221 72.2443 17.2533 71.9903 17.2845C71.4813 17.3488 70.9723 17.4131 70.9723 17.4131L70.556 14.1152C70.556 14.1152 71.0741 14.0491 71.5923 13.983C71.8518 13.9518 72.1104 13.9187 72.3048 13.8939C72.4992 13.8737 72.6294 13.8599 72.6294 13.8599L73.0082 17.1624Z" fill="#FF6B59"/>
<path d="M73.5053 21.4992C73.5053 21.4992 73.3806 21.513 73.1944 21.5341C73.0083 21.557 72.7598 21.5883 72.5122 21.6186C72.016 21.681 71.519 21.7435 71.519 21.7435L71.1026 18.4438C71.1026 18.4438 71.6089 18.3813 72.1142 18.317C72.3673 18.2858 72.6204 18.2546 72.8102 18.2298C73 18.2086 73.1266 18.1967 73.1266 18.1967L73.5053 21.4992Z" fill="#FF6B59"/>
<path d="M74.0023 25.8358C74.0023 25.8358 73.8813 25.8486 73.6997 25.8688C73.5172 25.8909 73.276 25.9221 73.033 25.9515C72.5497 26.013 72.0655 26.0745 72.0655 26.0745L71.6492 22.7739C71.6492 22.7739 72.1426 22.7133 72.6359 22.6508C72.8826 22.6196 73.1293 22.5884 73.3146 22.5663C73.5007 22.5461 73.6236 22.5315 73.6236 22.5315L74.0023 25.8358Z" fill="#FF6B59"/>
<path d="M74.4994 30.172C74.4994 30.172 74.3811 30.1849 74.2041 30.2033C74.0271 30.2253 73.7914 30.2547 73.5557 30.285C73.0835 30.3447 72.6121 30.4035 72.6121 30.4035L72.1957 27.1047C72.1957 27.1047 72.6763 27.045 73.1577 26.9844C73.3989 26.9541 73.6392 26.9228 73.8189 26.9008C74.0005 26.8806 74.1206 26.8687 74.1206 26.8687L74.4994 30.172Z" fill="#FF6B59"/>
<path d="M74.6296 3.82316L72.4397 4.05459L72.0765 0.749373L74.305 0.512433L74.6296 3.82316Z" fill="#FF6B59"/>
<path d="M75.056 8.16633L72.9156 8.39317L72.5534 5.08887L74.7314 4.85744L75.056 8.16633Z" fill="#FF6B59"/>
<path d="M75.4824 12.5109L73.3915 12.7332L73.0293 9.42795L75.1578 9.20203L75.4824 12.5109Z" fill="#FF6B59"/>
<path d="M75.9089 16.854L73.8685 17.0716L73.5053 13.7655L75.5834 13.5442L75.9089 16.854Z" fill="#FF6B59"/>
<path d="M76.3344 21.1981L74.3444 21.4102L73.9812 18.1041L76.0098 17.8892L76.3344 21.1981Z" fill="#FF6B59"/>
<path d="M76.7608 25.5409L74.8203 25.7476L74.4572 22.4423L76.4362 22.2329L76.7608 25.5409Z" fill="#FF6B59"/>
<path d="M77.1872 29.8856L75.2962 30.0867L74.934 26.7824L76.8626 26.5767L77.1872 29.8856Z" fill="#FF6B59"/>
<path d="M78.815 16.5969L76.7699 16.7732L76.4609 13.4634L78.5444 13.2834L78.815 16.5969Z" fill="#FF6B59"/>
<path d="M79.1699 20.947L77.1744 21.1197L76.8663 17.8099L78.8994 17.6317L79.1699 20.947Z" fill="#FF6B59"/>
<path d="M79.5248 25.2964L77.5797 25.4653L77.2716 22.1555L79.2543 21.9829L79.5248 25.2964Z" fill="#FF6B59"/>
<path d="M79.8797 29.6479L77.985 29.8123L77.6769 26.4998L79.6091 26.3345L79.8797 29.6479Z" fill="#FF6B59"/>
<path d="M80.8765 3.319L78.6756 3.46777L78.4216 0.150613L80.661 0L80.8765 3.319Z" fill="#FF6B59"/>
<path d="M81.16 7.67376L79.0095 7.81886L78.7554 4.50354L80.9444 4.35568L81.16 7.67376Z" fill="#FF6B59"/>
<path d="M81.4432 12.0299L79.3432 12.1704L79.0892 8.85504L81.2277 8.71177L81.4432 12.0299Z" fill="#FF6B59"/>
<path d="M81.7267 16.3855L79.6771 16.5233L79.423 13.208L81.5112 13.0675L81.7267 16.3855Z" fill="#FF6B59"/>
<path d="M82.01 20.7404L80.0108 20.8736L79.7559 17.5582L81.7935 17.4223L82.01 20.7404Z" fill="#FF6B59"/>
<path d="M82.2925 25.0962L80.3447 25.2266L80.0897 21.9113L82.077 21.7772L82.2925 25.0962Z" fill="#FF6B59"/>
<path d="M82.5759 29.4513L80.6776 29.5781L80.4236 26.2637L82.3595 26.1333L82.5759 29.4513Z" fill="#FF6B59"/>
<path d="M84.2201 7.50119C84.2201 7.50119 83.6808 7.5269 83.1425 7.55078C82.8729 7.5618 82.6042 7.57833 82.4025 7.59302C82.2007 7.60496 82.0668 7.61506 82.0668 7.61506L81.8669 4.29607C81.8669 4.29607 82.0045 4.28688 82.209 4.27219C82.4144 4.25841 82.6877 4.24188 82.9628 4.23086C83.5112 4.20515 84.0596 4.18035 84.0596 4.18035L84.2201 7.50119Z" fill="#FF6B59"/>
<path d="M84.431 11.8607C84.431 11.8607 83.9046 11.8855 83.3792 11.9093C83.116 11.9204 82.8528 11.935 82.6565 11.9497C82.4594 11.9626 82.3282 11.9718 82.3282 11.9718L82.1292 8.65187C82.1292 8.65187 82.2622 8.64452 82.463 8.62983C82.6629 8.61605 82.9307 8.60044 83.1985 8.58942C83.7341 8.5637 84.2705 8.53891 84.2705 8.53891L84.431 11.8607Z" fill="#FF6B59"/>
<path d="M84.642 16.2213C84.642 16.2213 84.1284 16.2442 83.6158 16.2681C83.3581 16.2773 83.1022 16.2947 82.9097 16.3076C82.718 16.3195 82.5896 16.3287 82.5896 16.3287L82.3906 13.0088C82.3906 13.0088 82.5217 13.0015 82.7161 12.9886C82.9124 12.9739 83.1738 12.9574 83.4351 12.9482C83.9578 12.9225 84.4806 12.8995 84.4806 12.8995L84.642 16.2213Z" fill="#FF6B59"/>
<path d="M84.8529 20.5798C84.8529 20.5798 84.3522 20.6028 83.8515 20.6267C83.6011 20.6358 83.3508 20.6515 83.1637 20.6643C82.9766 20.6763 82.8519 20.6864 82.8519 20.6864L82.652 17.3655C82.652 17.3655 82.7795 17.3582 82.9702 17.3453C83.1619 17.3315 83.4168 17.3159 83.6718 17.3049C84.1816 17.281 84.6924 17.2581 84.6924 17.2581L84.8529 20.5798Z" fill="#FF6B59"/>
<path d="M85.0638 24.9391C85.0638 24.9391 84.5759 24.9611 84.088 24.9832C83.8441 24.9942 83.6001 25.008 83.4176 25.0227C83.2352 25.0337 83.1141 25.0429 83.1141 25.0429L82.9142 21.723C82.9142 21.723 83.038 21.7156 83.2241 21.7028C83.4103 21.6881 83.6588 21.6743 83.9083 21.6633C84.4053 21.6412 84.9024 21.6183 84.9024 21.6183L85.0638 24.9391Z" fill="#FF6B59"/>
<path d="M85.2747 29.298C85.2747 29.298 84.7988 29.32 84.3246 29.3421C84.0871 29.3512 83.8496 29.3678 83.6717 29.3797C83.4938 29.3907 83.3746 29.3981 83.3746 29.3981L83.1765 26.08C83.1765 26.08 83.2966 26.0726 83.4782 26.0598C83.6598 26.0469 83.9019 26.0322 84.144 26.0221C84.6291 26.0001 85.1133 25.9781 85.1133 25.9781L85.2747 29.298Z" fill="#FF6B59"/>
<path d="M87.837 24.8242C87.837 24.8242 87.715 24.8279 87.5316 24.8325C87.3491 24.8352 87.1043 24.8435 86.8612 24.8564C86.3734 24.8793 85.8855 24.9014 85.8855 24.9014L85.7415 21.5787C85.7415 21.5787 86.2386 21.5567 86.7365 21.5337C86.985 21.5208 87.2336 21.5126 87.4206 21.5098C87.6068 21.5052 87.7315 21.5025 87.7315 21.5025L87.837 24.8242Z" fill="#FF6B59"/>
<path d="M87.9754 29.1866C87.9754 29.1866 87.8561 29.1893 87.6782 29.1948C87.5003 29.1976 87.2628 29.2059 87.0253 29.2187C86.5494 29.2398 86.0752 29.2619 86.0752 29.2619L85.9303 25.9401C85.9303 25.9401 86.4155 25.9172 86.9006 25.8951C87.1427 25.8823 87.3848 25.8749 87.5664 25.8713C87.7479 25.8667 87.8699 25.8639 87.8699 25.8639L87.9754 29.1866Z" fill="#FF6B59"/>
<path d="M90.4817 16.0282L88.4266 16.0778L88.3367 12.7551L90.4313 12.7037L90.4817 16.0282Z" fill="#FF6B59"/>
<path d="M90.5469 20.3922L88.5431 20.4408L88.4542 17.1163L90.4974 17.0667L90.5469 20.3922Z" fill="#FF6B59"/>
<path d="M90.612 24.7565L88.6596 24.8051L88.5706 21.4806L90.5625 21.431L90.612 24.7565Z" fill="#FF6B59"/>
<path d="M90.6771 29.1213L88.7769 29.1681L88.6871 25.8427L90.6275 25.7949L90.6771 29.1213Z" fill="#FF6B59"/>
<path d="M93.3961 20.3785L91.3914 20.3868L91.3584 17.0623L93.4025 17.054L93.3961 20.3785Z" fill="#FF6B59"/>
<path d="M93.3879 24.7436L91.4355 24.7519L91.4025 21.4256L93.3943 21.4191L93.3879 24.7436Z" fill="#FF6B59"/>
<path d="M93.3805 29.1088L91.4795 29.1152L91.4455 25.7898L93.3869 25.7843L93.3805 29.1088Z" fill="#FF6B59"/>
<path d="M96.1656 24.7747L94.2123 24.7408L94.2343 21.4163L96.2271 21.4502L96.1656 24.7747Z" fill="#FF6B59"/>
<path d="M96.0831 29.1381L94.1821 29.1051L94.2041 25.7806L96.1455 25.8136L96.0831 29.1381Z" fill="#FF6B59"/>
<path d="M101.946 20.6053C101.946 20.6053 101.82 20.5961 101.632 20.5906C101.444 20.5823 101.194 20.5713 100.943 20.5621C100.442 20.541 99.942 20.5208 99.942 20.5208L100.077 17.1981C100.077 17.1981 100.587 17.2183 101.098 17.2404C101.353 17.2496 101.608 17.2606 101.801 17.2679C101.993 17.2753 102.119 17.2863 102.119 17.2863L101.946 20.6053Z" fill="#FF6B59"/>
<path d="M101.716 24.964C101.716 24.964 101.594 24.9548 101.411 24.9493C101.228 24.941 100.984 24.9309 100.74 24.9217C100.252 24.9015 99.7631 24.8813 99.7631 24.8813L99.8998 21.5596C99.8998 21.5596 100.398 21.5807 100.894 21.599C101.143 21.6101 101.393 21.6202 101.579 21.6275C101.767 21.6339 101.891 21.645 101.891 21.645L101.716 24.964Z" fill="#FF6B59"/>
<path d="M101.486 29.3236C101.486 29.3236 101.367 29.3145 101.19 29.3071C101.012 29.3016 100.774 29.2906 100.537 29.2814C100.062 29.2621 99.5862 29.2437 99.5862 29.2437L99.721 25.9202C99.721 25.9202 100.206 25.9404 100.692 25.9596C100.933 25.9688 101.176 25.9799 101.358 25.9863C101.54 25.9927 101.662 26.0028 101.662 26.0028L101.486 29.3236Z" fill="#FF6B59"/>
<path d="M98.7856 29.2109C98.7856 29.2109 98.3106 29.1916 97.8364 29.1732C97.3596 29.164 96.8855 29.1548 96.8855 29.1548L96.9634 25.8294C96.9634 25.8294 97.4495 25.8395 97.9346 25.8487C98.4188 25.8689 98.9048 25.8873 98.9048 25.8873L98.7856 29.2109Z" fill="#FF6B59"/>
<path d="M108.012 16.6629L105.961 16.4866L106.209 13.1722L108.3 13.3503L108.012 16.6629Z" fill="#FF6B59"/>
<path d="M107.634 21.0112L105.635 20.8395L105.883 17.5241L107.922 17.6977L107.634 21.0112Z" fill="#FF6B59"/>
<path d="M107.256 25.359L105.309 25.1919L105.557 21.8765L107.545 22.0474L107.256 25.359Z" fill="#FF6B59"/>
<path d="M106.879 29.7082L104.985 29.5457L105.232 26.2285L107.167 26.3947L106.879 29.7082Z" fill="#FF6B59"/>
<path d="M104.529 25.1412L102.579 25.0191L102.771 21.6992L104.761 21.825L104.529 25.1412Z" fill="#FF6B59"/>
<path d="M104.226 29.4954L102.326 29.376L102.519 26.0561L104.458 26.1791L104.226 29.4954Z" fill="#FF6B59"/>
<path d="M110.473 21.2797C110.473 21.2797 109.976 21.2265 109.477 21.1714C108.977 21.1282 108.478 21.0841 108.478 21.0841L108.782 17.7734C108.782 17.7734 109.29 17.8175 109.801 17.8634C110.308 17.9176 110.818 17.9727 110.818 17.9727L110.473 21.2797Z" fill="#FF6B59"/>
<path d="M110.022 25.6205C110.022 25.6205 109.536 25.5682 109.05 25.5159C108.563 25.4727 108.078 25.4295 108.078 25.4295L108.382 22.1188C108.382 22.1188 108.879 22.1629 109.375 22.2051C109.87 22.2602 110.367 22.3135 110.367 22.3135L110.022 25.6205Z" fill="#FF6B59"/>
<path d="M109.571 29.9626C109.571 29.9626 109.098 29.9103 108.625 29.8588C108.152 29.8184 107.678 29.7762 107.678 29.7762L107.983 26.4654C107.983 26.4654 108.467 26.5077 108.949 26.5499C109.432 26.6032 109.914 26.6546 109.914 26.6546L109.571 29.9626Z" fill="#FF6B59"/>
<path d="M113.834 17.2579L111.788 17.0338L112.149 13.7277L114.235 13.9582L113.834 17.2579Z" fill="#FF6B59"/>
<path d="M113.31 21.5909L111.315 21.3723L111.675 18.0661L113.711 18.2902L113.31 21.5909Z" fill="#FF6B59"/>
<path d="M112.783 25.9245L110.842 25.7105L111.202 22.4062L113.184 22.6239L112.783 25.9245Z" fill="#FF6B59"/>
<path d="M112.258 30.2566L110.367 30.05L110.728 26.7438L112.659 26.956L112.258 30.2566Z" fill="#FF6B59"/>
<path d="M114.937 30.6149L113.052 30.3633L113.469 27.0645L115.394 27.3207L114.937 30.6149Z" fill="#FF6B59"/>
<path d="M120.304 13.7609C120.304 13.7609 119.782 13.6792 119.262 13.5965C119.001 13.5552 118.74 13.5148 118.545 13.4854C118.348 13.457 118.218 13.4395 118.218 13.4395L118.691 10.1481C118.691 10.1481 118.824 10.1673 119.024 10.1931C119.224 10.2252 119.488 10.2675 119.755 10.3079C120.286 10.3924 120.817 10.475 120.817 10.475L120.304 13.7609Z" fill="#FF6B59"/>
<path d="M119.631 18.0735C119.631 18.0735 119.123 17.9926 118.614 17.9127C118.36 17.8742 118.105 17.8328 117.915 17.8025C117.725 17.7777 117.596 17.7594 117.596 17.7594L118.07 14.4688C118.07 14.4688 118.201 14.4863 118.395 14.5129C118.589 14.5423 118.847 14.5836 119.108 14.624C119.626 14.7076 120.145 14.7884 120.145 14.7884L119.631 18.0735Z" fill="#FF6B59"/>
<path d="M118.957 22.3851C118.957 22.3851 118.462 22.3071 117.967 22.229C117.72 22.1914 117.471 22.1519 117.285 22.1225C117.099 22.0968 116.975 22.0802 116.975 22.0802L117.448 18.7888C117.448 18.7888 117.575 18.8053 117.765 18.832C117.955 18.8623 118.207 18.9008 118.461 18.9403C118.965 19.0202 119.471 19.1001 119.471 19.1001L118.957 22.3851Z" fill="#FF6B59"/>
<path d="M118.285 26.699C118.285 26.699 117.803 26.6228 117.32 26.5456C117.079 26.508 116.838 26.4703 116.656 26.4418C116.474 26.417 116.354 26.3996 116.354 26.3996L116.827 23.11C116.827 23.11 116.951 23.1256 117.135 23.1504C117.32 23.1798 117.566 23.2193 117.814 23.2569C118.305 23.335 118.798 23.414 118.798 23.414L118.285 26.699Z" fill="#FF6B59"/>
<path d="M117.611 31.0104C117.611 31.0104 117.141 30.9369 116.673 30.8616C116.438 30.8258 116.203 30.7881 116.026 30.7597C115.85 30.7358 115.731 30.7211 115.731 30.7211L116.206 27.4287C116.206 27.4287 116.325 27.4462 116.505 27.47C116.686 27.4976 116.925 27.5352 117.165 27.5729C117.644 27.65 118.123 27.7254 118.123 27.7254L117.611 31.0104Z" fill="#FF6B59"/>
<path d="M124.761 5.64333C124.761 5.64333 124.625 5.61853 124.419 5.58088C124.216 5.54231 123.941 5.50006 123.668 5.45598C123.12 5.36965 122.573 5.28149 122.573 5.28149L123.103 1.99923C123.103 1.99923 123.661 2.08739 124.216 2.17647C124.496 2.22056 124.775 2.26372 124.981 2.30321C125.189 2.34086 125.33 2.36658 125.33 2.36658L124.761 5.64333Z" fill="#FF6B59"/>
<path d="M124.013 9.94302C124.013 9.94302 123.88 9.91914 123.681 9.88332C123.482 9.84383 123.214 9.80342 122.948 9.76118C122.412 9.67669 121.878 9.59036 121.878 9.59036L122.407 6.3081C122.407 6.3081 122.952 6.39351 123.496 6.47984C123.769 6.52392 124.041 6.56616 124.244 6.60565C124.447 6.64331 124.582 6.66626 124.582 6.66626L124.013 9.94302Z" fill="#FF6B59"/>
<path d="M123.265 14.2428C123.265 14.2428 123.137 14.2198 122.941 14.184C122.747 14.1464 122.487 14.1069 122.226 14.0646C121.706 13.9829 121.184 13.9002 121.184 13.9002L121.713 10.6161C121.713 10.6161 122.244 10.7006 122.776 10.7851C123.041 10.8274 123.307 10.8687 123.504 10.9082C123.703 10.944 123.836 10.967 123.836 10.967L123.265 14.2428Z" fill="#FF6B59"/>
<path d="M122.52 18.5437C122.52 18.5437 122.392 18.5208 122.203 18.4868C122.014 18.45 121.759 18.4115 121.505 18.3701C120.997 18.2903 120.488 18.2085 120.488 18.2085L121.018 14.9263C121.018 14.9263 121.536 15.008 122.054 15.0906C122.313 15.132 122.573 15.1715 122.767 15.2082C122.96 15.2449 123.088 15.2679 123.088 15.2679L122.52 18.5437Z" fill="#FF6B59"/>
<path d="M121.772 22.8443C121.772 22.8443 121.65 22.8214 121.463 22.7883C121.281 22.7516 121.031 22.713 120.784 22.6735C120.289 22.5954 119.793 22.5174 119.793 22.5174L120.323 19.2351C120.323 19.2351 120.828 19.315 121.334 19.3949C121.586 19.4353 121.838 19.4748 122.028 19.5106C122.216 19.5446 122.341 19.5685 122.341 19.5685L121.772 22.8443Z" fill="#FF6B59"/>
<path d="M121.027 27.1432C121.027 27.1432 120.906 27.1212 120.726 27.089C120.545 27.0541 120.304 27.0174 120.064 26.9788C119.581 26.9026 119.098 26.8273 119.098 26.8273L119.627 23.5432C119.627 23.5432 120.12 23.6212 120.613 23.7002C120.859 23.7388 121.105 23.7774 121.289 23.8132C121.472 23.8453 121.595 23.8674 121.595 23.8674L121.027 27.1432Z" fill="#FF6B59"/>
<path d="M120.28 31.4441C120.28 31.4441 120.162 31.4239 119.988 31.3908C119.813 31.3569 119.578 31.3211 119.342 31.2843C118.873 31.209 118.402 31.1355 118.402 31.1355L118.932 27.8533C118.932 27.8533 119.412 27.9286 119.891 28.0039C120.131 28.0434 120.372 28.0792 120.551 28.1141C120.73 28.1472 120.848 28.1683 120.848 28.1683L120.28 31.4441Z" fill="#FF6B59"/>
<path d="M125.398 19.07L123.374 18.6999L123.959 15.4268L126.023 15.8042L125.398 19.07Z" fill="#FF6B59"/>
<path d="M124.579 23.357L122.604 22.9952L123.19 19.7221L125.204 20.0904L124.579 23.357Z" fill="#FF6B59"/>
<path d="M123.76 27.6438L121.838 27.292L122.422 24.0199L124.383 24.379L123.76 27.6438Z" fill="#FF6B59"/>
<path d="M122.938 31.9317L121.068 31.5891L121.653 28.316L123.563 28.665L122.938 31.9317Z" fill="#FF6B59"/>
<path d="M130.943 6.83274L128.774 6.38182L129.417 3.11976L131.622 3.57711L130.943 6.83274Z" fill="#FF6B59"/>
<path d="M130.052 11.1048L127.933 10.6649L128.575 7.40195L130.731 7.85011L130.052 11.1048Z" fill="#FF6B59"/>
<path d="M129.158 15.3781L127.092 14.9474L127.734 11.6854L129.839 12.1225L129.158 15.3781Z" fill="#FF6B59"/>
<path d="M128.267 19.6505L126.25 19.2308L126.891 15.9688L128.945 16.3949L128.267 19.6505Z" fill="#FF6B59"/>
<path d="M127.374 23.9227L125.409 23.514L126.05 20.2501L128.054 20.6671L127.374 23.9227Z" fill="#FF6B59"/>
<path d="M126.481 28.1929L124.568 27.7952L125.209 24.5331L127.161 24.9391L126.481 28.1929Z" fill="#FF6B59"/>
<path d="M125.589 32.4653L123.727 32.0787L124.367 28.8157L126.27 29.2116L125.589 32.4653Z" fill="#FF6B59"/>
<path d="M133.055 11.7544C133.055 11.7544 132.923 11.725 132.726 11.6791C132.528 11.6332 132.267 11.568 132.002 11.5129C131.472 11.4018 130.943 11.2897 130.943 11.2897L131.64 8.03961C131.64 8.03961 132.177 8.15257 132.718 8.26462C132.986 8.32155 133.254 8.3886 133.454 8.43451C133.656 8.48135 133.789 8.51258 133.789 8.51258L133.055 11.7544Z" fill="#FF6B59"/>
<path d="M132.089 16.0108C132.089 16.0108 131.961 15.9805 131.768 15.9364C131.576 15.8933 131.32 15.829 131.062 15.7739C130.545 15.6664 130.03 15.5581 130.03 15.5581L130.726 12.307C130.726 12.307 131.252 12.4163 131.777 12.5283C132.041 12.5825 132.301 12.6468 132.497 12.6927C132.695 12.7377 132.825 12.768 132.825 12.768L132.089 16.0108Z" fill="#FF6B59"/>
<path d="M131.124 20.2676C131.124 20.2676 131 20.2391 130.811 20.196C130.623 20.1519 130.374 20.0885 130.122 20.0371C129.619 19.9324 129.114 19.8259 129.114 19.8259L129.811 16.5748C129.811 16.5748 130.324 16.6832 130.837 16.7897C131.095 16.843 131.348 16.9073 131.541 16.9514C131.732 16.9945 131.859 17.0248 131.859 17.0248L131.124 20.2676Z" fill="#FF6B59"/>
<path d="M130.159 24.5244C130.159 24.5244 130.039 24.4968 129.855 24.4546C129.672 24.4114 129.429 24.3508 129.183 24.2985C128.692 24.1975 128.201 24.0946 128.201 24.0946L128.897 20.8426C128.897 20.8426 129.398 20.9473 129.899 21.0529C130.148 21.1044 130.397 21.1668 130.583 21.2091C130.77 21.2532 130.896 21.2816 130.896 21.2816L130.159 24.5244Z" fill="#FF6B59"/>
<path d="M129.196 28.7808C129.196 28.7808 129.077 28.7523 128.899 28.7119C128.72 28.6715 128.483 28.6118 128.243 28.5622C127.765 28.4612 127.288 28.3629 127.288 28.3629L127.984 25.11C127.984 25.11 128.471 25.212 128.959 25.3139C129.204 25.3663 129.445 25.4269 129.627 25.4673C129.809 25.5095 129.931 25.538 129.931 25.538L129.196 28.7808Z" fill="#FF6B59"/>
<path d="M128.23 33.0385C128.23 33.0385 128.115 33.0109 127.941 32.9705C127.767 32.9319 127.537 32.8713 127.303 32.8254C126.838 32.7281 126.372 32.6307 126.372 32.6307L127.069 29.3779C127.069 29.3779 127.544 29.4789 128.019 29.5771C128.258 29.6258 128.493 29.6846 128.67 29.7259C128.848 29.7682 128.966 29.7948 128.966 29.7948L128.23 33.0385Z" fill="#FF6B59"/>
<path d="M131.898 29.4152L129.996 28.9688L130.748 25.7288L132.688 26.1843L131.898 29.4152Z" fill="#FF6B59"/>
<path d="M130.863 33.6545L129.011 33.221L129.762 29.981L131.653 30.4246L130.863 33.6545Z" fill="#FF6B59"/>
<path d="M136.804 21.6609L134.814 21.142L135.62 17.9167L137.648 18.4438L136.804 21.6609Z" fill="#FF6B59"/>
<path d="M135.696 25.8823L133.756 25.3762L134.562 22.15L136.541 22.6661L135.696 25.8823Z" fill="#FF6B59"/>
<path d="M134.588 30.1052L132.699 29.6111L133.504 26.3858L135.433 26.8891L134.588 30.1052Z" fill="#FF6B59"/>
<path d="M133.481 34.326L131.64 33.8466L132.447 30.6203L134.325 31.1089L133.481 34.326Z" fill="#FF6B59"/>
<path d="M139.626 22.4237C139.626 22.4237 139.13 22.2805 138.637 22.139C138.14 22.0095 137.642 21.88 137.642 21.88L138.502 18.6685C138.502 18.6685 139.01 18.8007 139.516 18.9321C140.019 19.0772 140.523 19.2204 140.523 19.2204L139.626 22.4237Z" fill="#FF6B59"/>
<path d="M138.447 26.6256C138.447 26.6256 137.965 26.4869 137.483 26.3492C136.998 26.2234 136.514 26.0957 136.514 26.0957L137.374 22.8842C137.374 22.8842 137.868 23.0146 138.363 23.1431C138.853 23.2836 139.345 23.4232 139.345 23.4232L138.447 26.6256Z" fill="#FF6B59"/>
<path d="M137.27 30.828C137.27 30.828 136.799 30.6939 136.331 30.5598C135.857 30.4359 135.384 30.3119 135.384 30.3119L136.244 27.0994C136.244 27.0994 136.727 27.2252 137.209 27.3529C137.688 27.4888 138.167 27.6266 138.167 27.6266L137.27 30.828Z" fill="#FF6B59"/>
<path d="M136.091 35.0303C136.091 35.0303 135.634 34.899 135.176 34.7695C134.717 34.6492 134.256 34.528 134.256 34.528L135.116 31.3155C135.116 31.3155 135.585 31.4386 136.055 31.5616C136.522 31.6948 136.988 31.8289 136.988 31.8289L136.091 35.0303Z" fill="#FF6B59"/>
<path d="M139.936 31.5965L138.059 31.0556L138.972 27.8578L140.887 28.4097L139.936 31.5965Z" fill="#FF6B59"/>
<path d="M138.688 35.778L136.86 35.2517L137.774 32.0558L139.637 32.5931L138.688 35.778Z" fill="#FF6B59"/>
<path d="M146.612 29.1334C146.612 29.1334 146.494 29.0939 146.316 29.0333C146.139 28.9736 145.904 28.8873 145.663 28.8138C145.186 28.6632 144.709 28.5117 144.709 28.5117L145.728 25.347C145.728 25.347 146.214 25.5003 146.701 25.6555C146.946 25.729 147.185 25.8172 147.366 25.8778C147.547 25.9384 147.667 25.9816 147.667 25.9816L146.612 29.1334Z" fill="#FF6B59"/>
<path d="M145.227 33.2727C145.227 33.2727 145.111 33.2341 144.938 33.1744C144.765 33.1166 144.536 33.0321 144.302 32.9614C143.837 32.8144 143.372 32.6666 143.372 32.6666L144.39 29.5019C144.39 29.5019 144.865 29.6525 145.34 29.8012C145.577 29.8747 145.811 29.9592 145.988 30.0189C146.165 30.0804 146.283 30.1208 146.283 30.1208L145.227 33.2727Z" fill="#FF6B59"/>
<path d="M143.842 37.4116C143.842 37.4116 143.729 37.373 143.56 37.3151C143.392 37.2582 143.168 37.1765 142.941 37.1085C142.486 36.9662 142.034 36.821 142.034 36.821L143.053 33.6563C143.053 33.6563 143.516 33.8024 143.978 33.9475C144.21 34.0182 144.437 34.1036 144.609 34.1605C144.782 34.2193 144.896 34.2579 144.896 34.2579L143.842 37.4116Z" fill="#FF6B59"/>
<path d="M141.269 36.5804L139.456 36.0083L140.423 32.8261L142.273 33.4102L141.269 36.5804Z" fill="#FF6B59"/>
<path d="M153.494 26.9421L151.573 26.2257L152.695 23.0969L154.652 23.8233L153.494 26.9421Z" fill="#FF6B59"/>
<path d="M151.975 31.0345L150.101 30.3357L151.223 27.2049L153.133 27.9158L151.975 31.0345Z" fill="#FF6B59"/>
<path d="M150.456 35.125L148.628 34.4436L149.75 31.3147L151.612 32.009L150.456 35.125Z" fill="#FF6B59"/>
<path d="M148.936 39.2171L147.155 38.5522L148.277 35.4223L150.095 36.0992L148.936 39.2171Z" fill="#FF6B59"/>
<path d="M147.89 34.1893L146.043 33.5556L147.115 30.4056L148.996 31.0549L147.89 34.1893Z" fill="#FF6B59"/>
<path d="M146.436 38.3054L144.637 37.6864L145.709 34.5391L147.543 35.1682L146.436 38.3054Z" fill="#FF6B59"/>
<path d="M154.636 32.0343C154.636 32.0343 154.52 31.9893 154.347 31.9186C154.171 31.8525 153.936 31.7653 153.702 31.678C153.235 31.5026 152.766 31.3281 152.766 31.3281L153.937 28.2167C153.937 28.2167 154.416 28.3939 154.892 28.573C155.131 28.6621 155.369 28.7512 155.548 28.8182C155.725 28.8908 155.843 28.9376 155.843 28.9376L154.636 32.0343Z" fill="#FF6B59"/>
<path d="M153.051 36.102C153.051 36.102 152.938 36.057 152.769 35.9881C152.596 35.9238 152.368 35.8393 152.14 35.753C151.683 35.5822 151.225 35.4132 151.225 35.4132L152.399 32.3018C152.399 32.3018 152.864 32.4735 153.33 32.6489C153.564 32.7352 153.797 32.8234 153.97 32.8895C154.143 32.9575 154.259 33.0052 154.259 33.0052L153.051 36.102Z" fill="#FF6B59"/>
<path d="M151.466 40.1693C151.466 40.1693 151.356 40.1243 151.191 40.0582C151.024 39.9957 150.801 39.9122 150.579 39.8295C150.134 39.6633 149.687 39.4971 149.687 39.4971L150.861 36.3856C150.861 36.3856 151.313 36.5546 151.768 36.7245C151.995 36.809 152.222 36.8935 152.393 36.9578C152.561 37.0248 152.673 37.0698 152.673 37.0698L151.466 40.1693Z" fill="#FF6B59"/>
<path d="M158.921 29.0555L157.023 28.2905L158.244 25.1983L160.178 25.9771L158.921 29.0555Z" fill="#FF6B59"/>
<path d="M157.271 33.0963L155.418 32.3506L156.64 29.2575L158.53 30.017L157.271 33.0963Z" fill="#FF6B59"/>
<path d="M155.623 37.1363L153.814 36.4098L155.036 33.3168L156.88 34.0579L155.623 37.1363Z" fill="#FF6B59"/>
<path d="M153.974 41.179L152.209 40.4691L153.432 37.376L155.23 38.0997L153.974 41.179Z" fill="#FF6B59"/>
<path d="M156.468 42.2186C156.468 42.2186 156.031 42.0312 155.595 41.8411C155.378 41.7474 155.159 41.6528 154.992 41.5876C154.827 41.5215 154.717 41.4783 154.717 41.4783L155.988 38.4046C155.988 38.4046 156.099 38.4496 156.269 38.5184C156.438 38.5836 156.661 38.6791 156.883 38.7765C157.328 38.9694 157.773 39.1604 157.773 39.1604L156.468 42.2186Z" fill="#FF6B59"/>
<path d="M166.05 27.3442L164.129 26.5122L165.449 23.4586L167.404 24.3062L166.05 27.3442Z" fill="#FF6B59"/>
<path d="M164.275 31.3319L162.398 30.5182L163.717 27.4665L165.628 28.2939L164.275 31.3319Z" fill="#FF6B59"/>
<path d="M162.5 35.3189L160.667 34.5245L161.986 31.4727L163.852 32.2809L162.5 35.3189Z" fill="#FF6B59"/>
<path d="M160.723 39.3045L158.934 38.5303L160.254 35.4786L162.077 36.2684L160.723 39.3045Z" fill="#FF6B59"/>
<path d="M158.948 43.292L157.203 42.5371L158.522 39.4844L160.301 40.2559L158.948 43.292Z" fill="#FF6B59"/>
<path d="M172.425 20.666L170.443 19.7467L171.809 16.7161L173.826 17.6482L172.425 20.666Z" fill="#FF6B59"/>
<path d="M170.589 24.6249L168.649 23.7268L170.016 20.6952L171.988 21.6072L170.589 24.6249Z" fill="#FF6B59"/>
<path d="M168.751 28.5841L166.856 27.7052L168.222 24.6727L170.152 25.5682L168.751 28.5841Z" fill="#FF6B59"/>
<path d="M166.915 32.5425L165.061 31.6839L166.428 28.6523L168.314 29.5266L166.915 32.5425Z" fill="#FF6B59"/>
<path d="M165.079 36.5014L163.267 35.6629L164.633 32.6323L166.478 33.4855L165.079 36.5014Z" fill="#FF6B59"/>
<path d="M163.242 40.4605L161.473 39.6414L162.84 36.6098L164.64 37.4446L163.242 40.4605Z" fill="#FF6B59"/>
<path d="M161.405 44.4199L159.68 43.6218L161.046 40.5894L162.804 41.404L161.405 44.4199Z" fill="#FF6B59"/>
<path d="M169.542 33.7777C169.542 33.7777 169.428 33.7207 169.257 33.6362C169.087 33.5481 168.855 33.4416 168.623 33.335C168.159 33.1192 167.696 32.9043 167.696 32.9043L169.109 29.8948C169.109 29.8948 169.58 30.1143 170.051 30.3319C170.288 30.4422 170.525 30.5505 170.697 30.6387C170.873 30.725 170.989 30.7819 170.989 30.7819L169.542 33.7777Z" fill="#FF6B59"/>
<path d="M167.645 37.7082C167.645 37.7082 167.533 37.6522 167.366 37.5686C167.2 37.4841 166.973 37.3803 166.746 37.2757C166.293 37.0663 165.841 36.856 165.841 36.856L167.254 33.8464C167.254 33.8464 167.716 34.0595 168.176 34.2744C168.406 34.3809 168.636 34.4856 168.806 34.5738C168.977 34.6565 169.091 34.7125 169.091 34.7125L167.645 37.7082Z" fill="#FF6B59"/>
<path d="M165.748 41.638C165.748 41.638 165.639 41.5847 165.475 41.503C165.312 41.4203 165.091 41.3175 164.87 41.2165C164.428 41.0108 163.986 40.8069 163.986 40.8069L165.399 37.7965C165.399 37.7965 165.85 38.0058 166.299 38.2143C166.526 38.3181 166.75 38.4228 166.915 38.5054C167.083 38.589 167.194 38.6441 167.194 38.6441L165.748 41.638Z" fill="#FF6B59"/>
<path d="M163.85 45.5686C163.85 45.5686 163.744 45.5163 163.584 45.4373C163.426 45.3556 163.21 45.2564 162.993 45.1563C162.562 44.957 162.132 44.7568 162.132 44.7568L163.545 41.7473C163.545 41.7473 163.983 41.9512 164.423 42.1541C164.644 42.257 164.862 42.358 165.026 42.4397C165.187 42.5215 165.297 42.5747 165.297 42.5747L163.85 45.5686Z" fill="#FF6B59"/>
<path d="M178.012 23.3588L176.058 22.3927L177.516 19.4043L179.502 20.387L178.012 23.3588Z" fill="#FF6B59"/>
<path d="M176.055 27.2599L174.144 26.313L175.602 23.3256L177.546 24.2871L176.055 27.2599Z" fill="#FF6B59"/>
<path d="M174.098 31.1632L172.228 30.2365L173.688 27.2472L175.589 28.1895L174.098 31.1632Z" fill="#FF6B59"/>
<path d="M172.141 35.0635L170.314 34.158L171.772 31.1705L173.633 32.0917L172.141 35.0635Z" fill="#FF6B59"/>
<path d="M170.184 38.9646L168.398 38.0793L169.857 35.0918L171.676 35.9927L170.184 38.9646Z" fill="#FF6B59"/>
<path d="M168.229 42.8659L166.482 42.0026L167.942 39.0151L169.72 39.894L168.229 42.8659Z" fill="#FF6B59"/>
<path d="M166.272 46.7692L164.567 45.9243L166.027 42.9368L167.762 43.7955L166.272 46.7692Z" fill="#FF6B59"/>
<path d="M178.751 28.6386C178.751 28.6386 178.282 28.3897 177.81 28.1418C177.575 28.0187 177.338 27.8938 177.158 27.8084C176.98 27.7193 176.86 27.6596 176.86 27.6596L178.364 24.6933C178.364 24.6933 178.486 24.7548 178.667 24.8439C178.85 24.933 179.092 25.0588 179.329 25.1846C179.807 25.4362 180.288 25.6888 180.288 25.6888L178.751 28.6386Z" fill="#FF6B59"/>
<path d="M176.737 32.5094C176.737 32.5094 176.276 32.2669 175.815 32.0245C175.585 31.9024 175.355 31.783 175.178 31.6966C175.003 31.6112 174.886 31.5525 174.886 31.5525L176.391 28.587C176.391 28.587 176.509 28.6458 176.687 28.734C176.867 28.8203 177.102 28.9424 177.336 29.0664C177.803 29.3144 178.272 29.5596 178.272 29.5596L176.737 32.5094Z" fill="#FF6B59"/>
<path d="M174.722 36.3812C174.722 36.3812 174.273 36.1443 173.82 35.9064C173.597 35.7879 173.369 35.6704 173.198 35.5868C173.027 35.5023 172.913 35.4463 172.913 35.4463L174.417 32.48C174.417 32.48 174.532 32.5369 174.706 32.6241C174.881 32.7086 175.112 32.828 175.341 32.9483C175.799 33.1899 176.257 33.4323 176.257 33.4323L174.722 36.3812Z" fill="#FF6B59"/>
<path d="M172.707 40.254C172.707 40.254 172.267 40.0208 171.827 39.7893C171.607 39.6718 171.386 39.557 171.217 39.4753C171.049 39.3926 170.938 39.3375 170.938 39.3375L172.442 36.3721C172.442 36.3721 172.555 36.4281 172.726 36.5126C172.899 36.5962 173.123 36.7119 173.347 36.8313C173.795 37.0673 174.242 37.3042 174.242 37.3042L172.707 40.254Z" fill="#FF6B59"/>
<path d="M170.694 44.1258C170.694 44.1258 170.263 43.8981 169.832 43.6712C169.618 43.5574 169.401 43.4453 169.237 43.3654C169.074 43.2837 168.964 43.2304 168.964 43.2304L170.468 40.265C170.468 40.265 170.58 40.3201 170.746 40.4028C170.913 40.4827 171.133 40.5975 171.352 40.7132C171.789 40.9446 172.228 41.1751 172.228 41.1751L170.694 44.1258Z" fill="#FF6B59"/>
<path d="M168.68 47.997C168.68 47.997 168.258 47.7766 167.838 47.5535C167.628 47.4423 167.418 47.3331 167.256 47.2559C167.097 47.176 166.99 47.1227 166.99 47.1227L168.494 44.1592C168.494 44.1592 168.603 44.2124 168.765 44.2914C168.93 44.3722 169.145 44.4833 169.357 44.5963C169.786 44.8213 170.213 45.0472 170.213 45.0472L168.68 47.997Z" fill="#FF6B59"/>
<path d="M173.141 45.4161L171.42 44.5078L172.966 41.5654L174.718 42.4893L173.141 45.4161Z" fill="#FF6B59"/>
<path d="M171.068 49.2586L169.388 48.3714L170.935 45.4271L172.648 46.3308L171.068 49.2586Z" fill="#FF6B59"/>
<path d="M179.815 39.1306L178.041 38.1379L179.632 35.2175L181.438 36.2277L179.815 39.1306Z" fill="#FF6B59"/>
<path d="M177.688 42.9429L175.952 41.9694L177.544 39.0508L179.309 40.039L177.688 42.9429Z" fill="#FF6B59"/>
<path d="M175.562 46.7534L173.864 45.802L175.456 42.8834L177.182 43.8495L175.562 46.7534Z" fill="#FF6B59"/>
<path d="M173.434 50.5654L171.775 49.6351L173.367 46.7156L175.054 47.6615L173.434 50.5654Z" fill="#FF6B59"/>
<path d="M180.478 36.4398H183.999V40.6717H180.478V36.4398Z" fill="#FF6B59"/>
<path d="M182.338 40.5451L180.563 39.5505L182.197 36.654L184 37.666L182.338 40.5451Z" fill="#FF6B59"/>
<path d="M180.156 44.326L178.42 43.3516L180.054 40.4559L181.818 41.4459L180.156 44.326Z" fill="#FF6B59"/>
<path d="M177.973 48.1071L176.276 47.1538L177.909 44.2573L179.636 45.2253L177.973 48.1071Z" fill="#FF6B59"/>
<path d="M175.79 51.8859L174.133 50.9565L175.765 48.0591L177.454 49.0059L175.79 51.8859Z" fill="#FF6B59"/>
<path d="M17.8174 62.9012C17.8174 62.9012 17.733 62.9517 17.6064 63.027C17.4863 63.0986 17.3258 63.1978 17.1653 63.2951C16.848 63.4889 16.583 63.6616 16.7077 63.5798L18.5345 66.357C18.3795 66.4598 18.6115 66.3074 18.9077 66.1274C19.0581 66.0346 19.2085 65.9437 19.3204 65.8748C19.4405 65.805 19.5212 65.7555 19.5212 65.7555L17.8174 62.9012Z" fill="#FF6B59"/>
<path d="M15.5817 59.1523C15.5817 59.1523 15.4918 59.2056 15.3561 59.2864C15.2258 59.3654 15.0525 59.4719 14.8774 59.5785C14.5316 59.7879 14.2244 59.989 14.3088 59.9339L16.1365 62.712C16.0209 62.7873 16.296 62.6073 16.6207 62.4089C16.7839 62.3106 16.9481 62.2105 17.0709 62.1352C17.1993 62.059 17.2846 62.0085 17.2846 62.0085L15.5817 59.1523Z" fill="#FF6B59"/>
<path d="M13.3449 55.4044C13.3449 55.4044 13.2495 55.4613 13.1064 55.5467C12.9661 55.6321 12.7781 55.746 12.5901 55.8599C12.2169 56.0885 11.8657 56.3163 11.9097 56.2869L13.7374 59.0659C13.6631 59.1137 13.9804 58.9079 14.3325 58.693C14.5104 58.5847 14.6874 58.4772 14.8204 58.3946C14.9571 58.3138 15.0488 58.2596 15.0488 58.2596L13.3449 55.4044Z" fill="#FF6B59"/>
<path d="M11.1092 51.6547C11.1092 51.6547 10.7038 51.8972 10.3031 52.1424C10.1032 52.2673 9.90418 52.3922 9.7547 52.484C9.60888 52.5777 9.51168 52.6411 9.51168 52.6411L11.3394 55.4182C11.3045 55.4403 11.6649 55.207 12.0455 54.9756C12.2362 54.8598 12.427 54.7432 12.57 54.656C12.7159 54.5696 12.8131 54.5109 12.8131 54.5109L11.1092 51.6547Z" fill="#FF6B59"/>
<path d="M15.5633 54.1261C15.5633 54.1261 15.1662 54.3456 14.7747 54.5706C14.3849 54.7966 13.9942 55.0206 13.9942 55.0206L15.6715 57.8924C15.6715 57.8924 16.0475 57.6757 16.4226 57.4589C16.8004 57.2422 17.1865 57.0291 17.1865 57.0291L15.5633 54.1261Z" fill="#FF6B59"/>
<path d="M13.4339 50.3158C13.4339 50.3158 13.0212 50.5444 12.6113 50.7814C12.2023 51.0165 11.7942 51.2525 11.7942 51.2525L13.4706 54.1224C13.4706 54.1224 13.8658 53.8956 14.2602 53.6687C14.6545 53.4419 15.0562 53.2187 15.0562 53.2187L13.4339 50.3158Z" fill="#FF6B59"/>
<path d="M22.1137 55.5928C22.1137 55.5928 21.7176 55.793 21.3232 55.9941C20.9307 56.1971 20.5382 56.401 20.5382 56.401L22.078 59.348C22.078 59.348 22.4595 59.1506 22.8419 58.9513C23.2261 58.7575 23.6113 58.5619 23.6113 58.5619L22.1137 55.5928Z" fill="#FF6B59"/>
<path d="M20.1467 51.6958C20.1467 51.6958 19.7386 51.9024 19.3305 52.1109C18.9243 52.3203 18.518 52.5306 18.518 52.5306L20.0577 55.4795C20.0577 55.4795 20.453 55.2738 20.8482 55.069C21.2472 54.8669 21.6452 54.6649 21.6452 54.6649L20.1467 51.6958Z" fill="#FF6B59"/>
<path d="M18.1806 47.7996C18.1806 47.7996 17.7587 48.0126 17.3369 48.2275C16.9178 48.4452 16.4987 48.6628 16.4987 48.6628L18.0375 51.6099C18.0375 51.6099 18.4465 51.3987 18.8555 51.1856C19.2673 50.9771 19.679 50.7687 19.679 50.7687L18.1806 47.7996Z" fill="#FF6B59"/>
<path d="M15.7935 49.0326C15.7935 49.0326 15.3762 49.2549 14.9599 49.4771C14.5445 49.703 14.13 49.9308 14.13 49.9308L15.732 52.8439C15.732 52.8439 16.1355 52.6235 16.5381 52.404C16.9444 52.1881 17.3497 51.9714 17.3497 51.9714L15.7935 49.0326Z" fill="#FF6B59"/>
<path d="M28.4974 57.3588L26.9301 58.0926L28.3571 61.0966L29.8885 60.3784L28.4974 57.3588Z" fill="#FF6B59"/>
<path d="M26.6724 53.394L25.0566 54.1508L26.4835 57.1529L28.0636 56.4155L26.6724 53.394Z" fill="#FF6B59"/>
<path d="M24.8475 49.4297L23.1821 50.2075L24.61 53.2106L26.2377 52.4493L24.8475 49.4297Z" fill="#FF6B59"/>
<path d="M23.0225 45.4649L21.3095 46.2657L22.7364 49.2688L24.4128 48.4854L23.0225 45.4649Z" fill="#FF6B59"/>
<path d="M22.521 50.5268C22.521 50.5268 22.1083 50.7261 21.6938 50.9263C21.2839 51.1283 20.8721 51.3322 20.8721 51.3322L22.3531 54.3096C22.3531 54.3096 22.7548 54.1112 23.1556 53.9128C23.56 53.7191 23.9635 53.5225 23.9635 53.5225L22.521 50.5268Z" fill="#FF6B59"/>
<path d="M20.6272 46.5953C20.6272 46.5953 20.2017 46.8001 19.7762 47.0049C19.3525 47.2152 18.9288 47.4246 18.9288 47.4246L20.4099 50.4019C20.4099 50.4019 20.8235 50.1962 21.238 49.9923C21.6534 49.7912 22.0697 49.5901 22.0697 49.5901L20.6272 46.5953Z" fill="#FF6B59"/>
<path d="M28.9908 52.3536C28.9908 52.3536 28.5817 52.5336 28.1718 52.7145C27.7656 52.8973 27.3584 53.0818 27.3584 53.0818L28.734 56.1106C28.734 56.1106 29.132 55.9297 29.53 55.7497C29.9298 55.5734 30.3306 55.3971 30.3306 55.3971L28.9908 52.3536Z" fill="#FF6B59"/>
<path d="M27.2327 48.3588C27.2327 48.3588 26.8118 48.5434 26.3909 48.7289C25.9718 48.9199 25.5536 49.1091 25.5536 49.1091L26.9283 52.1361C26.9283 52.1361 27.3382 51.9515 27.7481 51.7651C28.1599 51.5832 28.5726 51.4023 28.5726 51.4023L27.2327 48.3588Z" fill="#FF6B59"/>
<path d="M25.4747 44.3636C25.4747 44.3636 25.0419 44.5547 24.609 44.7439C24.178 44.9404 23.7479 45.136 23.7479 45.136L25.1235 48.1629C25.1235 48.1629 25.5444 47.9719 25.9663 47.78C26.39 47.5945 26.8146 47.4062 26.8146 47.4062L25.4747 44.3636Z" fill="#FF6B59"/>
<path d="M33.0202 55.3695C33.0202 55.3695 32.6204 55.5403 32.2197 55.7102C32.0188 55.7956 31.8189 55.881 31.6685 55.9453C31.519 56.0096 31.4191 56.0527 31.4191 56.0527L32.7442 59.1036C32.7442 59.1036 32.8414 59.0613 32.9872 58.997C33.1349 58.9346 33.3311 58.851 33.5264 58.7684C33.918 58.6021 34.3096 58.4341 34.3096 58.4341L33.0202 55.3695Z" fill="#FF6B59"/>
<path d="M31.3282 51.3472C31.3282 51.3472 30.9165 51.5226 30.5038 51.6971C30.2984 51.7852 30.0921 51.8716 29.9371 51.9377C29.7839 52.0047 29.6812 52.0497 29.6812 52.0497L31.0054 55.1006C31.0054 55.1006 31.1063 55.0565 31.2567 54.9913C31.408 54.927 31.6089 54.8407 31.8115 54.7543C32.2141 54.5835 32.6176 54.4109 32.6176 54.4109L31.3282 51.3472Z" fill="#FF6B59"/>
<path d="M29.6364 47.3237C29.6364 47.3237 29.2127 47.5037 28.789 47.6837C28.5772 47.7728 28.3653 47.8637 28.2067 47.9307C28.048 48.0005 27.9426 48.0455 27.9426 48.0455L29.2668 51.0954C29.2668 51.0954 29.3704 51.0504 29.5254 50.9834C29.6804 50.9173 29.8885 50.8291 30.0958 50.7419C30.5103 50.5655 30.9248 50.3874 30.9248 50.3874L29.6364 47.3237Z" fill="#FF6B59"/>
<path d="M27.9444 43.3002C27.9444 43.3002 27.5088 43.4848 27.0741 43.6694C26.8558 43.7621 26.6385 43.8558 26.4753 43.9247C26.312 43.9954 26.2038 44.0422 26.2038 44.0422L27.5289 47.0931C27.5289 47.0931 27.6353 47.0462 27.794 46.9764C27.9535 46.9094 28.1672 46.8194 28.38 46.7275C28.8073 46.5457 29.2328 46.3639 29.2328 46.3639L27.9444 43.3002Z" fill="#FF6B59"/>
<path d="M30.4305 42.2774C30.4305 42.2774 30.3205 42.3205 30.1554 42.3867C29.9922 42.4537 29.773 42.5428 29.5538 42.6346C29.1164 42.8146 28.6799 42.9928 28.6799 42.9928L29.9537 46.0657C29.9537 46.0657 30.3828 45.8884 30.8111 45.713C31.0257 45.623 31.2403 45.5358 31.4008 45.4696C31.5622 45.4053 31.6695 45.3631 31.6695 45.3631L30.4305 42.2774Z" fill="#FF6B59"/>
<path d="M39.1847 57.5974C39.1847 57.5974 38.7885 57.7498 38.3924 57.9014C37.998 58.0584 37.6037 58.2136 37.6037 58.2136L38.8289 61.3049C38.8289 61.3049 39.215 61.1524 39.5992 60.999C39.988 60.8521 40.375 60.7024 40.375 60.7024L39.1847 57.5974Z" fill="#FF6B59"/>
<path d="M37.6221 53.5226C37.6221 53.5226 37.2149 53.6796 36.8068 53.8339C36.4015 53.9955 35.9952 54.1572 35.9952 54.1572L37.2204 57.2484C37.2204 57.2484 37.6184 57.0904 38.0146 56.9334C38.4135 56.78 38.8124 56.6285 38.8124 56.6285L37.6221 53.5226Z" fill="#FF6B59"/>
<path d="M36.0593 49.4477C36.0593 49.4477 35.6402 49.6075 35.2212 49.7692C34.8048 49.9336 34.3876 50.0989 34.3876 50.0989L35.6127 53.1901C35.6127 53.1901 36.0208 53.0275 36.4289 52.8659C36.8397 52.7098 37.2497 52.5518 37.2497 52.5518L36.0593 49.4477Z" fill="#FF6B59"/>
<path d="M34.4967 45.3729C34.4967 45.3729 34.0666 45.5373 33.6365 45.7017C33.2073 45.8725 32.7791 46.0415 32.7791 46.0415L34.0043 49.1327C34.0043 49.1327 34.4243 48.9665 34.8434 48.8003C35.2652 48.6377 35.687 48.4761 35.687 48.4761L34.4967 45.3729Z" fill="#FF6B59"/>
<path d="M32.934 41.2964C32.934 41.2964 32.492 41.4654 32.0509 41.6362C31.6107 41.8098 31.1714 41.9834 31.1714 41.9834L32.3966 45.0746C32.3966 45.0746 32.8276 44.9038 33.2586 44.733C33.6915 44.5677 34.1243 44.4014 34.1243 44.4014L32.934 41.2964Z" fill="#FF6B59"/>
<path d="M44.4431 64.9501C44.4431 64.9501 44.0671 65.0887 43.6902 65.2265C43.5013 65.2935 43.3142 65.3643 43.1739 65.4193C43.0345 65.4726 42.9409 65.5084 42.9409 65.5084L44.1166 68.618C44.1166 68.618 44.2083 68.5841 44.3449 68.5308C44.4816 68.4775 44.665 68.4077 44.8484 68.3425C45.2161 68.2075 45.5848 68.0734 45.5848 68.0734L44.4431 64.9501Z" fill="#FF6B59"/>
<path d="M42.9446 60.8502C42.9446 60.8502 42.5567 60.9925 42.1688 61.1358C41.9744 61.2047 41.7818 61.2782 41.6378 61.3323C41.4929 61.3893 41.3966 61.4251 41.3966 61.4251L42.5723 64.5347C42.5723 64.5347 42.6667 64.4989 42.808 64.4456C42.9492 64.3914 43.1372 64.3189 43.3279 64.2518C43.7067 64.1122 44.0854 63.9745 44.0854 63.9745L42.9446 60.8502Z" fill="#FF6B59"/>
<path d="M41.4461 56.7515C41.4461 56.7515 41.0472 56.8976 40.6483 57.0427C40.4475 57.1152 40.2494 57.1905 40.1008 57.2484C39.9523 57.3053 39.8532 57.3421 39.8532 57.3421L41.0289 60.4526C41.0289 60.4526 41.1261 60.4168 41.2719 60.3598C41.4168 60.3038 41.6112 60.2313 41.8065 60.1615C42.1972 60.0164 42.587 59.874 42.587 59.874L41.4461 56.7515Z" fill="#FF6B59"/>
<path d="M39.9468 52.6513C39.9468 52.6513 39.5369 52.8019 39.1269 52.9525C38.9215 53.026 38.717 53.104 38.5648 53.1628C38.4116 53.2216 38.3098 53.2601 38.3098 53.2601L39.4855 56.3716C39.4855 56.3716 39.5855 56.3321 39.7349 56.2761C39.8844 56.2173 40.0843 56.142 40.2861 56.0685C40.6868 55.9234 41.0894 55.7756 41.0894 55.7756L39.9468 52.6513Z" fill="#FF6B59"/>
<path d="M38.4492 48.5534C38.4492 48.5534 38.0274 48.7068 37.6055 48.862C37.3946 48.9373 37.1846 49.0172 37.0278 49.0778C36.871 49.1375 36.7664 49.1779 36.7664 49.1779L37.9421 52.2885C37.9421 52.2885 38.0448 52.249 38.1989 52.1893C38.352 52.1305 38.5584 52.0534 38.7647 51.9781C39.1774 51.8274 39.59 51.6759 39.59 51.6759L38.4492 48.5534Z" fill="#FF6B59"/>
<path d="M36.9499 44.4527C36.9499 44.4527 36.5179 44.6125 36.0851 44.7714C35.8687 44.8495 35.6522 44.9312 35.4908 44.9918C35.3294 45.0543 35.2221 45.0956 35.2221 45.0956L36.3978 48.2052C36.3978 48.2052 36.5042 48.1648 36.6619 48.1051C36.8196 48.0445 37.0315 47.9637 37.2433 47.8875C37.6679 47.7323 38.0925 47.577 38.0925 47.577L36.9499 44.4527Z" fill="#FF6B59"/>
<path d="M35.4523 40.3541C35.4523 40.3541 35.0075 40.5176 34.5637 40.681C34.3409 40.76 34.1208 40.8436 33.9548 40.9079C33.7888 40.9703 33.6787 41.0126 33.6787 41.0126L34.8544 44.1222C34.8544 44.1222 34.9626 44.0818 35.1249 44.0193C35.2873 43.956 35.5046 43.8742 35.7229 43.7962C36.1585 43.6364 36.5931 43.4766 36.5931 43.4766L35.4523 40.3541Z" fill="#FF6B59"/>
<path d="M42.2871 51.8165C42.2871 51.8165 41.8753 51.9625 41.4626 52.1067C41.2563 52.1783 41.05 52.2509 40.895 52.306C40.7418 52.362 40.6391 52.3997 40.6391 52.3997L41.7653 55.5267C41.7653 55.5267 41.8661 55.4909 42.0175 55.4358C42.1678 55.3825 42.3705 55.3118 42.5723 55.242C42.9758 55.0988 43.3802 54.9583 43.3802 54.9583L42.2871 51.8165Z" fill="#FF6B59"/>
<path d="M40.8528 47.6949C40.8528 47.6949 40.4291 47.8436 40.0054 47.9924C39.7936 48.0677 39.5817 48.1412 39.4231 48.1972C39.2644 48.2542 39.1599 48.2936 39.1599 48.2936L40.286 51.4207C40.286 51.4207 40.3897 51.383 40.5446 51.327C40.6996 51.2738 40.9078 51.1994 41.1151 51.1277C41.5305 50.9817 41.945 50.8357 41.945 50.8357L40.8528 47.6949Z" fill="#FF6B59"/>
<path d="M39.4185 43.572C39.4185 43.572 38.9829 43.7263 38.5491 43.8778C38.3309 43.955 38.1135 44.0303 37.9512 44.0881C37.788 44.1478 37.6798 44.1864 37.6798 44.1864L38.8068 47.3153C38.8068 47.3153 38.9132 47.2758 39.0718 47.2179C39.2323 47.1619 39.4451 47.0866 39.6578 47.0131C40.0852 46.8625 40.5116 46.7137 40.5116 46.7137L39.4185 43.572Z" fill="#FF6B59"/>
<path d="M37.9842 39.4504C37.9842 39.4504 37.5385 39.6074 37.0919 39.7635C36.8691 39.8425 36.6453 39.9206 36.4784 39.9784C36.3115 40.039 36.2005 40.0804 36.2005 40.0804L37.3276 43.2083C37.3276 43.2083 37.4358 43.1679 37.5999 43.1092C37.7641 43.0522 37.9824 42.976 38.2015 42.8988C38.639 42.7455 39.0773 42.5921 39.0773 42.5921L37.9842 39.4504Z" fill="#FF6B59"/>
<path d="M48.7504 63.4514L47.2272 63.9611L48.3057 67.1065L49.794 66.6087L48.7504 63.4514Z" fill="#FF6B59"/>
<path d="M47.3803 59.3067L45.8121 59.832L46.8906 62.9775L48.4239 62.4641L47.3803 59.3067Z" fill="#FF6B59"/>
<path d="M46.0103 55.1629L44.3981 55.7038L45.4757 58.8484L47.0539 58.3203L46.0103 55.1629Z" fill="#FF6B59"/>
<path d="M44.6402 51.0191L42.9821 51.5738L44.0606 54.7202L45.6838 54.1756L44.6402 51.0191Z" fill="#FF6B59"/>
<path d="M43.2701 46.8737L41.5672 47.4458L42.6456 50.5912L44.3138 50.0319L43.2701 46.8737Z" fill="#FF6B59"/>
<path d="M41.9009 42.7299L40.1512 43.3167L41.2297 46.4612L42.9445 45.8881L41.9009 42.7299Z" fill="#FF6B59"/>
<path d="M40.53 38.5852L38.7363 39.1877L39.8147 42.3331L41.5736 41.7426L40.53 38.5852Z" fill="#FF6B59"/>
<path d="M49.6171 58.5849L48.0425 59.09L49.0714 62.251L50.6112 61.7597L49.6171 58.5849Z" fill="#FF6B59"/>
<path d="M48.3111 54.421L46.6907 54.938L47.7205 58.1009L49.3061 57.593L48.3111 54.421Z" fill="#FF6B59"/>
<path d="M47.0062 50.2562L45.3399 50.787L46.3688 53.9508L48.0003 53.4292L47.0062 50.2562Z" fill="#FF6B59"/>
<path d="M45.7002 46.0919L43.989 46.6374L45.018 49.8003L46.6952 49.2639L45.7002 46.0919Z" fill="#FF6B59"/>
<path d="M44.3953 41.9263L42.6382 42.4865L43.6672 45.6485L45.3894 45.0984L44.3953 41.9263Z" fill="#FF6B59"/>
<path d="M43.0895 37.7616L41.2874 38.3364L42.3173 41.4984L44.0845 40.9336L43.0895 37.7616Z" fill="#FF6B59"/>
<path d="M46.9017 41.1613L45.1373 41.6949L46.1176 44.8743L47.8471 44.3499L46.9017 41.1613Z" fill="#FF6B59"/>
<path d="M45.6617 36.9773L43.8515 37.5256L44.8309 40.7022L46.6063 40.165L45.6617 36.9773Z" fill="#FF6B59"/>
<path d="M51.7721 48.8417L50.0911 49.3238L51.021 52.517L52.6681 52.044L51.7721 48.8417Z" fill="#FF6B59"/>
<path d="M50.5964 44.6392L48.8696 45.1351L49.8004 48.3255L51.4924 47.8406L50.5964 44.6392Z" fill="#FF6B59"/>
<path d="M49.4207 40.4358L47.6481 40.9437L48.5789 44.1369L50.3167 43.6382L49.4207 40.4358Z" fill="#FF6B59"/>
<path d="M48.2451 36.2325L46.4266 36.7541L47.3574 39.9454L49.141 39.4348L48.2451 36.2325Z" fill="#FF6B59"/>
<path d="M54.1711 48.1913L52.4828 48.6468L53.3632 51.8538L55.0167 51.4074L54.1711 48.1913Z" fill="#FF6B59"/>
<path d="M53.0606 43.9707L51.3264 44.4391L52.2077 47.646L53.9061 47.1859L53.0606 43.9707Z" fill="#FF6B59"/>
<path d="M51.95 39.7497L50.17 40.2309L51.0503 43.436L52.7964 42.9649L51.95 39.7497Z" fill="#FF6B59"/>
<path d="M50.8404 35.527L49.0136 36.0211L49.8949 39.2281L51.6859 38.7432L50.8404 35.527Z" fill="#FF6B59"/>
<path d="M54.4903 39.1034L52.7029 39.5552L53.5338 42.7751L55.2863 42.3315L54.4903 39.1034Z" fill="#FF6B59"/>
<path d="M53.4457 34.8652L51.6116 35.3298L52.4433 38.5497L54.2408 38.0942L53.4457 34.8652Z" fill="#FF6B59"/>
<path d="M60.5088 42.2002L58.7545 42.5822L59.4845 45.8268L61.2021 45.4521L60.5088 42.2002Z" fill="#FF6B59"/>
<path d="M59.5982 37.9307L57.7971 38.3238L58.5262 41.5684L60.2915 41.1836L59.5982 37.9307Z" fill="#FF6B59"/>
<path d="M58.6876 33.6629L56.8388 34.0652L57.5688 37.3107L59.3809 36.9139L58.6876 33.6629Z" fill="#FF6B59"/>
<path d="M56.062 34.2423L54.2206 34.6785L55.001 37.9102L56.8067 37.4841L56.062 34.2423Z" fill="#FF6B59"/>
<path d="M66.2881 45.5125L64.5714 45.8257L65.1995 49.0923L66.8787 48.7847L66.2881 45.5125Z" fill="#FF6B59"/>
<path d="M65.5141 41.2164L63.7488 41.5387L64.376 44.8054L66.1047 44.4894L65.5141 41.2164Z" fill="#FF6B59"/>
<path d="M64.7383 36.9223L62.9262 37.2538L63.5525 40.5195L65.3288 40.1926L64.7383 36.9223Z" fill="#FF6B59"/>
<path d="M63.9634 32.6261L62.1027 32.9678L62.7299 36.2326L64.5539 35.8983L63.9634 32.6261Z" fill="#FF6B59"/>
<path d="M62.2027 37.3978L60.3952 37.7596L61.0738 41.0152L62.8446 40.6617L62.2027 37.3978Z" fill="#FF6B59"/>
<path d="M61.3608 33.1164L59.5066 33.4874L60.1834 36.743L62.0028 36.3785L61.3608 33.1164Z" fill="#FF6B59"/>
<path d="M68.0259 40.7856C68.0259 40.7856 67.5839 40.8573 67.141 40.9298C66.9199 40.9666 66.6989 40.9996 66.5329 41.0308C66.3679 41.0612 66.2569 41.0814 66.2569 41.0814L66.8319 44.3554C66.8319 44.3554 66.9401 44.3351 67.1015 44.3076C67.2638 44.2773 67.4812 44.2452 67.6976 44.2084C68.1304 44.1368 68.5642 44.0661 68.5642 44.0661L68.0259 40.7856Z" fill="#FF6B59"/>
<path d="M67.3198 36.4768C67.3198 36.4768 66.8649 36.5521 66.4101 36.6255C66.1836 36.665 65.9552 36.6999 65.7865 36.7312C65.6159 36.7624 65.5031 36.7826 65.5031 36.7826L66.0772 40.0566C66.0772 40.0566 66.1881 40.0364 66.355 40.007C66.5219 39.9758 66.7448 39.9427 66.9676 39.9051C67.4124 39.8316 67.8581 39.759 67.8581 39.759L67.3198 36.4768Z" fill="#FF6B59"/>
<path d="M66.6137 32.1704C66.6137 32.1704 66.1469 32.2466 65.6801 32.3228C65.4472 32.3623 65.2133 32.3981 65.0391 32.4303C64.8639 32.4615 64.7484 32.4835 64.7484 32.4835L65.3224 35.7575C65.3224 35.7575 65.4362 35.7373 65.6077 35.7061C65.7791 35.674 66.0084 35.64 66.2367 35.6005C66.6944 35.527 67.151 35.4526 67.151 35.4526L66.6137 32.1704Z" fill="#FF6B59"/>
<path d="M71.1806 44.7102C71.1806 44.7102 70.7496 44.7726 70.3186 44.836C70.1022 44.8636 69.8876 44.903 69.7262 44.9297C69.5648 44.9545 69.4575 44.9738 69.4575 44.9738L69.9802 48.2579C69.9802 48.2579 70.0856 48.2404 70.2434 48.2138C70.4011 48.1881 70.6111 48.1513 70.822 48.1229C71.2448 48.0613 71.6666 48.0007 71.6666 48.0007L71.1806 44.7102Z" fill="#FF6B59"/>
<path d="M70.5441 40.3919C70.5441 40.3919 70.1002 40.4562 69.6573 40.5205C69.4344 40.5508 69.2144 40.5912 69.0484 40.6178C68.8824 40.6444 68.7714 40.6628 68.7714 40.6628L69.2941 43.9469C69.2941 43.9469 69.4024 43.9276 69.5647 43.9019C69.727 43.8762 69.9434 43.8376 70.1608 43.8073C70.5954 43.7449 71.0292 43.6824 71.0292 43.6824L70.5441 40.3919Z" fill="#FF6B59"/>
<path d="M69.9067 36.0744C69.9067 36.0744 69.451 36.1405 68.9952 36.2057C68.7668 36.2369 68.5403 36.2773 68.3698 36.3058C68.1992 36.3324 68.0855 36.3508 68.0855 36.3508L68.6082 39.6349C68.6082 39.6349 68.7191 39.6184 68.886 39.5899C69.0539 39.5633 69.2758 39.5238 69.4996 39.4926C69.9462 39.4283 70.3928 39.364 70.3928 39.364L69.9067 36.0744Z" fill="#FF6B59"/>
<path d="M69.2695 31.7565C69.2695 31.7565 68.8018 31.8235 68.3341 31.8924C68.0993 31.9245 67.8673 31.9668 67.6922 31.9943C67.517 32.0228 67.3996 32.0421 67.3996 32.0421L67.9223 35.3253C67.9223 35.3253 68.037 35.3069 68.2085 35.2784C68.3799 35.2518 68.6083 35.2114 68.8385 35.1792C69.297 35.1122 69.7555 35.047 69.7555 35.047L69.2695 31.7565Z" fill="#FF6B59"/>
<path d="M71.9325 31.3836C71.9325 31.3836 71.8151 31.3993 71.639 31.4213C71.4639 31.4443 71.2282 31.47 70.9943 31.5058C70.5267 31.5747 70.058 31.6426 70.058 31.6426L70.5285 34.9332C70.5285 34.9332 70.987 34.868 71.4455 34.8009C71.6748 34.766 71.905 34.7394 72.0774 34.7173C72.2498 34.6953 72.3644 34.6815 72.3644 34.6815L71.9325 31.3836Z" fill="#FF6B59"/>
<path d="M76.5893 48.3982C76.5893 48.3982 76.4839 48.4093 76.3261 48.4258C76.1684 48.446 75.9584 48.4735 75.7493 48.4993C75.3293 48.5534 74.9093 48.6049 74.9093 48.6049L75.3257 51.9046C75.3257 51.9046 75.7356 51.8531 76.1464 51.8008C76.3518 51.7742 76.5563 51.7494 76.7113 51.7292C76.8654 51.7136 76.9672 51.7025 76.9672 51.7025L76.5893 48.3982Z" fill="#FF6B59"/>
<path d="M76.0914 44.0614C76.0914 44.0614 75.9841 44.0734 75.8209 44.0908C75.6595 44.111 75.443 44.1377 75.2275 44.1661C74.7947 44.2212 74.3628 44.2763 74.3628 44.2763L74.7791 47.5742C74.7791 47.5742 75.2019 47.52 75.6246 47.4668C75.8355 47.441 76.0474 47.4135 76.206 47.3933C76.3647 47.3768 76.4701 47.3657 76.4701 47.3657L76.0914 44.0614Z" fill="#FF6B59"/>
<path d="M75.5944 39.7259C75.5944 39.7259 75.4834 39.7369 75.3165 39.7562C75.1496 39.7764 74.9277 39.8039 74.7058 39.8333C74.261 39.8893 73.8162 39.9454 73.8162 39.9454L74.2326 43.2432C74.2326 43.2432 74.6682 43.1881 75.1028 43.133C75.3202 43.1073 75.5375 43.0789 75.7008 43.0587C75.8649 43.0412 75.9731 43.0293 75.9731 43.0293L75.5944 39.7259Z" fill="#FF6B59"/>
<path d="M75.0973 35.3895C75.0973 35.3895 74.9835 35.4024 74.8111 35.4216C74.6406 35.4418 74.4113 35.4712 74.183 35.4997C73.7272 35.5566 73.2696 35.6154 73.2696 35.6154L73.6859 38.9133C73.6859 38.9133 74.1334 38.8573 74.5809 38.8003C74.8047 38.7719 75.0285 38.7434 75.1963 38.7232C75.3641 38.7048 75.4769 38.6938 75.4769 38.6938L75.0973 35.3895Z" fill="#FF6B59"/>
<path d="M74.6011 31.0531C74.6011 31.0531 74.4828 31.066 74.3068 31.0843C74.1307 31.1082 73.8959 31.1376 73.6612 31.1661C73.1925 31.2258 72.723 31.2845 72.723 31.2845L73.1403 34.5852C73.1403 34.5852 73.5997 34.5264 74.0592 34.4685C74.2893 34.4382 74.5186 34.4107 74.691 34.3886C74.8634 34.3703 74.979 34.3574 74.979 34.3574L74.6011 31.0531Z" fill="#FF6B59"/>
<path d="M79.8311 56.8316L78.2492 57.0006L78.6123 60.3049L80.1566 60.1405L79.8311 56.8316Z" fill="#FF6B59"/>
<path d="M79.4056 52.4878L77.7732 52.6623L78.1364 55.9666L79.7302 55.7958L79.4056 52.4878Z" fill="#FF6B59"/>
<path d="M78.9792 48.1437L77.2982 48.3227L77.6605 51.6289L79.3038 51.4535L78.9792 48.1437Z" fill="#FF6B59"/>
<path d="M78.5527 43.7999L76.8213 43.9845L77.1835 47.2906L78.8773 47.1088L78.5527 43.7999Z" fill="#FF6B59"/>
<path d="M78.1263 39.4569L76.3454 39.6461L76.7076 42.9523L78.4518 42.7658L78.1263 39.4569Z" fill="#FF6B59"/>
<path d="M77.7008 35.1119L75.8695 35.3075L76.2317 38.6118L78.0245 38.4208L77.7008 35.1119Z" fill="#FF6B59"/>
<path d="M77.2743 30.769L75.3934 30.9683L75.7557 34.2744L77.5989 34.0779L77.2743 30.769Z" fill="#FF6B59"/>
<path d="M81.0169 43.5823L79.2836 43.732L79.5918 47.0427L81.2865 46.8976L81.0169 43.5823Z" fill="#FF6B59"/>
<path d="M80.6619 39.2327L78.8782 39.3861L79.1863 42.6968L80.9315 42.5462L80.6619 39.2327Z" fill="#FF6B59"/>
<path d="M80.307 34.8816L78.4729 35.0405L78.7811 38.3521L80.5776 38.1951L80.307 34.8816Z" fill="#FF6B59"/>
<path d="M79.9522 30.5312L78.0676 30.6956L78.3758 34.0064L80.2227 33.8466L79.9522 30.5312Z" fill="#FF6B59"/>
<path d="M84.332 56.4699L82.7482 56.5755L83.0032 59.8899L84.5475 59.7879L84.332 56.4699Z" fill="#FF6B59"/>
<path d="M84.0486 52.1138L82.4144 52.2221L82.6684 55.5375L84.265 55.4319L84.0486 52.1138Z" fill="#FF6B59"/>
<path d="M83.7653 47.7589L82.0806 47.87L82.3356 51.1854L83.9817 51.077L83.7653 47.7589Z" fill="#FF6B59"/>
<path d="M83.4829 43.4032L81.7469 43.519L82.0018 46.8343L83.6984 46.7222L83.4829 43.4032Z" fill="#FF6B59"/>
<path d="M83.1994 39.0484L81.4139 39.1678L81.668 42.4822L83.4159 42.3665L83.1994 39.0484Z" fill="#FF6B59"/>
<path d="M82.9169 34.6923L81.0792 34.8144L81.3341 38.1298L83.1325 38.0104L82.9169 34.6923Z" fill="#FF6B59"/>
<path d="M82.6336 30.3366L80.7464 30.4643L81.0004 33.7796L82.8492 33.6547L82.6336 30.3366Z" fill="#FF6B59"/>
<path d="M86.3724 51.9824C86.3724 51.9824 85.9634 52.0017 85.5544 52.02C85.3499 52.0265 85.1463 52.0393 84.9922 52.0513C84.8391 52.0605 84.7373 52.0687 84.7373 52.0687L84.9372 55.3868C84.9372 55.3868 85.0363 55.3804 85.1857 55.3712C85.3361 55.3583 85.5351 55.3464 85.7341 55.34C86.1331 55.3216 86.532 55.3041 86.532 55.3041L86.3724 51.9824Z" fill="#FF6B59"/>
<path d="M86.1605 47.6238C86.1605 47.6238 85.7396 47.6431 85.3178 47.6615C85.1078 47.6698 84.8969 47.6817 84.7391 47.6945C84.5805 47.7037 84.475 47.712 84.475 47.712L84.6749 51.0301C84.6749 51.0301 84.7776 51.0236 84.9317 51.0126C85.0867 51.0016 85.2921 50.9887 85.4984 50.9814C85.9102 50.963 86.3219 50.9437 86.3219 50.9437L86.1605 47.6238Z" fill="#FF6B59"/>
<path d="M85.9496 43.2636C85.9496 43.2636 85.5158 43.2838 85.0821 43.3031C84.8647 43.3114 84.6483 43.3252 84.4851 43.3371C84.3227 43.3472 84.2136 43.3546 84.2136 43.3546L84.4126 46.6745C84.4126 46.6745 84.519 46.6671 84.6786 46.6561C84.8372 46.6451 85.0491 46.6304 85.2618 46.623C85.6864 46.6047 86.111 46.5854 86.111 46.5854L85.9496 43.2636Z" fill="#FF6B59"/>
<path d="M85.7397 38.903C85.7397 38.903 85.2922 38.9242 84.8456 38.9444C84.6218 38.9535 84.398 38.9673 84.2311 38.9783C84.0633 38.9912 83.9523 38.9976 83.9523 38.9976L84.1513 42.3175C84.1513 42.3175 84.2605 42.3102 84.4246 42.2992C84.5888 42.2863 84.8061 42.2735 85.0253 42.2661C85.4627 42.2459 85.8992 42.2257 85.8992 42.2257L85.7397 38.903Z" fill="#FF6B59"/>
<path d="M85.5278 34.5453C85.5278 34.5453 85.0684 34.5655 84.6089 34.5875C84.3797 34.5949 84.1495 34.6096 83.9771 34.6215C83.8056 34.6344 83.69 34.6408 83.69 34.6408L83.89 37.9598C83.89 37.9598 84.0028 37.9525 84.1706 37.9414C84.3393 37.9286 84.564 37.9148 84.7887 37.9065C85.2389 37.8863 85.6892 37.8661 85.6892 37.8661L85.5278 34.5453Z" fill="#FF6B59"/>
<path d="M85.3178 30.1851C85.3178 30.1851 84.8455 30.2071 84.3723 30.2292C84.1366 30.2384 83.9 30.2521 83.723 30.265C83.546 30.2769 83.4286 30.2852 83.4286 30.2852L83.6276 33.6033C83.6276 33.6033 83.7432 33.5959 83.9165 33.5849C84.0898 33.5721 84.3209 33.5583 84.553 33.5482C85.0151 33.528 85.4783 33.5059 85.4783 33.5059L85.3178 30.1851Z" fill="#FF6B59"/>
<path d="M88.1414 34.4369C88.1414 34.4369 88.0268 34.4396 87.8544 34.4452C87.682 34.4461 87.4518 34.4543 87.2225 34.4672C86.7622 34.4883 86.3027 34.5094 86.3027 34.5094L86.4476 37.8303C86.4476 37.8303 86.897 37.8101 87.3473 37.789C87.5719 37.777 87.7966 37.7706 87.9654 37.7669C88.135 37.7632 88.2469 37.7596 88.2469 37.7596L88.1414 34.4369Z" fill="#FF6B59"/>
<path d="M88.0029 30.0759C88.0029 30.0759 87.8846 30.0768 87.7077 30.0814C87.5307 30.0851 87.2941 30.0924 87.0584 30.1053C86.5852 30.1273 86.1129 30.1484 86.1129 30.1484L86.2578 33.4702C86.2578 33.4702 86.72 33.45 87.1831 33.4279C87.4142 33.416 87.6453 33.4077 87.8195 33.405C87.9929 33.4013 88.1093 33.3985 88.1093 33.3985L88.0029 30.0759Z" fill="#FF6B59"/>
<path d="M90.8871 43.101L89.1502 43.1442L89.2382 46.4678L90.9366 46.4255L90.8871 43.101Z" fill="#FF6B59"/>
<path d="M90.8211 38.7359L89.0337 38.7818L89.1227 42.1045L90.8715 42.0604L90.8211 38.7359Z" fill="#FF6B59"/>
<path d="M90.7569 34.3708L88.9164 34.4176L89.0053 37.7412L90.8064 37.6971L90.7569 34.3708Z" fill="#FF6B59"/>
<path d="M90.6908 30.0077L88.7998 30.0555L88.8888 33.3791L90.7403 33.3322L90.6908 30.0077Z" fill="#FF6B59"/>
<path d="M93.3631 38.7248L91.5749 38.7313L91.6088 42.0558L93.3567 42.0493L93.3631 38.7248Z" fill="#FF6B59"/>
<path d="M93.3713 34.3601L91.5308 34.3665L91.5647 37.6929L93.3649 37.6865L93.3713 34.3601Z" fill="#FF6B59"/>
<path d="M93.3787 29.995L91.4878 30.0033L91.5208 33.3278L93.3732 33.3213L93.3787 29.995Z" fill="#FF6B59"/>
<path d="M95.9858 34.3903L94.1462 34.3572L94.1233 37.6836L95.9226 37.7148L95.9858 34.3903Z" fill="#FF6B59"/>
<path d="M96.0674 30.0268L94.1765 29.9938L94.1526 33.3183L96.0042 33.3513L96.0674 30.0268Z" fill="#FF6B59"/>
<path d="M100.982 38.927C100.982 38.927 100.871 38.9178 100.703 38.9114C100.535 38.905 100.312 38.8958 100.089 38.8884C99.643 38.8692 99.1955 38.8517 99.1955 38.8517L99.0616 42.1753C99.0616 42.1753 99.4972 42.1927 99.9337 42.2093C100.152 42.2175 100.371 42.2267 100.533 42.2331C100.699 42.2377 100.807 42.2478 100.807 42.2478L100.982 38.927Z" fill="#FF6B59"/>
<path d="M101.21 34.5683C101.21 34.5683 101.097 34.5592 100.924 34.5527C100.752 34.5463 100.522 34.5371 100.292 34.5279C99.832 34.5096 99.3725 34.4903 99.3725 34.4903L99.2386 37.8129C99.2386 37.8129 99.688 37.8304 100.138 37.8497C100.362 37.8589 100.587 37.8662 100.755 37.8745C100.924 37.8791 101.037 37.8882 101.037 37.8882L101.21 34.5683Z" fill="#FF6B59"/>
<path d="M101.44 30.21C101.44 30.21 101.322 30.199 101.145 30.1944C100.967 30.187 100.732 30.1769 100.495 30.1677C100.024 30.1484 99.5505 30.1301 99.5505 30.1301L99.4147 33.4518C99.4147 33.4518 99.8779 33.4702 100.341 33.4895C100.572 33.4987 100.804 33.5078 100.976 33.5143C101.15 33.5207 101.265 33.5299 101.265 33.5299L101.44 30.21Z" fill="#FF6B59"/>
<path d="M98.7544 30.0975C98.7544 30.0975 98.2831 30.0782 97.809 30.0589C97.3358 30.0497 96.8626 30.0406 96.8626 30.0406L96.7846 33.3651C96.7846 33.3651 97.2486 33.3733 97.7108 33.3825C98.173 33.4009 98.6352 33.4193 98.6352 33.4193L98.7544 30.0975Z" fill="#FF6B59"/>
<path d="M105.67 43.6362L103.941 43.4874L103.695 46.8027L105.384 46.9506L105.67 43.6362Z" fill="#FF6B59"/>
<path d="M106.048 39.2888L104.268 39.1354L104.02 42.4508L105.761 42.6014L106.048 39.2888Z" fill="#FF6B59"/>
<path d="M106.425 34.9403L104.593 34.7814L104.346 38.0986L106.138 38.2538L106.425 34.9403Z" fill="#FF6B59"/>
<path d="M106.803 30.5929L104.918 30.4294L104.67 33.7466L106.515 33.9045L106.803 30.5929Z" fill="#FF6B59"/>
<path d="M103.859 34.7344L102.024 34.6196L101.831 37.9386L103.627 38.0525L103.859 34.7344Z" fill="#FF6B59"/>
<path d="M104.162 30.3808L102.276 30.2623L102.083 33.5813L103.93 33.6979L104.162 30.3808Z" fill="#FF6B59"/>
<path d="M108.576 39.5266C108.576 39.5266 108.131 39.4789 107.687 39.4302C107.243 39.3907 106.798 39.3531 106.798 39.3531L106.494 42.6638C106.494 42.6638 106.928 42.7014 107.363 42.7391C107.797 42.7878 108.231 42.8346 108.231 42.8346L108.576 39.5266Z" fill="#FF6B59"/>
<path d="M109.027 35.1863C109.027 35.1863 108.57 35.1358 108.114 35.0853C107.655 35.0467 107.198 35.0072 107.198 35.0072L106.893 38.318C106.893 38.318 107.342 38.3565 107.79 38.396C108.236 38.4447 108.682 38.4934 108.682 38.4934L109.027 35.1863Z" fill="#FF6B59"/>
<path d="M109.478 30.8462C109.478 30.8462 109.008 30.7948 108.538 30.7424C108.068 30.702 107.597 30.6598 107.597 30.6598L107.293 33.9714C107.293 33.9714 107.753 34.0118 108.214 34.0513C108.675 34.1018 109.135 34.1532 109.135 34.1532L109.478 30.8462Z" fill="#FF6B59"/>
<path d="M110.573 44.1368L108.85 43.9485L108.49 47.2537L110.174 47.4374L110.573 44.1368Z" fill="#FF6B59"/>
<path d="M111.1 39.8034L109.324 39.6105L108.963 42.9166L110.699 43.104L111.1 39.8034Z" fill="#FF6B59"/>
<path d="M111.625 35.471L109.799 35.2708L109.436 38.576L111.225 38.7717L111.625 35.471Z" fill="#FF6B59"/>
<path d="M112.152 31.1373L110.272 30.9316L109.909 34.2377L111.75 34.4379L112.152 31.1373Z" fill="#FF6B59"/>
<path d="M114.817 31.4936L112.941 31.242L112.524 34.5417L114.359 34.7878L114.817 31.4936Z" fill="#FF6B59"/>
<path d="M114.782 49.1375C114.782 49.1375 114.367 49.0723 113.952 49.0062C113.744 48.9731 113.536 48.9382 113.38 48.9153C113.225 48.8932 113.12 48.8795 113.12 48.8795L112.647 52.1709C112.647 52.1709 112.749 52.1856 112.9 52.2058C113.052 52.2288 113.256 52.2618 113.458 52.2949C113.864 52.3592 114.268 52.4235 114.268 52.4235L114.782 49.1375Z" fill="#FF6B59"/>
<path d="M115.454 44.8249C115.454 44.8249 115.026 44.757 114.598 44.6899C114.384 44.655 114.171 44.621 114.01 44.5962C113.848 44.5742 113.742 44.5595 113.742 44.5595L113.269 47.8519C113.269 47.8519 113.374 47.8656 113.53 47.8858C113.687 47.9106 113.897 47.9437 114.105 47.9786C114.524 48.0447 114.941 48.1099 114.941 48.1099L115.454 44.8249Z" fill="#FF6B59"/>
<path d="M116.128 40.5129C116.128 40.5129 115.688 40.4422 115.246 40.3733C115.025 40.3375 114.806 40.3026 114.64 40.276C114.474 40.2539 114.362 40.2383 114.362 40.2383L113.889 43.5298C113.889 43.5298 113.997 43.5444 114.16 43.5665C114.321 43.5931 114.538 43.6271 114.751 43.6602C115.184 43.729 115.615 43.7979 115.615 43.7979L116.128 40.5129Z" fill="#FF6B59"/>
<path d="M116.801 36.1993C116.801 36.1993 116.347 36.1276 115.892 36.0569C115.666 36.0211 115.438 35.9844 115.269 35.9568C115.098 35.9348 114.983 35.9192 114.983 35.9192L114.511 39.2106C114.511 39.2106 114.622 39.2244 114.79 39.2483C114.956 39.2749 115.179 39.3098 115.4 39.3447C115.845 39.4145 116.289 39.4843 116.289 39.4843L116.801 36.1993Z" fill="#FF6B59"/>
<path d="M117.475 31.8875C117.475 31.8875 117.008 31.814 116.542 31.7405C116.308 31.7029 116.073 31.6652 115.899 31.6386C115.722 31.6147 115.606 31.6 115.606 31.6L115.133 34.8896C115.133 34.8896 115.247 34.9053 115.42 34.9291C115.591 34.9548 115.819 34.9916 116.047 35.0274C116.505 35.1009 116.962 35.1734 116.962 35.1734L117.475 31.8875Z" fill="#FF6B59"/>
<path d="M115.648 58.1208C115.648 58.1208 115.551 58.1025 115.405 58.0758C115.259 58.0474 115.065 58.017 114.872 57.9877C114.481 57.927 114.091 57.8655 114.091 57.8655L113.561 61.1478C113.561 61.1478 113.943 61.2075 114.321 61.2672C114.511 61.2975 114.7 61.325 114.843 61.3535C114.983 61.3792 115.078 61.3967 115.078 61.3967L115.648 58.1208Z" fill="#FF6B59"/>
<path d="M116.394 53.8203C116.394 53.8203 116.294 53.8019 116.144 53.7753C115.994 53.7441 115.792 53.7138 115.592 53.6826C115.19 53.6201 114.787 53.5558 114.787 53.5558L114.257 56.839C114.257 56.839 114.649 56.9005 115.042 56.9621C115.238 56.9933 115.435 57.0227 115.581 57.0511C115.728 57.0796 115.825 57.0961 115.825 57.0961L116.394 53.8203Z" fill="#FF6B59"/>
<path d="M117.141 49.5196C117.141 49.5196 117.038 49.5012 116.883 49.4728C116.728 49.4416 116.52 49.4103 116.312 49.3791C115.898 49.313 115.482 49.2478 115.482 49.2478L114.952 52.531C114.952 52.531 115.357 52.5943 115.763 52.6586C115.967 52.6898 116.168 52.7192 116.321 52.7504C116.471 52.7771 116.573 52.7964 116.573 52.7964L117.141 49.5196Z" fill="#FF6B59"/>
<path d="M117.887 45.2208C117.887 45.2208 117.78 45.2006 117.621 45.1703C117.461 45.1391 117.248 45.107 117.033 45.0739C116.606 45.0069 116.176 44.9389 116.176 44.9389L115.647 48.2212C115.647 48.2212 116.066 48.2873 116.483 48.3534C116.693 48.3865 116.903 48.4168 117.059 48.448C117.216 48.4765 117.318 48.4967 117.318 48.4967L117.887 45.2208Z" fill="#FF6B59"/>
<path d="M118.634 40.9197C118.634 40.9197 118.525 40.8995 118.36 40.8692C118.196 40.8371 117.975 40.804 117.754 40.7682C117.312 40.6993 116.872 40.6304 116.872 40.6304L116.343 43.9127C116.343 43.9127 116.774 43.9797 117.205 44.0486C117.42 44.0817 117.636 44.1147 117.796 44.146C117.957 44.1754 118.066 44.1956 118.066 44.1956L118.634 40.9197Z" fill="#FF6B59"/>
<path d="M119.382 36.6189C119.382 36.6189 119.267 36.5987 119.098 36.5675C118.929 36.5344 118.702 36.4995 118.475 36.4646C118.02 36.3921 117.568 36.3195 117.568 36.3195L117.038 39.6036C117.038 39.6036 117.482 39.6725 117.926 39.7432C118.147 39.7781 118.369 39.8121 118.536 39.8451C118.702 39.8755 118.813 39.8956 118.813 39.8956L119.382 36.6189Z" fill="#FF6B59"/>
<path d="M120.128 32.3195C120.128 32.3195 120.012 32.2993 119.837 32.2663C119.664 32.2314 119.428 32.1965 119.195 32.1597C118.729 32.0853 118.262 32.0119 118.262 32.0119L117.732 35.2941C117.732 35.2941 118.189 35.3667 118.647 35.4383C118.875 35.4741 119.105 35.5109 119.273 35.543C119.445 35.5742 119.559 35.5954 119.559 35.5954L120.128 32.3195Z" fill="#FF6B59"/>
<path d="M120.313 45.6642L118.607 45.352L118.022 48.625L119.689 48.929L120.313 45.6642Z" fill="#FF6B59"/>
<path d="M121.132 41.3764L119.375 41.055L118.789 44.3299L120.509 44.6431L121.132 41.3764Z" fill="#FF6B59"/>
<path d="M121.953 37.0895L120.143 36.7589L119.558 40.0319L121.328 40.3561L121.953 37.0895Z" fill="#FF6B59"/>
<path d="M122.772 32.803L120.911 32.4623L120.326 35.7354L122.147 36.0678L122.772 32.803Z" fill="#FF6B59"/>
<path d="M120.053 58.9703L118.508 58.6461L117.865 61.91L119.373 62.224L120.053 58.9703Z" fill="#FF6B59"/>
<path d="M120.943 54.6983L119.349 54.3631L118.707 57.626L120.264 57.9521L120.943 54.6983Z" fill="#FF6B59"/>
<path d="M121.837 50.4258L120.19 50.0805L119.548 53.3425L121.157 53.6796L121.837 50.4258Z" fill="#FF6B59"/>
<path d="M122.73 46.1525L121.031 45.7971L120.391 49.061L122.05 49.4072L122.73 46.1525Z" fill="#FF6B59"/>
<path d="M123.621 41.8803L121.873 41.5157L121.232 44.7768L122.941 45.135L123.621 41.8803Z" fill="#FF6B59"/>
<path d="M124.514 37.608L122.714 37.2315L122.073 40.4954L123.835 40.8618L124.514 37.608Z" fill="#FF6B59"/>
<path d="M125.408 33.3349L123.555 32.9501L122.915 36.2122L124.727 36.5896L125.408 33.3349Z" fill="#FF6B59"/>
<path d="M123.211 55.1867C123.211 55.1867 123.11 55.1628 122.962 55.1288C122.813 55.0949 122.615 55.0425 122.415 55.0012C122.017 54.9204 121.617 54.8377 121.617 54.8377L120.92 58.0888C120.92 58.0888 121.31 58.1696 121.701 58.2495C121.894 58.289 122.087 58.3404 122.233 58.3735C122.379 58.4056 122.476 58.4295 122.476 58.4295L123.211 55.1867Z" fill="#FF6B59"/>
<path d="M124.174 50.93C124.174 50.93 124.072 50.9061 123.919 50.8703C123.765 50.8345 123.562 50.7822 123.355 50.7399C122.943 50.6536 122.531 50.5691 122.531 50.5691L121.836 53.8201C121.836 53.8201 122.236 53.9037 122.639 53.9864C122.842 54.0286 123.041 54.08 123.19 54.1131C123.34 54.1498 123.44 54.1728 123.44 54.1728L124.174 50.93Z" fill="#FF6B59"/>
<path d="M125.14 46.6732C125.14 46.6732 125.034 46.6484 124.877 46.6117C124.716 46.5759 124.507 46.5208 124.295 46.4776C123.871 46.3894 123.446 46.3013 123.446 46.3013L122.749 49.5523C122.749 49.5523 123.164 49.6386 123.579 49.725C123.785 49.7672 123.992 49.8205 124.146 49.8554C124.302 49.8921 124.404 49.916 124.404 49.916L125.14 46.6732Z" fill="#FF6B59"/>
<path d="M126.105 42.4159C126.105 42.4159 125.996 42.3911 125.832 42.3535C125.669 42.3158 125.453 42.2616 125.233 42.2157C124.796 42.1248 124.359 42.0339 124.359 42.0339L123.662 45.2849C123.662 45.2849 124.09 45.374 124.519 45.4622C124.733 45.5072 124.944 45.5604 125.103 45.5972C125.263 45.6339 125.37 45.6596 125.37 45.6596L126.105 42.4159Z" fill="#FF6B59"/>
<path d="M127.069 38.1591C127.069 38.1591 126.957 38.1343 126.79 38.0958C126.622 38.0563 126.399 37.9993 126.173 37.9525C125.724 37.8588 125.273 37.7661 125.273 37.7661L124.577 41.0171C124.577 41.0171 125.017 41.108 125.458 41.1999C125.679 41.2458 125.896 41.3027 126.06 41.3385C126.226 41.378 126.335 41.4028 126.335 41.4028L127.069 38.1591Z" fill="#FF6B59"/>
<path d="M128.035 33.9023C128.035 33.9023 127.919 33.8757 127.747 33.8353C127.574 33.7958 127.343 33.7379 127.114 33.6911C126.65 33.5938 126.188 33.4983 126.188 33.4983L125.491 36.7493C125.491 36.7493 125.943 36.843 126.398 36.9376C126.623 36.9844 126.849 37.0423 127.018 37.0799C127.188 37.1194 127.299 37.1451 127.299 37.1451L128.035 33.9023Z" fill="#FF6B59"/>
<path d="M129.616 38.7561L127.823 38.3364L127.073 41.5764L128.826 41.9869L129.616 38.7561Z" fill="#FF6B59"/>
<path d="M130.651 34.5171L128.81 34.0854L128.058 37.3245L129.862 37.7479L130.651 34.5171Z" fill="#FF6B59"/>
<path d="M129.932 47.8497L128.252 47.4107L127.447 50.637L129.09 51.0658L129.932 47.8497Z" fill="#FF6B59"/>
<path d="M131.04 43.6271L129.311 43.1762L128.505 46.4024L130.197 46.8442L131.04 43.6271Z" fill="#FF6B59"/>
<path d="M132.148 39.4063L130.368 38.9416L129.563 42.1669L131.305 42.6234L132.148 39.4063Z" fill="#FF6B59"/>
<path d="M133.256 35.1847L131.425 34.7063L130.62 37.9343L132.413 38.4009L133.256 35.1847Z" fill="#FF6B59"/>
<path d="M132.317 48.4936C132.317 48.4936 131.898 48.3733 131.481 48.2521C131.06 48.1428 130.64 48.0344 130.64 48.0344L129.782 51.246C129.782 51.246 130.192 51.3525 130.603 51.459C131.01 51.5766 131.419 51.6941 131.419 51.6941L132.317 48.4936Z" fill="#FF6B59"/>
<path d="M133.495 44.2904C133.495 44.2904 133.064 44.1664 132.635 44.0424C132.203 43.9313 131.77 43.8184 131.77 43.8184L130.91 47.0299C130.91 47.0299 131.333 47.1401 131.755 47.2503C132.177 47.3715 132.597 47.4928 132.597 47.4928L133.495 44.2904Z" fill="#FF6B59"/>
<path d="M134.673 40.0877C134.673 40.0877 134.231 39.961 133.788 39.8342C133.343 39.7185 132.898 39.6019 132.898 39.6019L132.038 42.8143C132.038 42.8143 132.473 42.9273 132.909 43.0412C133.343 43.1652 133.776 43.2891 133.776 43.2891L134.673 40.0877Z" fill="#FF6B59"/>
<path d="M135.851 35.8846C135.851 35.8846 135.397 35.7551 134.942 35.6247C134.485 35.5053 134.028 35.385 134.028 35.385L133.168 38.5984C133.168 38.5984 133.616 38.7141 134.064 38.8316C134.508 38.9584 134.953 39.0869 134.953 39.0869L135.851 35.8846Z" fill="#FF6B59"/>
<path d="M137.186 40.8125L135.417 40.3028L134.504 43.4987L136.235 43.9974L137.186 40.8125Z" fill="#FF6B59"/>
<path d="M138.434 36.6286L136.618 36.106L135.704 39.3028L137.483 39.8153L138.434 36.6286Z" fill="#FF6B59"/>
<path d="M140.787 46.5322C140.787 46.5322 140.683 46.4946 140.524 46.4413C140.365 46.388 140.155 46.31 139.94 46.2457C139.515 46.1107 139.086 45.9757 139.086 45.9757L138.068 49.1413C138.068 49.1413 138.485 49.2726 138.904 49.404C139.113 49.4664 139.318 49.5435 139.475 49.595C139.63 49.6501 139.734 49.685 139.734 49.685L140.787 46.5322Z" fill="#FF6B59"/>
<path d="M142.175 42.3929C142.175 42.3929 142.065 42.3553 141.903 42.2992C141.739 42.2441 141.523 42.1642 141.302 42.0981C140.863 41.9585 140.424 41.8208 140.424 41.8208L139.405 44.9855C139.405 44.9855 139.836 45.1223 140.265 45.2564C140.481 45.3225 140.692 45.4006 140.852 45.4539C141.012 45.509 141.119 45.5466 141.119 45.5466L142.175 42.3929Z" fill="#FF6B59"/>
<path d="M143.56 38.2536C143.56 38.2536 143.448 38.216 143.281 38.1581C143.111 38.1012 142.89 38.0204 142.664 37.9506C142.212 37.8082 141.761 37.6659 141.761 37.6659L140.742 40.8324C140.742 40.8324 141.184 40.9702 141.627 41.1098C141.849 41.1768 142.065 41.2567 142.23 41.3137C142.394 41.3697 142.504 41.4073 142.504 41.4073L143.56 38.2536Z" fill="#FF6B59"/>
<path d="M141.001 37.4263L139.198 36.8578L138.231 40.0381L139.999 40.5974L141.001 37.4263Z" fill="#FF6B59"/>
<path d="M144.07 52.324L142.438 51.7151L141.316 54.8431L142.912 55.44L144.07 52.324Z" fill="#FF6B59"/>
<path d="M145.59 48.2321L143.91 47.6058L142.789 50.7356L144.433 51.35L145.59 48.2321Z" fill="#FF6B59"/>
<path d="M147.108 44.1416L145.384 43.4969L144.259 46.6276L145.951 47.2576L147.108 44.1416Z" fill="#FF6B59"/>
<path d="M148.628 40.0492L146.856 39.388L145.734 42.5178L147.47 43.1661L148.628 40.0492Z" fill="#FF6B59"/>
<path d="M144.686 43.2564L142.946 42.6576L141.873 45.8048L143.579 46.3926L144.686 43.2564Z" fill="#FF6B59"/>
<path d="M146.139 39.1418L144.351 38.5265L143.279 41.6738L145.032 42.2771L146.139 39.1418Z" fill="#FF6B59"/>
<path d="M147.974 49.13C147.974 49.13 147.87 49.0869 147.715 49.0244C147.556 48.9657 147.347 48.8867 147.137 48.8086C146.716 48.6516 146.296 48.4964 146.296 48.4964L145.124 51.6087C145.124 51.6087 145.535 51.7603 145.947 51.9136C146.152 51.9908 146.358 52.0679 146.514 52.1249C146.665 52.1864 146.767 52.2268 146.767 52.2268L147.974 49.13Z" fill="#FF6B59"/>
<path d="M149.558 45.0627C149.558 45.0627 149.452 45.0205 149.292 44.9543C149.131 44.8946 148.914 44.8138 148.699 44.733C148.268 44.5723 147.835 44.4125 147.835 44.4125L146.663 47.524C146.663 47.524 147.087 47.681 147.509 47.839C147.72 47.917 147.93 47.9951 148.091 48.0548C148.248 48.1191 148.352 48.1622 148.352 48.1622L149.558 45.0627Z" fill="#FF6B59"/>
<path d="M151.144 40.995C151.144 40.995 151.035 40.9509 150.87 40.8857C150.704 40.8223 150.482 40.7397 150.261 40.6588C149.818 40.4917 149.376 40.3282 149.376 40.3282L148.202 43.4397C148.202 43.4397 148.636 43.6004 149.071 43.762C149.288 43.8428 149.505 43.9246 149.668 43.9861C149.83 44.0504 149.936 44.0945 149.936 44.0945L151.144 40.995Z" fill="#FF6B59"/>
<path d="M148.691 54.1224L147.071 53.4712L145.849 56.5643L147.434 57.2017L148.691 54.1224Z" fill="#FF6B59"/>
<path d="M150.339 50.0825L148.675 49.4112L147.453 52.5043L149.082 53.1609L150.339 50.0825Z" fill="#FF6B59"/>
<path d="M151.988 46.0398L150.28 45.352L149.057 48.445L150.732 49.1191L151.988 46.0398Z" fill="#FF6B59"/>
<path d="M153.639 41.9999L151.884 41.2927L150.662 44.3858L152.382 45.0783L153.639 41.9999Z" fill="#FF6B59"/>
<path d="M156.119 43.0349C156.119 43.0349 155.685 42.8476 155.25 42.6602C155.034 42.5647 154.818 42.4711 154.652 42.4068C154.487 42.3406 154.378 42.2975 154.378 42.2975L153.107 45.3694C153.107 45.3694 153.214 45.4135 153.375 45.4778C153.538 45.5403 153.749 45.633 153.963 45.7258C154.389 45.9104 154.814 46.0931 154.814 46.0931L156.119 43.0349Z" fill="#FF6B59"/>
<path d="M151.485 60.0513L149.925 59.3782L148.604 62.429L150.132 63.0893L151.485 60.0513Z" fill="#FF6B59"/>
<path d="M153.261 56.0636L151.656 55.3711L150.338 58.4238L151.908 59.1015L153.261 56.0636Z" fill="#FF6B59"/>
<path d="M155.036 52.0788L153.388 51.3652L152.068 54.4179L153.682 55.115L155.036 52.0788Z" fill="#FF6B59"/>
<path d="M156.811 48.0904L155.119 47.3594L153.8 50.4112L155.458 51.1275L156.811 48.0904Z" fill="#FF6B59"/>
<path d="M158.588 44.1041L156.85 43.3519L155.531 46.4055L157.234 47.142L158.588 44.1041Z" fill="#FF6B59"/>
<path d="M150.008 68.9817L148.55 68.3031L147.183 71.3346L148.609 71.9977L150.008 68.9817Z" fill="#FF6B59"/>
<path d="M151.846 65.0219L150.345 64.3239L148.978 67.3554L150.447 68.0387L151.846 65.0219Z" fill="#FF6B59"/>
<path d="M153.682 61.0623L152.14 60.346L150.771 63.3775L152.283 64.0791L153.682 61.0623Z" fill="#FF6B59"/>
<path d="M155.52 57.1025L153.933 56.366L152.565 59.3985L154.121 60.1203L155.52 57.1025Z" fill="#FF6B59"/>
<path d="M157.356 53.1436L155.727 52.3868L154.359 55.4184L155.957 56.1595L157.356 53.1436Z" fill="#FF6B59"/>
<path d="M159.194 49.1844L157.521 48.4093L156.153 51.4409L157.795 52.2004L159.194 49.1844Z" fill="#FF6B59"/>
<path d="M161.031 45.2251L159.315 44.4297L157.947 47.4613L159.631 48.241L161.031 45.2251Z" fill="#FF6B59"/>
<path d="M157.773 58.1606C157.773 58.1606 157.674 58.1119 157.526 58.0384C157.382 57.9631 157.183 57.8722 156.984 57.7813C156.586 57.5967 156.189 57.413 156.189 57.413L154.776 60.4225C154.776 60.4225 155.164 60.6025 155.553 60.7835C155.749 60.8725 155.943 60.9616 156.086 61.0351C156.232 61.1076 156.327 61.1545 156.327 61.1545L157.773 58.1606Z" fill="#FF6B59"/>
<path d="M159.67 54.2286C159.67 54.2286 159.569 54.179 159.418 54.1037C159.268 54.0266 159.064 53.9329 158.859 53.8392C158.452 53.651 158.044 53.4618 158.044 53.4618L156.63 56.4713C156.63 56.4713 157.03 56.6577 157.43 56.8423C157.63 56.9332 157.83 57.026 157.977 57.1013C158.125 57.1748 158.224 57.2234 158.224 57.2234L159.67 54.2286Z" fill="#FF6B59"/>
<path d="M161.568 50.2983C161.568 50.2983 161.464 50.2469 161.309 50.1698C161.154 50.0917 160.945 49.9962 160.735 49.8997C160.318 49.7051 159.899 49.5122 159.899 49.5122L158.486 52.5217C158.486 52.5217 158.896 52.7118 159.307 52.901C159.512 52.9965 159.717 53.0902 159.868 53.1673C160.02 53.2426 160.122 53.2931 160.122 53.2931L161.568 50.2983Z" fill="#FF6B59"/>
<path d="M163.465 46.3674C163.465 46.3674 163.359 46.316 163.2 46.237C163.043 46.1562 162.827 46.057 162.612 45.9587C162.183 45.7594 161.754 45.5601 161.754 45.5601L160.341 48.5706C160.341 48.5706 160.763 48.7662 161.183 48.96C161.394 49.0573 161.604 49.1547 161.759 49.2327C161.915 49.3117 162.019 49.3631 162.019 49.3631L163.465 46.3674Z" fill="#FF6B59"/>
<path d="M151.132 70.0593H154.184V74H151.132V70.0593Z" fill="#FF6B59"/>
<path d="M154.135 70.97L152.689 70.2537L151.231 73.2439L152.645 73.9437L154.135 70.97Z" fill="#FF6B59"/>
<path d="M156.091 67.0687L154.603 66.3322L153.145 69.3196L154.6 70.0405L156.091 67.0687Z" fill="#FF6B59"/>
<path d="M158.049 63.1672L156.519 62.4105L155.06 65.3989L156.557 66.14L158.049 63.1672Z" fill="#FF6B59"/>
<path d="M160.005 59.2659L158.434 58.4872L156.975 61.4746L158.514 62.2378L160.005 59.2659Z" fill="#FF6B59"/>
<path d="M161.96 55.364L160.349 54.5659L158.89 57.5543L160.471 58.3377L161.96 55.364Z" fill="#FF6B59"/>
<path d="M163.918 51.4617L162.263 50.6434L160.805 53.6327L162.428 54.4344L163.918 51.4617Z" fill="#FF6B59"/>
<path d="M165.874 47.5615L164.18 46.7221L162.721 49.7096L164.383 50.5334L165.874 47.5615Z" fill="#FF6B59"/>
<path d="M158.197 68.1442C158.197 68.1442 157.828 67.9495 157.459 67.7548C157.276 67.6565 157.092 67.5601 156.952 67.4931C156.813 67.4251 156.718 67.3792 156.718 67.3792L155.214 70.3455C155.214 70.3455 155.305 70.3887 155.444 70.4557C155.579 70.5219 155.761 70.6155 155.94 70.7129C156.3 70.903 156.661 71.094 156.661 71.094L158.197 68.1442Z" fill="#FF6B59"/>
<path d="M160.211 64.2724C160.211 64.2724 159.832 64.0713 159.454 63.8729C159.266 63.771 159.076 63.6727 158.932 63.6038C158.788 63.5331 158.693 63.4863 158.693 63.4863L157.188 66.4517C157.188 66.4517 157.283 66.4985 157.424 66.5674C157.565 66.6344 157.749 66.7309 157.935 66.8301C158.306 67.0266 158.676 67.2222 158.676 67.2222L160.211 64.2724Z" fill="#FF6B59"/>
<path d="M162.225 60.4003C162.225 60.4003 161.837 60.1955 161.449 59.9907C161.256 59.8869 161.06 59.785 160.913 59.7142C160.765 59.6426 160.667 59.5921 160.667 59.5921L159.162 62.5575C159.162 62.5575 159.26 62.6071 159.404 62.6769C159.548 62.7476 159.739 62.8459 159.929 62.9478C160.31 63.148 160.69 63.3492 160.69 63.3492L162.225 60.4003Z" fill="#FF6B59"/>
<path d="M164.24 56.5274C164.24 56.5274 163.841 56.3181 163.443 56.1077C163.244 56.0012 163.045 55.8984 162.893 55.824C162.741 55.7505 162.641 55.7 162.641 55.7L161.137 58.6663C161.137 58.6663 161.236 58.715 161.384 58.7885C161.533 58.8592 161.729 58.9611 161.924 59.0658C162.315 59.2706 162.705 59.4772 162.705 59.4772L164.24 56.5274Z" fill="#FF6B59"/>
<path d="M166.254 52.6566C166.254 52.6566 165.847 52.4398 165.438 52.2249C165.234 52.1156 165.03 52.0109 164.873 51.9356C164.719 51.8585 164.615 51.8071 164.615 51.8071L163.11 54.7734C163.11 54.7734 163.213 54.823 163.364 54.8983C163.518 54.9718 163.719 55.0765 163.918 55.183C164.319 55.3951 164.72 55.6064 164.72 55.6064L166.254 52.6566Z" fill="#FF6B59"/>
<path d="M168.269 48.7846C168.269 48.7846 167.85 48.5632 167.432 48.3428C167.223 48.2317 167.013 48.1224 166.854 48.0453C166.696 47.9672 166.589 47.9158 166.589 47.9158L165.085 50.8794C165.085 50.8794 165.188 50.9317 165.345 51.0098C165.502 51.0842 165.708 51.1916 165.913 51.3009C166.325 51.5167 166.735 51.7334 166.735 51.7334L168.269 48.7846Z" fill="#FF6B59"/>
<path d="M168.576 53.8801L166.943 53.0196L165.396 55.963L166.999 56.8069L168.576 53.8801Z" fill="#FF6B59"/>
<path d="M170.647 50.0382L168.974 49.1566L167.426 52.0991L169.069 52.9651L170.647 50.0382Z" fill="#FF6B59"/>
<path d="M166.619 62.7724L165.085 61.9128L163.495 64.8314L164.999 65.6763L166.619 62.7724Z" fill="#FF6B59"/>
<path d="M168.747 58.9623L167.173 58.0807L165.584 60.9993L167.127 61.8662L168.747 58.9623Z" fill="#FF6B59"/>
<path d="M170.874 55.151L169.262 54.2473L167.672 57.1668L169.254 58.0539L170.874 55.151Z" fill="#FF6B59"/>
<path d="M173.002 51.3404L171.35 50.4147L169.76 53.3351L171.38 54.2434L173.002 51.3404Z" fill="#FF6B59"/>
<path d="M168.802 63.9951L167.265 63.1364L165.633 66.0321L167.139 66.8742L168.802 63.9951Z" fill="#FF6B59"/>
<path d="M170.983 60.215L169.409 59.3342L167.776 62.2289L169.321 63.0941L170.983 60.215Z" fill="#FF6B59"/>
<path d="M173.166 56.434L171.554 55.5312L169.919 58.4278L171.502 59.314L173.166 56.434Z" fill="#FF6B59"/>
<path d="M175.347 52.6548L173.697 51.729L172.064 54.6256L173.685 55.5348L175.347 52.6548Z" fill="#FF6B59"/>
</g>
</svg>
