<svg width="6" height="9" viewBox="0 0 6 9" fill="none" xmlns="http://www.w3.org/2000/svg">
<path d="M3.13627 3.7624L5.93064 0.265623H2.21245L0.410617 4.98398L3.51802 4.77021L0.509871 8.99993L5.90773 3.95327L3.13627 3.7624Z" fill="#969696"/>
<path d="M4.83882 8.54174C4.57923 8.54174 4.31965 8.40431 4.17458 8.16L0.105192 1.15117C-0.108585 0.784697 0.0135735 0.318968 0.380048 0.105192C0.746522 -0.108585 1.21225 0.0135735 1.42603 0.380048L5.49542 7.38887C5.7092 7.75535 5.58704 8.22107 5.22057 8.43485C5.09841 8.5112 4.96861 8.54174 4.83882 8.54174Z" fill="#161616"/>
<path d="M4.83145 8.16022C4.70166 8.16022 4.57186 8.09151 4.50315 7.96935L0.433757 0.960524C0.326869 0.777287 0.387948 0.540605 0.571185 0.441352C0.754422 0.334464 0.983469 0.395543 1.09036 0.57878L5.15975 7.5876C5.26664 7.77084 5.20556 8.00752 5.02232 8.10678C4.96888 8.14495 4.90016 8.16022 4.83145 8.16022Z" fill="#9B9B9B"/>
</svg>
