<svg width="20" height="26" viewBox="0 0 20 26" fill="none" xmlns="http://www.w3.org/2000/svg">
<mask id="mask0_0_3681" style="mask-type:alpha" maskUnits="userSpaceOnUse" x="-6" y="-3" width="32" height="33">
<rect x="-6" y="-2.66699" width="32" height="32" fill="#D9D9D9"/>
</mask>
<g mask="url(#mask0_0_3681)">
<path d="M2.41027 25.9999C1.74531 25.9999 1.17737 25.7644 0.706433 25.2934C0.235478 24.8225 0 24.2546 0 23.5896V11.0769C0 10.4119 0.235478 9.84397 0.706433 9.37303C1.17737 8.90208 1.74531 8.6666 2.41027 8.6666H4V5.99993C4 4.335 4.58376 2.91878 5.75127 1.75127C6.9188 0.583756 8.33503 0 9.99997 0C11.6649 0 13.0811 0.583756 14.2487 1.75127C15.4162 2.91878 15.9999 4.335 15.9999 5.99993V8.6666H17.5897C18.2546 8.6666 18.8226 8.90208 19.2935 9.37303C19.7645 9.84397 19.9999 10.4119 19.9999 11.0769V23.5896C19.9999 24.2546 19.7645 24.8225 19.2935 25.2934C18.8226 25.7644 18.2546 25.9999 17.5897 25.9999H2.41027ZM2.41027 23.9999H17.5897C17.7093 23.9999 17.8076 23.9614 17.8846 23.8845C17.9615 23.8076 18 23.7093 18 23.5896V11.0769C18 10.9572 17.9615 10.8589 17.8846 10.782C17.8076 10.705 17.7093 10.6666 17.5897 10.6666H2.41027C2.2906 10.6666 2.1923 10.705 2.11537 10.782C2.03843 10.8589 1.99997 10.9572 1.99997 11.0769V23.5896C1.99997 23.7093 2.03843 23.8076 2.11537 23.8845C2.1923 23.9614 2.2906 23.9999 2.41027 23.9999ZM9.99997 19.6665C10.6478 19.6665 11.1987 19.4396 11.6525 18.9858C12.1063 18.5319 12.3333 17.9811 12.3333 17.3332C12.3333 16.6854 12.1063 16.1345 11.6525 15.6807C11.1987 15.2269 10.6478 14.9999 9.99997 14.9999C9.3521 14.9999 8.80126 15.2269 8.34743 15.6807C7.89359 16.1345 7.66667 16.6854 7.66667 17.3332C7.66667 17.9811 7.89359 18.5319 8.34743 18.9858C8.80126 19.4396 9.3521 19.6665 9.99997 19.6665ZM5.99997 8.6666H14V5.99993C14 4.88882 13.6111 3.94438 12.8333 3.1666C12.0555 2.38882 11.1111 1.99993 9.99997 1.99993C8.88886 1.99993 7.94441 2.38882 7.16663 3.1666C6.38886 3.94438 5.99997 4.88882 5.99997 5.99993V8.6666Z" fill="#FA5946"/>
</g>
</svg>
