<svg width="40" height="40" viewBox="0 0 40 40" fill="none" xmlns="http://www.w3.org/2000/svg">
<path d="M10.5249 11.7725C8.87626 12.2996 7.89064 12.9675 7.89064 13.6939C7.89064 14.3544 8.70548 14.9663 10.0922 15.4682M29.9078 15.4682C31.2945 14.9664 32.1094 14.3544 32.1094 13.6939C32.1094 12.9674 31.1238 12.2996 29.4752 11.7724M27.834 17.3261V13.6987C27.834 10.5638 25.2927 8.02254 22.1578 8.02254H21.1068M20.2209 8.02246H17.8422C14.7074 8.02246 12.166 10.5638 12.166 13.6986V17.326M10.6838 28.9882L8.98322 29.6378C7.28111 30.2879 6.15673 31.9211 6.15673 33.7432V38.2414C6.15673 38.8886 6.68142 39.4133 7.32861 39.4133H25.0725M27.8069 39.4133H32.6714C33.3186 39.4133 33.8433 38.8886 33.8433 38.2414V33.7432C33.8433 31.9211 32.7189 30.288 31.0168 29.6378L22.5002 26.3846V27.9007C22.5002 29.2815 21.3809 30.4008 20 30.4008C18.6192 30.4008 17.4998 29.2814 17.4998 27.9007V26.3846L13.2381 28.0125" stroke="white" stroke-width="0.8" stroke-miterlimit="10" stroke-linecap="round" stroke-linejoin="round"/>
<path d="M17.4998 26.0729V27.9006C17.4998 29.2814 18.6191 30.4007 20 30.4007C21.3808 30.4007 22.5002 29.2814 22.5002 27.9006V26.0729M14.3251 17.0986H13.1573C11.9027 17.0986 10.8858 18.1156 10.8858 19.3701V20.0775C10.8858 21.3321 11.9027 22.349 13.1573 22.349H14.3251V17.0986ZM26.8427 17.0986H25.6749V22.349H26.8427C28.0973 22.349 29.1142 21.3321 29.1142 20.0775V19.3701C29.1142 18.1157 28.0972 17.0986 26.8427 17.0986Z" stroke="white" stroke-width="0.8" stroke-miterlimit="10" stroke-linecap="round" stroke-linejoin="round"/>
<path d="M17.5781 13.9336H16.4086C15.2579 13.9336 14.3251 14.8664 14.3251 16.0171V22.3666C14.3251 24.4378 16.0041 26.1169 18.0754 26.1169H21.9245C23.9958 26.1169 25.6748 24.4378 25.6748 22.3666V16.0171C25.6748 14.8664 24.742 13.9336 23.5913 13.9336H20.3125" stroke="white" stroke-width="0.8" stroke-miterlimit="10" stroke-linecap="round" stroke-linejoin="round"/>
<path d="M20 18.5164L19.0657 19.651C19.029 19.6955 19.0098 19.7519 19.0115 19.8096C19.0133 19.8673 19.036 19.9223 19.0754 19.9646L20 20.9552M22.1484 23.416L21.3968 22.8177L20.6984 23.3735L20 22.8177L19.3016 23.3735L18.6032 22.8177L17.8516 23.416M17.2089 17.7725V19.1238M22.7911 17.7725V19.1238M11.7969 5.9126C9.90766 6.42541 8.75 7.11541 8.75 7.87432C8.75 9.45768 13.7868 10.7413 20 10.7413C26.2132 10.7413 31.25 9.45768 31.25 7.87432C31.25 7.11541 30.0923 6.42549 28.2031 5.9126M6.17188 8.98346V11.0928M5.11719 10.0381H7.22656M33.8281 8.98346V11.0928M32.7734 10.0381H34.8828" stroke="white" stroke-width="0.8" stroke-miterlimit="10" stroke-linecap="round" stroke-linejoin="round"/>
<path d="M21.8696 4.74012L20.7873 0.700742C20.7783 0.667522 20.7587 0.638168 20.7314 0.617235C20.7041 0.596301 20.6707 0.584957 20.6363 0.584961H17.9672C17.9432 0.584958 17.9196 0.59047 17.8981 0.601071C17.8766 0.611673 17.8578 0.627078 17.8432 0.646096C17.8286 0.665114 17.8186 0.687234 17.8139 0.710745C17.8092 0.734256 17.81 0.758527 17.8162 0.78168L18.7402 4.22996C18.7464 4.25311 18.7472 4.27739 18.7426 4.3009C18.7379 4.32441 18.7279 4.34653 18.7133 4.36555C18.6987 4.38456 18.6799 4.39997 18.6584 4.41057C18.6369 4.42117 18.6133 4.42668 18.5893 4.42668H17.6134C17.4817 4.42668 17.409 4.57973 17.4924 4.68176L21.0243 9.0059C21.1286 9.13356 21.3339 9.03363 21.2977 8.87277L20.4562 5.1273C20.4511 5.10445 20.4512 5.08074 20.4565 5.05791C20.4617 5.03509 20.4721 5.01375 20.4867 4.99546C20.5013 4.97717 20.5199 4.96241 20.541 4.95226C20.5621 4.94211 20.5852 4.93684 20.6087 4.93684H21.7186C21.7426 4.93684 21.7662 4.93132 21.7877 4.92072C21.8092 4.91012 21.828 4.89472 21.8426 4.8757C21.8572 4.85669 21.8672 4.83457 21.8719 4.81106C21.8766 4.78755 21.8758 4.76328 21.8696 4.74012ZM15.4518 6.59887L14.3208 2.32137C14.312 2.28802 14.2924 2.25852 14.265 2.23748C14.2377 2.21644 14.2042 2.20503 14.1697 2.20504H11.8069C11.6751 2.20504 11.6025 2.35809 11.6858 2.46012L15.1797 6.7377C15.286 6.86785 15.4947 6.76137 15.4518 6.59887ZM24.5482 6.59887L25.6792 2.32137C25.688 2.28802 25.7076 2.25852 25.7349 2.23748C25.7623 2.21644 25.7958 2.20503 25.8303 2.20504H28.1931C28.3248 2.20504 28.3975 2.35809 28.3141 2.46012L24.8203 6.7377C24.714 6.86785 24.5053 6.76137 24.5482 6.59887Z" stroke="white" stroke-width="0.8" stroke-miterlimit="10" stroke-linecap="round" stroke-linejoin="round"/>
</svg>
