<svg width="17" height="19" viewBox="0 0 17 19" fill="none" xmlns="http://www.w3.org/2000/svg">
<mask id="mask0_0_3698" style="mask-type:alpha" maskUnits="userSpaceOnUse" x="-5" y="-3" width="25" height="25">
<rect x="-4.50004" y="-2.53858" width="24.0001" height="24.0001" fill="#D9D9D9"/>
</mask>
<g mask="url(#mask0_0_3698)">
<path d="M7.5 18.9423C5.33717 18.3525 3.54647 17.0795 2.12788 15.1231C0.709293 13.1666 0 10.9795 0 8.56152V2.80768L7.5 0L15 2.80768V8.4731C14.7667 8.37822 14.5218 8.29264 14.2654 8.21637C14.009 8.14009 13.7538 8.08015 13.5 8.03655V3.85189L7.5 1.61151L1.49998 3.85189V8.56152C1.49998 9.44743 1.62498 10.3125 1.87498 11.1567C2.12498 12.001 2.46954 12.7901 2.90866 13.5241C3.34776 14.258 3.87244 14.917 4.48271 15.501C5.09298 16.085 5.75517 16.5513 6.46927 16.9L6.49812 16.8904C6.63017 17.2571 6.80132 17.6083 7.01157 17.9442C7.22182 18.2801 7.46091 18.5852 7.72885 18.8596C7.68655 18.8724 7.6484 18.8862 7.61442 18.9009C7.58045 18.9157 7.54231 18.9295 7.5 18.9423ZM12.5 18.9615C11.2513 18.9615 10.1891 18.5237 9.31348 17.6481C8.43784 16.7724 8.00002 15.7102 8.00002 14.4615C8.00002 13.2128 8.43784 12.1507 9.31348 11.275C10.1891 10.3994 11.2513 9.96155 12.5 9.96155C13.7487 9.96155 14.8109 10.3994 15.6865 11.275C16.5622 12.1507 17 13.2128 17 14.4615C17 15.7102 16.5622 16.7724 15.6865 17.6481C14.8109 18.5237 13.7487 18.9615 12.5 18.9615ZM12.0577 17.2115H12.9423V14.9038H15.25V14.0192H12.9423V11.7116H12.0577V14.0192H9.75003V14.9038H12.0577V17.2115Z" fill="#0C0C0C" fill-opacity="0.7"/>
</g>
</svg>
