<svg width="17" height="17" viewBox="0 0 17 17" fill="none" xmlns="http://www.w3.org/2000/svg">
<path d="M15.0758 5.86157L10.8607 5.24897L8.97642 1.42896C8.92496 1.32437 8.84029 1.2397 8.7357 1.18823C8.4734 1.05874 8.15465 1.16665 8.0235 1.42896L6.13922 5.24897L1.92409 5.86157C1.80788 5.87817 1.70163 5.93296 1.62028 6.01596C1.52193 6.11705 1.46774 6.25304 1.46961 6.39405C1.47148 6.53507 1.52925 6.66957 1.63024 6.76801L4.67994 9.74135L3.95944 13.9399C3.94254 14.0375 3.95335 14.138 3.99063 14.2298C4.02792 14.3217 4.09019 14.4012 4.17039 14.4595C4.25059 14.5177 4.3455 14.5523 4.44437 14.5594C4.54323 14.5664 4.6421 14.5456 4.72975 14.4994L8.49996 12.5171L12.2702 14.4994C12.3731 14.5541 12.4926 14.5724 12.6072 14.5525C12.8961 14.5027 13.0903 14.2287 13.0405 13.9399L12.32 9.74135L15.3697 6.76801C15.4527 6.68667 15.5075 6.58042 15.5241 6.46421C15.5689 6.17368 15.3664 5.90473 15.0758 5.86157Z" fill="#FFD33C"/>
</svg>
