<svg width="17" height="17" viewBox="0 0 17 17" fill="none" xmlns="http://www.w3.org/2000/svg">
<mask id="mask0_0_3703" style="mask-type:alpha" maskUnits="userSpaceOnUse" x="-4" y="-4" width="25" height="25">
<rect x="-3.50003" y="-3.5" width="24" height="24" fill="#D9D9D9"/>
</mask>
<g mask="url(#mask0_0_3703)">
<path d="M1.8077 7.31728C1.30257 7.31728 0.875 7.14228 0.525 6.79228C0.175 6.44228 0 6.01472 0 5.5096V1.8077C0 1.30257 0.175 0.875 0.525 0.525C0.875 0.175 1.30257 0 1.8077 0H15.1923C15.6974 0 16.125 0.175 16.475 0.525C16.825 0.875 17 1.30257 17 1.8077V5.5096C17 6.01472 16.825 6.44228 16.475 6.79228C16.125 7.14228 15.6974 7.31728 15.1923 7.31728H1.8077ZM1.8077 5.8173H15.1923C15.282 5.8173 15.3557 5.78845 15.4134 5.73075C15.4711 5.67307 15.5 5.59935 15.5 5.5096V1.8077C15.5 1.71795 15.4711 1.64423 15.4134 1.58653C15.3557 1.52883 15.282 1.49998 15.1923 1.49998H1.8077C1.71795 1.49998 1.64423 1.52883 1.58653 1.58653C1.52883 1.64423 1.49997 1.71795 1.49997 1.8077V5.5096C1.49997 5.59935 1.52883 5.67307 1.58653 5.73075C1.64423 5.78845 1.71795 5.8173 1.8077 5.8173ZM1.8077 17C1.30257 17 0.875 16.825 0.525 16.475C0.175 16.125 0 15.6974 0 15.1923V11.5C0 10.9949 0.175 10.5673 0.525 10.2173C0.875 9.8673 1.30257 9.6923 1.8077 9.6923H15.1923C15.6974 9.6923 16.125 9.8673 16.475 10.2173C16.825 10.5673 17 10.9949 17 11.5V15.1923C17 15.6974 16.825 16.125 16.475 16.475C16.125 16.825 15.6974 17 15.1923 17H1.8077ZM1.8077 15.5H15.1923C15.282 15.5 15.3557 15.4711 15.4134 15.4134C15.4711 15.3557 15.5 15.282 15.5 15.1923V11.5C15.5 11.4102 15.4711 11.3365 15.4134 11.2788C15.3557 11.2211 15.282 11.1923 15.1923 11.1923H1.8077C1.71795 11.1923 1.64423 11.2211 1.58653 11.2788C1.52883 11.3365 1.49997 11.4102 1.49997 11.5V15.1923C1.49997 15.282 1.52883 15.3557 1.58653 15.4134C1.64423 15.4711 1.71795 15.5 1.8077 15.5Z" fill="#0C0C0C" fill-opacity="0.7"/>
</g>
</svg>
