<svg width="40" height="40" viewBox="0 0 40 40" fill="none" xmlns="http://www.w3.org/2000/svg">
<path d="M34.6562 15.0688L28.4062 11.9438C28.3197 11.8976 28.2231 11.8734 28.125 11.8734C28.0269 11.8734 27.9303 11.8976 27.8437 11.9438L23.75 13.9875V9.375C23.7525 9.04424 23.8849 8.72772 24.1188 8.49383C24.3527 8.25994 24.6692 8.12745 25 8.125C25.3312 8.12599 25.6486 8.258 25.8828 8.49221C26.117 8.72642 26.249 9.04378 26.25 9.375V11.25H27.5V9.375C27.5007 8.93593 27.3856 8.50445 27.1662 8.12408C26.9469 7.74372 26.6311 7.42794 26.2508 7.2086C25.8704 6.98926 25.4389 6.87413 24.9999 6.87481C24.5608 6.87549 24.1297 6.99198 23.75 7.2125V6.875C23.7507 6.43593 23.6356 6.00445 23.4162 5.62408C23.1969 5.24372 22.8811 4.92794 22.5008 4.7086C22.1204 4.48926 21.6889 4.37413 21.2499 4.37481C20.8108 4.37549 20.3797 4.49198 20 4.7125V3.75C20 3.08696 19.7366 2.45107 19.2678 1.98223C18.7989 1.51339 18.163 1.25 17.5 1.25C16.837 1.25 16.2011 1.51339 15.7322 1.98223C15.2634 2.45107 15 3.08696 15 3.75V4.7125C14.6203 4.49218 14.1892 4.37586 13.7502 4.37527C13.3112 4.37468 12.8798 4.48984 12.4995 4.70915C12.1192 4.92845 11.8035 5.24414 11.5841 5.62439C11.3647 6.00464 11.2495 6.43601 11.25 6.875V17.0438L9.91875 14.7312C9.58722 14.1561 9.04079 13.7361 8.39965 13.5638C7.75851 13.3915 7.07518 13.481 6.5 13.8125C5.92481 14.144 5.50487 14.6905 5.33257 15.3316C5.16027 15.9727 5.24972 16.6561 5.58125 17.2312L12.5 29.2062V31.25H11.875C11.7092 31.25 11.5503 31.3158 11.4331 31.4331C11.3158 31.5503 11.25 31.7092 11.25 31.875V38.75H12.5V32.5H26.25V38.75H27.5V31.875C27.5 31.7092 27.4341 31.5503 27.3169 31.4331C27.1997 31.3158 27.0408 31.25 26.875 31.25H26.25V28.8687L26.4562 28.3562L25.2937 27.8938L25.0437 28.5188C25.0137 28.5921 24.9988 28.6707 25 28.75V31.25H13.75V29.0375C13.749 28.9282 13.7211 28.8209 13.6687 28.725L6.66875 16.6062C6.55798 16.4189 6.49969 16.2052 6.5 15.9875C6.4991 15.7122 6.58912 15.4443 6.75607 15.2254C6.92301 15.0065 7.15756 14.8489 7.42328 14.7769C7.68901 14.705 7.97106 14.7227 8.22564 14.8275C8.48023 14.9322 8.69311 15.1181 8.83125 15.3562L11.3312 19.6875C11.3863 19.7829 11.4656 19.862 11.5611 19.9169C11.6566 19.9718 11.7649 20.0004 11.875 20H13.75C14.9099 20.0013 16.0219 20.4627 16.8421 21.2829C17.6623 22.1031 18.1237 23.2151 18.125 24.375V25.625H19.375V24.375C19.3727 22.8839 18.7793 21.4545 17.7249 20.4001C16.6705 19.3457 15.2411 18.7523 13.75 18.75H12.5V6.875C12.5024 6.54424 12.6349 6.22772 12.8688 5.99383C13.1027 5.75994 13.4192 5.62745 13.75 5.625C14.0812 5.62599 14.3986 5.758 14.6328 5.99221C14.867 6.22642 14.999 6.54378 15 6.875V15.625C15 15.7908 15.0658 15.9497 15.1831 16.0669C15.3003 16.1842 15.4592 16.25 15.625 16.25C15.7908 16.25 15.9497 16.1842 16.0669 16.0669C16.1841 15.9497 16.25 15.7908 16.25 15.625V3.75C16.2524 3.41924 16.3849 3.10272 16.6188 2.86883C16.8527 2.63494 17.1692 2.50245 17.5 2.5C17.8312 2.50099 18.1486 2.633 18.3828 2.86721C18.617 3.10142 18.749 3.41878 18.75 3.75V15.625C18.75 15.7908 18.8158 15.9497 18.9331 16.0669C19.0503 16.1842 19.2092 16.25 19.375 16.25C19.5408 16.25 19.6997 16.1842 19.8169 16.0669C19.9341 15.9497 20 15.7908 20 15.625V6.875C20.0024 6.54424 20.1349 6.22772 20.3688 5.99383C20.6027 5.75994 20.9192 5.62745 21.25 5.625C21.5812 5.62599 21.8986 5.758 22.1328 5.99221C22.367 6.22642 22.499 6.54378 22.5 6.875V14.6125L21.5937 15.0688C21.4896 15.1193 21.402 15.1985 21.3411 15.297C21.2803 15.3955 21.2487 15.5092 21.25 15.625V19.5062C21.2538 20.9078 21.6187 22.2848 22.3095 23.5043C23.0002 24.7239 23.9936 25.7448 25.1937 26.4688L27.8062 28.0375C27.9027 28.0947 28.0128 28.1249 28.125 28.1249C28.2372 28.1249 28.3473 28.0947 28.4437 28.0375L31.0562 26.4688C32.2564 25.7448 33.2498 24.7239 33.9405 23.5043C34.6313 22.2848 34.9962 20.9078 35 19.5062V15.625C35.0013 15.5092 34.9697 15.3955 34.9089 15.297C34.848 15.1985 34.7604 15.1193 34.6562 15.0688ZM33.75 19.5062C33.7457 20.6924 33.4365 21.8575 32.852 22.8896C32.2675 23.9217 31.4275 24.7862 30.4125 25.4L28.125 26.7688L25.8375 25.4C24.8225 24.7862 23.9825 23.9217 23.398 22.8896C22.8135 21.8575 22.5043 20.6924 22.5 19.5062V16.0125L28.125 13.2L33.75 16.0125V19.5062Z" fill="white"/>
<path d="M26.0669 18.9331L25.1831 19.8169L27.0581 21.6919C27.1753 21.809 27.3343 21.8748 27.5 21.8748C27.6657 21.8748 27.8247 21.809 27.9419 21.6919L31.0669 18.5669L30.1831 17.6831L27.5 20.3662L26.0669 18.9331Z" fill="white"/>
</svg>
