<svg width="19" height="19" viewBox="0 0 19 19" fill="none" xmlns="http://www.w3.org/2000/svg">
<mask id="mask0_0_3693" style="mask-type:alpha" maskUnits="userSpaceOnUse" x="-3" y="-3" width="25" height="25">
<rect x="-2.50003" y="-2.5" width="24" height="24" fill="#D9D9D9"/>
</mask>
<g mask="url(#mask0_0_3693)">
<path d="M12.6052 2.54805C12.3197 2.54805 12.0785 2.44948 11.8817 2.25233C11.6849 2.05518 11.5865 1.81383 11.5865 1.5283C11.5865 1.24277 11.6851 1.00161 11.8823 0.804825C12.0794 0.608025 12.3207 0.509625 12.6063 0.509625C12.8918 0.509625 13.133 0.608201 13.3298 0.805351C13.5266 1.0025 13.625 1.24384 13.625 1.52938C13.625 1.81491 13.5264 2.05608 13.3292 2.25288C13.1321 2.44966 12.8907 2.54805 12.6052 2.54805ZM12.5764 18.4903C12.2908 18.4903 12.0497 18.3918 11.8529 18.1946C11.6561 17.9975 11.5577 17.7561 11.5577 17.4706C11.5577 17.185 11.6563 16.9439 11.8534 16.7471C12.0506 16.5503 12.2919 16.4519 12.5774 16.4519C12.863 16.4519 13.1041 16.5505 13.3009 16.7476C13.4977 16.9448 13.5961 17.1861 13.5961 17.4717C13.5961 17.7572 13.4975 17.9983 13.3004 18.1951C13.1032 18.3919 12.8619 18.4903 12.5764 18.4903ZM16.5764 5.93265C16.2908 5.93265 16.0497 5.83408 15.8529 5.63693C15.6561 5.43978 15.5577 5.19844 15.5577 4.9129C15.5577 4.62737 15.6563 4.38621 15.8534 4.18943C16.0506 3.99263 16.2919 3.89423 16.5774 3.89423C16.863 3.89423 17.1041 3.99281 17.3009 4.18998C17.4977 4.38713 17.5961 4.62847 17.5961 4.914C17.5961 5.19953 17.4975 5.44069 17.3004 5.63748C17.1032 5.83426 16.8619 5.93265 16.5764 5.93265ZM16.5475 15.1346C16.262 15.1346 16.0208 15.036 15.824 14.8388C15.6272 14.6417 15.5288 14.4003 15.5288 14.1148C15.5288 13.8293 15.6274 13.5881 15.8246 13.3913C16.0217 13.1945 16.263 13.0961 16.5486 13.0961C16.8341 13.0961 17.0753 13.1947 17.2721 13.3919C17.4689 13.589 17.5673 13.8304 17.5673 14.1159C17.5673 14.4014 17.4687 14.6426 17.2715 14.8394C17.0744 15.0362 16.833 15.1346 16.5475 15.1346ZM17.9802 10.5192C17.6946 10.5192 17.4535 10.4206 17.2567 10.2235C17.0599 10.0263 16.9615 9.78496 16.9615 9.49943C16.9615 9.21389 17.0601 8.97273 17.2573 8.77595C17.4544 8.57915 17.6957 8.48075 17.9813 8.48075C18.2668 8.48075 18.508 8.57934 18.7048 8.7765C18.9016 8.97365 19 9.21499 19 9.50053C19 9.78606 18.9014 10.0272 18.7042 10.224C18.5071 10.4208 18.2657 10.5192 17.9802 10.5192ZM9.49998 19C8.18716 19 6.95268 18.7506 5.79655 18.252C4.6404 17.7533 3.63472 17.0765 2.7795 16.2217C1.92427 15.3669 1.24721 14.3616 0.748325 13.206C0.249442 12.0504 0 10.8156 0 9.50165C0 8.18772 0.249375 6.95268 0.748125 5.79655C1.24688 4.6404 1.92375 3.63472 2.77875 2.7795C3.63375 1.92427 4.63917 1.24721 5.795 0.748326C6.95082 0.249443 8.18581 0 9.49998 0V1.49998C7.26664 1.49998 5.37498 2.27498 3.82498 3.82498C2.27498 5.37498 1.49998 7.26664 1.49998 9.49998C1.49998 11.7333 2.27498 13.625 3.82498 15.175C5.37498 16.725 7.26664 17.5 9.49998 17.5V19ZM9.49998 11.25C9.01408 11.25 8.60094 11.0798 8.26058 10.7394C7.92019 10.399 7.75 9.98588 7.75 9.49998C7.75 9.39741 7.75737 9.29708 7.7721 9.199C7.78685 9.10093 7.8173 9.00703 7.86345 8.91728L5.85578 6.89998L6.89998 5.85578L8.91728 7.86345C8.99036 7.83397 9.18459 7.79615 9.49998 7.75C9.98588 7.75 10.399 7.92019 10.7394 8.26058C11.0798 8.60094 11.25 9.01408 11.25 9.49998C11.25 9.98588 11.0798 10.399 10.7394 10.7394C10.399 11.0798 9.98588 11.25 9.49998 11.25Z" fill="#0C0C0C" fill-opacity="0.7"/>
</g>
</svg>
