<svg width="48" height="48" viewBox="0 0 48 48" fill="none" xmlns="http://www.w3.org/2000/svg">
<g clip-path="url(#clip0_0_4571)">
<g filter="url(#filter0_d_0_4571)">
<path fill-rule="evenodd" clip-rule="evenodd" d="M10.1205 3.53042C10.3754 3.53042 10.6246 3.606 10.8365 3.74762C11.0485 3.88923 11.2137 4.09051 11.3112 4.32601C11.4088 4.56151 11.4343 4.82065 11.3846 5.07066C11.3349 5.32067 11.2122 5.55033 11.032 5.7306C10.8518 5.91087 10.6221 6.03364 10.3721 6.08341C10.1221 6.13317 9.86297 6.10769 9.62745 6.01018C9.39193 5.91267 9.19061 5.74752 9.04895 5.5356C8.90729 5.32368 8.83165 5.07451 8.83159 4.8196C8.83155 4.65032 8.86486 4.48268 8.92962 4.32627C8.99438 4.16987 9.08931 4.02774 9.209 3.90803C9.32869 3.78831 9.47079 3.69335 9.62718 3.62856C9.78358 3.56377 9.9512 3.53042 10.1205 3.53042Z" fill="white"/>
<path d="M10.1201 9.59348C10.8317 9.59348 11.4086 9.0166 11.4086 8.30497C11.4086 7.59335 10.8317 7.01646 10.1201 7.01646C9.40848 7.01646 8.83159 7.59335 8.83159 8.30497C8.83159 9.0166 9.40848 9.59348 10.1201 9.59348Z" fill="white"/>
<path fill-rule="evenodd" clip-rule="evenodd" d="M10.1205 10.5055C10.3754 10.5055 10.6246 10.5811 10.8366 10.7227C11.0485 10.8643 11.2137 11.0656 11.3113 11.3011C11.4088 11.5367 11.4344 11.7958 11.3846 12.0458C11.3349 12.2959 11.2121 12.5255 11.0318 12.7058C10.8516 12.886 10.6219 13.0088 10.3719 13.0585C10.1219 13.1082 9.8627 13.0827 9.62718 12.9851C9.39167 12.8875 9.19038 12.7223 9.04876 12.5104C8.90715 12.2984 8.83157 12.0492 8.83159 11.7943C8.83162 11.4524 8.96742 11.1246 9.20913 10.8829C9.45085 10.6412 9.77867 10.5055 10.1205 10.5055Z" fill="white"/>
<path fill-rule="evenodd" clip-rule="evenodd" d="M10.1205 13.9935C10.3754 13.9935 10.6246 14.0691 10.8366 14.2107C11.0485 14.3523 11.2137 14.5536 11.3113 14.7892C11.4088 15.0247 11.4344 15.2838 11.3846 15.5339C11.3349 15.7839 11.2121 16.0135 11.0318 16.1938C10.8516 16.374 10.6219 16.4968 10.3719 16.5465C10.1219 16.5962 9.8627 16.5707 9.62718 16.4731C9.39167 16.3756 9.19038 16.2103 9.04876 15.9984C8.90715 15.7864 8.83157 15.5372 8.83159 15.2823C8.83159 15.113 8.86493 14.9454 8.9297 14.789C8.99448 14.6327 9.08942 14.4906 9.20911 14.3709C9.32879 14.2512 9.47088 14.1563 9.62726 14.0915C9.78363 14.0268 9.95123 13.9935 10.1205 13.9935Z" fill="white"/>
<path d="M10.1201 20.057C10.8317 20.057 11.4086 19.4801 11.4086 18.7685C11.4086 18.0569 10.8317 17.48 10.1201 17.48C9.40848 17.48 8.83159 18.0569 8.83159 18.7685C8.83159 19.4801 9.40848 20.057 10.1201 20.057Z" fill="white"/>
<path fill-rule="evenodd" clip-rule="evenodd" d="M10.1205 20.968C10.3754 20.968 10.6246 21.0436 10.8366 21.1852C11.0485 21.3269 11.2137 21.5282 11.3113 21.7637C11.4088 21.9992 11.4344 22.2583 11.3846 22.5084C11.3349 22.7584 11.2121 22.988 11.0319 23.1683C10.8516 23.3486 10.622 23.4713 10.3719 23.521C10.1219 23.5708 9.86276 23.5453 9.62725 23.4477C9.39173 23.3501 9.19044 23.1849 9.04881 22.973C8.90718 22.761 8.83159 22.5118 8.83159 22.2569C8.83159 21.9151 8.96739 21.5872 9.2091 21.3455C9.45082 21.1038 9.77865 20.968 10.1205 20.968Z" fill="white"/>
<path fill-rule="evenodd" clip-rule="evenodd" d="M10.1205 24.4555C10.3754 24.4555 10.6246 24.5311 10.8366 24.6728C11.0485 24.8144 11.2137 25.0157 11.3113 25.2512C11.4088 25.4867 11.4344 25.7459 11.3846 25.9959C11.3349 26.2459 11.2121 26.4756 11.0319 26.6558C10.8516 26.8361 10.622 26.9588 10.3719 27.0086C10.1219 27.0583 9.86276 27.0328 9.62725 26.9352C9.39173 26.8377 9.19044 26.6725 9.04881 26.4605C8.90718 26.2485 8.83159 25.9994 8.83159 25.7444C8.83159 25.4026 8.96739 25.0748 9.2091 24.833C9.45082 24.5913 9.77865 24.4555 10.1205 24.4555Z" fill="white"/>
<path d="M10.1201 30.5196C10.8317 30.5196 11.4086 29.9427 11.4086 29.2311C11.4086 28.5195 10.8317 27.9426 10.1201 27.9426C9.40848 27.9426 8.83159 28.5195 8.83159 29.2311C8.83159 29.9427 9.40848 30.5196 10.1201 30.5196Z" fill="white"/>
<path fill-rule="evenodd" clip-rule="evenodd" d="M10.1205 31.4301C10.3754 31.4301 10.6246 31.5057 10.8366 31.6473C11.0485 31.7889 11.2137 31.9902 11.3113 32.2257C11.4088 32.4613 11.4344 32.7204 11.3846 32.9704C11.3349 33.2205 11.2121 33.4501 11.0319 33.6304C10.8516 33.8106 10.622 33.9334 10.3719 33.9831C10.1219 34.0328 9.86276 34.0073 9.62725 33.9098C9.39173 33.8122 9.19044 33.647 9.04881 33.4351C8.90718 33.2231 8.83159 32.9739 8.83159 32.719C8.83159 32.3771 8.96739 32.0493 9.2091 31.8076C9.45082 31.5659 9.77865 31.4301 10.1205 31.4301Z" fill="white"/>
<path fill-rule="evenodd" clip-rule="evenodd" d="M10.1205 34.9176C10.3754 34.9176 10.6246 34.9932 10.8366 35.1348C11.0485 35.2765 11.2137 35.4778 11.3113 35.7133C11.4088 35.9488 11.4344 36.2079 11.3846 36.458C11.3349 36.708 11.2121 36.9376 11.0319 37.1179C10.8516 37.2981 10.622 37.4209 10.3719 37.4706C10.1219 37.5204 9.86276 37.4948 9.62725 37.3973C9.39173 37.2997 9.19044 37.1345 9.04881 36.9226C8.90718 36.7106 8.83159 36.4614 8.83159 36.2065C8.83159 35.8647 8.96739 35.5368 9.2091 35.2951C9.45082 35.0534 9.77865 34.9176 10.1205 34.9176Z" fill="white"/>
<path d="M10.1201 40.9831C10.8317 40.9831 11.4086 40.4063 11.4086 39.6946C11.4086 38.983 10.8317 38.4061 10.1201 38.4061C9.40848 38.4061 8.83159 38.983 8.83159 39.6946C8.83159 40.4063 9.40848 40.9831 10.1201 40.9831Z" fill="white"/>
<path fill-rule="evenodd" clip-rule="evenodd" d="M10.1205 41.8917C10.3754 41.8917 10.6246 41.9673 10.8366 42.1089C11.0486 42.2506 11.2138 42.4519 11.3113 42.6874C11.4089 42.9229 11.4344 43.1821 11.3846 43.4322C11.3348 43.6822 11.212 43.9118 11.0317 44.0921C10.8514 44.2723 10.6218 44.395 10.3717 44.4447C10.1217 44.4944 9.86249 44.4688 9.62698 44.3712C9.39147 44.2736 9.1902 44.1084 9.04862 43.8964C8.90704 43.6843 8.83152 43.4351 8.83159 43.1802C8.83169 42.8384 8.96753 42.5107 9.20924 42.269C9.45094 42.0274 9.77872 41.8917 10.1205 41.8917Z" fill="white"/>
<path d="M13.4559 6.10794C14.1676 6.10794 14.7445 5.53105 14.7445 4.81942C14.7445 4.1078 14.1676 3.53091 13.4559 3.53091C12.7443 3.53091 12.1674 4.1078 12.1674 4.81942C12.1674 5.53105 12.7443 6.10794 13.4559 6.10794Z" fill="white"/>
<path fill-rule="evenodd" clip-rule="evenodd" d="M13.4563 7.01843C13.7112 7.01843 13.9604 7.09402 14.1724 7.23565C14.3844 7.37728 14.5496 7.57857 14.6471 7.81409C14.7447 8.0496 14.7702 8.30876 14.7205 8.55878C14.6707 8.8088 14.548 9.03846 14.3677 9.21872C14.1875 9.39897 13.9578 9.52173 13.7078 9.57146C13.4578 9.62119 13.1986 9.59567 12.9631 9.49811C12.7276 9.40056 12.5263 9.23536 12.3846 9.0234C12.243 8.81144 12.1674 8.56225 12.1674 8.30733C12.1674 7.96549 12.3032 7.63766 12.5449 7.39594C12.7867 7.15423 13.1145 7.01843 13.4563 7.01843Z" fill="white"/>
<path d="M13.4559 13.0835C14.1676 13.0835 14.7445 12.5066 14.7445 11.795C14.7445 11.0833 14.1676 10.5064 13.4559 10.5064C12.7443 10.5064 12.1674 11.0833 12.1674 11.795C12.1674 12.5066 12.7443 13.0835 13.4559 13.0835Z" fill="white"/>
<path d="M13.4559 16.57C14.1676 16.57 14.7445 15.9931 14.7445 15.2815C14.7445 14.5699 14.1676 13.993 13.4559 13.993C12.7443 13.993 12.1674 14.5699 12.1674 15.2815C12.1674 15.9931 12.7443 16.57 13.4559 16.57Z" fill="white"/>
<path fill-rule="evenodd" clip-rule="evenodd" d="M13.4563 17.48C13.7112 17.48 13.9604 17.5556 14.1724 17.6972C14.3844 17.8389 14.5496 18.0402 14.6471 18.2757C14.7447 18.5112 14.7702 18.7704 14.7204 19.0204C14.6707 19.2704 14.5479 19.5001 14.3677 19.6803C14.1874 19.8606 13.9577 19.9833 13.7077 20.033C13.4577 20.0828 13.1985 20.0572 12.963 19.9597C12.7275 19.8621 12.5262 19.6969 12.3846 19.4849C12.243 19.2729 12.1674 19.0237 12.1674 18.7688C12.1674 18.5996 12.2008 18.432 12.2655 18.2756C12.3303 18.1192 12.4253 17.9771 12.5449 17.8575C12.6646 17.7378 12.8067 17.6428 12.9631 17.5781C13.1195 17.5133 13.2871 17.48 13.4563 17.48Z" fill="white"/>
<path d="M13.4559 23.545C14.1676 23.545 14.7445 22.9682 14.7445 22.2565C14.7445 21.5449 14.1676 20.968 13.4559 20.968C12.7443 20.968 12.1674 21.5449 12.1674 22.2565C12.1674 22.9682 12.7443 23.545 13.4559 23.545Z" fill="white"/>
<path d="M13.4559 27.0326C14.1676 27.0326 14.7445 26.4557 14.7445 25.7441C14.7445 25.0324 14.1676 24.4555 13.4559 24.4555C12.7443 24.4555 12.1674 25.0324 12.1674 25.7441C12.1674 26.4557 12.7443 27.0326 13.4559 27.0326Z" fill="white"/>
<path fill-rule="evenodd" clip-rule="evenodd" d="M13.4563 27.9431C13.7112 27.9431 13.9604 28.0187 14.1724 28.1603C14.3844 28.3019 14.5496 28.5032 14.6471 28.7387C14.7447 28.9742 14.7702 29.2334 14.7205 29.4834C14.6707 29.7334 14.548 29.9631 14.3677 30.1433C14.1875 30.3236 13.9578 30.4464 13.7078 30.4961C13.4578 30.5458 13.1986 30.5203 12.9631 30.4227C12.7276 30.3252 12.5263 30.16 12.3846 29.948C12.243 29.7361 12.1674 29.4869 12.1674 29.232C12.1674 28.8901 12.3032 28.5623 12.5449 28.3206C12.7867 28.0789 13.1145 27.9431 13.4563 27.9431Z" fill="white"/>
<path d="M13.4559 34.0086C14.1676 34.0086 14.7445 33.4317 14.7445 32.7201C14.7445 32.0085 14.1676 31.4316 13.4559 31.4316C12.7443 31.4316 12.1674 32.0085 12.1674 32.7201C12.1674 33.4317 12.7443 34.0086 13.4559 34.0086Z" fill="white"/>
<path d="M13.4559 37.4941C14.1676 37.4941 14.7445 36.9173 14.7445 36.2056C14.7445 35.494 14.1676 34.9171 13.4559 34.9171C12.7443 34.9171 12.1674 35.494 12.1674 36.2056C12.1674 36.9173 12.7443 37.4941 13.4559 37.4941Z" fill="white"/>
<path fill-rule="evenodd" clip-rule="evenodd" d="M13.4563 38.4051C13.7112 38.4051 13.9604 38.4807 14.1724 38.6223C14.3844 38.764 14.5496 38.9653 14.6471 39.2008C14.7447 39.4363 14.7702 39.6955 14.7205 39.9455C14.6707 40.1955 14.548 40.4252 14.3677 40.6054C14.1875 40.7857 13.9578 40.9084 13.7078 40.9582C13.4578 41.0079 13.1986 40.9824 12.9631 40.8848C12.7276 40.7873 12.5263 40.6221 12.3846 40.4101C12.243 40.1981 12.1674 39.9489 12.1674 39.694C12.1674 39.3522 12.3032 39.0244 12.5449 38.7826C12.7867 38.5409 13.1145 38.4051 13.4563 38.4051Z" fill="white"/>
<path d="M13.4559 44.4687C14.1676 44.4687 14.7445 43.8918 14.7445 43.1802C14.7445 42.4685 14.1676 41.8917 13.4559 41.8917C12.7443 41.8917 12.1674 42.4685 12.1674 43.1802C12.1674 43.8918 12.7443 44.4687 13.4559 44.4687Z" fill="white"/>
<path d="M16.792 6.10794C17.5037 6.10794 18.0805 5.53105 18.0805 4.81942C18.0805 4.1078 17.5037 3.53091 16.792 3.53091C16.0804 3.53091 15.5035 4.1078 15.5035 4.81942C15.5035 5.53105 16.0804 6.10794 16.792 6.10794Z" fill="white"/>
<path fill-rule="evenodd" clip-rule="evenodd" d="M16.792 7.01843C17.047 7.01836 17.2962 7.09389 17.5082 7.23548C17.7202 7.37706 17.8855 7.57835 17.9831 7.81387C18.0807 8.04939 18.1063 8.30856 18.0566 8.55861C18.0069 8.80867 17.8841 9.03836 17.7039 9.21865C17.5236 9.39893 17.2939 9.52171 17.0439 9.57145C16.7938 9.6212 16.5347 9.59567 16.2991 9.49809C16.0636 9.40052 15.8623 9.23529 15.7207 9.0233C15.579 8.81131 15.5035 8.56208 15.5035 8.30714C15.5036 7.9654 15.6393 7.63767 15.881 7.39601C16.1226 7.15435 16.4503 7.01853 16.792 7.01843Z" fill="white"/>
<path d="M16.792 13.0835C17.5037 13.0835 18.0805 12.5066 18.0805 11.795C18.0805 11.0833 17.5037 10.5064 16.792 10.5064C16.0804 10.5064 15.5035 11.0833 15.5035 11.795C15.5035 12.5066 16.0804 13.0835 16.792 13.0835Z" fill="white"/>
<path d="M16.792 16.57C17.5037 16.57 18.0805 15.9931 18.0805 15.2815C18.0805 14.5699 17.5037 13.993 16.792 13.993C16.0804 13.993 15.5035 14.5699 15.5035 15.2815C15.5035 15.9931 16.0804 16.57 16.792 16.57Z" fill="white"/>
<path fill-rule="evenodd" clip-rule="evenodd" d="M16.792 17.48C17.047 17.4799 17.2962 17.5555 17.5082 17.697C17.7202 17.8386 17.8855 18.0399 17.9831 18.2754C18.0807 18.5109 18.1063 18.7701 18.0566 19.0202C18.0069 19.2702 17.8841 19.4999 17.7039 19.6802C17.5236 19.8605 17.294 19.9833 17.0439 20.033C16.7939 20.0828 16.5347 20.0573 16.2992 19.9597C16.0637 19.8621 15.8623 19.6969 15.7207 19.4849C15.5791 19.273 15.5035 19.0237 15.5035 18.7688C15.5035 18.427 15.6393 18.0993 15.8809 17.8576C16.1225 17.6159 16.4503 17.4801 16.792 17.48Z" fill="white"/>
<path d="M16.792 23.545C17.5037 23.545 18.0805 22.9682 18.0805 22.2565C18.0805 21.5449 17.5037 20.968 16.792 20.968C16.0804 20.968 15.5035 21.5449 15.5035 22.2565C15.5035 22.9682 16.0804 23.545 16.792 23.545Z" fill="white"/>
<path d="M16.792 27.0326C17.5037 27.0326 18.0805 26.4557 18.0805 25.7441C18.0805 25.0324 17.5037 24.4555 16.792 24.4555C16.0804 24.4555 15.5035 25.0324 15.5035 25.7441C15.5035 26.4557 16.0804 27.0326 16.792 27.0326Z" fill="white"/>
<path fill-rule="evenodd" clip-rule="evenodd" d="M16.792 27.9431C17.047 27.943 17.2962 28.0185 17.5082 28.1601C17.7202 28.3017 17.8855 28.5029 17.9831 28.7385C18.0807 28.974 18.1063 29.2331 18.0566 29.4832C18.0069 29.7332 17.8842 29.9629 17.7039 30.1432C17.5237 30.3235 17.294 30.4463 17.044 30.4961C16.794 30.5458 16.5348 30.5203 16.2993 30.4228C16.0637 30.3252 15.8624 30.16 15.7208 29.9481C15.5791 29.7361 15.5035 29.4869 15.5035 29.232C15.5035 28.8902 15.6393 28.5624 15.8809 28.3207C16.1225 28.079 16.4503 27.9432 16.792 27.9431Z" fill="white"/>
<path d="M16.792 34.0086C17.5037 34.0086 18.0805 33.4317 18.0805 32.7201C18.0805 32.0085 17.5037 31.4316 16.792 31.4316C16.0804 31.4316 15.5035 32.0085 15.5035 32.7201C15.5035 33.4317 16.0804 34.0086 16.792 34.0086Z" fill="white"/>
<path d="M16.792 37.4941C17.5037 37.4941 18.0805 36.9173 18.0805 36.2056C18.0805 35.494 17.5037 34.9171 16.792 34.9171C16.0804 34.9171 15.5035 35.494 15.5035 36.2056C15.5035 36.9173 16.0804 37.4941 16.792 37.4941Z" fill="white"/>
<path fill-rule="evenodd" clip-rule="evenodd" d="M16.792 38.4051C17.047 38.4051 17.2962 38.4806 17.5082 38.6222C17.7202 38.7637 17.8855 38.965 17.9831 39.2005C18.0807 39.436 18.1063 39.6952 18.0566 39.9452C18.0069 40.1953 17.8842 40.425 17.7039 40.6053C17.5237 40.7856 17.294 40.9084 17.044 40.9581C16.794 41.0079 16.5348 40.9824 16.2993 40.8848C16.0637 40.7873 15.8624 40.6221 15.7208 40.4101C15.5791 40.1982 15.5035 39.949 15.5035 39.694C15.5035 39.3523 15.6393 39.0245 15.8809 38.7828C16.1225 38.5411 16.4503 38.4052 16.792 38.4051Z" fill="white"/>
<path d="M16.792 44.4687C17.5037 44.4687 18.0805 43.8918 18.0805 43.1802C18.0805 42.4685 17.5037 41.8917 16.792 41.8917C16.0804 41.8917 15.5035 42.4685 15.5035 43.1802C15.5035 43.8918 16.0804 44.4687 16.792 44.4687Z" fill="white"/>
<path d="M20.1281 6.10794C20.8397 6.10794 21.4166 5.53105 21.4166 4.81942C21.4166 4.1078 20.8397 3.53091 20.1281 3.53091C19.4165 3.53091 18.8396 4.1078 18.8396 4.81942C18.8396 5.53105 19.4165 6.10794 20.1281 6.10794Z" fill="white"/>
<path fill-rule="evenodd" clip-rule="evenodd" d="M20.1277 7.01843C20.3826 7.01843 20.6318 7.09402 20.8438 7.23565C21.0557 7.37728 21.2209 7.57857 21.3185 7.81409C21.416 8.0496 21.4416 8.30876 21.3918 8.55878C21.3421 8.8088 21.2193 9.03846 21.0391 9.21872C20.8588 9.39897 20.6292 9.52173 20.3791 9.57146C20.1291 9.62119 19.87 9.59567 19.6345 9.49811C19.3989 9.40056 19.1976 9.23536 19.056 9.0234C18.9144 8.81144 18.8388 8.56225 18.8388 8.30733C18.8388 8.13806 18.8721 7.97046 18.9369 7.81407C19.0017 7.65769 19.0966 7.5156 19.2163 7.39591C19.336 7.27622 19.4781 7.18129 19.6344 7.11652C19.7908 7.05175 19.9584 7.01842 20.1277 7.01843Z" fill="white"/>
<path d="M20.1756 11.9659C20.579 11.9659 20.9061 11.6389 20.9061 11.2354C20.9061 10.832 20.579 10.505 20.1756 10.505C19.7722 10.505 19.4452 10.832 19.4452 11.2354C19.4452 11.6389 19.7722 11.9659 20.1756 11.9659Z" fill="white"/>
<path d="M23.5103 11.9645C23.9129 11.9645 24.2393 11.6381 24.2393 11.2355C24.2393 10.8328 23.9129 10.5064 23.5103 10.5064C23.1076 10.5064 22.7812 10.8328 22.7812 11.2355C22.7812 11.6381 23.1076 11.9645 23.5103 11.9645Z" fill="white"/>
<path d="M26.6952 11.9659C27.0987 11.9659 27.4257 11.6389 27.4257 11.2354C27.4257 10.832 27.0987 10.505 26.6952 10.505C26.2918 10.505 25.9648 10.832 25.9648 11.2354C25.9648 11.6389 26.2918 11.9659 26.6952 11.9659Z" fill="white"/>
<path d="M20.1281 27.0326C20.8397 27.0326 21.4166 26.4557 21.4166 25.7441C21.4166 25.0324 20.8397 24.4555 20.1281 24.4555C19.4165 24.4555 18.8396 25.0324 18.8396 25.7441C18.8396 26.4557 19.4165 27.0326 20.1281 27.0326Z" fill="white"/>
<path fill-rule="evenodd" clip-rule="evenodd" d="M20.1277 27.9431C20.3826 27.9431 20.6318 28.0187 20.8438 28.1603C21.0557 28.3019 21.2209 28.5032 21.3185 28.7387C21.416 28.9742 21.4416 29.2334 21.3918 29.4834C21.3421 29.7334 21.2193 29.9631 21.0391 30.1433C20.8588 30.3236 20.6292 30.4464 20.3791 30.4961C20.1291 30.5458 19.87 30.5203 19.6345 30.4227C19.3989 30.3252 19.1976 30.16 19.056 29.948C18.9144 29.7361 18.8388 29.4869 18.8388 29.232C18.8388 29.0627 18.8721 28.8951 18.9369 28.7387C19.0017 28.5823 19.0966 28.4402 19.2163 28.3205C19.336 28.2009 19.4781 28.1059 19.6344 28.0411C19.7908 27.9764 19.9584 27.943 20.1277 27.9431Z" fill="white"/>
<path fill-rule="evenodd" clip-rule="evenodd" d="M23.4637 3.53042C23.7186 3.5304 23.9678 3.60597 24.1798 3.74757C24.3917 3.88917 24.5569 4.09045 24.6545 4.32594C24.7521 4.56144 24.7776 4.82058 24.7279 5.0706C24.6782 5.32062 24.5555 5.55029 24.3753 5.73057C24.1951 5.91084 23.9654 6.03363 23.7154 6.0834C23.4654 6.13318 23.2063 6.1077 22.9708 6.01019C22.7352 5.91268 22.5339 5.74753 22.3922 5.53561C22.2506 5.32368 22.1749 5.07451 22.1749 4.8196C22.1748 4.65033 22.2082 4.4827 22.2729 4.3263C22.3377 4.16989 22.4326 4.02778 22.5523 3.90806C22.6719 3.78835 22.814 3.69338 22.9704 3.62858C23.1268 3.56379 23.2944 3.53043 23.4637 3.53042Z" fill="white"/>
<path d="M23.4639 9.59348C24.1756 9.59348 24.7525 9.0166 24.7525 8.30497C24.7525 7.59335 24.1756 7.01646 23.4639 7.01646C22.7523 7.01646 22.1754 7.59335 22.1754 8.30497C22.1754 9.0166 22.7523 9.59348 23.4639 9.59348Z" fill="white"/>
<path fill-rule="evenodd" clip-rule="evenodd" d="M23.4637 24.4555C23.7186 24.4555 23.9678 24.5311 24.1798 24.6727C24.3918 24.8143 24.557 25.0156 24.6545 25.2511C24.7521 25.4866 24.7776 25.7458 24.7279 25.9958C24.6782 26.2459 24.5555 26.4755 24.3752 26.6558C24.1949 26.8361 23.9653 26.9588 23.7153 27.0086C23.4652 27.0583 23.2061 27.0328 22.9706 26.9352C22.735 26.8377 22.5337 26.6725 22.3921 26.4605C22.2505 26.2486 22.1749 25.9994 22.1749 25.7444C22.1749 25.4026 22.3107 25.0748 22.5524 24.8331C22.7941 24.5914 23.1219 24.4556 23.4637 24.4555Z" fill="white"/>
<path d="M23.4639 30.5196C24.1756 30.5196 24.7525 29.9427 24.7525 29.2311C24.7525 28.5195 24.1756 27.9426 23.4639 27.9426C22.7523 27.9426 22.1754 28.5195 22.1754 29.2311C22.1754 29.9427 22.7523 30.5196 23.4639 30.5196Z" fill="white"/>
<path d="M26.8 6.10794C27.5117 6.10794 28.0885 5.53105 28.0885 4.81942C28.0885 4.1078 27.5117 3.53091 26.8 3.53091C26.0884 3.53091 25.5115 4.1078 25.5115 4.81942C25.5115 5.53105 26.0884 6.10794 26.8 6.10794Z" fill="white"/>
<path fill-rule="evenodd" clip-rule="evenodd" d="M26.7996 7.01843C27.0545 7.01843 27.3037 7.09402 27.5157 7.23565C27.7276 7.37728 27.8928 7.57857 27.9904 7.81409C28.088 8.0496 28.1135 8.30876 28.0637 8.55878C28.014 8.8088 27.8913 9.03846 27.711 9.21872C27.5307 9.39897 27.3011 9.52173 27.0511 9.57146C26.801 9.62119 26.5419 9.59567 26.3064 9.49811C26.0709 9.40056 25.8696 9.23536 25.7279 9.0234C25.5863 8.81144 25.5107 8.56225 25.5107 8.30733C25.5107 8.13806 25.544 7.97046 25.6088 7.81407C25.6736 7.65769 25.7685 7.5156 25.8882 7.39591C26.0079 7.27622 26.15 7.18129 26.3064 7.11652C26.4627 7.05175 26.6304 7.01842 26.7996 7.01843Z" fill="white"/>
<path d="M26.8 27.0326C27.5117 27.0326 28.0885 26.4557 28.0885 25.7441C28.0885 25.0324 27.5117 24.4555 26.8 24.4555C26.0884 24.4555 25.5115 25.0324 25.5115 25.7441C25.5115 26.4557 26.0884 27.0326 26.8 27.0326Z" fill="white"/>
<path fill-rule="evenodd" clip-rule="evenodd" d="M26.7996 27.9431C27.0545 27.9431 27.3037 28.0187 27.5157 28.1603C27.7276 28.3019 27.8928 28.5032 27.9904 28.7387C28.088 28.9742 28.1135 29.2334 28.0637 29.4834C28.014 29.7334 27.8913 29.9631 27.711 30.1433C27.5307 30.3236 27.3011 30.4464 27.0511 30.4961C26.801 30.5458 26.5419 30.5203 26.3064 30.4227C26.0709 30.3252 25.8696 30.16 25.7279 29.948C25.5863 29.7361 25.5107 29.4869 25.5107 29.232C25.5107 29.0627 25.544 28.8951 25.6088 28.7387C25.6736 28.5823 25.7685 28.4402 25.8882 28.3205C26.0079 28.2009 26.15 28.1059 26.3064 28.0411C26.4627 27.9764 26.6304 27.943 26.7996 27.9431Z" fill="white"/>
<path d="M27.1928 33.2225C27.6874 33.2225 28.0883 32.8216 28.0883 32.3271C28.0883 31.8325 27.6874 31.4316 27.1928 31.4316C26.6983 31.4316 26.2974 31.8325 26.2974 32.3271C26.2974 32.8216 26.6983 33.2225 27.1928 33.2225Z" fill="white"/>
<path fill-rule="evenodd" clip-rule="evenodd" d="M27.9606 34.462C28.0759 34.462 28.1886 34.4962 28.2844 34.5602C28.3803 34.6243 28.455 34.7153 28.4991 34.8218C28.5432 34.9283 28.5547 35.0455 28.5322 35.1585C28.5098 35.2716 28.4542 35.3754 28.3727 35.4569C28.2912 35.5384 28.1874 35.594 28.0743 35.6164C27.9613 35.6389 27.8441 35.6274 27.7376 35.5833C27.6311 35.5392 27.5401 35.4645 27.476 35.3686C27.412 35.2728 27.3778 35.1601 27.3778 35.0448C27.3778 34.9683 27.3929 34.8925 27.4222 34.8218C27.4515 34.7511 27.4944 34.6868 27.5485 34.6327C27.6026 34.5786 27.6669 34.5357 27.7376 34.5064C27.8083 34.4771 27.8841 34.462 27.9606 34.462Z" fill="white"/>
<path d="M30.046 6.10834C30.5406 6.10834 30.9415 5.70742 30.9415 5.21285C30.9415 4.71829 30.5406 4.31737 30.046 4.31737C29.5515 4.31737 29.1505 4.71829 29.1505 5.21285C29.1505 5.70742 29.5515 6.10834 30.046 6.10834Z" fill="white"/>
<path fill-rule="evenodd" clip-rule="evenodd" d="M30.1356 7.01843C30.3905 7.01841 30.6397 7.09399 30.8517 7.2356C31.0637 7.37722 31.2289 7.57851 31.3265 7.81402C31.424 8.04954 31.4496 8.30869 31.3998 8.55872C31.3501 8.80875 31.2274 9.03842 31.0471 9.21868C30.8669 9.39895 30.6372 9.52171 30.3872 9.57145C30.1372 9.62119 29.878 9.59567 29.6425 9.49812C29.407 9.40057 29.2057 9.23537 29.064 9.02341C28.9224 8.81145 28.8468 8.56225 28.8468 8.30733C28.8468 7.96551 28.9826 7.63769 29.2243 7.39597C29.466 7.15426 29.7938 7.01846 30.1356 7.01843Z" fill="white"/>
<path d="M30.1361 13.0835C30.8477 13.0835 31.4246 12.5066 31.4246 11.795C31.4246 11.0833 30.8477 10.5064 30.1361 10.5064C29.4245 10.5064 28.8476 11.0833 28.8476 11.795C28.8476 12.5066 29.4245 13.0835 30.1361 13.0835Z" fill="white"/>
<path d="M30.5289 23.544C31.0235 23.544 31.4244 23.143 31.4244 22.6485C31.4244 22.1539 31.0235 21.753 30.5289 21.753C30.0344 21.753 29.6334 22.1539 29.6334 22.6485C29.6334 23.143 30.0344 23.544 30.5289 23.544Z" fill="white"/>
<path d="M30.1361 27.0326C30.8477 27.0326 31.4246 26.4557 31.4246 25.7441C31.4246 25.0324 30.8477 24.4555 30.1361 24.4555C29.4245 24.4555 28.8476 25.0324 28.8476 25.7441C28.8476 26.4557 29.4245 27.0326 30.1361 27.0326Z" fill="white"/>
<path fill-rule="evenodd" clip-rule="evenodd" d="M30.1356 27.9431C30.3905 27.943 30.6397 28.0186 30.8517 28.1602C31.0637 28.3018 31.2289 28.5031 31.3265 28.7386C31.424 28.9742 31.4496 29.2333 31.3998 29.4833C31.3501 29.7334 31.2274 29.963 31.0471 30.1433C30.8669 30.3236 30.6372 30.4463 30.3872 30.4961C30.1372 30.5458 29.878 30.5203 29.6425 30.4227C29.407 30.3252 29.2057 30.16 29.064 29.948C28.9224 29.7361 28.8468 29.4869 28.8468 29.232C28.8468 28.8901 28.9826 28.5623 29.2243 28.3206C29.466 28.0789 29.7938 27.9431 30.1356 27.9431Z" fill="white"/>
<path d="M30.1361 34.0086C30.8477 34.0086 31.4246 33.4317 31.4246 32.7201C31.4246 32.0085 30.8477 31.4316 30.1361 31.4316C29.4245 31.4316 28.8476 32.0085 28.8476 32.7201C28.8476 33.4317 29.4245 34.0086 30.1361 34.0086Z" fill="white"/>
<path d="M30.1361 37.4941C30.8477 37.4941 31.4246 36.9173 31.4246 36.2056C31.4246 35.494 30.8477 34.9171 30.1361 34.9171C29.4245 34.9171 28.8476 35.494 28.8476 36.2056C28.8476 36.9173 29.4245 37.4941 30.1361 37.4941Z" fill="white"/>
<path fill-rule="evenodd" clip-rule="evenodd" d="M30.5901 38.4051C30.845 38.4051 31.0942 38.4807 31.3061 38.6223C31.5181 38.764 31.6833 38.9653 31.7809 39.2008C31.8784 39.4363 31.9039 39.6955 31.8542 39.9455C31.8045 40.1955 31.6817 40.4252 31.5015 40.6054C31.3212 40.7857 31.0915 40.9084 30.8415 40.9582C30.5915 41.0079 30.3323 40.9824 30.0968 40.8848C29.8613 40.7873 29.66 40.6221 29.5184 40.4101C29.3768 40.1981 29.3012 39.9489 29.3012 39.694C29.3012 39.3522 29.437 39.0244 29.6787 38.7826C29.9204 38.5409 30.2482 38.4051 30.5901 38.4051Z" fill="white"/>
<path d="M30.9095 42.9195C31.1934 42.9195 31.4235 42.6894 31.4235 42.4056C31.4235 42.1218 31.1934 41.8917 30.9095 41.8917C30.6257 41.8917 30.3956 42.1218 30.3956 42.4056C30.3956 42.6894 30.6257 42.9195 30.9095 42.9195Z" fill="white"/>
<path d="M32.8149 6.10695C33.1637 6.10695 33.4464 5.82422 33.4464 5.47546C33.4464 5.1267 33.1637 4.84397 32.8149 4.84397C32.4662 4.84397 32.1834 5.1267 32.1834 5.47546C32.1834 5.82422 32.4662 6.10695 32.8149 6.10695Z" fill="white"/>
<path fill-rule="evenodd" clip-rule="evenodd" d="M33.4712 7.01843C33.7262 7.01843 33.9753 7.09402 34.1873 7.23565C34.3993 7.37728 34.5645 7.57857 34.662 7.81409C34.7596 8.0496 34.7851 8.30876 34.7354 8.55878C34.6856 8.8088 34.5629 9.03846 34.3826 9.21872C34.2024 9.39897 33.9727 9.52173 33.7227 9.57146C33.4727 9.62119 33.2135 9.59567 32.978 9.49811C32.7425 9.40056 32.5412 9.23536 32.3996 9.0234C32.2579 8.81144 32.1823 8.56225 32.1823 8.30733C32.1823 7.96549 32.3181 7.63766 32.5598 7.39594C32.8016 7.15423 33.1294 7.01843 33.4712 7.01843Z" fill="white"/>
<path d="M33.472 13.0835C34.1836 13.0835 34.7605 12.5066 34.7605 11.795C34.7605 11.0833 34.1836 10.5064 33.472 10.5064C32.7603 10.5064 32.1834 11.0833 32.1834 11.795C32.1834 12.5066 32.7603 13.0835 33.472 13.0835Z" fill="white"/>
<path d="M33.472 16.57C34.1836 16.57 34.7605 15.9931 34.7605 15.2815C34.7605 14.5699 34.1836 13.993 33.472 13.993C32.7603 13.993 32.1834 14.5699 32.1834 15.2815C32.1834 15.9931 32.7603 16.57 33.472 16.57Z" fill="white"/>
<path fill-rule="evenodd" clip-rule="evenodd" d="M33.4712 17.48C33.7262 17.48 33.9754 17.5556 34.1873 17.6972C34.3993 17.8389 34.5645 18.0402 34.662 18.2757C34.7596 18.5112 34.7851 18.7704 34.7354 19.0204C34.6856 19.2704 34.5628 19.5001 34.3826 19.6803C34.2023 19.8606 33.9726 19.9833 33.7226 20.033C33.4726 20.0828 33.2134 20.0572 32.9779 19.9597C32.7424 19.8621 32.5411 19.6969 32.3995 19.4849C32.2579 19.2729 32.1823 19.0237 32.1823 18.7688C32.1823 18.5996 32.2157 18.432 32.2804 18.2756C32.3452 18.1192 32.4402 17.9771 32.5598 17.8575C32.6795 17.7378 32.8216 17.6428 32.978 17.5781C33.1344 17.5133 33.302 17.48 33.4712 17.48Z" fill="white"/>
<path d="M33.472 23.545C34.1836 23.545 34.7605 22.9682 34.7605 22.2565C34.7605 21.5449 34.1836 20.968 33.472 20.968C32.7603 20.968 32.1834 21.5449 32.1834 22.2565C32.1834 22.9682 32.7603 23.545 33.472 23.545Z" fill="white"/>
<path d="M33.472 27.0326C34.1836 27.0326 34.7605 26.4557 34.7605 25.7441C34.7605 25.0324 34.1836 24.4555 33.472 24.4555C32.7603 24.4555 32.1834 25.0324 32.1834 25.7441C32.1834 26.4557 32.7603 27.0326 33.472 27.0326Z" fill="white"/>
<path d="M33.1285 30.1354C33.6504 30.1354 34.0735 29.7123 34.0735 29.1903C34.0735 28.6684 33.6504 28.2453 33.1285 28.2453C32.6065 28.2453 32.1834 28.6684 32.1834 29.1903C32.1834 29.7123 32.6065 30.1354 33.1285 30.1354Z" fill="white"/>
<path d="M33.472 34.0086C34.1836 34.0086 34.7605 33.4317 34.7605 32.7201C34.7605 32.0085 34.1836 31.4316 33.472 31.4316C32.7603 31.4316 32.1834 32.0085 32.1834 32.7201C32.1834 33.4317 32.7603 34.0086 33.472 34.0086Z" fill="white"/>
<path d="M33.472 37.4941C34.1836 37.4941 34.7605 36.9173 34.7605 36.2056C34.7605 35.494 34.1836 34.9171 33.472 34.9171C32.7603 34.9171 32.1834 35.494 32.1834 36.2056C32.1834 36.9173 32.7603 37.4941 33.472 37.4941Z" fill="white"/>
<path fill-rule="evenodd" clip-rule="evenodd" d="M33.9261 38.4051C34.181 38.4051 34.4302 38.4807 34.6422 38.6223C34.8541 38.7639 35.0193 38.9652 35.1169 39.2007C35.2145 39.4362 35.24 39.6954 35.1903 39.9454C35.1406 40.1954 35.0178 40.4251 34.8376 40.6054C34.6573 40.7856 34.4277 40.9084 34.1776 40.9581C33.9276 41.0079 33.6685 40.9824 33.4329 40.8848C33.1974 40.7873 32.9961 40.6221 32.8545 40.4101C32.7129 40.1981 32.6373 39.949 32.6373 39.694C32.6373 39.3522 32.773 39.0244 33.0147 38.7827C33.2564 38.541 33.5842 38.4052 33.9261 38.4051Z" fill="white"/>
<path d="M33.472 44.4687C34.1836 44.4687 34.7605 43.8918 34.7605 43.1802C34.7605 42.4685 34.1836 41.8917 33.472 41.8917C32.7603 41.8917 32.1834 42.4685 32.1834 43.1802C32.1834 43.8918 32.7603 44.4687 33.472 44.4687Z" fill="white"/>
<path d="M36.6008 9.5947C37.1981 9.5947 37.6824 9.11048 37.6824 8.51316C37.6824 7.91585 37.1981 7.43163 36.6008 7.43163C36.0035 7.43163 35.5193 7.91585 35.5193 8.51316C35.5193 9.11048 36.0035 9.5947 36.6008 9.5947Z" fill="white"/>
<path fill-rule="evenodd" clip-rule="evenodd" d="M36.8072 10.5055C37.0621 10.5054 37.3114 10.581 37.5233 10.7226C37.7353 10.8643 37.9005 11.0656 37.9981 11.3011C38.0956 11.5366 38.1212 11.7958 38.0714 12.0458C38.0217 12.2958 37.899 12.5255 37.7187 12.7057C37.5384 12.886 37.3088 13.0088 37.0587 13.0585C36.8087 13.1082 36.5496 13.0827 36.314 12.9851C36.0785 12.8876 35.8772 12.7223 35.7356 12.5104C35.594 12.2984 35.5184 12.0492 35.5184 11.7943C35.5184 11.4525 35.6542 11.1247 35.8959 10.883C36.1376 10.6413 36.4654 10.5055 36.8072 10.5055Z" fill="white"/>
<path fill-rule="evenodd" clip-rule="evenodd" d="M36.8072 13.9935C37.0621 13.9935 37.3114 14.069 37.5233 14.2106C37.7353 14.3523 37.9005 14.5536 37.9981 14.7891C38.0956 15.0246 38.1212 15.2838 38.0714 15.5338C38.0217 15.7838 37.899 16.0135 37.7187 16.1938C37.5384 16.374 37.3088 16.4968 37.0587 16.5465C36.8087 16.5962 36.5496 16.5707 36.314 16.4731C36.0785 16.3756 35.8772 16.2104 35.7356 15.9984C35.594 15.7864 35.5184 15.5372 35.5184 15.2823C35.5184 14.9405 35.6542 14.6126 35.8959 14.371C36.1376 14.1293 36.4654 13.9935 36.8072 13.9935Z" fill="white"/>
<path d="M36.8078 20.057C37.5194 20.057 38.0963 19.4801 38.0963 18.7685C38.0963 18.0569 37.5194 17.48 36.8078 17.48C36.0962 17.48 35.5193 18.0569 35.5193 18.7685C35.5193 19.4801 36.0962 20.057 36.8078 20.057Z" fill="white"/>
<path fill-rule="evenodd" clip-rule="evenodd" d="M36.8072 20.968C37.0621 20.968 37.3113 21.0436 37.5233 21.1852C37.7353 21.3268 37.9005 21.5281 37.9981 21.7636C38.0956 21.9991 38.1212 22.2583 38.0715 22.5083C38.0217 22.7583 37.899 22.988 37.7187 23.1683C37.5385 23.3485 37.3088 23.4713 37.0588 23.521C36.8088 23.5708 36.5496 23.5453 36.3141 23.4477C36.0786 23.3502 35.8773 23.185 35.7356 22.973C35.594 22.761 35.5184 22.5118 35.5184 22.2569C35.5184 21.9151 35.6542 21.5873 35.8959 21.3456C36.1376 21.1039 36.4654 20.968 36.8072 20.968Z" fill="white"/>
<path fill-rule="evenodd" clip-rule="evenodd" d="M36.8072 24.4555C37.0621 24.4555 37.3113 24.5311 37.5233 24.6727C37.7353 24.8143 37.9005 25.0156 37.9981 25.2511C38.0956 25.4866 38.1212 25.7458 38.0715 25.9958C38.0217 26.2459 37.899 26.4755 37.7187 26.6558C37.5385 26.8361 37.3088 26.9588 37.0588 27.0086C36.8088 27.0583 36.5496 27.0328 36.3141 26.9352C36.0786 26.8377 35.8773 26.6725 35.7356 26.4605C35.594 26.2486 35.5184 25.9994 35.5184 25.7444C35.5184 25.4026 35.6542 25.0748 35.8959 24.8331C36.1376 24.5914 36.4654 24.4556 36.8072 24.4555Z" fill="white"/>
<path d="M36.3863 37.4932C36.8651 37.4932 37.2532 37.1051 37.2532 36.6263C37.2532 36.1474 36.8651 35.7593 36.3863 35.7593C35.9074 35.7593 35.5193 36.1474 35.5193 36.6263C35.5193 37.1051 35.9074 37.4932 36.3863 37.4932Z" fill="white"/>
<path fill-rule="evenodd" clip-rule="evenodd" d="M37.2622 38.4051C37.5172 38.4051 37.7664 38.4807 37.9783 38.6223C38.1903 38.764 38.3555 38.9653 38.453 39.2008C38.5506 39.4363 38.5761 39.6955 38.5264 39.9455C38.4766 40.1955 38.3539 40.4252 38.1736 40.6054C37.9934 40.7857 37.7637 40.9084 37.5137 40.9582C37.2637 41.0079 37.0045 40.9824 36.769 40.8848C36.5335 40.7873 36.3322 40.6221 36.1906 40.4101C36.0489 40.1981 35.9733 39.9489 35.9733 39.694C35.9733 39.3522 36.1091 39.0244 36.3509 38.7826C36.5926 38.5409 36.9204 38.4051 37.2622 38.4051Z" fill="white"/>
<path fill-rule="evenodd" clip-rule="evenodd" d="M36.8072 41.8917C37.0622 41.8916 37.3114 41.9672 37.5234 42.1089C37.7353 42.2505 37.9006 42.4518 37.9981 42.6873C38.0957 42.9229 38.1212 43.1821 38.0714 43.4321C38.0217 43.6821 37.8989 43.9118 37.7186 44.092C37.5383 44.2723 37.3086 44.395 37.0586 44.4447C36.8085 44.4944 36.5493 44.4689 36.3138 44.3712C36.0783 44.2736 35.877 44.1084 35.7355 43.8964C35.5939 43.6844 35.5183 43.4351 35.5184 43.1802C35.5185 42.8384 35.6543 42.5107 35.896 42.2691C36.1377 42.0274 36.4655 41.8917 36.8072 41.8917Z" fill="white"/>
<path d="M39.6039 13.0823C40.0173 13.0823 40.3524 12.7472 40.3524 12.3338C40.3524 11.9204 40.0173 11.5853 39.6039 11.5853C39.1905 11.5853 38.8554 11.9204 38.8554 12.3338C38.8554 12.7472 39.1905 13.0823 39.6039 13.0823Z" fill="white"/>
<path d="M40.1439 16.57C40.8555 16.57 41.4324 15.9931 41.4324 15.2815C41.4324 14.5699 40.8555 13.993 40.1439 13.993C39.4323 13.993 38.8554 14.5699 38.8554 15.2815C38.8554 15.9931 39.4323 16.57 40.1439 16.57Z" fill="white"/>
<path fill-rule="evenodd" clip-rule="evenodd" d="M40.1432 17.48C40.3981 17.48 40.6473 17.5556 40.8592 17.6972C41.0712 17.8389 41.2364 18.0402 41.3339 18.2757C41.4315 18.5112 41.457 18.7704 41.4073 19.0204C41.3575 19.2704 41.2348 19.5001 41.0545 19.6803C40.8742 19.8606 40.6446 19.9833 40.3945 20.033C40.1445 20.0828 39.8854 20.0572 39.6498 19.9597C39.4143 19.8621 39.213 19.6969 39.0714 19.4849C38.9298 19.2729 38.8542 19.0237 38.8543 18.7688C38.8543 18.5996 38.8876 18.432 38.9524 18.2756C39.0171 18.1192 39.1121 17.9771 39.2318 17.8575C39.3515 17.7378 39.4935 17.6428 39.6499 17.5781C39.8063 17.5133 39.9739 17.48 40.1432 17.48Z" fill="white"/>
<path d="M39.7223 22.702C40.2012 22.702 40.5893 22.3138 40.5893 21.835C40.5893 21.3562 40.2012 20.968 39.7223 20.968C39.2435 20.968 38.8554 21.3562 38.8554 21.835C38.8554 22.3138 39.2435 22.702 39.7223 22.702Z" fill="white"/>
<path d="M39.5754 43.8632C39.973 43.8632 40.2954 43.5408 40.2954 43.1432C40.2954 42.7456 39.973 42.4232 39.5754 42.4232C39.1777 42.4232 38.8554 42.7456 38.8554 43.1432C38.8554 43.5408 39.1777 43.8632 39.5754 43.8632Z" fill="white"/>
</g>
</g>
<defs>
<filter id="filter0_d_0_4571" x="0.222065" y="-0.774346" width="49.8198" height="58.1581" filterUnits="userSpaceOnUse" color-interpolation-filters="sRGB">
<feFlood flood-opacity="0" result="BackgroundImageFix"/>
<feColorMatrix in="SourceAlpha" type="matrix" values="0 0 0 0 0 0 0 0 0 0 0 0 0 0 0 0 0 0 127 0" result="hardAlpha"/>
<feOffset dy="4.26291"/>
<feGaussianBlur stdDeviation="4.26291"/>
<feComposite in2="hardAlpha" operator="out"/>
<feColorMatrix type="matrix" values="0 0 0 0 0.998568 0 0 0 0 0.308622 0 0 0 0 0.227452 0 0 0 0.04 0"/>
<feBlend mode="normal" in2="BackgroundImageFix" result="effect1_dropShadow_0_4571"/>
<feBlend mode="normal" in="SourceGraphic" in2="effect1_dropShadow_0_4571" result="shape"/>
</filter>
<clipPath id="clip0_0_4571">
<rect width="47.5333" height="47.5333" fill="white" transform="scale(1.00982)"/>
</clipPath>
</defs>
</svg>
