<svg width="40" height="40" viewBox="0 0 40 40" fill="none" xmlns="http://www.w3.org/2000/svg">
<g clip-path="url(#clip0_0_4179)">
<path d="M15.3179 20.6217C15.4189 20.6217 15.5182 20.5956 15.6062 20.5459C15.6941 20.4962 15.7677 20.4245 15.8198 20.338L16.8769 18.5821L18.2777 20.808C18.3316 20.8937 18.4067 20.9639 18.4957 21.0119C18.5848 21.0599 18.6847 21.084 18.7859 21.0819C18.887 21.0798 18.9859 21.0515 19.0729 20.9999C19.1598 20.9482 19.2319 20.8749 19.2822 20.787L21.5372 16.8467L24.566 22.3662C24.6157 22.4568 24.6884 22.5325 24.7767 22.5859C24.8651 22.6393 24.966 22.6684 25.0693 22.6702L25.0797 22.6703C25.1812 22.6703 25.2809 22.6439 25.3691 22.5938C25.4574 22.5436 25.5311 22.4714 25.583 22.3842L27.47 19.2166H32.0201C32.1755 19.2166 32.3246 19.1548 32.4345 19.0449C32.5443 18.9351 32.6061 18.786 32.6061 18.6306C32.6061 18.4752 32.5443 18.3262 32.4345 18.2163C32.3246 18.1064 32.1755 18.0447 32.0201 18.0447H27.137C27.0355 18.0447 26.9358 18.071 26.8475 18.1212C26.7593 18.1714 26.6856 18.2436 26.6336 18.3308L25.1005 20.9044L22.0617 15.3664C22.0116 15.2751 21.9381 15.1988 21.8487 15.1454C21.7594 15.092 21.6574 15.0633 21.5533 15.0623H21.5479C21.4447 15.0623 21.3433 15.0896 21.254 15.1414C21.1647 15.1932 21.0907 15.2676 21.0394 15.3572L18.7497 19.358L17.3618 17.1524C17.309 17.0686 17.2358 16.9995 17.1491 16.9516C17.0624 16.9037 16.9649 16.8786 16.8658 16.8786H16.8601C16.76 16.8796 16.6619 16.9061 16.575 16.9558C16.4882 17.0055 16.4155 17.0765 16.3639 17.1623L14.9867 19.4498H11.6566C11.5012 19.4498 11.3522 19.5116 11.2423 19.6215C11.1324 19.7313 11.0707 19.8804 11.0707 20.0358C11.0707 20.1912 11.1324 20.3402 11.2423 20.4501C11.3522 20.56 11.5012 20.6217 11.6566 20.6217H15.3179ZM33.0543 4.35938C32.8989 4.35938 32.7499 4.42111 32.64 4.53099C32.5301 4.64088 32.4684 4.78991 32.4684 4.94531V6.67375H30.7401C30.5847 6.67375 30.4357 6.73548 30.3258 6.84537C30.2159 6.95525 30.1542 7.10429 30.1542 7.25969C30.1542 7.41509 30.2159 7.56412 30.3258 7.67401C30.4357 7.78389 30.5847 7.84562 30.7401 7.84562H32.4684V9.57414C32.4684 9.72954 32.5301 9.87858 32.64 9.98846C32.7499 10.0983 32.8989 10.1601 33.0543 10.1601C33.2098 10.1601 33.3588 10.0983 33.4687 9.98846C33.5786 9.87858 33.6403 9.72954 33.6403 9.57414V7.84562H35.3686C35.524 7.84562 35.673 7.78389 35.7829 7.67401C35.8928 7.56412 35.9545 7.41509 35.9545 7.25969C35.9545 7.10429 35.8928 6.95525 35.7829 6.84537C35.673 6.73548 35.524 6.67375 35.3686 6.67375H33.6403V4.94531C33.6403 4.78991 33.5786 4.64088 33.4687 4.53099C33.3588 4.42111 33.2098 4.35938 33.0543 4.35938Z" fill="white"/>
<path d="M35.1219 24.4346C37.9765 21.3828 38.7946 16.768 37.2255 12.8118C38.9093 11.5427 40 9.52621 40 7.25949C40 3.42941 36.8842 0.313477 33.0544 0.313477C31.4812 0.313477 29.9406 0.853398 28.7164 1.83379C28.5965 1.93137 28.52 2.07239 28.5036 2.22614C28.4871 2.37989 28.5322 2.53388 28.6288 2.65457C28.7255 2.77526 28.8659 2.85285 29.0195 2.87044C29.1731 2.88803 29.3275 2.84419 29.4489 2.74848C30.4808 1.92207 31.7275 1.48535 33.0543 1.48535C36.2379 1.48535 38.828 4.07566 38.828 7.25949C38.828 10.4446 36.238 13.0359 33.0543 13.0359C30.09 13.0359 27.6413 10.7907 27.3162 7.91176C27.3155 7.90512 27.3145 7.8984 27.3136 7.89168C27.2903 7.68175 27.2785 7.47071 27.2783 7.25949C27.2783 6.35512 27.4815 5.49027 27.8821 4.68887C27.9516 4.54986 27.963 4.38896 27.9139 4.24153C27.8647 4.0941 27.7591 3.97223 27.6201 3.9027C27.4811 3.83322 27.3202 3.8218 27.1727 3.87094C27.0253 3.92007 26.9034 4.02575 26.8339 4.16473C26.3512 5.13027 26.1064 6.17152 26.1064 7.25941C26.1064 7.35785 26.109 7.45566 26.113 7.55316C24.6335 8.08199 23.2525 8.95176 22.0952 10.09L21.4475 10.7267L21.4389 10.7181L20.8022 10.0907C18.742 8.05949 16.0452 6.92434 13.4022 6.97902C11.203 7.02434 9.25688 7.88605 7.77484 9.47043C7.72226 9.5267 7.68127 9.59278 7.65422 9.66489C7.62718 9.737 7.6146 9.81374 7.61721 9.89071C7.61982 9.96768 7.63757 10.0434 7.66944 10.1135C7.70132 10.1836 7.74669 10.2468 7.80297 10.2993C8.03969 10.5196 8.41 10.5079 8.63109 10.2712C9.89203 8.92277 11.5498 8.18918 13.4264 8.1509C15.7545 8.10324 18.1428 9.11496 19.9795 10.9251L20.617 11.5532C20.9248 11.8564 21.1873 12.0071 21.4491 12.0071C21.7084 12.0071 21.967 11.8587 22.2694 11.5618L22.917 10.9251C23.8902 9.96856 25.0381 9.22371 26.267 8.74598C26.9496 11.8654 29.7333 14.2077 33.0542 14.2077C34.1912 14.2077 35.2652 13.933 36.2134 13.4464C37.5117 16.9387 36.7663 20.9563 34.2702 23.6289L25.8586 32.2393L25.1625 32.3752C24.9937 32.408 24.8445 32.4377 24.7086 32.465C23.8258 32.6439 23.6148 32.6861 22.5813 32.5268L17.5695 31.6103C16.8867 31.3744 16.9555 30.8307 16.9937 30.6674C17.0539 30.4135 17.2898 30.0033 17.7969 30.0799L17.8109 30.0822C18.0367 30.1111 18.2789 30.1424 18.532 30.1744C19.4813 30.2971 20.5562 30.4354 21.5109 30.533C23.4641 30.7307 24.5688 29.7057 24.7984 28.601C25.032 27.4752 24.3906 25.9783 22.4297 25.3525C22.4062 25.3455 22.382 25.3393 22.357 25.3346L19.1297 24.7424C17.3781 24.4213 16.0156 24.6689 13.9531 25.0439C13.4078 25.1432 12.7891 25.2549 12.1 25.3682L10.5703 25.6197L10.0992 25.1377L8.62656 23.6299C5.87422 20.6791 5.26406 16.0572 7.14531 12.3877C7.29297 12.1002 7.17891 11.7471 6.89141 11.5994C6.60313 11.4518 6.25 11.565 6.10234 11.8533C3.99922 15.9564 4.68672 21.1299 7.775 24.4346C7.77812 24.4377 7.78125 24.4408 7.78359 24.4439L9.15859 25.8518L6.59781 26.2727V26.2058C6.59781 25.7534 6.19867 25.3853 5.70805 25.3853H0.8875C0.398125 25.3854 0 25.7534 0 26.2058V36.5156C0 36.968 0.398125 37.3361 0.8875 37.3361H5.70813C6.19875 37.3361 6.59789 36.968 6.59789 36.5156V36.4446L11.8672 37.8783L16.7313 39.2002C17.8414 39.5447 18.7359 39.6869 19.5523 39.6869C20.8445 39.6869 21.9422 39.3322 23.3922 38.8635C23.5211 38.8221 23.6531 38.7791 23.7891 38.7354L33.3742 35.6619C34.4852 35.3057 35.2758 34.5057 35.4883 33.5221C35.6531 32.7596 35.4234 32.0064 34.8734 31.5072C34.4281 31.1033 33.3813 30.5236 31.3633 31.1619L27.8836 31.8424L35.1133 24.4439C35.1164 24.4408 35.1188 24.4377 35.1219 24.4346ZM1.17188 36.1642V26.5571H5.42594V26.9597L5.42578 26.9634V35.6775L5.42594 35.6795V36.1642H1.17188ZM31.6875 32.2885C32.7687 31.9416 33.643 31.9729 34.0867 32.3752C34.3258 32.5924 34.4195 32.9205 34.343 33.2736C34.2195 33.8432 33.7234 34.3189 33.0164 34.5455L23.4305 37.6197C23.2938 37.6635 23.1609 37.7064 23.0312 37.7486C20.7383 38.4893 19.5875 38.8619 17.0688 38.0783C17.0625 38.076 17.0555 38.0744 17.0484 38.0721L6.59781 35.23V27.4604L12.2898 26.5252C12.9883 26.4104 13.6125 26.2963 14.1633 26.1963C16.1672 25.8322 17.3773 25.6127 18.918 25.8955L22.1078 26.4807C23.3516 26.8893 23.7805 27.74 23.6508 28.3627C23.5016 29.0822 22.7078 29.4768 21.6297 29.3674C20.6906 29.2713 19.6234 29.1338 18.682 29.0127C18.4305 28.9799 18.1891 28.9486 17.9648 28.9205C16.8445 28.7549 16.0547 29.5385 15.8531 30.4002C15.8102 30.5838 15.793 30.7791 15.8055 30.976C15.8484 31.6885 16.2742 32.4275 17.2461 32.7377C17.2703 32.7455 17.5938 32.8057 17.5938 32.8057L22.3789 33.6807L22.3945 33.683C23.382 33.8369 23.8094 33.8236 24.4148 33.7166C24.5734 33.6885 25.2203 33.5572 25.3867 33.5252L26.4414 33.3189C26.4414 33.3189 31.6656 32.2955 31.6875 32.2885Z" fill="white"/>
</g>
<defs>
<clipPath id="clip0_0_4179">
<rect width="40" height="40" fill="white"/>
</clipPath>
</defs>
</svg>
