<svg width="40" height="40" viewBox="0 0 40 40" fill="none" xmlns="http://www.w3.org/2000/svg">
<g clip-path="url(#clip0_0_4144)">
<path d="M39.9516 22.2981C39.656 20.2503 38.0473 18.6416 35.9995 18.346V17.134C35.9995 13.79 33.4575 11.0674 30.3329 11.0674C27.2983 11.0674 24.7576 13.7074 24.6663 16.9527H24.705L24.6663 16.9593V30.0971C24.6663 34.2971 21.5264 37.7077 17.6664 37.7077C13.8065 37.7077 10.6665 34.2924 10.6665 30.0971V28.9592C11.6332 28.9592 12.6665 28.2585 12.6665 26.2925V24.6159C16.9451 23.5219 19.9997 19.848 19.9997 15.6827V14.2927H18.6664L18.6384 5.61616C18.6287 4.0101 17.4762 2.63879 15.8958 2.35288C15.5549 1.30848 14.4318 0.73815 13.3873 1.07915C12.3429 1.42006 11.7726 2.54312 12.1136 3.58761C12.4545 4.63201 13.5776 5.20234 14.622 4.86134C14.8983 4.77114 15.1514 4.62152 15.3637 4.42298C15.5759 4.22445 15.742 3.98183 15.8504 3.71219C16.2663 3.83049 16.6325 4.08034 16.8944 4.42431C17.1563 4.76829 17.2997 5.18786 17.3031 5.62016L17.3331 14.2927H15.9998V15.702C15.9466 18.0209 14.392 20.036 12.1625 20.6759C10.9696 21.0544 9.68878 21.0544 8.49588 20.6759C6.26899 20.0339 4.71785 18.0191 4.6666 15.702V14.2927H2.66663V5.62616C2.6685 5.18778 2.81436 4.76217 3.08176 4.41478C3.34917 4.0674 3.7233 3.8175 4.14661 3.70352C4.55235 4.73643 5.71858 5.24475 6.75148 4.83901C7.78439 4.43326 8.29271 3.26695 7.88697 2.23413C7.48122 1.20131 6.31491 0.692901 5.28209 1.09864C5.00569 1.20724 4.75679 1.37574 4.55331 1.59204C4.34983 1.80833 4.19681 2.06704 4.10527 2.34954C2.50755 2.62254 1.33773 4.00527 1.33331 5.62616V14.2927H0V15.6793C0 19.8493 3.05662 23.5246 7.33323 24.6159V26.2925C7.33323 28.2585 8.36654 28.9592 9.3332 28.9592V30.0971C9.3332 35.0304 13.0711 39.041 17.6664 39.041C22.2617 39.041 25.9996 35.0257 25.9996 30.0971V16.9913C26.0663 14.4614 28.0116 12.4027 30.3329 12.4027C32.7222 12.4027 34.6662 14.5254 34.6662 17.136V18.346C32.1153 18.7141 30.3459 21.0805 30.7141 23.6314C31.0822 26.1823 33.4486 27.9517 35.9995 27.5835C38.5504 27.2153 40.3197 24.8489 39.9516 22.2981ZM13.9998 3.62619C13.823 3.62619 13.6534 3.55595 13.5284 3.43093C13.4034 3.30591 13.3331 3.13634 13.3331 2.95953C13.3331 2.78273 13.4034 2.61316 13.5284 2.48814C13.6534 2.36311 13.823 2.29288 13.9998 2.29288C14.1766 2.29288 14.3462 2.36311 14.4712 2.48814C14.5962 2.61316 14.6665 2.78273 14.6665 2.95953C14.6665 3.13634 14.5962 3.30591 14.4712 3.43093C14.3462 3.55595 14.1766 3.62619 13.9998 3.62619ZM5.99991 2.29288C6.17672 2.29288 6.34629 2.36311 6.47131 2.48814C6.59633 2.61316 6.66657 2.78273 6.66657 2.95953C6.66657 3.13634 6.59633 3.30591 6.47131 3.43093C6.34629 3.55595 6.17672 3.62619 5.99991 3.62619C5.8231 3.62619 5.65354 3.55595 5.52851 3.43093C5.40349 3.30591 5.33326 3.13634 5.33326 2.95953C5.33326 2.78273 5.40349 2.61316 5.52851 2.48814C5.65354 2.36311 5.8231 2.29288 5.99991 2.29288ZM1.33331 15.6793V15.626H3.33328V15.702C3.38328 18.5996 5.31101 21.1283 8.09188 21.9439C9.5491 22.4053 11.1133 22.4053 12.5705 21.9439C15.3527 21.1294 17.2822 18.6006 17.3331 15.702V15.626H18.6664V15.6793C18.6664 19.388 15.8078 22.6512 11.8665 23.4406C10.941 23.6259 9.99306 23.6724 9.05387 23.5786C8.74472 23.5486 8.43739 23.5021 8.13321 23.4392C4.19194 22.6512 1.33331 19.388 1.33331 15.6793ZM9.3332 27.6258C8.73321 27.6258 8.66654 26.6925 8.66654 26.2925V24.8779C8.71987 24.8845 8.77454 24.8872 8.82854 24.8925C8.8952 24.8999 8.96187 24.9052 9.02853 24.9112C9.34386 24.9392 9.66186 24.9579 9.98252 24.9585H10.0159C10.3358 24.9585 10.6532 24.9392 10.9665 24.9112C11.0332 24.9052 11.1038 24.8999 11.1725 24.8925C11.2252 24.8865 11.2798 24.8845 11.3325 24.8779V26.2925C11.3325 26.6925 11.2658 27.6258 10.6658 27.6258H9.3332ZM35.3328 26.2925C33.4919 26.2925 31.9995 24.8001 31.9995 22.9592C31.9995 21.1184 33.4919 19.626 35.3328 19.626C37.1737 19.626 38.6661 21.1184 38.6661 22.9592C38.6639 24.7993 37.1728 26.2904 35.3328 26.2925Z" fill="white"/>
<path d="M35.3328 20.9595C34.2283 20.9595 33.3329 21.8549 33.3329 22.9594C33.3329 24.064 34.2283 24.9594 35.3328 24.9594C36.4374 24.9594 37.3328 24.064 37.3328 22.9594C37.3328 21.8549 36.4374 20.9595 35.3328 20.9595ZM35.3328 23.6261C35.156 23.6261 34.9865 23.5559 34.8614 23.4308C34.7364 23.3058 34.6662 23.1363 34.6662 22.9594C34.6662 22.7826 34.7364 22.6131 34.8614 22.488C34.9865 22.363 35.156 22.2928 35.3328 22.2928C35.5096 22.2928 35.6792 22.363 35.8042 22.488C35.9292 22.6131 35.9995 22.7826 35.9995 22.9594C35.9995 23.1363 35.9292 23.3058 35.8042 23.4308C35.6792 23.5559 35.5096 23.6261 35.3328 23.6261Z" fill="white"/>
</g>
<defs>
<clipPath id="clip0_0_4144">
<rect width="40" height="40" fill="white"/>
</clipPath>
</defs>
</svg>
