<svg width="20" height="20" viewBox="0 0 20 20" fill="none" xmlns="http://www.w3.org/2000/svg">
<path d="M5.09258 7.97825H1.75925C1.64874 7.97825 1.54276 8.02215 1.46462 8.10029C1.38648 8.17843 1.34258 8.28441 1.34258 8.39492V18.3949C1.34258 18.5054 1.38648 18.6114 1.46462 18.6895C1.54276 18.7677 1.64874 18.8116 1.75925 18.8116H5.09258C5.20309 18.8116 5.30907 18.7677 5.38721 18.6895C5.46535 18.6114 5.50925 18.5054 5.50925 18.3949V8.39492C5.50925 8.28441 5.46535 8.17843 5.38721 8.10029C5.30907 8.02215 5.20309 7.97825 5.09258 7.97825ZM4.67591 17.9782H2.17591V8.81158H4.67591V17.9782ZM13.8426 7.97825C12.9384 7.97825 12.0592 8.27658 11.3426 8.82742V8.39492C11.3426 8.28441 11.2987 8.17843 11.2205 8.10029C11.1424 8.02215 11.0364 7.97825 10.9259 7.97825H7.59258C7.48207 7.97825 7.37609 8.02215 7.29795 8.10029C7.21981 8.17843 7.17591 8.28441 7.17591 8.39492V18.3949C7.17591 18.5054 7.21981 18.6114 7.29795 18.6895C7.37609 18.7677 7.48207 18.8116 7.59258 18.8116H10.9259C11.0364 18.8116 11.1424 18.7677 11.2205 18.6895C11.2987 18.6114 11.3426 18.5054 11.3426 18.3949V13.8116C11.3426 13.4801 11.4743 13.1621 11.7087 12.9277C11.9431 12.6933 12.2611 12.5616 12.5926 12.5616C12.9241 12.5616 13.242 12.6933 13.4765 12.9277C13.7109 13.1621 13.8426 13.4801 13.8426 13.8116V18.3949C13.8426 18.5054 13.8865 18.6114 13.9646 18.6895C14.0428 18.7677 14.1487 18.8116 14.2592 18.8116H17.5926C17.7031 18.8116 17.8091 18.7677 17.8872 18.6895C17.9653 18.6114 18.0092 18.5054 18.0092 18.3949V12.1449C18.0079 11.0403 17.5685 9.98121 16.7874 9.2001C16.0063 8.41898 14.9472 7.97957 13.8426 7.97825ZM17.1759 17.9782H14.6759V13.8116C14.6759 13.259 14.4564 12.7291 14.0657 12.3384C13.675 11.9477 13.1451 11.7282 12.5926 11.7282C12.04 11.7282 11.5101 11.9477 11.1194 12.3384C10.7287 12.7291 10.5092 13.259 10.5092 13.8116V17.9782H8.00925V8.81158H10.5092V9.81408C10.5092 9.90038 10.536 9.98456 10.5859 10.055C10.6358 10.1254 10.7063 10.1786 10.7877 10.2072C10.8691 10.2359 10.9574 10.2385 11.0404 10.2148C11.1233 10.1911 11.1969 10.1422 11.2509 10.0749C11.6789 9.53248 12.2654 9.1371 12.9288 8.94393C13.5921 8.75075 14.2992 8.7694 14.9515 8.99728C15.6038 9.22516 16.1686 9.6509 16.5674 10.2151C16.9661 10.7794 17.1789 11.454 17.1759 12.1449V17.9782ZM3.73258 2.14658C3.63466 2.13968 3.5364 2.13912 3.43841 2.14492C3.12655 2.1237 2.81366 2.16673 2.51911 2.27137C2.22456 2.376 1.95463 2.53999 1.72604 2.75319C1.49745 2.96639 1.31507 3.22425 1.1902 3.51081C1.06532 3.79736 1.00061 4.1065 1.00008 4.41908C0.997491 4.7284 1.05847 5.03495 1.17925 5.31972C1.30002 5.60449 1.47801 5.86142 1.70217 6.07457C1.92634 6.28772 2.1919 6.45254 2.4824 6.55882C2.77289 6.6651 3.08212 6.71058 3.39091 6.69242H3.41425C3.71273 6.71332 4.01241 6.67522 4.29617 6.58031C4.57993 6.4854 4.84222 6.33552 5.06806 6.13924C5.2939 5.94296 5.47887 5.70412 5.6124 5.43636C5.74594 5.16859 5.82543 4.87715 5.84633 4.57867C5.86723 4.28018 5.82914 3.9805 5.73422 3.69674C5.63931 3.41298 5.48943 3.15069 5.29315 2.92485C5.09687 2.69901 4.85803 2.51404 4.59027 2.38051C4.32251 2.24697 4.03106 2.16748 3.73258 2.14658ZM3.70341 5.86158C3.60718 5.87033 3.51031 5.86949 3.41425 5.85908H3.39091C3.19035 5.87416 2.98885 5.84725 2.79928 5.78007C2.6097 5.7129 2.43622 5.60693 2.2899 5.46894C2.14358 5.33094 2.02764 5.16395 1.94949 4.97863C1.87133 4.79331 1.83268 4.59373 1.836 4.39264C1.83931 4.19154 1.88452 3.99334 1.96875 3.8107C2.05297 3.62806 2.17435 3.46498 2.32513 3.33189C2.47592 3.19879 2.65281 3.0986 2.84449 3.03771C3.03618 2.97682 3.23846 2.95657 3.43841 2.97825C3.82077 2.94311 4.20142 3.0613 4.49663 3.30681C4.79185 3.55233 4.97744 3.90506 5.01258 4.28742C5.04772 4.66977 4.92953 5.05042 4.68402 5.34564C4.4385 5.64085 4.08577 5.82644 3.70341 5.86158Z" fill="white"/>
</svg>
