<svg width="40" height="40" viewBox="0 0 40 40" fill="none" xmlns="http://www.w3.org/2000/svg">
<path d="M34.6163 23.2627C34.3578 21.1413 33.4092 19.1636 31.9166 17.6341C30.424 16.1046 28.4702 15.108 26.3557 14.7977L24.3326 14.5039C26.8582 9.0483 22.5176 2.36142 16.4682 2.50017C14.5625 2.49783 12.7105 3.13104 11.2052 4.29959C9.69987 5.46815 8.62721 7.10532 8.15695 8.95205C8.12257 9.1103 8.15095 9.27571 8.23612 9.41345C8.3213 9.55118 8.4566 9.65048 8.61354 9.69042C8.77048 9.73037 8.93679 9.70783 9.07745 9.62758C9.2181 9.54732 9.32211 9.4156 9.36757 9.26017C9.76988 7.6828 10.6866 6.28457 11.9727 5.28664C13.2588 4.28871 14.841 3.74805 16.4688 3.75017C26.1944 4.15517 26.1938 18.0058 16.4688 18.4064C14.61 18.4047 12.8211 17.6975 11.4636 16.4278C10.106 15.158 9.28094 13.4204 9.15507 11.5658C9.1443 11.4004 9.06825 11.246 8.94365 11.1366C8.81906 11.0273 8.65613 10.9719 8.4907 10.9827C8.32527 10.9934 8.17089 11.0695 8.06154 11.1941C7.95218 11.3187 7.8968 11.4816 7.90757 11.647C8.04598 13.7482 8.95749 15.7238 10.4663 17.1927L8.05632 19.6252C6.93775 20.7535 6.18841 22.1951 5.90757 23.7589L4.44507 31.842C3.6182 35.9814 8.52507 39.112 11.9326 36.6208L19.3169 31.407C20.0295 30.8967 20.515 30.1287 20.6704 29.2661C20.8258 28.4036 20.6389 27.5144 20.1493 26.7875C19.6597 26.0605 18.9061 25.553 18.0484 25.3728C17.1907 25.1925 16.2965 25.3537 15.5557 25.822L11.3063 28.5427C11.1667 28.632 11.0682 28.7732 11.0327 28.9351C10.9971 29.097 11.0273 29.2665 11.1166 29.4061C11.206 29.5458 11.3471 29.6442 11.5091 29.6798C11.671 29.7154 11.8404 29.6851 11.9801 29.5958L16.2301 26.8752C16.6959 26.5673 17.2645 26.456 17.8121 26.5653C18.3596 26.6747 18.8418 26.9958 19.1538 27.459C19.4657 27.9221 19.582 28.4897 19.4775 29.0382C19.373 29.5867 19.0561 30.0717 18.5957 30.3877L11.2119 35.6002C10.6349 35.9987 9.95304 36.2182 9.25183 36.2309C8.55062 36.2437 7.86124 36.0492 7.27006 35.6719C6.67887 35.2946 6.21218 34.7512 5.92846 34.1099C5.64473 33.4685 5.55659 32.7577 5.67507 32.0664L7.13882 23.9814C7.37506 22.6661 8.0054 21.4536 8.94632 20.5045L11.4238 18.002C12.372 18.6868 13.4499 19.1711 14.5915 19.4253C15.7332 19.6795 16.9147 19.6982 18.0638 19.4805C19.213 19.2627 20.3057 18.8129 21.2752 18.1587C22.2447 17.5044 23.0706 16.6594 23.7026 15.6752L26.1763 16.0352C28.019 16.3056 29.7217 17.1742 31.0224 18.5073C32.323 19.8403 33.1494 21.5639 33.3744 23.4127L34.3869 31.8289C34.4068 31.9936 34.4912 32.1437 34.6216 32.2461C34.7521 32.3486 34.9179 32.395 35.0826 32.3752C35.2473 32.3554 35.3973 32.2709 35.4998 32.1405C35.6022 32.01 35.6486 31.8442 35.6288 31.6795L34.6163 23.2627Z" fill="white"/>
<path d="M27.5888 24.8463C27.567 24.7671 27.5298 24.6931 27.4793 24.6283C27.4289 24.5636 27.3662 24.5094 27.2948 24.4689C27.2234 24.4284 27.1447 24.4024 27.0633 24.3922C26.9818 24.3821 26.8992 24.3882 26.8201 24.41C26.7409 24.4318 26.6669 24.469 26.6022 24.5195C26.5374 24.5699 26.4832 24.6326 26.4427 24.704C26.4022 24.7754 26.3762 24.8541 26.3661 24.9355C26.356 25.017 26.362 25.0996 26.3838 25.1788L28.4632 32.71C28.5091 32.8676 28.6152 33.0009 28.7585 33.0809C28.9019 33.161 29.0709 33.1814 29.2292 33.1378C29.3875 33.0942 29.5223 32.9901 29.6044 32.8479C29.6866 32.7058 29.7095 32.537 29.6682 32.3781L27.5888 24.8463ZM15.2657 23.6738L15.8057 22.87L16.2488 23.5063C16.2945 23.5764 16.3538 23.6367 16.4233 23.6835C16.4927 23.7303 16.5708 23.7626 16.653 23.7786C16.7352 23.7947 16.8198 23.794 16.9017 23.7767C16.9836 23.7594 17.0612 23.7258 17.1299 23.6779C17.1986 23.6301 17.257 23.5689 17.3016 23.498C17.3462 23.4271 17.376 23.348 17.3895 23.2654C17.4029 23.1827 17.3996 23.0982 17.3797 23.0169C17.3598 22.9355 17.3238 22.859 17.2738 22.7919L16.3101 21.4069C16.2511 21.3248 16.1733 21.2581 16.0832 21.2123C15.9932 21.1665 15.8934 21.143 15.7923 21.1438C15.6913 21.1446 15.5919 21.1697 15.5025 21.2169C15.4132 21.264 15.3365 21.332 15.2788 21.415L14.4288 22.6775L12.6701 22.5625C12.5645 22.5565 12.4591 22.5772 12.3636 22.6227C12.2682 22.6683 12.1858 22.7372 12.124 22.8231C12.0623 22.909 12.0233 23.0091 12.0106 23.1141C11.9979 23.2191 12.0119 23.3256 12.0513 23.4238L12.8013 25.25C12.8325 25.3259 12.8783 25.395 12.9362 25.4532C12.9941 25.5114 13.0628 25.5576 13.1386 25.5892C13.2143 25.6209 13.2955 25.6373 13.3776 25.6375C13.4597 25.6377 13.541 25.6218 13.6169 25.5906C13.6929 25.5594 13.7619 25.5136 13.8201 25.4557C13.8783 25.3979 13.9245 25.3291 13.9562 25.2534C13.9878 25.1776 14.0042 25.0964 14.0044 25.0143C14.0047 24.9322 13.9888 24.8509 13.9576 24.775L13.5876 23.875L14.7063 23.9481C14.8156 23.9564 14.9251 23.9352 15.0235 23.8868C15.1218 23.8385 15.2055 23.7653 15.2657 23.6738ZM24.0082 23.1931C23.9522 23.1168 23.8797 23.0542 23.796 23.01C23.7123 22.9659 23.6196 22.9413 23.5251 22.9381L22.1401 22.8919L21.1482 21.3088C21.0915 21.2202 21.0135 21.1472 20.9214 21.0965C20.8292 21.0458 20.7258 21.019 20.6206 21.0186C20.5155 21.0181 20.4118 21.0441 20.3193 21.094C20.2267 21.1439 20.1481 21.2163 20.0907 21.3044L19.3938 22.4C19.3497 22.4693 19.3197 22.5465 19.3055 22.6274C19.2913 22.7083 19.2932 22.7912 19.311 22.8713C19.3288 22.9515 19.3622 23.0273 19.4094 23.0945C19.4565 23.1618 19.5164 23.2191 19.5857 23.2631C19.655 23.3072 19.7322 23.3372 19.8131 23.3514C19.894 23.3656 19.9768 23.3638 20.057 23.3459C20.1371 23.3281 20.213 23.2947 20.2802 23.2476C20.3475 23.2004 20.4047 23.1405 20.4488 23.0713L20.6144 22.8113L21.2576 23.8381C21.4976 24.2738 22.2513 24.1081 22.6882 24.1619C22.6401 24.4444 22.2851 25.2581 22.4363 25.5363L22.7551 26.3444L22.1413 26.6044C21.9887 26.669 21.8679 26.7917 21.8057 26.9453C21.7434 27.099 21.7448 27.2711 21.8094 27.4238C21.8741 27.5764 21.9967 27.6971 22.1504 27.7594C22.3041 27.8216 22.4762 27.8203 22.6288 27.7556L23.8038 27.2581C23.9541 27.1946 24.0735 27.0748 24.1366 26.9244C24.1997 26.774 24.2014 26.6048 24.1413 26.4531L23.6757 25.2719L24.1069 23.7319C24.1325 23.6406 24.1369 23.5447 24.1199 23.4515C24.1029 23.3583 24.0649 23.2701 24.0088 23.1938L24.0082 23.1931ZM24.3944 30.115L23.1626 29.7056C23.0071 29.6597 22.8398 29.676 22.6961 29.7511C22.5524 29.8262 22.4435 29.9542 22.3924 30.1081C22.3413 30.2619 22.352 30.4296 22.4222 30.5758C22.4925 30.7219 22.6167 30.835 22.7688 30.8913L23.0626 30.9894L22.2232 31.8631C22.1523 31.937 22.1006 32.0271 22.0727 32.1257C22.0448 32.2242 22.0415 32.328 22.0632 32.4281L22.2582 33.33C21.9707 33.3525 21.0988 33.205 20.8638 33.42L20.1576 33.9263L19.7551 33.395C19.7066 33.3269 19.6451 33.2692 19.574 33.2253C19.5028 33.1815 19.4237 33.1523 19.3411 33.1395C19.2585 33.1268 19.1742 33.1307 19.0932 33.1511C19.0121 33.1715 18.936 33.2079 18.8693 33.2583C18.8026 33.3086 18.7467 33.3718 18.7048 33.4441C18.663 33.5164 18.636 33.5964 18.6256 33.6793C18.6152 33.7622 18.6215 33.8463 18.6442 33.9268C18.6668 34.0072 18.7054 34.0822 18.7576 34.1475L19.5276 35.1663C19.6258 35.2963 19.771 35.3827 19.9321 35.4073C20.0932 35.4318 20.2576 35.3924 20.3901 35.2975L21.4213 34.5581L23.0207 34.6C23.1151 34.6017 23.2087 34.5821 23.2945 34.5427C23.3803 34.5033 23.4561 34.4451 23.5164 34.3724C23.5767 34.2997 23.6198 34.2144 23.6426 34.1228C23.6654 34.0312 23.6673 33.9356 23.6482 33.8431L23.3544 32.4888L24.6482 31.1406C24.7199 31.064 24.7713 30.9707 24.7978 30.8692C24.8243 30.7676 24.8249 30.6611 24.7997 30.5592C24.7745 30.4573 24.7242 30.3634 24.6534 30.2859C24.5826 30.2085 24.4936 30.1499 24.3944 30.1156V30.115Z" fill="white"/>
</svg>
