<svg width="40" height="40" viewBox="0 0 40 40" fill="none" xmlns="http://www.w3.org/2000/svg">
<g clip-path="url(#clip0_0_4170)">
<path d="M28.0871 3C25.889 3 23.7419 3.61789 21.8762 4.78712C21.5184 4.98055 18.8058 6.54876 19.2268 9.40573C19.3806 10.4492 19.9327 11.1949 20.4667 11.9161C21.2202 12.9339 21.9393 13.9068 21.7432 15.8748C21.7326 15.8692 21.7227 15.8626 21.712 15.8572C21.1542 15.5727 20.519 15.5227 19.9235 15.7161C19.3783 15.8933 18.9267 16.2554 18.6363 16.7431C18.4353 16.5486 18.2074 16.3839 17.9597 16.254C17.5219 16.024 17.0438 15.9114 16.5628 15.9186C16.5266 15.5268 16.547 15.2694 16.5702 14.981C16.5995 14.6161 16.6327 14.2025 16.5446 13.5518C16.3734 12.2875 15.6494 11.1831 14.5059 10.4417C13.1267 9.54753 11.273 9.28518 9.66842 9.75675C6.75028 10.6143 5.06324 13.6875 5.9077 16.6072C6.15692 17.4688 6.61481 18.2636 7.23193 18.9055C7.55583 19.2424 7.73107 19.6873 7.71286 20.1258C7.66107 21.3722 7.83326 22.61 8.22466 23.8052C9.06287 26.3642 10.8845 28.4801 13.3541 29.7627C14.8997 30.5654 16.5663 30.9731 18.2287 30.973C19.2222 30.973 20.2144 30.8274 21.1779 30.5335C21.7112 30.371 22.2307 30.1664 22.7317 29.9217C24.0925 29.256 25.1711 28.1196 25.7689 26.7217C26.0997 25.9474 26.2744 25.1154 26.2829 24.2735C26.6522 24.3414 27.0425 24.3217 27.4221 24.1994C28.6397 23.807 29.3157 22.4773 28.9292 21.2357L28.3299 19.3106C27.9316 18.0315 26.9223 17.0571 25.6301 16.7038C24.8051 16.4785 23.951 16.5306 23.1825 16.831C23.7489 13.7242 22.6353 12.2188 21.7228 10.9863C21.2649 10.3679 20.8696 9.83386 20.7729 9.17776C20.4958 7.29728 22.541 6.20259 22.6257 6.15822C22.6458 6.14783 22.6656 6.13657 22.6848 6.12447C24.3066 5.10251 26.1748 4.56235 28.0876 4.56235C33.7948 4.56235 38.4381 9.33393 38.4381 15.1989C38.4381 21.6349 33.3847 27.0431 29.1456 30.4468C25.1761 33.6337 21.1541 35.7102 19.9999 36.2784C18.8902 35.7321 15.133 33.7937 11.3223 30.8171C10.9822 30.5516 10.4913 30.6119 10.2256 30.9519C9.95998 31.292 10.0204 31.7829 10.3604 32.0486C15.0278 35.6944 19.4849 37.7685 19.6724 37.855C19.775 37.9024 19.8867 37.9269 19.9997 37.9269C20.1127 37.9269 20.2244 37.9024 20.3271 37.855C20.5268 37.7628 25.2741 35.5531 30.098 31.6857C32.9491 29.4 35.2254 27.0098 36.8635 24.5819C38.9448 21.4972 40.0001 18.3403 40.0001 15.199C40.0002 8.47244 34.6559 3 28.0871 3ZM15.5338 18.6346C15.8877 18.3235 16.2699 17.9871 16.4777 17.4876C16.7367 17.4633 16.9976 17.5134 17.2334 17.6372C17.5043 17.7789 17.719 18.0086 17.8422 18.2884L17.5163 18.9278L15.2563 18.883C15.3476 18.7989 15.4401 18.7161 15.5338 18.6346ZM22.3997 19.6687L22.66 19.158C22.765 19.0025 22.8884 18.8601 23.0276 18.7342C23.6238 18.1948 24.4425 17.9993 25.2178 18.2112C25.9932 18.4231 26.5987 19.0079 26.8377 19.7753L27.437 21.7002C27.57 22.1276 27.3482 22.5816 26.9425 22.7123C26.5572 22.8368 26.1403 22.6442 25.9839 22.2743L25.5272 20.8073C25.399 20.3954 24.961 20.1653 24.549 20.2937C24.1371 20.4219 23.9071 20.8598 24.0354 21.2719L24.504 22.7773C25.2116 25.0606 24.1773 27.4752 22.0448 28.5182C21.6183 28.7265 21.1759 28.9007 20.7219 29.0391C16.2177 30.4126 11.1746 27.7928 9.70928 23.3189C9.37623 22.3021 9.22975 21.2497 9.27373 20.1908C9.30959 19.3287 8.97592 18.4656 8.35818 17.8229C7.90966 17.3562 7.59005 16.8011 7.40849 16.1732C6.80239 14.0775 8.01372 11.8715 10.1088 11.2558C10.4986 11.1413 10.908 11.0853 11.3177 11.0853C12.1484 11.0853 12.9809 11.3153 13.6558 11.7528C14.1901 12.0992 14.8563 12.7288 14.9962 13.7614C15.0617 14.2452 15.039 14.5282 15.0127 14.8559C14.9808 15.2534 14.9446 15.7039 15.0552 16.4662C15.1188 16.9049 15.0326 16.9947 14.5021 17.4609C14.3563 17.5891 14.1909 17.7344 14.0198 17.9031L14.014 17.9089L14.0045 17.9182C13.5771 18.3357 13.4427 18.9632 13.6618 19.5169C13.7678 19.7854 13.951 20.0164 14.1883 20.1808C14.4256 20.3453 14.7062 20.4357 14.9948 20.4408L17.6763 20.4939C18.1572 20.5043 18.6038 20.2348 18.821 19.8086L19.9515 17.5905C19.9978 17.499 20.0619 17.4175 20.1399 17.3509C20.218 17.2842 20.3084 17.2338 20.4061 17.2023C20.5037 17.1704 20.6066 17.1581 20.7089 17.1661C20.8113 17.1742 20.911 17.2025 21.0023 17.2494C21.0939 17.2958 21.1753 17.3598 21.242 17.4378C21.3086 17.5159 21.3591 17.6064 21.3906 17.704C21.4225 17.8016 21.4348 17.9045 21.4268 18.0068C21.4187 18.1091 21.3904 18.2088 21.3435 18.3001L21.3037 18.3783C21.1739 18.5834 21.0634 18.8001 20.9737 19.0257L20.2131 20.5181C19.8713 21.1887 19.2578 21.7034 18.5299 21.9301C18.2438 22.0196 17.9451 22.0622 17.6454 22.0562L14.2666 21.9883C14.164 21.9861 14.062 22.0042 13.9664 22.0415C13.8708 22.0788 13.7835 22.1346 13.7095 22.2057C13.6355 22.2768 13.5762 22.3618 13.5351 22.4558C13.494 22.5498 13.4718 22.6511 13.4698 22.7537C13.4612 23.1851 13.8038 23.5418 14.2352 23.5505L17.614 23.6184C18.0817 23.6276 18.5478 23.5612 18.9944 23.422C19.7816 23.1768 20.483 22.713 21.0157 22.1003L21.5662 23.8685C21.5967 23.9665 21.6462 24.0575 21.7118 24.1363C21.7775 24.2152 21.858 24.2803 21.9489 24.328C22.0397 24.3757 22.1391 24.4051 22.2413 24.4143C22.3434 24.4236 22.4464 24.4127 22.5444 24.3822C22.9564 24.2539 23.1864 23.8159 23.0581 23.404L22.3622 21.1691C22.2071 20.6702 22.227 20.143 22.3997 19.6687Z" fill="white"/>
<path d="M9.14246 28.995L9.12004 28.975C8.79902 28.6867 8.30503 28.7132 8.01675 29.0342C7.72847 29.3553 7.75503 29.8492 8.07605 30.1375L8.09847 30.1576C8.24163 30.2865 8.42752 30.3578 8.62019 30.3576C8.83425 30.3576 9.04746 30.2701 9.20175 30.0983C9.49004 29.7771 9.46347 29.2833 9.14246 28.995ZM18.1483 4.80282C16.2769 3.62336 14.1208 3 11.913 3C5.34416 3 0 8.47244 0 15.199C0 19.447 1.91048 23.6782 5.67838 27.7752C5.7515 27.8549 5.84041 27.9184 5.93944 27.9619C6.03848 28.0053 6.14547 28.0277 6.25362 28.0275C6.44952 28.0277 6.63829 27.9541 6.78229 27.8213C7.09987 27.5292 7.12057 27.035 6.82846 26.7174C3.33415 22.9181 1.56251 19.0426 1.56251 15.199C1.56251 9.33401 6.2058 4.56251 11.913 4.56251C13.8255 4.56251 15.6937 5.10274 17.3152 6.1247C17.6801 6.35478 18.1626 6.2454 18.3927 5.88032C18.6227 5.51532 18.5133 5.0329 18.1483 4.80282ZM28.0871 6.71361C27.6557 6.71361 27.3058 7.06338 27.3058 7.49486C27.3058 7.92635 27.6556 8.27611 28.0871 8.27611H28.0914C28.5228 8.27611 28.8705 7.92635 28.8705 7.49486C28.8705 7.06338 28.5186 6.71361 28.0871 6.71361ZM34.8721 10.3195C33.9058 8.91495 32.5678 7.85471 31.0025 7.25314C30.5997 7.09838 30.1478 7.29939 29.9929 7.70213C29.8382 8.10486 30.0392 8.55682 30.4419 8.71166C33.0588 9.71729 34.8171 12.3244 34.8171 15.1991C34.8171 15.6306 35.1669 15.9804 35.5983 15.9804C36.0298 15.9804 36.3796 15.6306 36.3796 15.1991C36.3796 13.4403 35.8583 11.7529 34.8721 10.3195Z" fill="white"/>
</g>
<defs>
<clipPath id="clip0_0_4170">
<rect width="40" height="40" fill="white"/>
</clipPath>
</defs>
</svg>
