<svg width="19" height="19" viewBox="0 0 19 19" fill="none" xmlns="http://www.w3.org/2000/svg">
<path d="M9.49997 8.31283C10.1558 8.31283 10.6875 7.78116 10.6875 7.12533C10.6875 6.46949 10.1558 5.93783 9.49997 5.93783C8.84413 5.93783 8.31247 6.46949 8.31247 7.12533C8.31247 7.78116 8.84413 8.31283 9.49997 8.31283Z" fill="#FA5946"/>
<path d="M9.49997 1.18777C6.22619 1.18777 3.56248 3.73533 3.56248 6.8655C3.56248 8.35618 4.24195 10.3386 5.58197 12.7577C6.65814 14.7 7.90316 16.4564 8.55072 17.3303C8.66014 17.4797 8.80321 17.6011 8.96833 17.6848C9.13344 17.7685 9.31596 17.8121 9.50109 17.8121C9.68621 17.8121 9.86873 17.7685 10.0338 17.6848C10.199 17.6011 10.342 17.4797 10.4515 17.3303C11.0979 16.4564 12.344 14.7 13.4202 12.7577C14.758 10.3393 15.4375 8.35693 15.4375 6.8655C15.4375 3.73533 12.7738 1.18777 9.49997 1.18777ZM9.49997 9.50026C9.03024 9.50026 8.57106 9.36097 8.1805 9.1C7.78993 8.83904 7.48552 8.46811 7.30576 8.03414C7.126 7.60016 7.07897 7.12263 7.17061 6.66193C7.26225 6.20122 7.48845 5.77804 7.8206 5.44589C8.15275 5.11374 8.57593 4.88754 9.03663 4.7959C9.49734 4.70426 9.97487 4.7513 10.4088 4.93105C10.8428 5.11081 11.2137 5.41522 11.4747 5.80579C11.7357 6.19635 11.875 6.65554 11.875 7.12527C11.8743 7.75494 11.6238 8.35863 11.1786 8.80388C10.7333 9.24913 10.1297 9.49958 9.49997 9.50026Z" fill="#FA5946"/>
</svg>
