<svg width="36" height="36" viewBox="0 0 36 36" fill="none" xmlns="http://www.w3.org/2000/svg">
<circle cx="18" cy="18" r="18" fill="white" fill-opacity="0.1"/>
<path d="M14.5 10.1396H21.5C24.1667 10.1396 26.3334 12.3063 26.3334 14.973V21.973C26.3334 23.2549 25.8241 24.4842 24.9177 25.3907C24.0113 26.2971 22.7819 26.8063 21.5 26.8063H14.5C11.8334 26.8063 9.66669 24.6396 9.66669 21.973V14.973C9.66669 13.6911 10.1759 12.4617 11.0823 11.5553C11.9888 10.6489 13.2181 10.1396 14.5 10.1396ZM14.3334 11.8063C13.5377 11.8063 12.7746 12.1224 12.212 12.685C11.6494 13.2476 11.3334 14.0107 11.3334 14.8063V22.1396C11.3334 23.798 12.675 25.1396 14.3334 25.1396H21.6667C22.4623 25.1396 23.2254 24.8236 23.788 24.261C24.3506 23.6984 24.6667 22.9353 24.6667 22.1396V14.8063C24.6667 13.148 23.325 11.8063 21.6667 11.8063H14.3334ZM22.375 13.0563C22.6513 13.0563 22.9162 13.1661 23.1116 13.3614C23.3069 13.5568 23.4167 13.8217 23.4167 14.098C23.4167 14.3742 23.3069 14.6392 23.1116 14.8346C22.9162 15.0299 22.6513 15.1396 22.375 15.1396C22.0988 15.1396 21.8338 15.0299 21.6384 14.8346C21.4431 14.6392 21.3334 14.3742 21.3334 14.098C21.3334 13.8217 21.4431 13.5568 21.6384 13.3614C21.8338 13.1661 22.0988 13.0563 22.375 13.0563ZM18 14.3063C19.1051 14.3063 20.1649 14.7453 20.9463 15.5267C21.7277 16.3081 22.1667 17.3679 22.1667 18.473C22.1667 19.5781 21.7277 20.6379 20.9463 21.4193C20.1649 22.2007 19.1051 22.6396 18 22.6396C16.895 22.6396 15.8351 22.2007 15.0537 21.4193C14.2723 20.6379 13.8334 19.5781 13.8334 18.473C13.8334 17.3679 14.2723 16.3081 15.0537 15.5267C15.8351 14.7453 16.895 14.3063 18 14.3063ZM18 15.973C17.337 15.973 16.7011 16.2364 16.2323 16.7052C15.7634 17.1741 15.5 17.8099 15.5 18.473C15.5 19.136 15.7634 19.7719 16.2323 20.2407C16.7011 20.7096 17.337 20.973 18 20.973C18.6631 20.973 19.2989 20.7096 19.7678 20.2407C20.2366 19.7719 20.5 19.136 20.5 18.473C20.5 17.8099 20.2366 17.1741 19.7678 16.7052C19.2989 16.2364 18.6631 15.973 18 15.973Z" fill="white"/>
</svg>
