<svg width="47" height="45" viewBox="0 0 47 45" fill="none" xmlns="http://www.w3.org/2000/svg">
<path d="M46.5 25C46.5 38.8071 33.8071 45 20 45C6.19288 45 0 38.8071 0 25C0 11.1929 2.69288 0 16.5 0C30.3071 0 46.5 11.1929 46.5 25Z" fill="url(#paint0_linear_0_4700)"/>
<g clip-path="url(#clip0_0_4700)">
<g filter="url(#filter0_d_0_4700)">
<path fill-rule="evenodd" clip-rule="evenodd" d="M13.9991 9.16895C14.1637 9.16895 14.3247 9.21776 14.4615 9.30922C14.5984 9.40068 14.7051 9.53067 14.7681 9.68276C14.8311 9.83486 14.8476 10.0022 14.8155 10.1637C14.7834 10.3252 14.7042 10.4735 14.5878 10.5899C14.4714 10.7063 14.3231 10.7856 14.1616 10.8178C14.0001 10.8499 13.8328 10.8334 13.6807 10.7705C13.5286 10.7075 13.3986 10.6008 13.3071 10.464C13.2156 10.3271 13.1667 10.1662 13.1667 10.0015C13.1667 9.89221 13.1882 9.78395 13.23 9.68294C13.2718 9.58192 13.3331 9.49014 13.4104 9.41282C13.4877 9.3355 13.5795 9.27417 13.6805 9.23233C13.7815 9.19048 13.8898 9.16895 13.9991 9.16895Z" fill="white"/>
<path d="M13.9988 13.0852C14.4584 13.0852 14.831 12.7127 14.831 12.2531C14.831 11.7935 14.4584 11.4209 13.9988 11.4209C13.5392 11.4209 13.1666 11.7935 13.1666 12.2531C13.1666 12.7127 13.5392 13.0852 13.9988 13.0852Z" fill="white"/>
<path fill-rule="evenodd" clip-rule="evenodd" d="M13.999 13.6738C14.1637 13.6738 14.3246 13.7226 14.4615 13.8141C14.5984 13.9056 14.7051 14.0356 14.7681 14.1877C14.8311 14.3398 14.8476 14.5072 14.8155 14.6687C14.7833 14.8301 14.704 14.9785 14.5876 15.0949C14.4712 15.2113 14.3229 15.2906 14.1614 15.3227C13.9999 15.3548 13.8325 15.3383 13.6804 15.2753C13.5283 15.2123 13.3983 15.1056 13.3069 14.9687C13.2154 14.8318 13.1666 14.6708 13.1666 14.5062C13.1666 14.2854 13.2544 14.0737 13.4105 13.9176C13.5666 13.7615 13.7783 13.6738 13.999 13.6738Z" fill="white"/>
<path fill-rule="evenodd" clip-rule="evenodd" d="M13.999 15.9268C14.1637 15.9268 14.3246 15.9756 14.4615 16.067C14.5984 16.1585 14.7051 16.2885 14.7681 16.4406C14.8311 16.5927 14.8476 16.7601 14.8155 16.9216C14.7833 17.0831 14.704 17.2314 14.5876 17.3478C14.4712 17.4642 14.3229 17.5435 14.1614 17.5756C13.9999 17.6077 13.8325 17.5912 13.6804 17.5282C13.5283 17.4652 13.3983 17.3585 13.3069 17.2216C13.2154 17.0847 13.1666 16.9237 13.1666 16.7591C13.1666 16.6498 13.1882 16.5416 13.23 16.4406C13.2718 16.3396 13.3331 16.2478 13.4104 16.1705C13.4877 16.0932 13.5795 16.0319 13.6805 15.9901C13.7815 15.9483 13.8897 15.9267 13.999 15.9268Z" fill="white"/>
<path d="M13.9988 19.843C14.4584 19.843 14.831 19.4705 14.831 19.0109C14.831 18.5513 14.4584 18.1787 13.9988 18.1787C13.5392 18.1787 13.1666 18.5513 13.1666 19.0109C13.1666 19.4705 13.5392 19.843 13.9988 19.843Z" fill="white"/>
<path fill-rule="evenodd" clip-rule="evenodd" d="M13.999 20.4307C14.1637 20.4307 14.3246 20.4795 14.4615 20.571C14.5984 20.6624 14.7051 20.7924 14.7681 20.9445C14.8311 21.0966 14.8476 21.264 14.8155 21.4255C14.7833 21.5869 14.7041 21.7353 14.5876 21.8517C14.4712 21.9681 14.3229 22.0474 14.1614 22.0795C14 22.1116 13.8326 22.0951 13.6805 22.0321C13.5284 21.9691 13.3984 21.8624 13.3069 21.7255C13.2154 21.5887 13.1666 21.4277 13.1666 21.2631C13.1666 21.0423 13.2543 20.8306 13.4104 20.6745C13.5665 20.5184 13.7783 20.4307 13.999 20.4307Z" fill="white"/>
<path fill-rule="evenodd" clip-rule="evenodd" d="M13.999 22.6826C14.1637 22.6826 14.3246 22.7314 14.4615 22.8229C14.5984 22.9144 14.7051 23.0444 14.7681 23.1965C14.8311 23.3486 14.8476 23.516 14.8155 23.6774C14.7833 23.8389 14.7041 23.9872 14.5876 24.1036C14.4712 24.22 14.3229 24.2993 14.1614 24.3314C14 24.3636 13.8326 24.3471 13.6805 24.2841C13.5284 24.2211 13.3984 24.1144 13.3069 23.9775C13.2154 23.8406 13.1666 23.6797 13.1666 23.515C13.1666 23.2943 13.2543 23.0825 13.4104 22.9264C13.5665 22.7703 13.7783 22.6826 13.999 22.6826Z" fill="white"/>
<path d="M13.9988 26.5999C14.4584 26.5999 14.831 26.2273 14.831 25.7677C14.831 25.3081 14.4584 24.9355 13.9988 24.9355C13.5392 24.9355 13.1666 25.3081 13.1666 25.7677C13.1666 26.2273 13.5392 26.5999 13.9988 26.5999Z" fill="white"/>
<path fill-rule="evenodd" clip-rule="evenodd" d="M13.999 27.1875C14.1637 27.1875 14.3246 27.2363 14.4615 27.3278C14.5984 27.4193 14.7051 27.5493 14.7681 27.7014C14.8311 27.8535 14.8476 28.0208 14.8155 28.1823C14.7833 28.3438 14.7041 28.4921 14.5876 28.6085C14.4712 28.7249 14.3229 28.8042 14.1614 28.8363C14 28.8684 13.8326 28.852 13.6805 28.789C13.5284 28.726 13.3984 28.6193 13.3069 28.4824C13.2154 28.3455 13.1666 28.1845 13.1666 28.0199C13.1666 27.7991 13.2543 27.5874 13.4104 27.4313C13.5665 27.2752 13.7783 27.1875 13.999 27.1875Z" fill="white"/>
<path fill-rule="evenodd" clip-rule="evenodd" d="M13.999 29.4395C14.1637 29.4395 14.3246 29.4883 14.4615 29.5797C14.5984 29.6712 14.7051 29.8012 14.7681 29.9533C14.8311 30.1054 14.8476 30.2728 14.8155 30.4343C14.7833 30.5957 14.7041 30.7441 14.5876 30.8605C14.4712 30.9769 14.3229 31.0562 14.1614 31.0883C14 31.1204 13.8326 31.1039 13.6805 31.0409C13.5284 30.9779 13.3984 30.8712 13.3069 30.7343C13.2154 30.5974 13.1666 30.4365 13.1666 30.2719C13.1666 30.0511 13.2543 29.8394 13.4104 29.6833C13.5665 29.5272 13.7783 29.4395 13.999 29.4395Z" fill="white"/>
<path d="M13.9988 33.3577C14.4584 33.3577 14.831 32.9851 14.831 32.5255C14.831 32.0659 14.4584 31.6934 13.9988 31.6934C13.5392 31.6934 13.1666 32.0659 13.1666 32.5255C13.1666 32.9851 13.5392 33.3577 13.9988 33.3577Z" fill="white"/>
<path fill-rule="evenodd" clip-rule="evenodd" d="M13.999 33.9443C14.1637 33.9443 14.3246 33.9932 14.4615 34.0846C14.5984 34.1761 14.7051 34.3061 14.7681 34.4583C14.8311 34.6104 14.8476 34.7778 14.8154 34.9392C14.7833 35.1007 14.704 35.249 14.5876 35.3654C14.4711 35.4818 14.3228 35.5611 14.1613 35.5932C13.9998 35.6253 13.8324 35.6088 13.6803 35.5457C13.5282 35.4827 13.3982 35.376 13.3068 35.239C13.2154 35.1021 13.1666 34.9411 13.1666 34.7765C13.1667 34.5558 13.2544 34.3441 13.4105 34.1881C13.5666 34.032 13.7783 33.9443 13.999 33.9443Z" fill="white"/>
<path d="M16.1533 10.8343C16.6129 10.8343 16.9854 10.4617 16.9854 10.0021C16.9854 9.54249 16.6129 9.16992 16.1533 9.16992C15.6937 9.16992 15.3211 9.54249 15.3211 10.0021C15.3211 10.4617 15.6937 10.8343 16.1533 10.8343Z" fill="white"/>
<path fill-rule="evenodd" clip-rule="evenodd" d="M16.1535 11.4209C16.3182 11.4209 16.4791 11.4697 16.616 11.5612C16.7529 11.6527 16.8596 11.7827 16.9226 11.9348C16.9856 12.0869 17.0021 12.2542 16.9699 12.4157C16.9378 12.5772 16.8585 12.7255 16.7421 12.8419C16.6257 12.9583 16.4774 13.0376 16.3159 13.0697C16.1544 13.1018 15.9871 13.0854 15.835 13.0224C15.6829 12.9594 15.5529 12.8527 15.4614 12.7158C15.3699 12.5789 15.3211 12.4179 15.3211 12.2533C15.3211 12.0325 15.4088 11.8208 15.5649 11.6647C15.721 11.5086 15.9327 11.4209 16.1535 11.4209Z" fill="white"/>
<path d="M16.1533 15.3391C16.6129 15.3391 16.9854 14.9666 16.9854 14.507C16.9854 14.0474 16.6129 13.6748 16.1533 13.6748C15.6937 13.6748 15.3211 14.0474 15.3211 14.507C15.3211 14.9666 15.6937 15.3391 16.1533 15.3391Z" fill="white"/>
<path d="M16.1533 17.5901C16.6129 17.5901 16.9854 17.2175 16.9854 16.7579C16.9854 16.2984 16.6129 15.9258 16.1533 15.9258C15.6937 15.9258 15.3211 16.2984 15.3211 16.7579C15.3211 17.2175 15.6937 17.5901 16.1533 17.5901Z" fill="white"/>
<path fill-rule="evenodd" clip-rule="evenodd" d="M16.1535 18.1777C16.3182 18.1777 16.4791 18.2266 16.616 18.318C16.7529 18.4095 16.8596 18.5395 16.9226 18.6916C16.9856 18.8437 17.0021 19.0111 16.9699 19.1726C16.9378 19.334 16.8585 19.4824 16.7421 19.5988C16.6257 19.7152 16.4774 19.7945 16.3159 19.8266C16.1544 19.8587 15.987 19.8422 15.8349 19.7792C15.6828 19.7162 15.5528 19.6095 15.4614 19.4726C15.3699 19.3357 15.3211 19.1747 15.3211 19.0101C15.3211 18.9008 15.3426 18.7925 15.3845 18.6915C15.4263 18.5906 15.4876 18.4988 15.5649 18.4215C15.6422 18.3442 15.734 18.2829 15.835 18.2411C15.936 18.1993 16.0442 18.1777 16.1535 18.1777Z" fill="white"/>
<path d="M16.1533 22.095C16.6129 22.095 16.9854 21.7224 16.9854 21.2628C16.9854 20.8032 16.6129 20.4307 16.1533 20.4307C15.6937 20.4307 15.3211 20.8032 15.3211 21.2628C15.3211 21.7224 15.6937 22.095 16.1533 22.095Z" fill="white"/>
<path d="M16.1533 24.3469C16.6129 24.3469 16.9854 23.9744 16.9854 23.5148C16.9854 23.0552 16.6129 22.6826 16.1533 22.6826C15.6937 22.6826 15.3211 23.0552 15.3211 23.5148C15.3211 23.9744 15.6937 24.3469 16.1533 24.3469Z" fill="white"/>
<path fill-rule="evenodd" clip-rule="evenodd" d="M16.1535 24.9355C16.3182 24.9355 16.4791 24.9844 16.616 25.0758C16.7529 25.1673 16.8596 25.2973 16.9226 25.4494C16.9856 25.6015 17.0021 25.7689 16.9699 25.9304C16.9378 26.0918 16.8585 26.2401 16.7421 26.3566C16.6257 26.473 16.4774 26.5523 16.3159 26.5844C16.1544 26.6165 15.9871 26.6 15.835 26.537C15.6829 26.474 15.5529 26.3673 15.4614 26.2304C15.3699 26.0935 15.3211 25.9326 15.3211 25.768C15.3211 25.5472 15.4088 25.3355 15.5649 25.1794C15.721 25.0232 15.9327 24.9355 16.1535 24.9355Z" fill="white"/>
<path d="M16.1533 28.8528C16.6129 28.8528 16.9854 28.4802 16.9854 28.0206C16.9854 27.561 16.6129 27.1885 16.1533 27.1885C15.6937 27.1885 15.3211 27.561 15.3211 28.0206C15.3211 28.4802 15.6937 28.8528 16.1533 28.8528Z" fill="white"/>
<path d="M16.1533 31.1038C16.6129 31.1038 16.9854 30.7312 16.9854 30.2716C16.9854 29.812 16.6129 29.4395 16.1533 29.4395C15.6937 29.4395 15.3211 29.812 15.3211 30.2716C15.3211 30.7312 15.6937 31.1038 16.1533 31.1038Z" fill="white"/>
<path fill-rule="evenodd" clip-rule="evenodd" d="M16.1535 31.6924C16.3182 31.6924 16.4791 31.7412 16.616 31.8327C16.7529 31.9241 16.8596 32.0541 16.9226 32.2062C16.9856 32.3583 17.0021 32.5257 16.9699 32.6872C16.9378 32.8487 16.8585 32.997 16.7421 33.1134C16.6257 33.2298 16.4774 33.3091 16.3159 33.3412C16.1544 33.3733 15.9871 33.3568 15.835 33.2938C15.6829 33.2308 15.5529 33.1241 15.4614 32.9873C15.3699 32.8504 15.3211 32.6894 15.3211 32.5248C15.3211 32.304 15.4088 32.0923 15.5649 31.9362C15.721 31.7801 15.9327 31.6924 16.1535 31.6924Z" fill="white"/>
<path d="M16.1533 35.6087C16.6129 35.6087 16.9854 35.2361 16.9854 34.7765C16.9854 34.3169 16.6129 33.9443 16.1533 33.9443C15.6937 33.9443 15.3211 34.3169 15.3211 34.7765C15.3211 35.2361 15.6937 35.6087 16.1533 35.6087Z" fill="white"/>
<path d="M18.3079 10.8343C18.7675 10.8343 19.14 10.4617 19.14 10.0021C19.14 9.54249 18.7675 9.16992 18.3079 9.16992C17.8483 9.16992 17.4757 9.54249 17.4757 10.0021C17.4757 10.4617 17.8483 10.8343 18.3079 10.8343Z" fill="white"/>
<path fill-rule="evenodd" clip-rule="evenodd" d="M18.3079 11.4209C18.4725 11.4208 18.6335 11.4696 18.7704 11.5611C18.9073 11.6525 19.0141 11.7825 19.0771 11.9346C19.1401 12.0867 19.1567 12.2541 19.1246 12.4156C19.0925 12.5771 19.0132 12.7254 18.8968 12.8419C18.7804 12.9583 18.632 13.0376 18.4705 13.0697C18.309 13.1019 18.1417 13.0854 17.9895 13.0223C17.8374 12.9593 17.7074 12.8526 17.616 12.7157C17.5245 12.5788 17.4757 12.4178 17.4757 12.2532C17.4757 12.0325 17.5634 11.8208 17.7195 11.6648C17.8755 11.5087 18.0872 11.421 18.3079 11.4209Z" fill="white"/>
<path d="M18.3079 15.3391C18.7675 15.3391 19.14 14.9666 19.14 14.507C19.14 14.0474 18.7675 13.6748 18.3079 13.6748C17.8483 13.6748 17.4757 14.0474 17.4757 14.507C17.4757 14.9666 17.8483 15.3391 18.3079 15.3391Z" fill="white"/>
<path d="M18.3079 17.5901C18.7675 17.5901 19.14 17.2175 19.14 16.7579C19.14 16.2984 18.7675 15.9258 18.3079 15.9258C17.8483 15.9258 17.4757 16.2984 17.4757 16.7579C17.4757 17.2175 17.8483 17.5901 18.3079 17.5901Z" fill="white"/>
<path fill-rule="evenodd" clip-rule="evenodd" d="M18.3079 18.1777C18.4725 18.1777 18.6335 18.2265 18.7704 18.3179C18.9073 18.4093 19.0141 18.5393 19.0771 18.6914C19.1401 18.8435 19.1567 19.0109 19.1246 19.1724C19.0925 19.3339 19.0132 19.4822 18.8968 19.5987C18.7804 19.7151 18.6321 19.7944 18.4706 19.8266C18.3091 19.8587 18.1417 19.8422 17.9896 19.7792C17.8375 19.7162 17.7075 19.6095 17.616 19.4726C17.5245 19.3357 17.4757 19.1747 17.4757 19.0101C17.4757 18.7894 17.5634 18.5777 17.7194 18.4216C17.8755 18.2655 18.0872 18.1778 18.3079 18.1777Z" fill="white"/>
<path d="M18.3079 22.095C18.7675 22.095 19.14 21.7224 19.14 21.2628C19.14 20.8032 18.7675 20.4307 18.3079 20.4307C17.8483 20.4307 17.4757 20.8032 17.4757 21.2628C17.4757 21.7224 17.8483 22.095 18.3079 22.095Z" fill="white"/>
<path d="M18.3079 24.3469C18.7675 24.3469 19.14 23.9744 19.14 23.5148C19.14 23.0552 18.7675 22.6826 18.3079 22.6826C17.8483 22.6826 17.4757 23.0552 17.4757 23.5148C17.4757 23.9744 17.8483 24.3469 18.3079 24.3469Z" fill="white"/>
<path fill-rule="evenodd" clip-rule="evenodd" d="M18.3079 24.9355C18.4725 24.9355 18.6335 24.9843 18.7704 25.0757C18.9073 25.1671 19.0141 25.2971 19.0771 25.4492C19.1401 25.6013 19.1567 25.7687 19.1246 25.9302C19.0925 26.0917 19.0132 26.24 18.8968 26.3565C18.7804 26.4729 18.6321 26.5522 18.4706 26.5844C18.3091 26.6165 18.1417 26.6 17.9896 26.537C17.8375 26.474 17.7075 26.3673 17.616 26.2304C17.5245 26.0936 17.4757 25.9326 17.4757 25.768C17.4757 25.5472 17.5634 25.3355 17.7194 25.1794C17.8755 25.0233 18.0871 24.9356 18.3079 24.9355Z" fill="white"/>
<path d="M18.3079 28.8528C18.7675 28.8528 19.14 28.4802 19.14 28.0206C19.14 27.561 18.7675 27.1885 18.3079 27.1885C17.8483 27.1885 17.4757 27.561 17.4757 28.0206C17.4757 28.4802 17.8483 28.8528 18.3079 28.8528Z" fill="white"/>
<path d="M18.3079 31.1038C18.7675 31.1038 19.14 30.7312 19.14 30.2716C19.14 29.812 18.7675 29.4395 18.3079 29.4395C17.8483 29.4395 17.4757 29.812 17.4757 30.2716C17.4757 30.7312 17.8483 31.1038 18.3079 31.1038Z" fill="white"/>
<path fill-rule="evenodd" clip-rule="evenodd" d="M18.3079 31.6924C18.4725 31.6923 18.6335 31.7411 18.7704 31.8325C18.9073 31.924 19.0141 32.054 19.0771 32.2061C19.1401 32.3582 19.1567 32.5256 19.1246 32.687C19.0925 32.8485 19.0132 32.9969 18.8968 33.1133C18.7804 33.2298 18.6321 33.3091 18.4706 33.3412C18.3091 33.3733 18.1417 33.3569 17.9896 33.2939C17.8375 33.2309 17.7075 33.1242 17.616 32.9873C17.5245 32.8504 17.4757 32.6894 17.4757 32.5248C17.4757 32.3041 17.5634 32.0924 17.7194 31.9363C17.8755 31.7802 18.0871 31.6924 18.3079 31.6924Z" fill="white"/>
<path d="M18.3079 35.6087C18.7675 35.6087 19.14 35.2361 19.14 34.7765C19.14 34.3169 18.7675 33.9443 18.3079 33.9443C17.8483 33.9443 17.4757 34.3169 17.4757 34.7765C17.4757 35.2361 17.8483 35.6087 18.3079 35.6087Z" fill="white"/>
<path d="M20.4623 10.8343C20.9219 10.8343 21.2945 10.4617 21.2945 10.0021C21.2945 9.54249 20.9219 9.16992 20.4623 9.16992C20.0027 9.16992 19.6301 9.54249 19.6301 10.0021C19.6301 10.4617 20.0027 10.8343 20.4623 10.8343Z" fill="white"/>
<path fill-rule="evenodd" clip-rule="evenodd" d="M20.4623 11.4209C20.6269 11.4209 20.7879 11.4697 20.9248 11.5612C21.0616 11.6527 21.1683 11.7827 21.2313 11.9348C21.2943 12.0869 21.3108 12.2542 21.2787 12.4157C21.2466 12.5772 21.1673 12.7255 21.0509 12.8419C20.9345 12.9583 20.7862 13.0376 20.6247 13.0697C20.4632 13.1018 20.2958 13.0854 20.1437 13.0224C19.9916 12.9594 19.8616 12.8527 19.7702 12.7158C19.6787 12.5789 19.6299 12.4179 19.6299 12.2533C19.6299 12.144 19.6514 12.0357 19.6932 11.9348C19.7351 11.8338 19.7964 11.742 19.8737 11.6647C19.951 11.5874 20.0427 11.5261 20.1437 11.4842C20.2447 11.4424 20.353 11.4209 20.4623 11.4209Z" fill="white"/>
<path d="M20.4932 14.6173C20.7538 14.6173 20.965 14.4061 20.965 14.1456C20.965 13.885 20.7538 13.6738 20.4932 13.6738C20.2327 13.6738 20.0215 13.885 20.0215 14.1456C20.0215 14.4061 20.2327 14.6173 20.4932 14.6173Z" fill="white"/>
<path d="M22.6467 14.6165C22.9068 14.6165 23.1176 14.4057 23.1176 14.1456C23.1176 13.8856 22.9068 13.6748 22.6467 13.6748C22.3867 13.6748 22.1759 13.8856 22.1759 14.1456C22.1759 14.4057 22.3867 14.6165 22.6467 14.6165Z" fill="white"/>
<path d="M24.7034 14.6173C24.964 14.6173 25.1752 14.4061 25.1752 14.1456C25.1752 13.885 24.964 13.6738 24.7034 13.6738C24.4429 13.6738 24.2317 13.885 24.2317 14.1456C24.2317 14.4061 24.4429 14.6173 24.7034 14.6173Z" fill="white"/>
<path d="M20.4623 24.3469C20.9219 24.3469 21.2945 23.9744 21.2945 23.5148C21.2945 23.0552 20.9219 22.6826 20.4623 22.6826C20.0027 22.6826 19.6301 23.0552 19.6301 23.5148C19.6301 23.9744 20.0027 24.3469 20.4623 24.3469Z" fill="white"/>
<path fill-rule="evenodd" clip-rule="evenodd" d="M20.4623 24.9355C20.6269 24.9355 20.7879 24.9844 20.9248 25.0758C21.0616 25.1673 21.1683 25.2973 21.2313 25.4494C21.2943 25.6015 21.3108 25.7689 21.2787 25.9304C21.2466 26.0918 21.1673 26.2401 21.0509 26.3566C20.9345 26.473 20.7862 26.5523 20.6247 26.5844C20.4632 26.6165 20.2958 26.6 20.1437 26.537C19.9916 26.474 19.8616 26.3673 19.7702 26.2304C19.6787 26.0935 19.6299 25.9326 19.6299 25.768C19.6299 25.6586 19.6514 25.5504 19.6932 25.4494C19.7351 25.3484 19.7964 25.2566 19.8737 25.1793C19.951 25.102 20.0427 25.0407 20.1437 24.9989C20.2447 24.9571 20.353 24.9355 20.4623 24.9355Z" fill="white"/>
<path fill-rule="evenodd" clip-rule="evenodd" d="M22.6165 9.16895C22.7812 9.16893 22.9421 9.21774 23.079 9.30919C23.2159 9.40064 23.3226 9.53063 23.3856 9.68272C23.4486 9.83481 23.4651 10.0022 23.433 10.1636C23.4009 10.3251 23.3217 10.4734 23.2053 10.5899C23.0889 10.7063 22.9406 10.7856 22.7791 10.8177C22.6177 10.8499 22.4503 10.8334 22.2982 10.7705C22.1461 10.7075 22.0161 10.6008 21.9246 10.464C21.8331 10.3271 21.7842 10.1662 21.7842 10.0015C21.7842 9.89222 21.8057 9.78396 21.8475 9.68295C21.8893 9.58194 21.9506 9.49016 22.0279 9.41284C22.1052 9.33553 22.197 9.27419 22.298 9.23234C22.399 9.1905 22.5072 9.16895 22.6165 9.16895Z" fill="white"/>
<path d="M22.6166 13.0852C23.0762 13.0852 23.4488 12.7127 23.4488 12.2531C23.4488 11.7935 23.0762 11.4209 22.6166 11.4209C22.1571 11.4209 21.7845 11.7935 21.7845 12.2531C21.7845 12.7127 22.1571 13.0852 22.6166 13.0852Z" fill="white"/>
<path fill-rule="evenodd" clip-rule="evenodd" d="M22.6165 22.6826C22.7812 22.6826 22.9421 22.7314 23.079 22.8229C23.2159 22.9143 23.3226 23.0443 23.3856 23.1964C23.4486 23.3485 23.4651 23.5159 23.433 23.6774C23.4009 23.8389 23.3216 23.9872 23.2052 24.1036C23.0888 24.22 22.9405 24.2993 22.779 24.3314C22.6175 24.3636 22.4502 24.3471 22.2981 24.2841C22.1459 24.2211 22.0159 24.1144 21.9245 23.9775C21.833 23.8406 21.7842 23.6797 21.7842 23.515C21.7842 23.2943 21.8719 23.0826 22.028 22.9264C22.1841 22.7703 22.3958 22.6826 22.6165 22.6826Z" fill="white"/>
<path d="M22.6166 26.5999C23.0762 26.5999 23.4488 26.2273 23.4488 25.7677C23.4488 25.3081 23.0762 24.9355 22.6166 24.9355C22.1571 24.9355 21.7845 25.3081 21.7845 25.7677C21.7845 26.2273 22.1571 26.5999 22.6166 26.5999Z" fill="white"/>
<path d="M24.7714 10.8343C25.231 10.8343 25.6035 10.4617 25.6035 10.0021C25.6035 9.54249 25.231 9.16992 24.7714 9.16992C24.3118 9.16992 23.9392 9.54249 23.9392 10.0021C23.9392 10.4617 24.3118 10.8343 24.7714 10.8343Z" fill="white"/>
<path fill-rule="evenodd" clip-rule="evenodd" d="M24.7711 11.4209C24.9357 11.4209 25.0966 11.4697 25.2335 11.5612C25.3704 11.6527 25.4771 11.7827 25.5401 11.9348C25.6031 12.0869 25.6196 12.2542 25.5875 12.4157C25.5554 12.5772 25.4761 12.7255 25.3597 12.8419C25.2433 12.9583 25.0949 13.0376 24.9335 13.0697C24.772 13.1018 24.6046 13.0854 24.4525 13.0224C24.3004 12.9594 24.1704 12.8527 24.0789 12.7158C23.9875 12.5789 23.9387 12.4179 23.9387 12.2533C23.9387 12.144 23.9602 12.0357 24.002 11.9348C24.0438 11.8338 24.1052 11.742 24.1824 11.6647C24.2597 11.5874 24.3515 11.5261 24.4525 11.4842C24.5535 11.4424 24.6618 11.4209 24.7711 11.4209Z" fill="white"/>
<path d="M24.7714 24.3469C25.231 24.3469 25.6035 23.9744 25.6035 23.5148C25.6035 23.0552 25.231 22.6826 24.7714 22.6826C24.3118 22.6826 23.9392 23.0552 23.9392 23.5148C23.9392 23.9744 24.3118 24.3469 24.7714 24.3469Z" fill="white"/>
<path fill-rule="evenodd" clip-rule="evenodd" d="M24.7711 24.9355C24.9357 24.9355 25.0966 24.9844 25.2335 25.0758C25.3704 25.1673 25.4771 25.2973 25.5401 25.4494C25.6031 25.6015 25.6196 25.7689 25.5875 25.9304C25.5554 26.0918 25.4761 26.2401 25.3597 26.3566C25.2433 26.473 25.0949 26.5523 24.9335 26.5844C24.772 26.6165 24.6046 26.6 24.4525 26.537C24.3004 26.474 24.1704 26.3673 24.0789 26.2304C23.9875 26.0935 23.9387 25.9326 23.9387 25.768C23.9387 25.6586 23.9602 25.5504 24.002 25.4494C24.0438 25.3484 24.1052 25.2566 24.1824 25.1793C24.2597 25.102 24.3515 25.0407 24.4525 24.9989C24.5535 24.9571 24.6618 24.9355 24.7711 24.9355Z" fill="white"/>
<path d="M25.0251 28.3451C25.3445 28.3451 25.6034 28.0862 25.6034 27.7668C25.6034 27.4474 25.3445 27.1885 25.0251 27.1885C24.7056 27.1885 24.4467 27.4474 24.4467 27.7668C24.4467 28.0862 24.7056 28.3451 25.0251 28.3451Z" fill="white"/>
<path fill-rule="evenodd" clip-rule="evenodd" d="M25.5208 29.1455C25.5953 29.1455 25.668 29.1676 25.7299 29.2089C25.7918 29.2503 25.8401 29.3091 25.8686 29.3779C25.8971 29.4466 25.9045 29.5223 25.89 29.5953C25.8755 29.6684 25.8396 29.7354 25.787 29.7881C25.7343 29.8407 25.6673 29.8766 25.5942 29.8911C25.5212 29.9056 25.4455 29.8981 25.3768 29.8697C25.308 29.8412 25.2492 29.7929 25.2078 29.731C25.1665 29.6691 25.1444 29.5964 25.1444 29.5219C25.1444 29.4725 25.1541 29.4235 25.1731 29.3779C25.192 29.3322 25.2197 29.2907 25.2547 29.2558C25.2896 29.2208 25.3311 29.1931 25.3768 29.1742C25.4224 29.1552 25.4714 29.1455 25.5208 29.1455Z" fill="white"/>
<path d="M26.8676 10.8344C27.187 10.8344 27.446 10.5755 27.446 10.2561C27.446 9.93666 27.187 9.67773 26.8676 9.67773C26.5482 9.67773 26.2893 9.93666 26.2893 10.2561C26.2893 10.5755 26.5482 10.8344 26.8676 10.8344Z" fill="white"/>
<path fill-rule="evenodd" clip-rule="evenodd" d="M26.9254 11.4209C27.0901 11.4209 27.251 11.4697 27.3879 11.5612C27.5248 11.6526 27.6315 11.7826 27.6945 11.9347C27.7575 12.0868 27.774 12.2542 27.7419 12.4157C27.7098 12.5771 27.6305 12.7255 27.5141 12.8419C27.3977 12.9583 27.2494 13.0376 27.0879 13.0697C26.9264 13.1018 26.7591 13.0854 26.607 13.0224C26.4548 12.9594 26.3248 12.8527 26.2334 12.7158C26.1419 12.5789 26.0931 12.4179 26.0931 12.2533C26.0931 12.0326 26.1808 11.8208 26.3369 11.6647C26.493 11.5086 26.7047 11.4209 26.9254 11.4209Z" fill="white"/>
<path d="M26.9257 15.3391C27.3853 15.3391 27.7578 14.9666 27.7578 14.507C27.7578 14.0474 27.3853 13.6748 26.9257 13.6748C26.4661 13.6748 26.0935 14.0474 26.0935 14.507C26.0935 14.9666 26.4661 15.3391 26.9257 15.3391Z" fill="white"/>
<path d="M27.1797 22.0942C27.4991 22.0942 27.758 21.8352 27.758 21.5158C27.758 21.1964 27.4991 20.9375 27.1797 20.9375C26.8602 20.9375 26.6013 21.1964 26.6013 21.5158C26.6013 21.8352 26.8602 22.0942 27.1797 22.0942Z" fill="white"/>
<path d="M26.9257 24.3469C27.3853 24.3469 27.7578 23.9744 27.7578 23.5148C27.7578 23.0552 27.3853 22.6826 26.9257 22.6826C26.4661 22.6826 26.0935 23.0552 26.0935 23.5148C26.0935 23.9744 26.4661 24.3469 26.9257 24.3469Z" fill="white"/>
<path fill-rule="evenodd" clip-rule="evenodd" d="M26.9254 24.9355C27.0901 24.9355 27.251 24.9843 27.3879 25.0758C27.5248 25.1673 27.6315 25.2973 27.6945 25.4494C27.7575 25.6015 27.774 25.7688 27.7419 25.9303C27.7098 26.0918 27.6305 26.2401 27.5141 26.3565C27.3977 26.473 27.2494 26.5522 27.0879 26.5844C26.9264 26.6165 26.7591 26.6 26.607 26.537C26.4548 26.474 26.3248 26.3673 26.2334 26.2304C26.1419 26.0935 26.0931 25.9326 26.0931 25.768C26.0931 25.5472 26.1808 25.3355 26.3369 25.1794C26.493 25.0233 26.7047 24.9356 26.9254 24.9355Z" fill="white"/>
<path d="M26.9257 28.8528C27.3853 28.8528 27.7578 28.4802 27.7578 28.0206C27.7578 27.561 27.3853 27.1885 26.9257 27.1885C26.4661 27.1885 26.0935 27.561 26.0935 28.0206C26.0935 28.4802 26.4661 28.8528 26.9257 28.8528Z" fill="white"/>
<path d="M26.9257 31.1038C27.3853 31.1038 27.7578 30.7312 27.7578 30.2716C27.7578 29.812 27.3853 29.4395 26.9257 29.4395C26.4661 29.4395 26.0935 29.812 26.0935 30.2716C26.0935 30.7312 26.4661 31.1038 26.9257 31.1038Z" fill="white"/>
<path fill-rule="evenodd" clip-rule="evenodd" d="M27.219 31.6924C27.3836 31.6924 27.5446 31.7412 27.6815 31.8327C27.8184 31.9241 27.9251 32.0541 27.9881 32.2062C28.0511 32.3583 28.0675 32.5257 28.0354 32.6872C28.0033 32.8487 27.924 32.997 27.8076 33.1134C27.6912 33.2298 27.5429 33.3091 27.3814 33.3412C27.2199 33.3733 27.0526 33.3568 26.9005 33.2938C26.7484 33.2308 26.6184 33.1241 26.5269 32.9873C26.4354 32.8504 26.3866 32.6894 26.3866 32.5248C26.3866 32.304 26.4743 32.0923 26.6304 31.9362C26.7865 31.7801 26.9982 31.6924 27.219 31.6924Z" fill="white"/>
<path d="M27.4256 34.6089C27.6091 34.6089 27.7579 34.4601 27.7579 34.2766C27.7579 34.0931 27.6091 33.9443 27.4256 33.9443C27.2421 33.9443 27.0934 34.0931 27.0934 34.2766C27.0934 34.4601 27.2421 34.6089 27.4256 34.6089Z" fill="white"/>
<path d="M28.6561 10.8333C28.8814 10.8333 29.064 10.6507 29.064 10.4254C29.064 10.2002 28.8814 10.0176 28.6561 10.0176C28.4309 10.0176 28.2483 10.2002 28.2483 10.4254C28.2483 10.6507 28.4309 10.8333 28.6561 10.8333Z" fill="white"/>
<path fill-rule="evenodd" clip-rule="evenodd" d="M29.0798 11.4209C29.2445 11.4209 29.4054 11.4697 29.5423 11.5612C29.6792 11.6527 29.7859 11.7827 29.8489 11.9348C29.9119 12.0869 29.9284 12.2542 29.8963 12.4157C29.8641 12.5772 29.7849 12.7255 29.6685 12.8419C29.552 12.9583 29.4037 13.0376 29.2422 13.0697C29.0808 13.1018 28.9134 13.0854 28.7613 13.0224C28.6092 12.9594 28.4792 12.8527 28.3877 12.7158C28.2963 12.5789 28.2474 12.4179 28.2474 12.2533C28.2474 12.0325 28.3351 11.8208 28.4912 11.6647C28.6474 11.5086 28.8591 11.4209 29.0798 11.4209Z" fill="white"/>
<path d="M29.0805 15.3391C29.54 15.3391 29.9126 14.9666 29.9126 14.507C29.9126 14.0474 29.54 13.6748 29.0805 13.6748C28.6209 13.6748 28.2483 14.0474 28.2483 14.507C28.2483 14.9666 28.6209 15.3391 29.0805 15.3391Z" fill="white"/>
<path d="M29.0805 17.5901C29.54 17.5901 29.9126 17.2175 29.9126 16.7579C29.9126 16.2984 29.54 15.9258 29.0805 15.9258C28.6209 15.9258 28.2483 16.2984 28.2483 16.7579C28.2483 17.2175 28.6209 17.5901 29.0805 17.5901Z" fill="white"/>
<path fill-rule="evenodd" clip-rule="evenodd" d="M29.0798 18.1777C29.2445 18.1777 29.4054 18.2266 29.5423 18.318C29.6792 18.4095 29.7859 18.5395 29.8489 18.6916C29.9119 18.8437 29.9284 19.0111 29.8963 19.1726C29.8641 19.334 29.7849 19.4824 29.6684 19.5988C29.552 19.7152 29.4037 19.7945 29.2422 19.8266C29.0807 19.8587 28.9134 19.8422 28.7613 19.7792C28.6092 19.7162 28.4792 19.6095 28.3877 19.4726C28.2962 19.3357 28.2474 19.1747 28.2474 19.0101C28.2474 18.9008 28.269 18.7925 28.3108 18.6915C28.3526 18.5906 28.414 18.4988 28.4912 18.4215C28.5685 18.3442 28.6603 18.2829 28.7613 18.2411C28.8623 18.1993 28.9705 18.1777 29.0798 18.1777Z" fill="white"/>
<path d="M29.0805 22.095C29.54 22.095 29.9126 21.7224 29.9126 21.2628C29.9126 20.8032 29.54 20.4307 29.0805 20.4307C28.6209 20.4307 28.2483 20.8032 28.2483 21.2628C28.2483 21.7224 28.6209 22.095 29.0805 22.095Z" fill="white"/>
<path d="M29.0805 24.3469C29.54 24.3469 29.9126 23.9744 29.9126 23.5148C29.9126 23.0552 29.54 22.6826 29.0805 22.6826C28.6209 22.6826 28.2483 23.0552 28.2483 23.5148C28.2483 23.9744 28.6209 24.3469 29.0805 24.3469Z" fill="white"/>
<path d="M28.8586 26.3515C29.1957 26.3515 29.4689 26.0783 29.4689 25.7412C29.4689 25.4041 29.1957 25.1309 28.8586 25.1309C28.5215 25.1309 28.2483 25.4041 28.2483 25.7412C28.2483 26.0783 28.5215 26.3515 28.8586 26.3515Z" fill="white"/>
<path d="M29.0805 28.8528C29.54 28.8528 29.9126 28.4802 29.9126 28.0206C29.9126 27.561 29.54 27.1885 29.0805 27.1885C28.6209 27.1885 28.2483 27.561 28.2483 28.0206C28.2483 28.4802 28.6209 28.8528 29.0805 28.8528Z" fill="white"/>
<path d="M29.0805 31.1038C29.54 31.1038 29.9126 30.7312 29.9126 30.2716C29.9126 29.812 29.54 29.4395 29.0805 29.4395C28.6209 29.4395 28.2483 29.812 28.2483 30.2716C28.2483 30.7312 28.6209 31.1038 29.0805 31.1038Z" fill="white"/>
<path fill-rule="evenodd" clip-rule="evenodd" d="M29.3734 31.6924C29.538 31.6924 29.6989 31.7412 29.8358 31.8326C29.9727 31.9241 30.0794 32.0541 30.1425 32.2062C30.2055 32.3583 30.222 32.5257 30.1899 32.6872C30.1577 32.8486 30.0785 32.997 29.9621 33.1134C29.8456 33.2298 29.6973 33.3091 29.5358 33.3412C29.3744 33.3733 29.207 33.3569 29.0549 33.2939C28.9028 33.2308 28.7728 33.1242 28.6813 32.9873C28.5898 32.8504 28.541 32.6894 28.541 32.5248C28.541 32.304 28.6287 32.0923 28.7848 31.9362C28.9409 31.7801 29.1526 31.6924 29.3734 31.6924Z" fill="white"/>
<path d="M29.0805 35.6087C29.54 35.6087 29.9126 35.2361 29.9126 34.7765C29.9126 34.3169 29.54 33.9443 29.0805 33.9443C28.6209 33.9443 28.2483 34.3169 28.2483 34.7765C28.2483 35.2361 28.6209 35.6087 29.0805 35.6087Z" fill="white"/>
<path d="M31.1011 13.0855C31.4868 13.0855 31.7996 12.7727 31.7996 12.387C31.7996 12.0012 31.4868 11.6885 31.1011 11.6885C30.7153 11.6885 30.4026 12.0012 30.4026 12.387C30.4026 12.7727 30.7153 13.0855 31.1011 13.0855Z" fill="white"/>
<path fill-rule="evenodd" clip-rule="evenodd" d="M31.2342 13.6738C31.3988 13.6738 31.5598 13.7226 31.6967 13.8141C31.8336 13.9056 31.9403 14.0356 32.0033 14.1877C32.0663 14.3398 32.0828 14.5071 32.0507 14.6686C32.0186 14.8301 31.9393 14.9784 31.8229 15.0948C31.7065 15.2113 31.5581 15.2905 31.3966 15.3227C31.2352 15.3548 31.0678 15.3383 30.9157 15.2753C30.7636 15.2123 30.6336 15.1056 30.5421 14.9687C30.4507 14.8318 30.4018 14.6708 30.4019 14.5062C30.4019 14.2854 30.4896 14.0737 30.6457 13.9176C30.8018 13.7615 31.0135 13.6738 31.2342 13.6738Z" fill="white"/>
<path fill-rule="evenodd" clip-rule="evenodd" d="M31.2342 15.9268C31.3988 15.9267 31.5598 15.9756 31.6967 16.067C31.8336 16.1585 31.9403 16.2885 32.0033 16.4406C32.0663 16.5927 32.0828 16.7601 32.0507 16.9215C32.0186 17.083 31.9393 17.2314 31.8229 17.3478C31.7065 17.4642 31.5581 17.5435 31.3966 17.5756C31.2352 17.6077 31.0678 17.5912 30.9157 17.5282C30.7636 17.4652 30.6336 17.3585 30.5421 17.2216C30.4507 17.0847 30.4018 16.9237 30.4019 16.7591C30.4019 16.5384 30.4895 16.3266 30.6456 16.1705C30.8017 16.0145 31.0135 15.9268 31.2342 15.9268Z" fill="white"/>
<path d="M31.2348 19.843C31.6943 19.843 32.0669 19.4705 32.0669 19.0109C32.0669 18.5513 31.6943 18.1787 31.2348 18.1787C30.7752 18.1787 30.4026 18.5513 30.4026 19.0109C30.4026 19.4705 30.7752 19.843 31.2348 19.843Z" fill="white"/>
<path fill-rule="evenodd" clip-rule="evenodd" d="M31.2342 20.4307C31.3988 20.4307 31.5598 20.4795 31.6967 20.5709C31.8336 20.6624 31.9403 20.7924 32.0033 20.9445C32.0663 21.0966 32.0828 21.264 32.0507 21.4254C32.0186 21.5869 31.9393 21.7352 31.8229 21.8517C31.7065 21.9681 31.5582 22.0474 31.3967 22.0795C31.2352 22.1116 31.0678 22.0951 30.9157 22.0321C30.7636 21.9691 30.6336 21.8624 30.5421 21.7255C30.4507 21.5887 30.4019 21.4277 30.4019 21.2631C30.4019 21.0423 30.4895 20.8306 30.6456 20.6745C30.8017 20.5184 31.0134 20.4307 31.2342 20.4307Z" fill="white"/>
<path fill-rule="evenodd" clip-rule="evenodd" d="M31.2342 22.6826C31.3988 22.6826 31.5598 22.7314 31.6967 22.8229C31.8336 22.9143 31.9403 23.0443 32.0033 23.1964C32.0663 23.3485 32.0828 23.5159 32.0507 23.6774C32.0186 23.8389 31.9393 23.9872 31.8229 24.1036C31.7065 24.22 31.5582 24.2993 31.3967 24.3314C31.2352 24.3636 31.0678 24.3471 30.9157 24.2841C30.7636 24.2211 30.6336 24.1144 30.5421 23.9775C30.4507 23.8406 30.4019 23.6797 30.4019 23.515C30.4019 23.2943 30.4895 23.0826 30.6456 22.9264C30.8017 22.7703 31.0134 22.6826 31.2342 22.6826Z" fill="white"/>
<path d="M30.9625 31.1032C31.2717 31.1032 31.5224 30.8526 31.5224 30.5433C31.5224 30.2341 31.2717 29.9834 30.9625 29.9834C30.6533 29.9834 30.4026 30.2341 30.4026 30.5433C30.4026 30.8526 30.6533 31.1032 30.9625 31.1032Z" fill="white"/>
<path fill-rule="evenodd" clip-rule="evenodd" d="M31.5282 31.6924C31.6928 31.6924 31.8538 31.7412 31.9907 31.8327C32.1276 31.9241 32.2343 32.0541 32.2973 32.2062C32.3603 32.3583 32.3767 32.5257 32.3446 32.6872C32.3125 32.8487 32.2332 32.997 32.1168 33.1134C32.0004 33.2298 31.8521 33.3091 31.6906 33.3412C31.5291 33.3733 31.3618 33.3568 31.2097 33.2938C31.0576 33.2308 30.9276 33.1241 30.8361 32.9873C30.7446 32.8504 30.6958 32.6894 30.6958 32.5248C30.6958 32.304 30.7835 32.0923 30.9396 31.9362C31.0957 31.7801 31.3074 31.6924 31.5282 31.6924Z" fill="white"/>
<path fill-rule="evenodd" clip-rule="evenodd" d="M31.2342 33.9443C31.3989 33.9443 31.5598 33.9931 31.6967 34.0846C31.8336 34.1761 31.9403 34.3061 32.0033 34.4582C32.0663 34.6103 32.0828 34.7777 32.0507 34.9392C32.0185 35.1007 31.9392 35.249 31.8228 35.3654C31.7064 35.4818 31.558 35.5611 31.3965 35.5932C31.235 35.6253 31.0677 35.6088 30.9156 35.5457C30.7635 35.4827 30.6335 35.376 30.542 35.239C30.4506 35.1021 30.4018 34.9411 30.4019 34.7765C30.4019 34.5558 30.4896 34.3441 30.6457 34.1881C30.8018 34.032 31.0135 33.9444 31.2342 33.9443Z" fill="white"/>
<path d="M33.0405 15.3379C33.3075 15.3379 33.5239 15.1215 33.5239 14.8545C33.5239 14.5875 33.3075 14.3711 33.0405 14.3711C32.7735 14.3711 32.5571 14.5875 32.5571 14.8545C32.5571 15.1215 32.7735 15.3379 33.0405 15.3379Z" fill="white"/>
<path d="M33.3892 17.5901C33.8488 17.5901 34.2214 17.2175 34.2214 16.7579C34.2214 16.2984 33.8488 15.9258 33.3892 15.9258C32.9296 15.9258 32.5571 16.2984 32.5571 16.7579C32.5571 17.2175 32.9296 17.5901 33.3892 17.5901Z" fill="white"/>
<path fill-rule="evenodd" clip-rule="evenodd" d="M33.3886 18.1777C33.5533 18.1777 33.7142 18.2266 33.8511 18.318C33.988 18.4095 34.0947 18.5395 34.1577 18.6916C34.2207 18.8437 34.2372 19.0111 34.205 19.1726C34.1729 19.334 34.0936 19.4824 33.9772 19.5988C33.8608 19.7152 33.7125 19.7945 33.551 19.8266C33.3895 19.8587 33.2221 19.8422 33.07 19.7792C32.9179 19.7162 32.7879 19.6095 32.6965 19.4726C32.605 19.3357 32.5562 19.1747 32.5562 19.0101C32.5562 18.9008 32.5777 18.7925 32.6196 18.6915C32.6614 18.5906 32.7227 18.4988 32.8 18.4215C32.8773 18.3442 32.9691 18.2829 33.0701 18.2411C33.1711 18.1993 33.2793 18.1777 33.3886 18.1777Z" fill="white"/>
<path d="M33.117 21.5505C33.4262 21.5505 33.6769 21.2998 33.6769 20.9906C33.6769 20.6814 33.4262 20.4307 33.117 20.4307C32.8078 20.4307 32.5571 20.6814 32.5571 20.9906C32.5571 21.2998 32.8078 21.5505 33.117 21.5505Z" fill="white"/>
<path d="M33.0221 35.2171C33.2789 35.2171 33.4871 35.0089 33.4871 34.7521C33.4871 34.4953 33.2789 34.2871 33.0221 34.2871C32.7653 34.2871 32.5571 34.4953 32.5571 34.7521C32.5571 35.0089 32.7653 35.2171 33.0221 35.2171Z" fill="white"/>
</g>
</g>
<defs>
<filter id="filter0_d_0_4700" x="7.60631" y="6.38879" width="32.1754" height="37.5611" filterUnits="userSpaceOnUse" color-interpolation-filters="sRGB">
<feFlood flood-opacity="0" result="BackgroundImageFix"/>
<feColorMatrix in="SourceAlpha" type="matrix" values="0 0 0 0 0 0 0 0 0 0 0 0 0 0 0 0 0 0 127 0" result="hardAlpha"/>
<feOffset dy="2.78016"/>
<feGaussianBlur stdDeviation="2.78016"/>
<feComposite in2="hardAlpha" operator="out"/>
<feColorMatrix type="matrix" values="0 0 0 0 0.998568 0 0 0 0 0.308622 0 0 0 0 0.227452 0 0 0 0.04 0"/>
<feBlend mode="normal" in2="BackgroundImageFix" result="effect1_dropShadow_0_4700"/>
<feBlend mode="normal" in="SourceGraphic" in2="effect1_dropShadow_0_4700" result="shape"/>
</filter>
<linearGradient id="paint0_linear_0_4700" x1="25" y1="-3.72341" x2="47.0672" y2="44.0654" gradientUnits="userSpaceOnUse">
<stop stop-color="#FB7A6B"/>
<stop offset="1" stop-color="#FA5946"/>
</linearGradient>
<clipPath id="clip0_0_4700">
<rect width="31" height="31" fill="white" transform="translate(7.46295 6.88867)"/>
</clipPath>
</defs>
</svg>
